<?xml version="1.0" standalone="no"?>
<!DOCTYPE svg PUBLIC "-//W3C//DTD SVG 1.1//EN" "http://www.w3.org/Graphics/SVG/1.1/DTD/svg11.dtd" >
<svg xmlns="http://www.w3.org/2000/svg" xmlns:xlink="http://www.w3.org/1999/xlink" version="1.1">
<metadata>
Created by FontForge 20160407 at Mon May  9 10:35:46 2016
 By Jimmy Wärting
Copyright (c) 2013 by Mariya Pigoulevskaya. All rights reserved.
</metadata>
<defs>
<font id="Acrom-Thin" horiz-adv-x="653" >
  <font-face 
    font-family="Acrom Thin"
    font-weight="250"
    font-stretch="normal"
    units-per-em="1000"
    panose-1="0 0 3 0 0 0 0 0 0 0"
    ascent="750"
    descent="-250"
    x-height="500"
    cap-height="700"
    bbox="0 -337 1244 911"
    underline-thickness="50"
    underline-position="-100"
    stemh="16"
    stemv="18"
    unicode-range="U+0020-25CA"
  />
<missing-glyph horiz-adv-x="500" 
d="M0 0v700h500v-700h-500zM250 395l170 255h-340zM280 350l170 -255v510zM80 50h340l-170 255zM50 605v-510l170 255z" />
    <glyph glyph-name=".notdef" horiz-adv-x="500" 
d="M0 0v700h500v-700h-500zM250 395l170 255h-340zM280 350l170 -255v510zM80 50h340l-170 255zM50 605v-510l170 255z" />
    <glyph glyph-name="A" unicode="A" horiz-adv-x="692" 
d="M171 244l-102 -244h-19l293 700h6l293 -700h-19l-102 244h-350zM346 662l-168 -402h337z" />
    <glyph glyph-name="Aacute" unicode="&#xc1;" horiz-adv-x="692" 
d="M342 750h-21l60 87h40zM642 0h-19l-102 244h-350l-102 -244h-19l293 700h6zM178 260h337l-169 402z" />
    <glyph glyph-name="Abreve" unicode="&#x102;" horiz-adv-x="692" 
d="M458 858h17c0 -61 -57 -108 -129 -108c-73 0 -129 47 -129 108h17c0 -52 49 -90 112 -90s112 38 112 90zM642 0h-19l-102 244h-350l-102 -244h-19l293 700h6zM178 260h337l-169 402z" />
    <glyph glyph-name="Acaron" unicode="&#x1cd;" horiz-adv-x="692" 
d="M350 750h-9l-123 94h29l99 -76l98 76h29zM642 0h-19l-102 244h-350l-102 -244h-19l293 700h6zM178 260h337l-169 402z" />
    <glyph glyph-name="Acircumflex" unicode="&#xc2;" horiz-adv-x="692" 
d="M473 750h-29l-98 76l-99 -76h-29l123 94h9zM642 0h-19l-102 244h-350l-102 -244h-19l293 700h6zM178 260h337l-169 402z" />
    <glyph glyph-name="Adieresis" unicode="&#xc4;" horiz-adv-x="692" 
d="M247 750c-8 0 -15 7 -15 15c0 9 7 16 15 16c9 0 16 -7 16 -16c0 -8 -7 -15 -16 -15zM447 750c-8 0 -15 7 -15 15c0 9 7 16 15 16c9 0 16 -7 16 -16c0 -8 -7 -15 -16 -15zM171 244l-102 -244h-19l293 700h6l293 -700h-19l-102 244h-350zM346 662l-168 -402h337z" />
    <glyph glyph-name="Agrave" unicode="&#xc0;" horiz-adv-x="692" 
d="M371 750h-21l-79 87h40zM642 0h-19l-102 244h-350l-102 -244h-19l293 700h6zM178 260h337l-169 402z" />
    <glyph glyph-name="Amacron" unicode="&#x100;" horiz-adv-x="692" 
d="M468 750h-246v17h246v-17zM171 244l-102 -244h-19l293 700h6l293 -700h-19l-102 244h-350zM346 662l-168 -402h337z" />
    <glyph glyph-name="Aogonek" unicode="&#x104;" horiz-adv-x="692" 
d="M562 -82c0 -46 39 -66 75 -66h2v-17h-2c-46 0 -94 26 -94 83c0 40 30 68 79 82h1l-102 244h-350l-102 -244h-19l293 700h6l293 -700c-59 -19 -80 -50 -80 -82zM515 260l-169 402l-168 -402h337z" />
    <glyph glyph-name="Aring" unicode="&#xc5;" horiz-adv-x="692" 
d="M345 892c39 0 71 -33 71 -70c0 -40 -32 -72 -71 -72c-40 0 -70 32 -70 72c0 37 30 70 70 70zM345 874c-31 0 -50 -25 -50 -52c0 -29 19 -54 50 -54s52 25 52 54c0 27 -21 52 -52 52zM171 244l-102 -244h-19l293 700h6l293 -700h-19l-102 244h-350zM346 662l-168 -402h337
z" />
    <glyph glyph-name="Atilde" unicode="&#xc3;" horiz-adv-x="692" 
d="M482 840l-10 -34c-13 -40 -31 -63 -63 -63c-22 0 -36 11 -48 24l-38 43c-10 10 -20 17 -35 17c-25 0 -36 -17 -46 -50l-7 -27h-20l10 33c13 41 31 63 63 63c22 0 36 -10 48 -24l38 -43c10 -10 20 -16 35 -16c25 0 36 16 46 50l7 27h20zM171 244l-102 -244h-19l293 700h6
l293 -700h-19l-102 244h-350zM346 662l-168 -402h337z" />
    <glyph glyph-name="AE" unicode="&#xc6;" horiz-adv-x="822" 
d="M360 364h384v-16h-384v-332h402v-16h-420v244h-171l-102 -244h-19l293 700h419v-16h-402v-320zM343 654l-165 -394h165v394z" />
    <glyph glyph-name="B" unicode="B" horiz-adv-x="692" 
d="M120 700h238c189 0 227 -81 227 -173c0 -68 -28 -131 -120 -158c112 -18 167 -86 167 -182c0 -113 -64 -187 -228 -187h-284v700zM138 684v-311h220c168 0 209 71 209 155c0 83 -28 156 -209 156h-220zM138 357v-341h265c157 0 211 64 211 171c0 106 -67 170 -211 170
h-265z" />
    <glyph glyph-name="C" unicode="C" horiz-adv-x="761" 
d="M436 707c105 0 199 -45 264 -117l-12 -11c-62 69 -151 112 -252 112c-188 0 -338 -151 -338 -341c0 -191 150 -341 338 -341c101 0 190 42 252 112l12 -13c-65 -71 -159 -115 -264 -115c-197 0 -356 159 -356 357c0 197 159 357 356 357z" />
    <glyph glyph-name="Cacute" unicode="&#x106;" horiz-adv-x="761" 
d="M437 750h-21l60 87h40zM436 707c105 0 199 -45 264 -117l-12 -11c-62 69 -151 112 -252 112c-188 0 -338 -151 -338 -341c0 -191 150 -341 338 -341c101 0 190 42 252 112l12 -13c-65 -71 -159 -115 -264 -115c-197 0 -356 159 -356 357c0 197 159 357 356 357z" />
    <glyph glyph-name="Ccaron" unicode="&#x10c;" horiz-adv-x="761" 
d="M441 750h-9l-123 94h29l99 -76l98 76h29zM436 707c105 0 199 -45 264 -117l-12 -11c-62 69 -151 112 -252 112c-188 0 -338 -151 -338 -341c0 -191 150 -341 338 -341c101 0 190 42 252 112l12 -13c-65 -71 -159 -115 -264 -115c-197 0 -356 159 -356 357
c0 197 159 357 356 357z" />
    <glyph glyph-name="Ccedilla" unicode="&#xc7;" horiz-adv-x="761" 
d="M436 9c101 0 190 42 252 112l12 -13c-65 -71 -159 -115 -264 -115h-4l-9 -44c40 11 74 -12 74 -57c0 -49 -58 -74 -109 -41v20c41 -34 90 -16 90 21s-31 52 -79 33l15 69c-187 11 -334 166 -334 356c0 197 159 357 356 357c105 0 199 -45 264 -117l-12 -11
c-62 69 -151 112 -252 112c-188 0 -338 -151 -338 -341c0 -191 150 -341 338 -341z" />
    <glyph glyph-name="Cdotaccent" unicode="&#x10a;" horiz-adv-x="761" 
d="M436 781c9 0 16 -7 16 -16c0 -8 -7 -15 -16 -15c-8 0 -15 7 -15 15c0 9 7 16 15 16zM436 707c105 0 199 -45 264 -117l-12 -11c-62 69 -151 112 -252 112c-188 0 -338 -151 -338 -341c0 -191 150 -341 338 -341c101 0 190 42 252 112l12 -13c-65 -71 -159 -115 -264 -115
c-197 0 -356 159 -356 357c0 197 159 357 356 357z" />
    <glyph glyph-name="D" unicode="D" horiz-adv-x="754" 
d="M120 700h197c197 0 356 -137 356 -350s-159 -350 -356 -350h-197v700zM138 16h179c188 0 338 128 338 334s-150 334 -338 334h-179v-668z" />
    <glyph glyph-name="Eth" unicode="&#xd0;" horiz-adv-x="840" 
d="M206 700h197c197 0 356 -137 356 -350s-159 -350 -356 -350h-197v343h-86v17h86v340zM224 16h179c188 0 338 128 338 334s-150 334 -338 334h-179v-324h144v-17h-144v-327z" />
    <glyph glyph-name="Dcaron" unicode="&#x10e;" horiz-adv-x="754" 
d="M352 750h-9l-123 94h29l99 -76l98 76h29zM120 700h197c197 0 356 -137 356 -350s-159 -350 -356 -350h-197v700zM138 684v-668h179c188 0 338 128 338 334s-150 334 -338 334h-179z" />
    <glyph glyph-name="Dcroat" unicode="&#x110;" horiz-adv-x="840" 
d="M206 700h197c197 0 356 -137 356 -350s-159 -350 -356 -350h-197v343h-86v17h86v340zM224 16h179c188 0 338 128 338 334s-150 334 -338 334h-179v-324h144v-17h-144v-327z" />
    <glyph glyph-name="E" unicode="E" horiz-adv-x="600" 
d="M138 364h384v-16h-384v-332h401v-16h-419v700h419v-16h-401v-320z" />
    <glyph glyph-name="Eacute" unicode="&#xc9;" horiz-adv-x="600" 
d="M318 750h-21l60 87h40zM539 684h-401v-320h384v-16h-384v-332h401v-16h-419v700h419v-16z" />
    <glyph glyph-name="Ecaron" unicode="&#x11a;" horiz-adv-x="600" 
d="M338 750h-9l-123 94h29l99 -76l98 76h29zM539 684h-401v-320h384v-16h-384v-332h401v-16h-419v700h419v-16z" />
    <glyph glyph-name="Ecircumflex" unicode="&#xca;" horiz-adv-x="600" 
d="M457 750h-29l-98 76l-99 -76h-29l123 94h9zM539 684h-401v-320h384v-16h-384v-332h401v-16h-419v700h419v-16z" />
    <glyph glyph-name="Edieresis" unicode="&#xcb;" horiz-adv-x="600" 
d="M225 781c9 0 16 -7 16 -15c0 -9 -7 -16 -16 -16c-8 0 -15 7 -15 16c0 8 7 15 15 15zM425 781c9 0 16 -7 16 -15c0 -9 -7 -16 -16 -16c-8 0 -15 7 -15 16c0 8 7 15 15 15zM539 684h-401v-320h384v-16h-384v-332h401v-16h-419v700h419v-16z" />
    <glyph glyph-name="Edotaccent" unicode="&#x116;" horiz-adv-x="600" 
d="M322 781c9 0 16 -7 16 -16c0 -8 -7 -15 -16 -15c-8 0 -15 7 -15 15c0 9 7 16 15 16zM539 684h-401v-320h384v-16h-384v-332h401v-16h-419v700h419v-16z" />
    <glyph glyph-name="Egrave" unicode="&#xc8;" horiz-adv-x="600" 
d="M359 750h-21l-79 87h40zM539 684h-401v-320h384v-16h-384v-332h401v-16h-419v700h419v-16z" />
    <glyph glyph-name="Emacron" unicode="&#x112;" horiz-adv-x="600" 
d="M447 750h-246v17h246v-17zM539 684h-401v-320h384v-16h-384v-332h401v-16h-419v700h419v-16z" />
    <glyph glyph-name="Eogonek" unicode="&#x118;" horiz-adv-x="600" 
d="M460 -82c0 -46 39 -66 75 -66h2v-17h-2c-46 0 -94 26 -94 83c0 40 30 68 79 82h-400v700h419v-16h-401v-320h384v-16h-384v-332h401v-16h1c-59 -19 -80 -50 -80 -82z" />
    <glyph glyph-name="F" unicode="F" horiz-adv-x="600" 
d="M138 364h384v-16h-384v-348h-18v700h419v-16h-401v-320z" />
    <glyph glyph-name="G" unicode="G" horiz-adv-x="811" 
d="M436 707c105 0 199 -45 264 -117l-12 -11c-62 69 -151 112 -252 112c-188 0 -338 -151 -338 -341c0 -191 150 -341 338 -341c97 0 184 39 246 105v217h-256v16h274v-239c-65 -71 -159 -115 -264 -115c-197 0 -356 159 -356 357c0 197 159 357 356 357z" />
    <glyph glyph-name="Gbreve" unicode="&#x11e;" horiz-adv-x="811" 
d="M548 858h17c0 -61 -57 -108 -129 -108c-73 0 -129 47 -129 108h17c0 -52 49 -90 112 -90s112 38 112 90zM436 707c105 0 199 -45 264 -117l-12 -11c-62 69 -151 112 -252 112c-188 0 -338 -151 -338 -341c0 -191 150 -341 338 -341c97 0 184 39 246 105v217h-256v16h274
v-239c-65 -71 -159 -115 -264 -115c-197 0 -356 159 -356 357c0 197 159 357 356 357z" />
    <glyph glyph-name="Gcommaaccent" unicode="&#x122;" horiz-adv-x="811" 
d="M436 707c105 0 199 -45 264 -117l-12 -11c-62 69 -151 112 -252 112c-188 0 -338 -151 -338 -341c0 -191 150 -341 338 -341c97 0 184 39 246 105v217h-256v16h274v-239c-65 -71 -159 -115 -264 -115c-197 0 -356 159 -356 357c0 197 159 357 356 357zM399 -156h-21
l60 87h40z" />
    <glyph glyph-name="Gdotaccent" unicode="&#x120;" horiz-adv-x="811" 
d="M436 781c9 0 16 -7 16 -16c0 -8 -7 -15 -16 -15c-8 0 -15 7 -15 15c0 9 7 16 15 16zM436 707c105 0 199 -45 264 -117l-12 -11c-62 69 -151 112 -252 112c-188 0 -338 -151 -338 -341c0 -191 150 -341 338 -341c97 0 184 39 246 105v217h-256v16h274v-239
c-65 -71 -159 -115 -264 -115c-197 0 -356 159 -356 357c0 197 159 357 356 357z" />
    <glyph glyph-name="H" unicode="H" horiz-adv-x="751" 
d="M630 0h-18v349h-474v-349h-18v700h18v-335h474v335h18v-700z" />
    <glyph glyph-name="Hbar" unicode="&#x126;" horiz-adv-x="952" 
d="M831 500h-100v-500h-18v349h-474v-349h-18v500h-101v17h101v183h18v-183h474v183h18v-183h100v-17zM713 500h-474v-135h474v135z" />
    <glyph glyph-name="I" unicode="I" horiz-adv-x="419" 
d="M218 16h80v-16h-178v16h80v668h-80v16h178v-16h-80v-668z" />
    <glyph glyph-name="IJ" unicode="&#x132;" horiz-adv-x="832" 
d="M298 684h-80v-668h80v-16h-178v16h80v668h-80v16h178v-16zM752 700v-480c0 -127 -67 -227 -213 -227c-145 0 -212 100 -212 227v18h18v-17c0 -121 58 -212 194 -212c137 0 195 91 195 212v463h-273v16h291z" />
    <glyph glyph-name="Iacute" unicode="&#xcd;" horiz-adv-x="419" 
d="M201 750h-21l60 87h40zM298 684h-80v-668h80v-16h-178v16h80v668h-80v16h178v-16z" />
    <glyph glyph-name="Icaron" unicode="&#x1cf;" horiz-adv-x="495" 
d="M252 750h-9l-123 94h29l99 -76l98 76h29zM336 684h-80v-668h80v-16h-178v16h80v668h-80v16h178v-16z" />
    <glyph glyph-name="Icircumflex" unicode="&#xce;" horiz-adv-x="495" 
d="M375 750h-29l-98 76l-99 -76h-29l123 94h9zM336 684h-80v-668h80v-16h-178v16h80v668h-80v16h178v-16z" />
    <glyph glyph-name="Idieresis" unicode="&#xcf;" horiz-adv-x="471" 
d="M135 781c9 0 16 -7 16 -16c0 -8 -7 -15 -16 -15c-8 0 -15 7 -15 15c0 9 7 16 15 16zM335 781c9 0 16 -7 16 -16c0 -8 -7 -15 -16 -15c-8 0 -15 7 -15 15c0 9 7 16 15 16zM324 684h-80v-668h80v-16h-178v16h80v668h-80v16h178v-16z" />
    <glyph glyph-name="Idotaccent" unicode="&#x130;" horiz-adv-x="419" 
d="M210 750c-8 0 -15 7 -15 15c0 9 7 16 15 16c9 0 16 -7 16 -16c0 -8 -7 -15 -16 -15zM218 16h80v-16h-178v16h80v668h-80v16h178v-16h-80v-668z" />
    <glyph glyph-name="Igrave" unicode="&#xcc;" horiz-adv-x="419" 
d="M181 837l60 -87h-21l-79 87h40zM218 16h80v-16h-178v16h80v668h-80v16h178v-16h-80v-668z" />
    <glyph glyph-name="Imacron" unicode="&#x12a;" horiz-adv-x="485" 
d="M366 750h-246v17h246v-17zM253 16h80v-16h-178v16h80v668h-80v16h178v-16h-80v-668z" />
    <glyph glyph-name="Iogonek" unicode="&#x12e;" horiz-adv-x="419" 
d="M219 -82c0 -46 39 -66 75 -66h2v-17h-2c-46 0 -94 26 -94 83c0 40 30 68 79 82h-159v16h80v668h-80v16h178v-16h-80v-668h80v-16h1c-59 -19 -80 -50 -80 -82z" />
    <glyph glyph-name="J" unicode="J" horiz-adv-x="586" 
d="M505 700v-480c0 -127 -67 -227 -213 -227c-145 0 -212 100 -212 227v18h18v-17c0 -121 58 -212 194 -212c137 0 195 91 195 212v463h-273v16h291z" />
    <glyph glyph-name="K" unicode="K" horiz-adv-x="691" 
d="M619 0l-141 218c-62 97 -81 131 -177 131h-163v-349h-18v700h18v-335h145c96 0 115 34 178 131l132 204h22l-142 -216c-43 -66 -67 -106 -107 -124c52 -14 76 -55 124 -130l151 -230h-22z" />
    <glyph glyph-name="Kcommaaccent" unicode="&#x136;" horiz-adv-x="691" 
d="M615 700l-142 -216c-43 -66 -67 -106 -107 -124c52 -14 76 -55 124 -130l151 -230h-22l-141 218c-62 97 -81 131 -177 131h-163v-349h-18v700h18v-335h145c96 0 115 34 178 131l132 204h22zM304 -156h-21l60 87h40z" />
    <glyph glyph-name="L" unicode="L" horiz-adv-x="590" 
d="M540 0h-420v700h18v-684h402v-16z" />
    <glyph glyph-name="Lacute" unicode="&#x139;" horiz-adv-x="590" 
d="M331 750h-21l60 87h40zM540 0h-420v700h18v-684h402v-16z" />
    <glyph glyph-name="Lcaron" unicode="&#x13d;" horiz-adv-x="590" 
d="M540 0h-420v700h18v-684h402v-16zM461 613h-21l60 87h40z" />
    <glyph glyph-name="Lcommaaccent" unicode="&#x13b;" horiz-adv-x="590" 
d="M540 0h-420v700h18v-684h402v-16zM281 -156h-21l60 87h40z" />
    <glyph glyph-name="Ldot" unicode="&#x13f;" horiz-adv-x="590" 
d="M540 0h-420v700h18v-684h402v-16zM520 276c-11 0 -20 9 -20 20s9 20 20 20s20 -9 20 -20s-9 -20 -20 -20z" />
    <glyph glyph-name="Lslash" unicode="&#x141;" horiz-adv-x="648" 
d="M598 16v-16h-420v446l-58 -26v21l58 26v233h18v-226l58 26v-21l-58 -26v-437h402z" />
    <glyph glyph-name="M" unicode="M" horiz-adv-x="889" 
d="M769 0h-18v653l-312 -402l-311 402v-653h-18v700h6l323 -418l324 418h6v-700z" />
    <glyph glyph-name="N" unicode="N" horiz-adv-x="731" 
d="M620 0h-6l-486 653v-653h-18v700h6l486 -653v653h18v-700z" />
    <glyph glyph-name="Nacute" unicode="&#x143;" horiz-adv-x="731" 
d="M361 750h-21l60 87h40zM620 0h-6l-486 653v-653h-18v700h6l486 -653v653h18v-700z" />
    <glyph glyph-name="Ncaron" unicode="&#x147;" horiz-adv-x="731" 
d="M354 768l98 76h29l-123 -94h-9l-123 94h29zM620 0h-6l-486 653v-653h-18v700h6l486 -653v653h18v-700z" />
    <glyph glyph-name="Ncommaaccent" unicode="&#x145;" horiz-adv-x="731" 
d="M620 0h-6l-486 653v-653h-18v700h6l486 -653v653h18v-700zM316 -156h-21l60 87h40z" />
    <glyph glyph-name="Eng" unicode="&#x14a;" horiz-adv-x="731" 
d="M620 700v-714c0 -134 -94 -181 -179 -176l-12 1l1 15h10c75 0 162 35 162 160v31l-474 636v-653h-18v700h6l486 -653v653h18z" />
    <glyph glyph-name="Ntilde" unicode="&#xd1;" horiz-adv-x="731" 
d="M303 846c22 0 36 -10 48 -24l38 -43c10 -10 20 -16 35 -16c25 0 36 16 46 50l7 27h20l-10 -34c-13 -40 -31 -63 -63 -63c-22 0 -36 11 -48 24l-38 43c-10 10 -20 17 -35 17c-25 0 -36 -17 -46 -50l-7 -27h-20l10 33c13 41 31 63 63 63zM620 0h-6l-486 653v-653h-18v700h6
l486 -653v653h18v-700z" />
    <glyph glyph-name="O" unicode="O" horiz-adv-x="874" 
d="M436 707c197 0 357 -160 357 -357c0 -198 -160 -357 -357 -357s-356 159 -356 357c0 197 159 357 356 357zM436 691c-188 0 -338 -151 -338 -341c0 -191 150 -341 338 -341s339 150 339 341c0 190 -151 341 -339 341z" />
    <glyph glyph-name="Oacute" unicode="&#xd3;" horiz-adv-x="874" 
d="M436 750h-21l60 87h40zM436 707c197 0 357 -160 357 -357c0 -198 -160 -357 -357 -357s-356 159 -356 357c0 197 159 357 356 357zM436 691c-188 0 -338 -151 -338 -341c0 -191 150 -341 338 -341s339 150 339 341c0 190 -151 341 -339 341z" />
    <glyph glyph-name="Ocaron" unicode="&#x1d1;" horiz-adv-x="874" 
d="M441 750h-9l-123 94h29l99 -76l98 76h29zM436 707c197 0 357 -160 357 -357c0 -198 -160 -357 -357 -357s-356 159 -356 357c0 197 159 357 356 357zM436 691c-188 0 -338 -151 -338 -341c0 -191 150 -341 338 -341s339 150 339 341c0 190 -151 341 -339 341z" />
    <glyph glyph-name="Ocircumflex" unicode="&#xd4;" horiz-adv-x="874" 
d="M564 750h-29l-98 76l-99 -76h-29l123 94h9zM436 707c197 0 357 -160 357 -357c0 -198 -160 -357 -357 -357s-356 159 -356 357c0 197 159 357 356 357zM436 691c-188 0 -338 -151 -338 -341c0 -191 150 -341 338 -341s339 150 339 341c0 190 -151 341 -339 341z" />
    <glyph glyph-name="Odieresis" unicode="&#xd6;" horiz-adv-x="874" 
d="M337 750c-8 0 -15 7 -15 15c0 9 7 16 15 16c9 0 16 -7 16 -16c0 -8 -7 -15 -16 -15zM537 750c-8 0 -15 7 -15 15c0 9 7 16 15 16c9 0 16 -7 16 -16c0 -8 -7 -15 -16 -15zM436 707c197 0 357 -160 357 -357c0 -198 -160 -357 -357 -357s-356 159 -356 357
c0 197 159 357 356 357zM436 691c-188 0 -338 -151 -338 -341c0 -191 150 -341 338 -341s339 150 339 341c0 190 -151 341 -339 341z" />
    <glyph glyph-name="Ograve" unicode="&#xd2;" horiz-adv-x="874" 
d="M397 837l60 -87h-21l-79 87h40zM436 707c197 0 357 -160 357 -357c0 -198 -160 -357 -357 -357s-356 159 -356 357c0 197 159 357 356 357zM436 691c-188 0 -338 -151 -338 -341c0 -191 150 -341 338 -341s339 150 339 341c0 190 -151 341 -339 341z" />
    <glyph glyph-name="Ohungarumlaut" unicode="&#x150;" horiz-adv-x="874" 
d="M393 750h-21l60 87h40zM494 750h-21l60 87h40zM436 707c197 0 357 -160 357 -357c0 -198 -160 -357 -357 -357s-356 159 -356 357c0 197 159 357 356 357zM436 691c-188 0 -338 -151 -338 -341c0 -191 150 -341 338 -341s339 150 339 341c0 190 -151 341 -339 341z" />
    <glyph glyph-name="Omacron" unicode="&#x14c;" horiz-adv-x="874" 
d="M561 750h-246v17h246v-17zM436 707c197 0 357 -160 357 -357c0 -198 -160 -357 -357 -357s-356 159 -356 357c0 197 159 357 356 357zM436 691c-188 0 -338 -151 -338 -341c0 -191 150 -341 338 -341s339 150 339 341c0 190 -151 341 -339 341z" />
    <glyph glyph-name="Oslash" unicode="&#xd8;" horiz-adv-x="874" 
d="M793 700l-100 -102c62 -64 100 -152 100 -248c0 -198 -160 -357 -357 -357c-94 0 -180 36 -243 96l-88 -89h-25l100 102c-62 64 -100 151 -100 248c0 197 159 357 356 357c94 0 180 -37 244 -97l88 90h25zM98 350c0 -93 35 -176 93 -237l478 486c-61 57 -143 92 -233 92
c-188 0 -338 -151 -338 -341zM775 350c0 92 -36 175 -94 236l-477 -485c60 -57 142 -92 232 -92c188 0 339 150 339 341z" />
    <glyph glyph-name="Otilde" unicode="&#xd5;" horiz-adv-x="874" 
d="M568 840l-10 -34c-13 -40 -31 -63 -63 -63c-22 0 -36 11 -48 24l-38 43c-10 10 -20 17 -35 17c-25 0 -36 -17 -46 -50l-7 -27h-20l10 33c13 41 31 63 63 63c22 0 36 -10 48 -24l38 -43c10 -10 20 -16 35 -16c25 0 36 16 46 50l7 27h20zM436 707c197 0 357 -160 357 -357
c0 -198 -160 -357 -357 -357s-356 159 -356 357c0 197 159 357 356 357zM436 691c-188 0 -338 -151 -338 -341c0 -191 150 -341 338 -341s339 150 339 341c0 190 -151 341 -339 341z" />
    <glyph glyph-name="OE" unicode="&#x152;" horiz-adv-x="1255" 
d="M793 364h384v-16h-384v-332h401v-16h-419v234c-49 -141 -182 -241 -339 -241c-197 0 -356 159 -356 357c0 197 159 357 356 357c157 0 290 -101 339 -241v234h419v-16h-401v-320zM436 9c188 0 339 150 339 341c0 190 -151 341 -339 341s-338 -151 -338 -341
c0 -191 150 -341 338 -341z" />
    <glyph glyph-name="P" unicode="P" horiz-adv-x="713" 
d="M120 700h211c161 0 301 -75 301 -245c0 -169 -140 -244 -301 -244h-193v-211h-18v700zM138 227h193c152 0 283 66 283 228c0 163 -131 229 -283 229h-193v-457z" />
    <glyph glyph-name="Thorn" unicode="&#xde;" horiz-adv-x="713" 
d="M138 605h193c161 0 301 -75 301 -244c0 -170 -140 -245 -301 -245h-193v-116h-18v700h18v-95zM138 132h193c152 0 283 67 283 229s-131 228 -283 228h-193v-457z" />
    <glyph glyph-name="Q" unicode="Q" horiz-adv-x="873" 
d="M436 707c197 0 357 -160 357 -357c0 -160 -104 -294 -247 -341h246v-16h-356c-197 0 -356 159 -356 357c0 197 159 357 356 357zM436 691c-188 0 -338 -151 -338 -341c0 -191 150 -341 338 -341s339 150 339 341c0 190 -151 341 -339 341z" />
    <glyph glyph-name="R" unicode="R" horiz-adv-x="682" 
d="M120 700h211c161 0 301 -75 301 -240c0 -130 -88 -205 -206 -230c45 -13 84 -43 126 -108l80 -122h-22l-70 109c-63 98 -112 112 -193 112h-209v-221h-18v700zM138 684v-447h193c152 0 283 66 283 223c0 158 -131 224 -283 224h-193z" />
    <glyph glyph-name="Racute" unicode="&#x154;" horiz-adv-x="682" 
d="M331 750h-21l60 87h40zM120 700h211c161 0 301 -75 301 -240c0 -130 -88 -205 -206 -230c45 -13 84 -43 126 -108l80 -122h-22l-70 109c-63 98 -112 112 -193 112h-209v-221h-18v700zM138 684v-447h193c152 0 283 66 283 223c0 158 -131 224 -283 224h-193z" />
    <glyph glyph-name="Rcaron" unicode="&#x158;" horiz-adv-x="682" 
d="M358 750h-9l-123 94h29l99 -76l98 76h29zM120 700h211c161 0 301 -75 301 -240c0 -130 -88 -205 -206 -230c45 -13 84 -43 126 -108l80 -122h-22l-70 109c-63 98 -112 112 -193 112h-209v-221h-18v700zM138 684v-447h193c152 0 283 66 283 223c0 158 -131 224 -283 224
h-193z" />
    <glyph glyph-name="Rcommaaccent" unicode="&#x156;" horiz-adv-x="682" 
d="M120 700h211c161 0 301 -75 301 -240c0 -130 -88 -205 -206 -230c45 -13 84 -43 126 -108l80 -122h-22l-70 109c-63 98 -112 112 -193 112h-209v-221h-18v700zM138 684v-447h193c152 0 283 66 283 223c0 158 -131 224 -283 224h-193zM293 -156h-21l60 87h40z" />
    <glyph glyph-name="S" unicode="S" horiz-adv-x="637" 
d="M302 707h13c100 0 190 -40 235 -117l-12 -11c-44 73 -127 112 -223 112h-13c-104 0 -205 -61 -205 -165c0 -77 43 -122 183 -141l95 -13c139 -18 201 -74 201 -184c0 -119 -117 -195 -243 -195h-5c-139 0 -235 62 -268 164l12 10c33 -99 121 -158 256 -158h5
c117 0 225 67 225 179c0 99 -54 150 -182 167l-96 13c-148 21 -201 71 -201 158c0 111 111 181 223 181z" />
    <glyph glyph-name="Sacute" unicode="&#x15a;" horiz-adv-x="637" 
d="M302 750h-21l60 87h40zM302 707h13c100 0 190 -40 235 -117l-12 -11c-44 73 -127 112 -223 112h-13c-104 0 -205 -61 -205 -165c0 -77 43 -122 183 -141l95 -13c139 -18 201 -74 201 -184c0 -119 -117 -195 -243 -195h-5c-139 0 -235 62 -268 164l12 10
c33 -99 121 -158 256 -158h5c117 0 225 67 225 179c0 99 -54 150 -182 167l-96 13c-148 21 -201 71 -201 158c0 111 111 181 223 181z" />
    <glyph glyph-name="Scaron" unicode="&#x160;" horiz-adv-x="637" 
d="M313 750h-9l-123 94h29l99 -76l98 76h29zM302 707h13c100 0 190 -40 235 -117l-12 -11c-44 73 -127 112 -223 112h-13c-104 0 -205 -61 -205 -165c0 -77 43 -122 183 -141l95 -13c139 -18 201 -74 201 -184c0 -119 -117 -195 -243 -195h-5c-139 0 -235 62 -268 164l12 10
c33 -99 121 -158 256 -158h5c117 0 225 67 225 179c0 99 -54 150 -182 167l-96 13c-148 21 -201 71 -201 158c0 111 111 181 223 181z" />
    <glyph glyph-name="Scedilla" unicode="&#x15e;" horiz-adv-x="637" 
d="M327 -7l-9 -44c40 11 74 -12 74 -57c0 -49 -58 -74 -109 -41v20c41 -34 90 -16 90 21s-31 52 -79 33l15 68c-129 6 -218 67 -249 164l12 10c33 -99 121 -158 256 -158h5c117 0 225 67 225 179c0 99 -54 150 -182 167l-96 13c-148 21 -201 71 -201 158
c0 111 111 181 223 181h13c100 0 190 -40 235 -117l-12 -11c-44 73 -127 112 -223 112h-13c-104 0 -205 -61 -205 -165c0 -77 43 -122 183 -141l95 -13c139 -18 201 -74 201 -184c0 -119 -117 -195 -243 -195h-6z" />
    <glyph glyph-name="Scommaaccent" unicode="&#x218;" horiz-adv-x="637" 
d="M302 707h13c100 0 190 -40 235 -117l-12 -11c-44 73 -127 112 -223 112h-13c-104 0 -205 -61 -205 -165c0 -77 43 -122 183 -141l95 -13c139 -18 201 -74 201 -184c0 -119 -117 -195 -243 -195h-5c-139 0 -235 62 -268 164l12 10c33 -99 121 -158 256 -158h5
c117 0 225 67 225 179c0 99 -54 150 -182 167l-96 13c-148 21 -201 71 -201 158c0 111 111 181 223 181zM290 -156h-21l60 87h40z" />
    <glyph glyph-name="T" unicode="T" horiz-adv-x="601" 
d="M309 684v-684h-18v684h-241v16h500v-16h-241z" />
    <glyph glyph-name="Tbar" unicode="&#x166;" horiz-adv-x="601" 
d="M309 684v-302h114v-17h-114v-365h-18v365h-114v17h114v302h-241v16h500v-16h-241z" />
    <glyph glyph-name="Tcaron" unicode="&#x164;" horiz-adv-x="601" 
d="M305 750h-9l-123 94h29l99 -76l98 76h29zM309 684v-684h-18v684h-241v16h500v-16h-241z" />
    <glyph glyph-name="Tcedilla" unicode="&#x162;" horiz-adv-x="601" 
d="M309 684v-684h1l-11 -51c40 11 74 -12 74 -57c0 -49 -58 -74 -109 -41v20c41 -34 90 -16 90 21s-31 52 -79 33l16 75v684h-241v16h500v-16h-241z" />
    <glyph glyph-name="uni021A" unicode="&#x21a;" horiz-adv-x="601" 
d="M309 684v-684h-18v684h-241v16h500v-16h-241zM273 -156h-21l60 87h40z" />
    <glyph glyph-name="U" unicode="U" horiz-adv-x="804" 
d="M693 700v-391c0 -181 -99 -316 -287 -316s-286 135 -286 316v391h18v-391c0 -175 89 -300 268 -300s269 125 269 300v391h18z" />
    <glyph glyph-name="Uacute" unicode="&#xda;" horiz-adv-x="804" 
d="M406 750h-21l60 87h40zM693 700v-391c0 -181 -99 -316 -287 -316s-286 135 -286 316v391h18v-391c0 -175 89 -300 268 -300s269 125 269 300v391h18z" />
    <glyph glyph-name="Ucaron" unicode="&#x1d3;" horiz-adv-x="804" 
d="M411 750h-9l-123 94h29l99 -76l98 76h29zM693 700v-391c0 -181 -99 -316 -287 -316s-286 135 -286 316v391h18v-391c0 -175 89 -300 268 -300s269 125 269 300v391h18z" />
    <glyph glyph-name="Ucircumflex" unicode="&#xdb;" horiz-adv-x="804" 
d="M505 750l-98 76l-99 -76h-29l123 94h9l123 -94h-29zM693 700v-391c0 -181 -99 -316 -287 -316s-286 135 -286 316v391h18v-391c0 -175 89 -300 268 -300s269 125 269 300v391h18z" />
    <glyph glyph-name="Udieresis" unicode="&#xdc;" horiz-adv-x="804" 
d="M308 750c-8 0 -15 7 -15 15c0 9 7 16 15 16c9 0 16 -7 16 -16c0 -8 -7 -15 -16 -15zM508 750c-8 0 -15 7 -15 15c0 9 7 16 15 16c9 0 16 -7 16 -16c0 -8 -7 -15 -16 -15zM693 700v-391c0 -181 -99 -316 -287 -316s-286 135 -286 316v391h18v-391c0 -175 89 -300 268 -300
s269 125 269 300v391h18z" />
    <glyph glyph-name="Udieresisacute" unicode="&#x1d7;" horiz-adv-x="804" 
d="M408 818h-21l60 87h40zM308 750c-8 0 -15 7 -15 15c0 9 7 16 15 16c9 0 16 -7 16 -16c0 -8 -7 -15 -16 -15zM508 750c-8 0 -15 7 -15 15c0 9 7 16 15 16c9 0 16 -7 16 -16c0 -8 -7 -15 -16 -15zM693 700v-391c0 -181 -99 -316 -287 -316s-286 135 -286 316v391h18v-391
c0 -175 89 -300 268 -300s269 125 269 300v391h18z" />
    <glyph glyph-name="Udieresiscaron" unicode="&#x1d9;" horiz-adv-x="804" 
d="M407 836l98 75h29l-123 -94h-9l-123 94h29zM308 781c9 0 16 -7 16 -16c0 -8 -7 -15 -16 -15c-8 0 -15 7 -15 15c0 9 7 16 15 16zM508 781c9 0 16 -7 16 -16c0 -8 -7 -15 -16 -15c-8 0 -15 7 -15 15c0 9 7 16 15 16zM693 700v-391c0 -181 -99 -316 -287 -316
s-286 135 -286 316v391h18v-391c0 -175 89 -300 268 -300s269 125 269 300v391h18z" />
    <glyph glyph-name="Udieresisgrave" unicode="&#x1db;" horiz-adv-x="804" 
d="M366 905l60 -88h-21l-79 88h40zM308 750c-8 0 -15 7 -15 15c0 9 7 16 15 16c9 0 16 -7 16 -16c0 -8 -7 -15 -16 -15zM508 750c-8 0 -15 7 -15 15c0 9 7 16 15 16c9 0 16 -7 16 -16c0 -8 -7 -15 -16 -15zM693 700v-391c0 -181 -99 -316 -287 -316s-286 135 -286 316v391
h18v-391c0 -175 89 -300 268 -300s269 125 269 300v391h18z" />
    <glyph glyph-name="Udieresismacron" unicode="&#x1d5;" horiz-adv-x="804" 
d="M530 817h-246v17h246v-17zM308 750c-8 0 -15 7 -15 15c0 9 7 16 15 16c9 0 16 -7 16 -16c0 -8 -7 -15 -16 -15zM508 750c-8 0 -15 7 -15 15c0 9 7 16 15 16c9 0 16 -7 16 -16c0 -8 -7 -15 -16 -15zM693 700v-391c0 -181 -99 -316 -287 -316s-286 135 -286 316v391h18
v-391c0 -175 89 -300 268 -300s269 125 269 300v391h18z" />
    <glyph glyph-name="Ugrave" unicode="&#xd9;" horiz-adv-x="804" 
d="M367 837l60 -87h-21l-79 87h40zM693 700v-391c0 -181 -99 -316 -287 -316s-286 135 -286 316v391h18v-391c0 -175 89 -300 268 -300s269 125 269 300v391h18z" />
    <glyph glyph-name="Uhungarumlaut" unicode="&#x170;" horiz-adv-x="804" 
d="M326 750h-21l60 87h40zM427 750h-21l60 87h40zM693 700v-391c0 -181 -99 -316 -287 -316s-286 135 -286 316v391h18v-391c0 -175 89 -300 268 -300s269 125 269 300v391h18z" />
    <glyph glyph-name="Umacron" unicode="&#x16a;" horiz-adv-x="804" 
d="M530 750h-246v17h246v-17zM693 700v-391c0 -181 -99 -316 -287 -316s-286 135 -286 316v391h18v-391c0 -175 89 -300 268 -300s269 125 269 300v391h18z" />
    <glyph glyph-name="Uogonek" unicode="&#x172;" horiz-adv-x="804" 
d="M693 700v-391c0 -162 -79 -287 -231 -312c-53 -19 -72 -48 -72 -79c0 -46 39 -66 75 -66h2v-17h-2c-46 0 -94 26 -94 83c0 35 23 61 61 76c-8 -1 -17 -1 -26 -1c-188 0 -286 135 -286 316v391h18v-391c0 -175 89 -300 268 -300s269 125 269 300v391h18z" />
    <glyph glyph-name="Uring" unicode="&#x16e;" horiz-adv-x="804" 
d="M406 892c39 0 71 -33 71 -70c0 -40 -32 -72 -71 -72c-40 0 -70 32 -70 72c0 37 30 70 70 70zM406 874c-31 0 -50 -25 -50 -52c0 -29 19 -54 50 -54s52 25 52 54c0 27 -21 52 -52 52zM693 700v-391c0 -181 -99 -316 -287 -316s-286 135 -286 316v391h18v-391
c0 -175 89 -300 268 -300s269 125 269 300v391h18z" />
    <glyph glyph-name="V" unicode="V" horiz-adv-x="702" 
d="M354 0h-6l-298 700h19l282 -662l282 662h19z" />
    <glyph glyph-name="W" unicode="W" horiz-adv-x="1202" 
d="M879 0h-6l-272 661l-272 -661h-6l-273 700h19l257 -661l272 661h6l272 -661l257 661h19z" />
    <glyph glyph-name="Wacute" unicode="&#x1e82;" horiz-adv-x="1202" 
d="M601 750h-21l60 87h40zM879 0h-6l-272 661l-272 -661h-6l-273 700h19l257 -661l272 661h6l272 -661l257 661h19z" />
    <glyph glyph-name="Wcircumflex" unicode="&#x174;" horiz-adv-x="1202" 
d="M699 750l-98 76l-99 -76h-29l123 94h9l123 -94h-29zM879 0h-6l-272 661l-272 -661h-6l-273 700h19l257 -661l272 661h6l272 -661l257 661h19z" />
    <glyph glyph-name="Wdieresis" unicode="&#x1e84;" horiz-adv-x="1202" 
d="M500 750c-8 0 -15 7 -15 15c0 9 7 16 15 16c9 0 16 -7 16 -16c0 -8 -7 -15 -16 -15zM699 750c-8 0 -15 7 -15 15c0 9 7 16 15 16c9 0 16 -7 16 -16c0 -8 -7 -15 -16 -15zM879 0h-6l-272 661l-272 -661h-6l-273 700h19l257 -661l272 661h6l272 -661l257 661h19z" />
    <glyph glyph-name="Wgrave" unicode="&#x1e80;" horiz-adv-x="1202" 
d="M562 837l60 -87h-21l-79 87h40zM879 0h-6l-272 661l-272 -661h-6l-273 700h19l257 -661l272 661h6l272 -661l257 661h19z" />
    <glyph glyph-name="X" unicode="X" horiz-adv-x="650" 
d="M324 343l-251 -343h-23l263 358l-253 342h23l243 -329l241 329h23l-253 -344l263 -356h-23z" />
    <glyph glyph-name="Y" unicode="Y" horiz-adv-x="685" 
d="M351 0h-18v245l-283 455h21l272 -436l271 436h21l-284 -454v-246z" />
    <glyph glyph-name="Yacute" unicode="&#xdd;" horiz-adv-x="685" 
d="M343 750h-21l60 87h40zM351 0h-18v245l-283 455h21l272 -436l271 436h21l-284 -454v-246z" />
    <glyph glyph-name="Ycircumflex" unicode="&#x176;" horiz-adv-x="685" 
d="M441 750l-98 76l-99 -76h-29l123 94h9l123 -94h-29zM351 0h-18v245l-283 455h21l272 -436l271 436h21l-284 -454v-246z" />
    <glyph glyph-name="Ydieresis" unicode="&#x178;" horiz-adv-x="685" 
d="M243 750c-8 0 -15 7 -15 15c0 9 7 16 15 16c9 0 16 -7 16 -16c0 -8 -7 -15 -16 -15zM442 750c-8 0 -15 7 -15 15c0 9 7 16 15 16c9 0 16 -7 16 -16c0 -8 -7 -15 -16 -15zM351 0h-18v245l-283 455h21l272 -436l271 436h21l-284 -454v-246z" />
    <glyph glyph-name="Ygrave" unicode="&#x1ef2;" horiz-adv-x="685" 
d="M304 837l60 -87h-21l-79 87h40zM351 0h-18v245l-283 455h21l272 -436l271 436h21l-284 -454v-246z" />
    <glyph glyph-name="Z" unicode="Z" horiz-adv-x="630" 
d="M570 0h-510v4l473 680h-433v16h464v-4l-474 -680h480v-16z" />
    <glyph glyph-name="Zacute" unicode="&#x179;" horiz-adv-x="630" 
d="M295 750h-21l60 87h40zM570 0h-510v4l473 680h-433v16h464v-4l-474 -680h480v-16z" />
    <glyph glyph-name="Zcaron" unicode="&#x17d;" horiz-adv-x="630" 
d="M325 750h-9l-123 94h29l99 -76l98 76h29zM570 0h-510v4l473 680h-433v16h464v-4l-474 -680h480v-16z" />
    <glyph glyph-name="Zdotaccent" unicode="&#x17b;" horiz-adv-x="630" 
d="M311 750c-8 0 -15 7 -15 15c0 9 7 16 15 16c9 0 16 -7 16 -16c0 -8 -7 -15 -16 -15zM570 0h-510v4l473 680h-433v16h464v-4l-474 -680h480v-16z" />
    <glyph glyph-name="K.ss01" horiz-adv-x="675" 
d="M138 349v-349h-18v700h18v-335h208l246 335h23l-253 -344l263 -356h-23l-258 349h-206z" />
    <glyph glyph-name="Kcommaaccent.ss01" horiz-adv-x="675" 
d="M138 349v-349h-18v700h18v-335h208l246 335h23l-253 -344l263 -356h-23l-258 349h-206zM302 -156h-21l60 87h40z" />
    <glyph glyph-name="R.ss01" horiz-adv-x="682" 
d="M120 700h211c161 0 301 -75 301 -240c0 -131 -90 -206 -208 -230l201 -230h-23l-199 226c-18 -3 -37 -5 -56 -5h-209v-221h-18v700zM138 684v-447h193c152 0 283 66 283 223c0 158 -131 224 -283 224h-193z" />
    <glyph glyph-name="Racute.ss01" horiz-adv-x="682" 
d="M331 750h-21l60 87h40zM120 700h211c161 0 301 -75 301 -240c0 -131 -90 -206 -208 -230l201 -230h-23l-199 226c-18 -3 -37 -5 -56 -5h-209v-221h-18v700zM138 684v-447h193c152 0 283 66 283 223c0 158 -131 224 -283 224h-193z" />
    <glyph glyph-name="Rcaron.ss01" horiz-adv-x="682" 
d="M321 750h-9l-123 94h29l99 -76l98 76h29zM120 700h211c161 0 301 -75 301 -240c0 -131 -90 -206 -208 -230l201 -230h-23l-199 226c-18 -3 -37 -5 -56 -5h-209v-221h-18v700zM138 684v-447h193c152 0 283 66 283 223c0 158 -131 224 -283 224h-193z" />
    <glyph glyph-name="Rcommaaccent.ss01" horiz-adv-x="682" 
d="M120 700h211c161 0 301 -75 301 -240c0 -131 -90 -206 -208 -230l201 -230h-23l-199 226c-18 -3 -37 -5 -56 -5h-209v-221h-18v700zM138 684v-447h193c152 0 283 66 283 223c0 158 -131 224 -283 224h-193zM293 -156h-21l60 87h40z" />
    <glyph glyph-name="a" unicode="a" horiz-adv-x="684" 
d="M584 0h-19v154c-38 -94 -131 -160 -239 -160c-141 0 -256 114 -256 256s115 257 256 257c108 0 201 -66 239 -161v154h19v-500zM327 11c132 0 238 105 238 239s-106 240 -238 240c-133 0 -238 -106 -238 -240s105 -239 238 -239z" />
    <glyph glyph-name="aacute" unicode="&#xe1;" horiz-adv-x="684" 
d="M328 580h-21l60 88h40zM584 0h-19v154c-38 -94 -131 -160 -239 -160c-141 0 -256 114 -256 256s115 257 256 257c108 0 201 -66 239 -161v154h19v-500zM327 11c132 0 238 105 238 239s-106 240 -238 240c-133 0 -238 -106 -238 -240s105 -239 238 -239z" />
    <glyph glyph-name="abreve" unicode="&#x103;" horiz-adv-x="684" 
d="M438 688h17c0 -61 -57 -108 -129 -108c-73 0 -129 47 -129 108h17c0 -52 49 -90 112 -90s112 38 112 90zM326 507c108 0 201 -66 239 -161v154h19v-500h-19v154c-38 -94 -131 -160 -239 -160c-141 0 -256 114 -256 256s115 257 256 257zM327 490
c-133 0 -238 -106 -238 -240s105 -239 238 -239c132 0 238 105 238 239s-106 240 -238 240z" />
    <glyph glyph-name="acaron" unicode="&#x1ce;" horiz-adv-x="684" 
d="M331 580h-9l-123 94h29l99 -75l98 75h29zM584 0h-19v154c-38 -94 -131 -160 -239 -160c-141 0 -256 114 -256 256s115 257 256 257c108 0 201 -66 239 -161v154h19v-500zM327 11c132 0 238 105 238 239s-106 240 -238 240c-133 0 -238 -106 -238 -240s105 -239 238 -239z
" />
    <glyph glyph-name="acircumflex" unicode="&#xe2;" horiz-adv-x="684" 
d="M425 580l-98 76l-99 -76h-29l123 94h9l123 -94h-29zM584 0h-19v154c-38 -94 -131 -160 -239 -160c-141 0 -256 114 -256 256s115 257 256 257c108 0 201 -66 239 -161v154h19v-500zM327 11c132 0 238 105 238 239s-106 240 -238 240c-133 0 -238 -106 -238 -240
s105 -239 238 -239z" />
    <glyph glyph-name="adieresis" unicode="&#xe4;" horiz-adv-x="684" 
d="M227 580c-8 0 -15 7 -15 16c0 8 7 15 15 15c9 0 16 -7 16 -15c0 -9 -7 -16 -16 -16zM427 580c-8 0 -15 7 -15 16c0 8 7 15 15 15c9 0 16 -7 16 -15c0 -9 -7 -16 -16 -16zM584 0h-19v154c-38 -94 -131 -160 -239 -160c-141 0 -256 114 -256 256s115 257 256 257
c108 0 201 -66 239 -161v154h19v-500zM327 11c132 0 238 105 238 239s-106 240 -238 240c-133 0 -238 -106 -238 -240s105 -239 238 -239z" />
    <glyph glyph-name="agrave" unicode="&#xe0;" horiz-adv-x="684" 
d="M288 668l60 -88h-21l-79 88h40zM584 0h-19v154c-38 -94 -131 -160 -239 -160c-141 0 -256 114 -256 256s115 257 256 257c108 0 201 -66 239 -161v154h19v-500zM327 11c132 0 238 105 238 239s-106 240 -238 240c-133 0 -238 -106 -238 -240s105 -239 238 -239z" />
    <glyph glyph-name="amacron" unicode="&#x101;" horiz-adv-x="684" 
d="M448 580h-246v17h246v-17zM584 0h-19v154c-38 -94 -131 -160 -239 -160c-141 0 -256 114 -256 256s115 257 256 257c108 0 201 -66 239 -161v154h19v-500zM327 11c132 0 238 105 238 239s-106 240 -238 240c-133 0 -238 -106 -238 -240s105 -239 238 -239z" />
    <glyph glyph-name="aogonek" unicode="&#x105;" horiz-adv-x="684" 
d="M584 500v-500c-59 -19 -80 -50 -80 -82c0 -46 39 -66 75 -66h2v-17h-2c-46 0 -94 26 -94 83c0 40 30 68 79 82h1v154c-38 -94 -131 -160 -239 -160c-141 0 -256 114 -256 256s115 257 256 257c108 0 201 -66 239 -161v154h19zM327 11c132 0 238 105 238 239
s-106 240 -238 240c-133 0 -238 -106 -238 -240s105 -239 238 -239z" />
    <glyph glyph-name="aring" unicode="&#xe5;" horiz-adv-x="684" 
d="M326 722c39 0 71 -32 71 -70c0 -40 -32 -72 -71 -72c-40 0 -70 32 -70 72c0 38 30 70 70 70zM326 705c-31 0 -50 -26 -50 -53c0 -29 19 -54 50 -54s52 25 52 54c0 27 -21 53 -52 53zM584 0h-19v154c-38 -94 -131 -160 -239 -160c-141 0 -256 114 -256 256
s115 257 256 257c108 0 201 -66 239 -161v154h19v-500zM327 11c132 0 238 105 238 239s-106 240 -238 240c-133 0 -238 -106 -238 -240s105 -239 238 -239z" />
    <glyph glyph-name="atilde" unicode="&#xe3;" horiz-adv-x="684" 
d="M456 670l-10 -33c-13 -41 -31 -64 -63 -64c-22 1 -36 11 -48 24l-38 44c-10 9 -20 16 -35 16c-25 0 -36 -17 -46 -50l-7 -27h-20l10 33c13 41 31 64 63 64c22 0 36 -11 48 -24l38 -44c10 -9 20 -16 35 -16c25 0 36 17 46 50l7 27h20zM584 0h-19v154
c-38 -94 -131 -160 -239 -160c-141 0 -256 114 -256 256s115 257 256 257c108 0 201 -66 239 -161v154h19v-500zM327 11c132 0 238 105 238 239s-106 240 -238 240c-133 0 -238 -106 -238 -240s105 -239 238 -239z" />
    <glyph glyph-name="ae" unicode="&#xe6;" horiz-adv-x="1129" 
d="M326 507c108 0 201 -66 239 -161v154h19v-149c37 92 125 156 238 156c112 0 195 -65 229 -157c11 -31 15 -77 10 -99h-477c0 -149 101 -240 250 -240c79 -1 143 27 195 71l12 -13c-56 -46 -124 -75 -207 -75c-119 1 -211 57 -250 151v-145h-19v154
c-38 -94 -131 -160 -239 -160c-141 0 -256 114 -256 256s115 257 256 257zM327 490c-133 0 -238 -106 -238 -240s105 -239 238 -239c132 0 238 105 238 239s-106 240 -238 240zM822 490c-134 0 -229 -97 -237 -222h461c1 23 -3 54 -11 76c-32 86 -107 146 -213 146z" />
    <glyph glyph-name="b" unicode="b" horiz-adv-x="684" 
d="M118 700v-354c39 94 131 161 240 161c141 0 256 -115 256 -257s-115 -256 -256 -256c-108 0 -201 66 -239 160v-154h-19v700h18zM358 490c-132 0 -238 -106 -238 -240s106 -239 238 -239c133 0 238 105 238 239s-105 240 -238 240z" />
    <glyph glyph-name="c" unicode="c" horiz-adv-x="589" 
d="M326 507c79 0 150 -36 198 -93l-13 -12c-44 54 -110 88 -185 88c-132 0 -238 -106 -238 -240s106 -239 238 -239c75 0 142 34 185 87l12 -12c-47 -57 -118 -92 -197 -92c-142 0 -256 114 -256 256s114 257 256 257z" />
    <glyph glyph-name="cacute" unicode="&#x107;" horiz-adv-x="589" 
d="M299 580h-21l60 88h40zM326 507c79 0 150 -36 198 -93l-13 -12c-44 54 -110 88 -185 88c-132 0 -238 -106 -238 -240s106 -239 238 -239c75 0 142 34 185 87l12 -12c-47 -57 -118 -92 -197 -92c-142 0 -256 114 -256 256s114 257 256 257z" />
    <glyph glyph-name="ccaron" unicode="&#x10d;" horiz-adv-x="589" 
d="M331 580h-9l-123 94h29l99 -75l98 75h29zM326 507c79 0 150 -36 198 -93l-13 -12c-44 54 -110 88 -185 88c-132 0 -238 -106 -238 -240s106 -239 238 -239c75 0 142 34 185 87l12 -12c-47 -57 -118 -92 -197 -92c-142 0 -256 114 -256 256s114 257 256 257z" />
    <glyph glyph-name="ccedilla" unicode="&#xe7;" horiz-adv-x="589" 
d="M326 11c75 0 142 34 185 87l12 -12c-47 -57 -118 -92 -197 -92h-1l-10 -45c40 11 74 -12 74 -57c0 -49 -58 -74 -109 -41v20c41 -34 90 -16 90 21s-31 52 -79 33l15 70c-133 10 -236 120 -236 255c0 142 114 257 256 257c79 0 150 -36 198 -93l-13 -12
c-44 54 -110 88 -185 88c-132 0 -238 -106 -238 -240s106 -239 238 -239z" />
    <glyph glyph-name="cdotaccent" unicode="&#x10b;" horiz-adv-x="589" 
d="M326 611c9 0 16 -7 16 -15c0 -9 -7 -16 -16 -16c-8 0 -15 7 -15 16c0 8 7 15 15 15zM326 507c79 0 150 -36 198 -93l-13 -12c-44 54 -110 88 -185 88c-132 0 -238 -106 -238 -240s106 -239 238 -239c75 0 142 34 185 87l12 -12c-47 -57 -118 -92 -197 -92
c-142 0 -256 114 -256 256s114 257 256 257z" />
    <glyph glyph-name="d" unicode="d" horiz-adv-x="684" 
d="M584 0h-19v154c-38 -94 -131 -160 -239 -160c-141 0 -256 114 -256 256s115 257 256 257c108 0 201 -67 240 -161v354h18v-700zM327 11c132 0 238 105 238 239s-106 240 -238 240c-133 0 -238 -106 -238 -240s105 -239 238 -239z" />
    <glyph glyph-name="eth" unicode="&#xf0;" horiz-adv-x="683" 
d="M575 687l-52 -46c40 -44 60 -107 60 -186v-206c0 -141 -108 -256 -257 -256c-146 0 -256 115 -256 257s115 256 256 256c108 0 200 -65 239 -158l-1 107c0 75 -17 134 -54 174l-88 -80l-14 13l89 80c-35 31 -84 47 -149 47c-80 2 -144 -27 -196 -70l-12 13
c56 46 124 75 208 75c70 0 124 -19 162 -53l52 46zM327 10c139 0 238 106 238 240s-106 240 -238 240c-133 0 -238 -106 -238 -240s100 -240 238 -240z" />
    <glyph glyph-name="dcaron" unicode="&#x10f;" horiz-adv-x="816" 
d="M584 0h-19v154c-38 -94 -131 -160 -239 -160c-141 0 -256 114 -256 256s115 257 256 257c108 0 201 -67 240 -161v354h18v-700zM637 613h-21l60 87h40zM327 11c132 0 238 105 238 239s-106 240 -238 240c-133 0 -238 -106 -238 -240s105 -239 238 -239z" />
    <glyph glyph-name="dcroat" unicode="&#x111;" horiz-adv-x="775" 
d="M675 571h-91v-571h-19v154c-38 -94 -131 -160 -239 -160c-141 0 -256 114 -256 256s115 257 256 257c108 0 201 -67 240 -161v225h-91v16h91v113h18v-113h91v-16zM327 11c132 0 238 105 238 239s-106 240 -238 240c-133 0 -238 -106 -238 -240s105 -239 238 -239z" />
    <glyph glyph-name="e" unicode="e" horiz-adv-x="634" 
d="M326 507c113 0 195 -65 230 -157c11 -31 15 -77 10 -99h-478c0 -149 101 -240 250 -240c80 -1 143 27 196 71l12 -13c-56 -46 -124 -75 -208 -75c-158 1 -268 100 -268 256c0 142 107 257 256 257zM326 490c-134 0 -229 -97 -237 -222h461c1 23 -3 54 -11 76
c-32 86 -107 146 -213 146z" />
    <glyph glyph-name="eacute" unicode="&#xe9;" horiz-adv-x="634" 
d="M326 580h-21l60 88h40zM326 507c113 0 195 -65 230 -157c11 -31 15 -77 10 -99h-478c0 -149 101 -240 250 -240c80 -1 143 27 196 71l12 -13c-56 -46 -124 -75 -208 -75c-158 1 -268 100 -268 256c0 142 107 257 256 257zM326 490c-134 0 -229 -97 -237 -222h461
c1 23 -3 54 -11 76c-32 86 -107 146 -213 146z" />
    <glyph glyph-name="ecaron" unicode="&#x11b;" horiz-adv-x="634" 
d="M331 580h-9l-123 94h29l99 -75l98 75h29zM326 507c113 0 195 -65 230 -157c11 -31 15 -77 10 -99h-478c0 -149 101 -240 250 -240c80 -1 143 27 196 71l12 -13c-56 -46 -124 -75 -208 -75c-158 1 -268 100 -268 256c0 142 107 257 256 257zM326 490
c-134 0 -229 -97 -237 -222h461c1 23 -3 54 -11 76c-32 86 -107 146 -213 146z" />
    <glyph glyph-name="ecircumflex" unicode="&#xea;" horiz-adv-x="634" 
d="M454 580h-29l-98 76l-99 -76h-29l123 94h9zM326 507c113 0 195 -65 230 -157c11 -31 15 -77 10 -99h-478c0 -149 101 -240 250 -240c80 -1 143 27 196 71l12 -13c-56 -46 -124 -75 -208 -75c-158 1 -268 100 -268 256c0 142 107 257 256 257zM326 490
c-134 0 -229 -97 -237 -222h461c1 23 -3 54 -11 76c-32 86 -107 146 -213 146z" />
    <glyph glyph-name="edieresis" unicode="&#xeb;" horiz-adv-x="634" 
d="M229 611c9 0 16 -7 16 -15c0 -9 -7 -16 -16 -16c-8 0 -15 7 -15 16c0 8 7 15 15 15zM429 611c9 0 16 -7 16 -15c0 -9 -7 -16 -16 -16c-8 0 -15 7 -15 16c0 8 7 15 15 15zM326 507c113 0 195 -65 230 -157c11 -31 15 -77 10 -99h-478c0 -149 101 -240 250 -240
c80 -1 143 27 196 71l12 -13c-56 -46 -124 -75 -208 -75c-158 1 -268 100 -268 256c0 142 107 257 256 257zM326 490c-134 0 -229 -97 -237 -222h461c1 23 -3 54 -11 76c-32 86 -107 146 -213 146z" />
    <glyph glyph-name="edotaccent" unicode="&#x117;" horiz-adv-x="634" 
d="M326 611c9 0 16 -7 16 -15c0 -9 -7 -16 -16 -16c-8 0 -15 7 -15 16c0 8 7 15 15 15zM326 507c113 0 195 -65 230 -157c11 -31 15 -77 10 -99h-478c0 -149 101 -240 250 -240c80 -1 143 27 196 71l12 -13c-56 -46 -124 -75 -208 -75c-158 1 -268 100 -268 256
c0 142 107 257 256 257zM326 490c-134 0 -229 -97 -237 -222h461c1 23 -3 54 -11 76c-32 86 -107 146 -213 146z" />
    <glyph glyph-name="egrave" unicode="&#xe8;" horiz-adv-x="634" 
d="M347 580h-21l-79 88h40zM326 507c113 0 195 -65 230 -157c11 -31 15 -77 10 -99h-478c0 -149 101 -240 250 -240c80 -1 143 27 196 71l12 -13c-56 -46 -124 -75 -208 -75c-158 1 -268 100 -268 256c0 142 107 257 256 257zM326 490c-134 0 -229 -97 -237 -222h461
c1 23 -3 54 -11 76c-32 86 -107 146 -213 146z" />
    <glyph glyph-name="emacron" unicode="&#x113;" horiz-adv-x="634" 
d="M448 580h-246v17h246v-17zM326 507c113 0 195 -65 230 -157c11 -31 15 -77 10 -99h-478c0 -149 101 -240 250 -240c80 -1 143 27 196 71l12 -13c-56 -46 -124 -75 -208 -75c-158 1 -268 100 -268 256c0 142 107 257 256 257zM326 490c-134 0 -229 -97 -237 -222h461
c1 23 -3 54 -11 76c-32 86 -107 146 -213 146z" />
    <glyph glyph-name="eogonek" unicode="&#x119;" horiz-adv-x="634" 
d="M556 350c11 -31 15 -77 10 -99h-478c0 -149 101 -240 250 -240c80 -1 143 27 196 71l12 -13c-43 -35 -92 -60 -151 -70c-56 -19 -76 -50 -76 -81c0 -46 39 -66 75 -66h2v-17h-2c-46 0 -94 26 -94 83c0 36 24 62 64 77c-9 -1 -17 -1 -26 -1c-158 1 -268 100 -268 256
c0 142 107 257 256 257c113 0 195 -65 230 -157zM89 268h461c1 23 -3 54 -11 76c-32 86 -107 146 -213 146c-134 0 -229 -97 -237 -222z" />
    <glyph glyph-name="f" unicode="f" horiz-adv-x="392" 
d="M342 705l-2 -15h-10c-75 0 -161 -35 -162 -160v-30h172v-16h-172v-484h-18v484h-80v16h80v29c0 134 94 183 179 177z" />
    <glyph glyph-name="g" unicode="g" horiz-adv-x="678" 
d="M321 507c107 0 199 -66 238 -159v152h19v-439c0 -156 -77 -251 -235 -252c-84 0 -152 29 -208 75l12 13c52 -43 116 -72 196 -71c149 0 217 87 217 236v90c-39 -93 -131 -158 -239 -158c-141 0 -256 114 -256 256s115 257 256 257zM322 490c-133 0 -238 -106 -238 -240
s105 -240 238 -240c132 0 238 106 238 240s-106 240 -238 240z" />
    <glyph glyph-name="gbreve" unicode="&#x11f;" horiz-adv-x="678" 
d="M433 688h17c0 -61 -57 -108 -129 -108c-73 0 -129 47 -129 108h17c0 -52 49 -90 112 -90s112 38 112 90zM321 507c107 0 199 -66 238 -159v152h19v-439c0 -156 -77 -251 -235 -252c-84 0 -152 29 -208 75l12 13c52 -43 116 -72 196 -71c149 0 217 87 217 236v90
c-39 -93 -131 -158 -239 -158c-141 0 -256 114 -256 256s115 257 256 257zM322 490c-133 0 -238 -106 -238 -240s105 -240 238 -240c132 0 238 106 238 240s-106 240 -238 240z" />
    <glyph glyph-name="gcommaaccent" unicode="&#x123;" horiz-adv-x="678" 
d="M321 507c107 0 199 -66 238 -159v152h19v-439c0 -156 -77 -251 -235 -252c-84 0 -152 29 -208 75l12 13c52 -43 116 -72 196 -71c149 0 217 87 217 236v90c-39 -93 -131 -158 -239 -158c-141 0 -256 114 -256 256s115 257 256 257zM322 490c-133 0 -238 -106 -238 -240
s105 -240 238 -240c132 0 238 106 238 240s-106 240 -238 240zM284 -337h-21l60 87h40z" />
    <glyph glyph-name="gdotaccent" unicode="&#x121;" horiz-adv-x="678" 
d="M321 611c9 0 16 -7 16 -15c0 -9 -7 -16 -16 -16c-8 0 -15 7 -15 16c0 8 7 15 15 15zM321 507c107 0 199 -66 238 -159v152h19v-439c0 -156 -77 -251 -235 -252c-84 0 -152 29 -208 75l12 13c52 -43 116 -72 196 -71c149 0 217 87 217 236v90c-39 -93 -131 -158 -239 -158
c-141 0 -256 114 -256 256s115 257 256 257zM322 490c-133 0 -238 -106 -238 -240s105 -240 238 -240c132 0 238 106 238 240s-106 240 -238 240z" />
    <glyph glyph-name="h" unicode="h" horiz-adv-x="661" 
d="M349 507c128 0 217 -79 217 -233v-274h-19v275c0 145 -79 215 -198 215c-136 0 -226 -100 -226 -259v-231h-18v700h18v-349c43 115 147 156 226 156z" />
    <glyph glyph-name="hbar" unicode="&#x127;" horiz-adv-x="753" 
d="M441 507c128 0 217 -79 217 -233v-274h-19v275c0 145 -79 215 -198 215c-136 0 -226 -100 -226 -259v-231h-18v571h-92v17h92v112h18v-112h90v-17h-90v-220c43 115 147 156 226 156z" />
    <glyph glyph-name="i" unicode="i" horiz-adv-x="236" 
d="M120 580c-8 0 -15 7 -15 16c0 8 7 15 15 15c9 0 16 -7 16 -15c0 -9 -7 -16 -16 -16zM112 0v500h18v-500h-18z" />
    <glyph glyph-name="dotlessi" unicode="&#x131;" horiz-adv-x="224" 
d="M105 0v500h18v-500h-18z" />
    <glyph glyph-name="iacute" unicode="&#xed;" horiz-adv-x="305" 
d="M126 580h-21l60 88h40zM127 0v500h18v-500h-18z" />
    <glyph glyph-name="icaron" unicode="&#x1d0;" horiz-adv-x="461" 
d="M237 580h-9l-123 94h30l98 -75l98 75h29zM241 0h-18v500h18v-500z" />
    <glyph glyph-name="icircumflex" unicode="&#xee;" horiz-adv-x="461" 
d="M237 674l123 -94h-29l-98 76l-98 -76h-30l123 94h9zM241 0h-18v500h18v-500z" />
    <glyph glyph-name="idieresis" unicode="&#xef;" horiz-adv-x="436" 
d="M120 580c-8 0 -15 7 -15 16c0 8 7 15 15 15s15 -7 15 -15c0 -9 -7 -16 -15 -16zM320 580c-8 0 -15 7 -15 16c0 8 7 15 15 15c9 0 16 -7 16 -15c0 -9 -7 -16 -16 -16zM213 0v500h18v-500h-18z" />
    <glyph glyph-name="i.loclTRK" horiz-adv-x="236" 
d="M120 580c-8 0 -15 7 -15 16c0 8 7 15 15 15c9 0 16 -7 16 -15c0 -9 -7 -16 -16 -16zM112 0v500h18v-500h-18z" />
    <glyph glyph-name="igrave" unicode="&#xec;" horiz-adv-x="306" 
d="M146 668l59 -88h-20l-80 88h41zM188 0v500h18v-500h-18z" />
    <glyph glyph-name="ij" unicode="&#x133;" horiz-adv-x="367" 
d="M120 611c9 0 16 -7 16 -15c0 -9 -7 -16 -16 -16c-8 0 -15 7 -15 16c0 8 7 15 15 15zM251 611c9 0 16 -7 16 -15c0 -9 -7 -16 -16 -16c-8 0 -15 7 -15 16c0 8 7 15 15 15zM130 0h-18v500h18v-500zM261 -184h-18v684h18v-684z" />
    <glyph glyph-name="imacron" unicode="&#x12b;" horiz-adv-x="452" 
d="M351 580h-246v17h246v-17zM220 0v500h18v-500h-18z" />
    <glyph glyph-name="iogonek" unicode="&#x12f;" horiz-adv-x="310" 
d="M194 611c9 0 16 -7 16 -15c0 -9 -7 -16 -16 -16c-8 0 -15 7 -15 16c0 8 7 15 15 15zM203 0h1c-58 -19 -80 -50 -80 -82c0 -46 40 -66 75 -66h3v-17h-3c-46 0 -94 26 -94 83c0 40 30 68 79 82h1v500h18v-500z" />
    <glyph glyph-name="j" unicode="j" horiz-adv-x="236" 
d="M120 611c9 0 16 -7 16 -15c0 -9 -7 -16 -16 -16c-8 0 -15 7 -15 16c0 8 7 15 15 15zM130 -184h-18v684h18v-684z" />
    <glyph glyph-name="k" unicode="k" horiz-adv-x="558" 
d="M495 0l-76 120c-63 97 -82 131 -178 131h-118v-251h-18v700h18v-433h101c96 0 115 35 177 132l67 101h22l-76 -114c-44 -66 -67 -105 -108 -124c52 -14 76 -54 125 -130l86 -132h-22z" />
    <glyph glyph-name="kcommaaccent" unicode="&#x137;" horiz-adv-x="558" 
d="M495 0l-76 120c-63 97 -82 131 -178 131h-118v-251h-18v700h18v-433h101c96 0 115 35 177 132l67 101h22l-76 -114c-44 -66 -67 -105 -108 -124c52 -14 76 -54 125 -130l86 -132h-22zM239 -156h-21l60 87h40z" />
    <glyph glyph-name="l" unicode="l" horiz-adv-x="224" 
d="M105 0v700h18v-700h-18z" />
    <glyph glyph-name="lacute" unicode="&#x13a;" horiz-adv-x="306" 
d="M126 750h-21l60 87h40zM127 700h18v-700h-18v700z" />
    <glyph glyph-name="lcaron" unicode="&#x13e;" horiz-adv-x="354" 
d="M105 700h18v-700h-18v700zM175 613h-21l60 87h40z" />
    <glyph glyph-name="lcommaaccent" unicode="&#x13c;" horiz-adv-x="306" 
d="M165 700h18v-700h-18v700zM126 -156h-21l60 87h40z" />
    <glyph glyph-name="ldot" unicode="&#x140;" horiz-adv-x="301" 
d="M105 700h18v-700h-18v700zM180 317c11 0 20 -9 20 -20s-9 -20 -20 -20s-20 9 -20 20s9 20 20 20z" />
    <glyph glyph-name="lslash" unicode="&#x142;" horiz-adv-x="340" 
d="M239 479l-57 -25v-454h-18v446l-59 -26v21l59 26v233h18v-225l57 25v-21z" />
    <glyph glyph-name="m" unicode="m" horiz-adv-x="1099" 
d="M786 507c129 0 217 -79 217 -233v-274h-18v275c0 145 -79 215 -198 215c-137 0 -226 -100 -226 -259v-231h-19v275c0 145 -79 215 -198 215c-136 0 -226 -100 -226 -259v-231h-18v500h19v-149c43 115 146 156 225 156c110 0 191 -58 212 -172c39 127 148 172 230 172z
" />
    <glyph glyph-name="n" unicode="n" horiz-adv-x="656" 
d="M344 507c128 0 217 -79 217 -233v-274h-19v275c0 145 -79 215 -198 215c-136 0 -226 -100 -226 -259v-231h-18v500h19v-149c43 115 146 156 225 156z" />
    <glyph glyph-name="nacute" unicode="&#x144;" horiz-adv-x="656" 
d="M344 580h-21l60 88h40zM344 507c128 0 217 -79 217 -233v-274h-19v275c0 145 -79 215 -198 215c-136 0 -226 -100 -226 -259v-231h-18v500h19v-149c43 115 146 156 225 156z" />
    <glyph glyph-name="ncaron" unicode="&#x148;" horiz-adv-x="656" 
d="M349 580h-9l-123 94h29l99 -75l98 75h29zM344 507c128 0 217 -79 217 -233v-274h-19v275c0 145 -79 215 -198 215c-136 0 -226 -100 -226 -259v-231h-18v500h19v-149c43 115 146 156 225 156z" />
    <glyph glyph-name="ncommaaccent" unicode="&#x146;" horiz-adv-x="656" 
d="M344 507c128 0 217 -79 217 -233v-274h-19v275c0 145 -79 215 -198 215c-136 0 -226 -100 -226 -259v-231h-18v500h19v-149c43 115 146 156 225 156zM306 -156h-21l60 87h40z" />
    <glyph glyph-name="eng" unicode="&#x14b;" horiz-adv-x="656" 
d="M344 507c128 0 217 -79 217 -233v-288c0 -133 -94 -181 -179 -176l-13 1l2 15h10c75 0 161 35 162 160l-1 289c0 145 -79 215 -198 215c-136 0 -226 -100 -226 -259v-231h-18v500h19v-149c43 115 146 156 225 156z" />
    <glyph glyph-name="ntilde" unicode="&#xf1;" horiz-adv-x="656" 
d="M461 670l-10 -33c-13 -41 -31 -64 -63 -64c-22 1 -36 11 -48 24l-38 44c-10 9 -20 16 -35 16c-25 0 -36 -17 -46 -50l-7 -27h-20l10 33c13 41 31 64 63 64c22 0 36 -11 48 -24l38 -44c10 -9 20 -16 35 -16c25 0 36 17 46 50l7 27h20zM344 507c128 0 217 -79 217 -233
v-274h-19v275c0 145 -79 215 -198 215c-136 0 -226 -100 -226 -259v-231h-18v500h19v-149c43 115 146 156 225 156z" />
    <glyph glyph-name="o" unicode="o" 
d="M326 507c142 0 257 -115 257 -257s-115 -256 -257 -256s-256 114 -256 256s114 257 256 257zM327 490c-133 0 -238 -106 -238 -240s105 -239 238 -239c132 0 238 105 238 239s-106 240 -238 240z" />
    <glyph glyph-name="oacute" unicode="&#xf3;" 
d="M326 580h-21l60 88h40zM326 507c142 0 257 -115 257 -257s-115 -256 -257 -256s-256 114 -256 256s114 257 256 257zM327 490c-133 0 -238 -106 -238 -240s105 -239 238 -239c132 0 238 105 238 239s-106 240 -238 240z" />
    <glyph glyph-name="ocaron" unicode="&#x1d2;" 
d="M331 580h-9l-123 94h29l99 -75l98 75h29zM326 507c142 0 257 -115 257 -257s-115 -256 -257 -256s-256 114 -256 256s114 257 256 257zM327 490c-133 0 -238 -106 -238 -240s105 -239 238 -239c132 0 238 105 238 239s-106 240 -238 240z" />
    <glyph glyph-name="ocircumflex" unicode="&#xf4;" 
d="M425 580l-98 76l-99 -76h-29l123 94h9l123 -94h-29zM326 507c142 0 257 -115 257 -257s-115 -256 -257 -256s-256 114 -256 256s114 257 256 257zM327 490c-133 0 -238 -106 -238 -240s105 -239 238 -239c132 0 238 105 238 239s-106 240 -238 240z" />
    <glyph glyph-name="odieresis" unicode="&#xf6;" 
d="M229 580c-8 0 -15 7 -15 16c0 8 7 15 15 15c9 0 16 -7 16 -15c0 -9 -7 -16 -16 -16zM429 580c-8 0 -15 7 -15 16c0 8 7 15 15 15c9 0 16 -7 16 -15c0 -9 -7 -16 -16 -16zM326 507c142 0 257 -115 257 -257s-115 -256 -257 -256s-256 114 -256 256s114 257 256 257z
M327 490c-133 0 -238 -106 -238 -240s105 -239 238 -239c132 0 238 105 238 239s-106 240 -238 240z" />
    <glyph glyph-name="ograve" unicode="&#xf2;" 
d="M287 668l60 -88h-21l-79 88h40zM326 507c142 0 257 -115 257 -257s-115 -256 -257 -256s-256 114 -256 256s114 257 256 257zM327 490c-133 0 -238 -106 -238 -240s105 -239 238 -239c132 0 238 105 238 239s-106 240 -238 240z" />
    <glyph glyph-name="ohungarumlaut" unicode="&#x151;" 
d="M276 580h-21l60 88h40zM378 580h-21l60 88h40zM326 507c142 0 257 -115 257 -257s-115 -256 -257 -256s-256 114 -256 256s114 257 256 257zM327 490c-133 0 -238 -106 -238 -240s105 -239 238 -239c132 0 238 105 238 239s-106 240 -238 240z" />
    <glyph glyph-name="omacron" unicode="&#x14d;" 
d="M449 580h-246v17h246v-17zM326 507c142 0 257 -115 257 -257s-115 -256 -257 -256s-256 114 -256 256s114 257 256 257zM327 490c-133 0 -238 -106 -238 -240s105 -239 238 -239c132 0 238 105 238 239s-106 240 -238 240z" />
    <glyph glyph-name="oslash" unicode="&#xf8;" 
d="M583 500l-71 -73c44 -46 71 -108 71 -177c0 -142 -115 -256 -257 -256c-67 0 -127 25 -172 66l-59 -60h-25l71 73c-44 46 -71 108 -71 177c0 142 114 257 256 257c67 0 128 -25 173 -67l59 60h25zM89 250c0 -64 24 -122 64 -165l335 343c-43 39 -99 62 -161 62
c-133 0 -238 -106 -238 -240zM565 250c0 64 -25 122 -65 165l-334 -342c42 -39 98 -62 161 -62c132 0 238 105 238 239z" />
    <glyph glyph-name="otilde" unicode="&#xf5;" 
d="M460 670l-10 -33c-13 -41 -31 -64 -63 -64c-22 1 -36 11 -48 24l-38 44c-10 9 -20 16 -35 16c-25 0 -36 -17 -46 -50l-7 -27h-20l10 33c13 41 31 64 63 64c22 0 36 -11 48 -24l38 -44c10 -9 20 -16 35 -16c25 0 36 17 46 50l7 27h20zM326 507c142 0 257 -115 257 -257
s-115 -256 -257 -256s-256 114 -256 256s114 257 256 257zM327 490c-133 0 -238 -106 -238 -240s105 -239 238 -239c132 0 238 105 238 239s-106 240 -238 240z" />
    <glyph glyph-name="oe" unicode="&#x153;" horiz-adv-x="1128" 
d="M821 507c112 0 195 -65 229 -157c11 -31 15 -77 10 -99h-477c0 -149 101 -240 250 -240c79 -1 143 27 195 71l12 -13c-56 -46 -124 -75 -207 -75c-132 1 -231 70 -260 183c-32 -106 -130 -183 -247 -183c-142 0 -256 114 -256 256s114 257 256 257
c117 0 216 -78 247 -186c30 108 124 186 248 186zM327 490c-133 0 -238 -106 -238 -240s105 -239 238 -239c132 0 238 105 238 239s-106 240 -238 240zM821 490c-134 0 -229 -97 -237 -222h461c1 23 -3 54 -11 76c-32 86 -107 146 -213 146z" />
    <glyph glyph-name="p" unicode="p" horiz-adv-x="644" 
d="M318 507c141 0 256 -115 256 -257s-115 -256 -256 -256c-109 0 -201 66 -240 161v-339h-18v684h19v-154c38 95 131 161 239 161zM317 490c-132 0 -238 -106 -238 -240s106 -239 238 -239c133 0 238 105 238 239s-105 240 -238 240z" />
    <glyph glyph-name="thorn" unicode="&#xfe;" horiz-adv-x="689" 
d="M123 700v-354c39 94 131 161 240 161c141 0 256 -115 256 -257s-115 -256 -256 -256c-109 0 -201 66 -240 161v-339h-18v884h18zM363 490c-132 0 -238 -106 -238 -240s106 -239 238 -239c133 0 238 105 238 239s-105 240 -238 240z" />
    <glyph glyph-name="q" unicode="q" horiz-adv-x="684" 
d="M584 -184h-18v339c-39 -95 -132 -161 -240 -161c-141 0 -256 114 -256 256s115 257 256 257c108 0 201 -66 239 -161v154h19v-684zM327 11c132 0 238 105 238 239s-106 240 -238 240c-133 0 -238 -106 -238 -240s105 -239 238 -239z" />
    <glyph glyph-name="r" unicode="r" horiz-adv-x="421" 
d="M380 490h-6c-191 0 -256 -132 -256 -287v-203h-18v500h19v-161c40 117 137 168 257 168h4v-17z" />
    <glyph glyph-name="racute" unicode="&#x155;" horiz-adv-x="421" 
d="M233 580h-21l60 88h40zM380 490h-6c-191 0 -256 -132 -256 -287v-203h-18v500h19v-161c40 117 137 168 257 168h4v-17z" />
    <glyph glyph-name="rcaron" unicode="&#x159;" horiz-adv-x="421" 
d="M241 580h-9l-123 94h29l99 -75l98 75h29zM380 490h-6c-191 0 -256 -132 -256 -287v-203h-18v500h19v-161c40 117 137 168 257 168h4v-17z" />
    <glyph glyph-name="rcommaaccent" unicode="&#x157;" horiz-adv-x="421" 
d="M380 490h-6c-191 0 -256 -132 -256 -287v-203h-18v500h19v-161c40 117 137 168 257 168h4v-17zM189 -156h-21l60 87h40z" />
    <glyph glyph-name="s" unicode="s" horiz-adv-x="546" 
d="M265 507h15c66 0 147 -36 184 -93l-13 -12c-34 54 -110 88 -171 88h-9c-90 0 -163 -42 -163 -111c0 -45 15 -88 132 -101l84 -9c67 -8 151 -25 151 -136c0 -93 -90 -140 -189 -140h-10c-91 0 -177 44 -206 105l13 12c25 -58 106 -100 193 -100h4c93 0 177 39 177 123
c0 101 -74 112 -132 118l-85 10c-123 14 -151 63 -151 119c0 79 80 127 176 127z" />
    <glyph glyph-name="sacute" unicode="&#x15b;" horiz-adv-x="546" 
d="M271 580h-21l60 88h40zM265 507h15c66 0 147 -36 184 -93l-13 -12c-34 54 -110 88 -171 88h-9c-90 0 -163 -42 -163 -111c0 -45 15 -88 132 -101l84 -9c67 -8 151 -25 151 -136c0 -93 -90 -140 -189 -140h-10c-91 0 -177 44 -206 105l13 12c25 -58 106 -100 193 -100h4
c93 0 177 39 177 123c0 101 -74 112 -132 118l-85 10c-123 14 -151 63 -151 119c0 79 80 127 176 127z" />
    <glyph glyph-name="scaron" unicode="&#x161;" horiz-adv-x="546" 
d="M276 580h-9l-123 94h29l99 -75l98 75h29zM265 507h15c66 0 147 -36 184 -93l-13 -12c-34 54 -110 88 -171 88h-9c-90 0 -163 -42 -163 -111c0 -45 15 -88 132 -101l84 -9c67 -8 151 -25 151 -136c0 -93 -90 -140 -189 -140h-10c-91 0 -177 44 -206 105l13 12
c25 -58 106 -100 193 -100h4c93 0 177 39 177 123c0 101 -74 112 -132 118l-85 10c-123 14 -151 63 -151 119c0 79 80 127 176 127z" />
    <glyph glyph-name="scedilla" unicode="&#x15f;" horiz-adv-x="546" 
d="M285 -7l-9 -44c40 11 74 -12 74 -57c0 -49 -58 -74 -109 -41v20c41 -34 90 -16 90 21s-31 52 -79 33l15 68c-88 3 -169 46 -197 105l13 12c25 -58 106 -100 193 -100h4c93 0 177 39 177 123c0 101 -74 112 -132 118l-85 10c-123 14 -151 63 -151 119c0 79 80 127 176 127
h15c66 0 147 -36 184 -93l-13 -12c-34 54 -110 88 -171 88h-9c-90 0 -163 -42 -163 -111c0 -45 15 -88 132 -101l84 -9c67 -8 151 -25 151 -136c0 -93 -90 -140 -190 -140z" />
    <glyph glyph-name="scommaaccent" unicode="&#x219;" horiz-adv-x="546" 
d="M265 507h15c66 0 147 -36 184 -93l-13 -12c-34 54 -110 88 -171 88h-9c-90 0 -163 -42 -163 -111c0 -45 15 -88 132 -101l84 -9c67 -8 151 -25 151 -136c0 -93 -90 -140 -189 -140h-10c-91 0 -177 44 -206 105l13 12c25 -58 106 -100 193 -100h4c93 0 177 39 177 123
c0 101 -74 112 -132 118l-85 10c-123 14 -151 63 -151 119c0 79 80 127 176 127zM239 -156h-21l60 87h40z" />
    <glyph glyph-name="germandbls" unicode="&#xdf;" horiz-adv-x="664" 
d="M322 707h33c155 0 222 -81 222 -180c0 -71 -30 -135 -128 -160c103 -21 154 -87 154 -180c0 -120 -97 -194 -246 -194h-160v16h160c141 0 228 65 228 178c0 106 -66 170 -210 170h-97v16h72c168 0 209 71 209 154c0 91 -57 164 -204 164h-33c-147 0 -204 -73 -204 -163
v-528h-18v527c0 99 67 180 222 180z" />
    <glyph glyph-name="t" unicode="t" horiz-adv-x="310" 
d="M168 484v-484h-18v484h-80v16h80v168h18v-168h81v-16h-81z" />
    <glyph glyph-name="tbar" unicode="&#x167;" horiz-adv-x="310" 
d="M168 484v-133h81v-17h-81v-334h-18v334h-80v17h80v133h-80v16h80v168h18v-168h81v-16h-81z" />
    <glyph glyph-name="tcaron" unicode="&#x165;" horiz-adv-x="386" 
d="M247 613h-21l60 87h40zM168 484v-484h-18v484h-80v16h80v168h18v-168h81v-16h-81z" />
    <glyph glyph-name="tcedilla" unicode="&#x163;" horiz-adv-x="310" 
d="M168 484v-484h2l-11 -51c40 11 74 -12 74 -57c0 -49 -58 -74 -109 -41v20c41 -34 90 -16 90 21s-31 52 -79 33l16 75h-1v484h-80v16h80v168h18v-168h81v-16h-81z" />
    <glyph glyph-name="uni021B" unicode="&#x21b;" horiz-adv-x="310" 
d="M168 484v-484h-18v484h-80v16h80v168h18v-168h81v-16h-81zM112 -156h-21l60 87h40z" />
    <glyph glyph-name="u" unicode="u" horiz-adv-x="651" 
d="M556 0h-19v149c-43 -115 -147 -156 -225 -156c-128 0 -217 79 -217 233v274h18v-275c0 -145 79 -215 199 -215c136 0 226 100 226 259v231h18v-500z" />
    <glyph glyph-name="uacute" unicode="&#xfa;" horiz-adv-x="651" 
d="M391 668l-79 -88h-21l60 88h40zM556 0h-19v149c-43 -115 -147 -156 -225 -156c-128 0 -217 79 -217 233v274h18v-275c0 -145 79 -215 199 -215c136 0 226 100 226 259v231h18v-500z" />
    <glyph glyph-name="ucaron" unicode="&#x1d4;" horiz-adv-x="651" 
d="M316 580h-9l-123 94h29l99 -75l98 75h29zM556 0h-19v149c-43 -115 -147 -156 -225 -156c-128 0 -217 79 -217 233v274h18v-275c0 -145 79 -215 199 -215c136 0 226 100 226 259v231h18v-500z" />
    <glyph glyph-name="ucircumflex" unicode="&#xfb;" horiz-adv-x="651" 
d="M410 580l-98 76l-99 -76h-29l123 94h9l123 -94h-29zM556 0h-19v149c-43 -115 -147 -156 -225 -156c-128 0 -217 79 -217 233v274h18v-275c0 -145 79 -215 199 -215c136 0 226 100 226 259v231h18v-500z" />
    <glyph glyph-name="udieresis" unicode="&#xfc;" horiz-adv-x="651" 
d="M220 611c9 0 16 -7 16 -15c0 -9 -7 -16 -16 -16c-8 0 -15 7 -15 16c0 8 7 15 15 15zM420 611c9 0 16 -7 16 -15c0 -9 -7 -16 -16 -16c-8 0 -15 7 -15 16c0 8 7 15 15 15zM556 0h-19v149c-43 -115 -147 -156 -225 -156c-128 0 -217 79 -217 233v274h18v-275
c0 -145 79 -215 199 -215c136 0 226 100 226 259v231h18v-500z" />
    <glyph glyph-name="udieresisacute" unicode="&#x1d8;" horiz-adv-x="651" 
d="M312 640h-21l60 88h40zM220 611c9 0 16 -7 16 -16c0 -8 -7 -15 -16 -15c-8 0 -15 7 -15 15c0 9 7 16 15 16zM420 611c9 0 16 -7 16 -16c0 -8 -7 -15 -16 -15c-8 0 -15 7 -15 15c0 9 7 16 15 16zM556 0h-19v149c-43 -115 -147 -156 -225 -156c-128 0 -217 79 -217 233v274
h18v-275c0 -145 79 -215 199 -215c136 0 226 100 226 259v231h18v-500z" />
    <glyph glyph-name="udieresiscaron" unicode="&#x1da;" horiz-adv-x="651" 
d="M316 640h-9l-123 95h29l99 -76l98 76h29zM220 611c9 0 16 -7 16 -15c0 -9 -7 -16 -16 -16c-8 0 -15 7 -15 16c0 8 7 15 15 15zM420 611c9 0 16 -7 16 -15c0 -9 -7 -16 -16 -16c-8 0 -15 7 -15 16c0 8 7 15 15 15zM556 0h-19v149c-43 -115 -147 -156 -225 -156
c-128 0 -217 79 -217 233v274h18v-275c0 -145 79 -215 199 -215c136 0 226 100 226 259v231h18v-500z" />
    <glyph glyph-name="udieresisgrave" unicode="&#x1dc;" horiz-adv-x="651" 
d="M333 640h-21l-79 88h40zM220 611c9 0 16 -7 16 -15c0 -9 -7 -16 -16 -16c-8 0 -15 7 -15 16c0 8 7 15 15 15zM420 611c9 0 16 -7 16 -15c0 -9 -7 -16 -16 -16c-8 0 -15 7 -15 16c0 8 7 15 15 15zM556 0h-19v149c-43 -115 -147 -156 -225 -156c-128 0 -217 79 -217 233
v274h18v-275c0 -145 79 -215 199 -215c136 0 226 100 226 259v231h18v-500z" />
    <glyph glyph-name="udieresismacron" unicode="&#x1d6;" horiz-adv-x="651" 
d="M445 640h-246v17h246v-17zM220 611c9 0 16 -7 16 -15c0 -9 -7 -16 -16 -16c-8 0 -15 7 -15 16c0 8 7 15 15 15zM420 611c9 0 16 -7 16 -15c0 -9 -7 -16 -16 -16c-8 0 -15 7 -15 16c0 8 7 15 15 15zM556 0h-19v149c-43 -115 -147 -156 -225 -156c-128 0 -217 79 -217 233
v274h18v-275c0 -145 79 -215 199 -215c136 0 226 100 226 259v231h18v-500z" />
    <glyph glyph-name="ugrave" unicode="&#xf9;" horiz-adv-x="651" 
d="M333 580h-21l-79 88h40zM556 0h-19v149c-43 -115 -147 -156 -225 -156c-128 0 -217 79 -217 233v274h18v-275c0 -145 79 -215 199 -215c136 0 226 100 226 259v231h18v-500z" />
    <glyph glyph-name="uhungarumlaut" unicode="&#x171;" horiz-adv-x="651" 
d="M253 580h-21l60 88h40zM355 580h-21l60 88h40zM556 0h-19v149c-43 -115 -147 -156 -225 -156c-128 0 -217 79 -217 233v274h18v-275c0 -145 79 -215 199 -215c136 0 226 100 226 259v231h18v-500z" />
    <glyph glyph-name="umacron" unicode="&#x16b;" horiz-adv-x="651" 
d="M437 580h-246v17h246v-17zM556 0h-19v149c-43 -115 -147 -156 -225 -156c-128 0 -217 79 -217 233v274h18v-275c0 -145 79 -215 199 -215c136 0 226 100 226 259v231h18v-500z" />
    <glyph glyph-name="uogonek" unicode="&#x173;" horiz-adv-x="651" 
d="M556 500v-500c-59 -19 -80 -50 -80 -82c0 -46 39 -66 75 -66h2v-17h-2c-46 0 -94 26 -94 83c0 40 30 68 79 82h1v149c-43 -115 -147 -156 -225 -156c-128 0 -217 79 -217 233v274h18v-275c0 -145 79 -215 199 -215c136 0 226 100 226 259v231h18z" />
    <glyph glyph-name="uring" unicode="&#x16f;" horiz-adv-x="651" 
d="M312 722c39 0 71 -32 71 -70c0 -40 -32 -72 -71 -72c-40 0 -70 32 -70 72c0 38 30 70 70 70zM311 705c-31 0 -50 -26 -50 -53c0 -29 19 -54 50 -54s52 25 52 54c0 27 -21 53 -52 53zM556 0h-19v149c-43 -115 -147 -156 -225 -156c-128 0 -217 79 -217 233v274h18v-275
c0 -145 79 -215 199 -215c136 0 226 100 226 259v231h18v-500z" />
    <glyph glyph-name="v" unicode="v" horiz-adv-x="545" 
d="M275 0h-6l-229 500h19l213 -462l214 462h19z" />
    <glyph glyph-name="w" unicode="w" horiz-adv-x="935" 
d="M680 0h-5l-208 462l-207 -462h-6l-214 500h19l198 -462l209 462h3l208 -462l199 462h19z" />
    <glyph glyph-name="wacute" unicode="&#x1e83;" horiz-adv-x="935" 
d="M468 580h-21l60 88h40zM680 0h-5l-208 462l-207 -462h-6l-214 500h19l198 -462l209 462h3l208 -462l199 462h19z" />
    <glyph glyph-name="wcircumflex" unicode="&#x175;" horiz-adv-x="935" 
d="M566 580l-98 76l-99 -76h-29l123 94h9l123 -94h-29zM680 0h-5l-208 462l-207 -462h-6l-214 500h19l198 -462l209 462h3l208 -462l199 462h19z" />
    <glyph glyph-name="wdieresis" unicode="&#x1e85;" horiz-adv-x="935" 
d="M370 580c-8 0 -15 7 -15 16c0 8 7 15 15 15c9 0 16 -7 16 -15c0 -9 -7 -16 -16 -16zM570 580c-8 0 -15 7 -15 16c0 8 7 15 15 15c9 0 16 -7 16 -15c0 -9 -7 -16 -16 -16zM680 0h-5l-208 462l-207 -462h-6l-214 500h19l198 -462l209 462h3l208 -462l199 462h19z" />
    <glyph glyph-name="wgrave" unicode="&#x1e81;" horiz-adv-x="935" 
d="M429 668l60 -88h-21l-79 88h40zM680 0h-5l-208 462l-207 -462h-6l-214 500h19l198 -462l209 462h3l208 -462l199 462h19z" />
    <glyph glyph-name="x" unicode="x" horiz-adv-x="552" 
d="M275 244l-212 -244h-23l223 257l-213 243h23l204 -233l202 233h22l-213 -245l223 -255h-23z" />
    <glyph glyph-name="y" unicode="y" horiz-adv-x="656" 
d="M561 500v-439c0 -156 -77 -251 -235 -252c-84 0 -152 29 -208 75l12 13c52 -43 116 -72 196 -71c149 0 217 87 217 236v87c-43 -115 -147 -156 -226 -156c-128 0 -217 79 -217 232v275h18v-275c0 -145 79 -215 199 -215c136 0 226 100 226 259v231h18z" />
    <glyph glyph-name="yacute" unicode="&#xfd;" horiz-adv-x="656" 
d="M317 580h-21l60 88h40zM561 500v-439c0 -156 -77 -251 -235 -252c-84 0 -152 29 -208 75l12 13c52 -43 116 -72 196 -71c149 0 217 87 217 236v87c-43 -115 -147 -156 -226 -156c-128 0 -217 79 -217 232v275h18v-275c0 -145 79 -215 199 -215c136 0 226 100 226 259v231
h18z" />
    <glyph glyph-name="ycircumflex" unicode="&#x177;" horiz-adv-x="656" 
d="M321 674l123 -94h-29l-98 76l-99 -76h-29l123 94h9zM118 500v-275c0 -145 79 -215 199 -215c136 0 226 100 226 259v231h18v-439c0 -156 -77 -251 -235 -252c-84 0 -152 29 -208 75l12 13c52 -43 116 -72 196 -71c149 0 217 87 217 236v87c-43 -115 -147 -156 -226 -156
c-128 0 -217 79 -217 232v275h18z" />
    <glyph glyph-name="ydieresis" unicode="&#xff;" horiz-adv-x="656" 
d="M218 611c9 0 16 -7 16 -15c0 -9 -7 -16 -16 -16c-8 0 -15 7 -15 16c0 8 7 15 15 15zM418 611c9 0 16 -7 16 -15c0 -9 -7 -16 -16 -16c-8 0 -15 7 -15 16c0 8 7 15 15 15zM118 500v-275c0 -145 79 -215 199 -215c136 0 226 100 226 259v231h18v-439
c0 -156 -77 -251 -235 -252c-84 0 -152 29 -208 75l12 13c52 -43 116 -72 196 -71c149 0 217 87 217 236v87c-43 -115 -147 -156 -226 -156c-128 0 -217 79 -217 232v275h18z" />
    <glyph glyph-name="ygrave" unicode="&#x1ef3;" horiz-adv-x="656" 
d="M338 580h-21l-79 88h40zM118 500v-275c0 -145 79 -215 199 -215c136 0 226 100 226 259v231h18v-439c0 -156 -77 -251 -235 -252c-84 0 -152 29 -208 75l12 13c52 -43 116 -72 196 -71c149 0 217 87 217 236v87c-43 -115 -147 -156 -226 -156c-128 0 -217 79 -217 232
v275h18z" />
    <glyph glyph-name="z" unicode="z" horiz-adv-x="582" 
d="M512 0h-442v3l395 481h-360v16h393v-3l-395 -481h409v-16z" />
    <glyph glyph-name="zacute" unicode="&#x17a;" horiz-adv-x="582" 
d="M271 580h-21l60 88h40zM512 0h-442v3l395 481h-360v16h393v-3l-395 -481h409v-16z" />
    <glyph glyph-name="zcaron" unicode="&#x17e;" horiz-adv-x="582" 
d="M301 580h-9l-123 94h29l99 -75l98 75h29zM498 497l-395 -481h409v-16h-442v3l395 481h-360v16h393v-3z" />
    <glyph glyph-name="zdotaccent" unicode="&#x17c;" horiz-adv-x="582" 
d="M284 580c-8 0 -15 7 -15 16c0 8 7 15 15 15c9 0 16 -7 16 -15c0 -9 -7 -16 -16 -16zM512 0h-442v3l395 481h-360v16h393v-3l-395 -481h409v-16z" />
    <glyph glyph-name="k.ss01" horiz-adv-x="558" 
d="M123 246v-246h-18v700h18v-437h155l206 237h23l-213 -245l223 -255h-23l-216 246h-155z" />
    <glyph glyph-name="kcommaaccent.ss01" horiz-adv-x="558" 
d="M123 246v-246h-18v700h18v-437h155l206 237h23l-213 -245l223 -255h-23l-216 246h-155zM312 -69l-79 -87h-21l60 87h40z" />
    <glyph glyph-name="uni0410" unicode="&#x410;" horiz-adv-x="692" 
d="M171 244l-102 -244h-19l293 700h6l293 -700h-19l-102 244h-350zM346 662l-168 -402h337z" />
    <glyph glyph-name="uni0411" unicode="&#x411;" horiz-adv-x="692" 
d="M138 403h265c153 0 229 -73 229 -201s-64 -202 -229 -202h-283v700h419v-16h-401v-281zM138 16h265c157 0 210 65 210 186s-66 185 -210 185h-265v-371z" />
    <glyph glyph-name="uni0412" unicode="&#x412;" horiz-adv-x="692" 
d="M120 700h238c189 0 227 -81 227 -173c0 -68 -28 -131 -120 -158c112 -18 167 -86 167 -182c0 -113 -64 -187 -228 -187h-284v700zM138 684v-311h220c168 0 209 71 209 155c0 83 -28 156 -209 156h-220zM138 357v-341h265c157 0 211 64 211 171c0 106 -67 170 -211 170
h-265z" />
    <glyph glyph-name="uni0413" unicode="&#x413;" horiz-adv-x="590" 
d="M138 684v-684h-18v700h420v-16h-402z" />
    <glyph glyph-name="uni0414" unicode="&#x414;" horiz-adv-x="816" 
d="M787 -129h-18v129h-721v-129h-18v145h89l286 684h6l286 -684h90v-145zM408 662l-270 -646h541z" />
    <glyph glyph-name="uni0415" unicode="&#x415;" horiz-adv-x="600" 
d="M138 364h384v-16h-384v-332h401v-16h-419v700h419v-16h-401v-320z" />
    <glyph glyph-name="uni0401" unicode="&#x401;" horiz-adv-x="600" 
d="M224 750c-8 0 -15 7 -15 15c0 9 7 16 15 16c9 0 16 -7 16 -16c0 -8 -7 -15 -16 -15zM424 750c-8 0 -15 7 -15 15c0 9 7 16 15 16c9 0 16 -7 16 -16c0 -8 -7 -15 -16 -15zM138 364h384v-16h-384v-332h401v-16h-419v700h419v-16h-401v-320z" />
    <glyph glyph-name="uni0416" unicode="&#x416;" horiz-adv-x="1045" 
d="M973 0l-141 218c-62 97 -81 131 -177 131h-123v-349h-18v349h-124c-96 0 -115 -34 -177 -131l-141 -218h-22l151 230c48 75 72 116 124 130c-40 18 -64 58 -107 124l-142 216h22l132 -204c62 -97 81 -131 177 -131h107v335h18v-335h106c96 0 115 34 177 131l132 204h22
l-142 -216c-43 -66 -66 -106 -107 -124c52 -14 76 -55 125 -130l150 -230h-22z" />
    <glyph glyph-name="uni0417" unicode="&#x417;" horiz-adv-x="630" 
d="M215 373h102c168 0 209 71 209 154c0 91 -57 164 -204 164h-8c-96 0 -179 -39 -223 -112l-12 11c45 77 135 117 235 117h8c155 0 222 -81 222 -180c0 -71 -30 -135 -128 -160c103 -21 154 -87 154 -180c0 -120 -97 -194 -246 -194h-6c-139 0 -235 62 -268 164l12 11
c33 -99 121 -159 256 -159h5c142 0 229 65 229 178c0 106 -67 170 -210 170h-127v16z" />
    <glyph glyph-name="uni0418" unicode="&#x418;" horiz-adv-x="731" 
d="M620 0h-18v653l-486 -653h-6v700h18v-653l486 653h6v-700z" />
    <glyph glyph-name="uni0419" unicode="&#x419;" horiz-adv-x="731" 
d="M366 750c-73 0 -129 47 -129 108h17c0 -52 49 -91 112 -91s112 39 112 91h17c0 -61 -57 -108 -129 -108zM620 0h-18v653l-486 -653h-6v700h18v-653l486 653h6v-700z" />
    <glyph glyph-name="uni041A" unicode="&#x41a;" horiz-adv-x="691" 
d="M619 0l-141 218c-62 97 -81 131 -177 131h-163v-349h-18v700h18v-335h145c96 0 115 34 178 131l132 204h22l-142 -216c-43 -66 -67 -106 -107 -124c52 -14 76 -55 124 -130l151 -230h-22z" />
    <glyph glyph-name="uni041B" unicode="&#x41b;" horiz-adv-x="692" 
d="M346 662l-277 -662h-19l293 700h6l293 -700h-19z" />
    <glyph glyph-name="uni041C" unicode="&#x41c;" horiz-adv-x="889" 
d="M769 0h-18v653l-312 -402l-311 402v-653h-18v700h6l323 -418l324 418h6v-700z" />
    <glyph glyph-name="uni041D" unicode="&#x41d;" horiz-adv-x="731" 
d="M620 0h-18v349h-474v-349h-18v700h18v-335h474v335h18v-700z" />
    <glyph glyph-name="uni041E" unicode="&#x41e;" horiz-adv-x="874" 
d="M436 707c197 0 357 -160 357 -357c0 -198 -160 -357 -357 -357s-356 159 -356 357c0 197 159 357 356 357zM436 691c-188 0 -338 -151 -338 -341c0 -191 150 -341 338 -341s339 150 339 341c0 190 -151 341 -339 341z" />
    <glyph glyph-name="uni041F" unicode="&#x41f;" horiz-adv-x="731" 
d="M620 0h-18v684h-474v-684h-18v700h510v-700z" />
    <glyph glyph-name="uni0420" unicode="&#x420;" horiz-adv-x="713" 
d="M120 700h211c161 0 301 -75 301 -245c0 -169 -140 -244 -301 -244h-193v-211h-18v700zM138 227h193c152 0 283 66 283 228c0 163 -131 229 -283 229h-193v-457z" />
    <glyph glyph-name="uni0421" unicode="&#x421;" horiz-adv-x="761" 
d="M436 707c105 0 199 -45 264 -117l-12 -11c-62 69 -151 112 -252 112c-188 0 -338 -151 -338 -341c0 -191 150 -341 338 -341c101 0 190 42 252 112l12 -13c-65 -71 -159 -115 -264 -115c-197 0 -356 159 -356 357c0 197 159 357 356 357z" />
    <glyph glyph-name="uni0422" unicode="&#x422;" horiz-adv-x="601" 
d="M309 684v-684h-18v684h-241v16h500v-16h-241z" />
    <glyph glyph-name="uni0423" unicode="&#x423;" horiz-adv-x="684" 
d="M198 0h-20l154 247l-282 453h21l272 -436l270 436h21z" />
    <glyph glyph-name="uni0424" unicode="&#x424;" horiz-adv-x="1324" 
d="M948 708c163 0 295 -133 295 -295c0 -164 -132 -296 -295 -296c-126 0 -234 79 -278 190v-307h-18v307c-43 -111 -151 -190 -277 -190c-163 0 -295 132 -295 296c0 162 132 295 295 295c126 0 234 -79 277 -191v183h18v-183c44 112 152 191 278 191zM375 134
c154 0 277 122 277 279c0 155 -123 278 -277 278s-276 -123 -276 -278c0 -157 122 -279 276 -279zM949 134c154 0 276 122 276 279c0 155 -122 278 -276 278s-277 -123 -277 -278c0 -157 123 -279 277 -279z" />
    <glyph glyph-name="uni0425" unicode="&#x425;" horiz-adv-x="650" 
d="M324 343l-251 -343h-23l263 358l-253 342h23l243 -329l241 329h23l-253 -344l263 -356h-23z" />
    <glyph glyph-name="uni0427" unicode="&#x427;" horiz-adv-x="704" 
d="M584 0h-18v334c-42 -118 -144 -172 -247 -172c-146 0 -259 80 -259 291v247h18v-247c0 -204 105 -275 241 -275c123 0 247 82 247 279v243h18v-700z" />
    <glyph glyph-name="uni0426" unicode="&#x426;" horiz-adv-x="771" 
d="M721 -129h-18v129h-593v700h18v-684h474v684h18v-684h101v-145z" />
    <glyph glyph-name="uni0428" unicode="&#x428;" horiz-adv-x="1049" 
d="M939 0h-829v700h18v-684h388v684h18v-684h387v684h18v-700z" />
    <glyph glyph-name="uni0429" unicode="&#x429;" horiz-adv-x="1089" 
d="M1039 -129h-18v129h-911v700h18v-684h388v684h18v-684h387v684h18v-684h100v-145z" />
    <glyph glyph-name="uni042F" unicode="&#x42f;" horiz-adv-x="682" 
d="M562 0h-18v221h-209c-81 0 -130 -14 -193 -112l-70 -109h-22l80 122c43 65 82 95 126 108c-117 25 -206 100 -206 230c0 165 141 240 302 240h210v-700zM544 684h-192c-153 0 -284 -66 -284 -224c0 -157 131 -223 284 -223h192v447z" />
    <glyph glyph-name="uni042C" unicode="&#x42c;" horiz-adv-x="682" 
d="M138 403h265c153 0 229 -73 229 -201s-63 -202 -229 -202h-283v700h18v-297zM138 16h265c157 0 211 65 211 186s-67 185 -211 185h-265v-371z" />
    <glyph glyph-name="uni042A" unicode="&#x42a;" horiz-adv-x="712" 
d="M168 403h266c152 0 228 -73 228 -201s-63 -202 -228 -202h-284v684h-100v16h118v-297zM168 16h265c157 0 211 65 211 186s-67 185 -211 185h-265v-371z" />
    <glyph glyph-name="uni042B" unicode="&#x42b;" horiz-adv-x="890" 
d="M138 403h265c153 0 229 -73 229 -201s-63 -202 -229 -202h-283v700h18v-297zM770 0h-18v700h18v-700zM138 16h265c157 0 211 65 211 186s-67 185 -211 185h-265v-371z" />
    <glyph glyph-name="uni042D" unicode="&#x42d;" horiz-adv-x="761" 
d="M324 707c197 0 356 -160 356 -357c0 -198 -159 -357 -356 -357c-105 0 -199 44 -264 115l12 13c62 -70 151 -112 252 -112c186 0 334 146 338 334h-401v16h401c-5 186 -153 332 -338 332c-101 0 -190 -43 -252 -112l-12 11c65 72 159 117 264 117z" />
    <glyph glyph-name="uni042E" unicode="&#x42e;" horiz-adv-x="1088" 
d="M650 707c197 0 357 -160 357 -357c0 -198 -160 -357 -357 -357c-194 0 -352 155 -356 350h-156v-343h-18v700h18v-341h156c5 193 162 348 356 348zM651 9c188 0 339 150 339 341c0 190 -151 341 -339 341s-338 -151 -338 -341c0 -191 150 -341 338 -341z" />
    <glyph glyph-name="uni0416.ss01" horiz-adv-x="1045" 
d="M985 700l-253 -344l263 -356h-23l-257 349h-183v-349h-18v349h-184l-257 -349h-23l263 356l-253 344h23l245 -335h186v335h18v-335h185l245 335h23z" />
    <glyph glyph-name="uni041A.ss01" horiz-adv-x="675" 
d="M138 349v-349h-18v700h18v-335h208l246 335h23l-253 -344l263 -356h-23l-258 349h-206z" />
    <glyph glyph-name="uni042F.ss01" horiz-adv-x="682" 
d="M562 0h-18v221h-209c-19 0 -38 2 -56 5l-199 -226h-23l201 230c-118 24 -208 99 -208 230c0 165 141 240 302 240h210v-700zM544 684h-192c-153 0 -284 -66 -284 -224c0 -157 131 -223 284 -223h192v447z" />
    <glyph glyph-name="uni0430" unicode="&#x430;" horiz-adv-x="684" 
d="M584 0h-19v154c-38 -94 -131 -160 -239 -160c-141 0 -256 114 -256 256s115 257 256 257c108 0 201 -66 239 -161v154h19v-500zM327 11c132 0 238 105 238 239s-106 240 -238 240c-133 0 -238 -106 -238 -240s105 -239 238 -239z" />
    <glyph glyph-name="uni0431" unicode="&#x431;" 
d="M515 700h19c0 -59 -52 -74 -156 -74h-8c-176 0 -282 -68 -282 -232v-46c39 94 131 158 238 158c142 0 257 -114 257 -256s-110 -257 -256 -257c-149 0 -257 115 -257 256v146c0 172 115 249 299 249c117 0 146 13 146 56zM327 490c-132 0 -238 -106 -238 -240
s99 -240 238 -240c138 0 238 106 238 240s-105 240 -238 240z" />
    <glyph glyph-name="uni0432" unicode="&#x432;" horiz-adv-x="610" 
d="M100 500h262c110 0 149 -59 149 -123c0 -50 -22 -95 -79 -114c71 -18 102 -65 102 -128c0 -81 -50 -135 -170 -135h-264v500zM118 483v-213h244c100 0 131 49 131 107c0 56 -31 106 -131 106h-244zM118 17h246c111 0 151 45 151 118c0 71 -40 117 -151 117l-246 1v-236z
" />
    <glyph glyph-name="uni0433" unicode="&#x433;" horiz-adv-x="525" 
d="M118 484v-484h-18v500h395v-16h-377z" />
    <glyph glyph-name="uni0434" unicode="&#x434;" horiz-adv-x="650" 
d="M610 -130h-18v130h-534v-130h-18v146h60l222 484h6l222 -484h60v-146zM325 462l-206 -446h412z" />
    <glyph glyph-name="uni0435" unicode="&#x435;" horiz-adv-x="633" 
d="M326 507c113 0 195 -65 230 -157c11 -31 15 -77 10 -99h-478c0 -149 101 -240 250 -240c80 -1 143 27 196 71l12 -13c-56 -46 -124 -75 -208 -75c-158 1 -268 100 -268 256c0 142 107 257 256 257zM326 490c-134 0 -229 -97 -237 -222h461c1 23 -3 54 -11 76
c-32 86 -107 146 -213 146z" />
    <glyph glyph-name="uni0451" unicode="&#x451;" horiz-adv-x="634" 
d="M227 611c9 0 16 -7 16 -15c0 -9 -7 -16 -16 -16c-8 0 -15 7 -15 16c0 8 7 15 15 15zM427 611c9 0 16 -7 16 -15c0 -9 -7 -16 -16 -16c-8 0 -15 7 -15 16c0 8 7 15 15 15zM326 507c113 0 195 -65 230 -157c11 -31 15 -77 10 -99h-478c0 -149 101 -240 250 -240
c80 -1 143 27 196 71l12 -13c-56 -46 -124 -75 -208 -75c-158 1 -268 100 -268 256c0 142 107 257 256 257zM326 490c-134 0 -229 -97 -237 -222h461c1 23 -3 54 -11 76c-32 86 -107 146 -213 146z" />
    <glyph glyph-name="uni0436" unicode="&#x436;" horiz-adv-x="846" 
d="M784 0l-77 120c-62 97 -81 131 -177 131h-98v-251h-18v251h-98c-96 0 -115 -34 -177 -131l-77 -120h-22l86 132c49 76 73 116 125 130c-40 19 -64 58 -107 124l-76 114h22l66 -101c63 -97 82 -132 177 -132h81v233h18v-233h81c95 0 114 35 177 132l66 101h22l-76 -114
c-43 -66 -67 -105 -107 -124c52 -14 76 -54 125 -130l86 -132h-22z" />
    <glyph glyph-name="uni0437" unicode="&#x437;" horiz-adv-x="576" 
d="M394 263c71 -18 102 -65 102 -128c0 -96 -90 -142 -200 -142h-26c-91 0 -176 44 -205 105l13 12c25 -58 107 -100 193 -100h25c101 0 181 37 181 125c0 71 -40 116 -151 117l-95 1v17h93c100 0 131 49 131 107c0 74 -71 113 -161 113h-17c-71 0 -148 -33 -181 -87l-13 12
c37 57 118 92 193 92h18c99 0 179 -49 179 -130c0 -50 -22 -95 -79 -114z" />
    <glyph glyph-name="uni0438" unicode="&#x438;" horiz-adv-x="634" 
d="M534 0h-18v460l-410 -460h-6v500h18v-460l410 460h6v-500z" />
    <glyph glyph-name="uni0439" unicode="&#x439;" horiz-adv-x="634" 
d="M315 573c-73 0 -129 47 -129 108h17c0 -52 49 -90 112 -90s112 38 112 90h17c0 -61 -57 -108 -129 -108zM534 0h-18v460l-410 -460h-6v500h18v-460l410 460h6v-500z" />
    <glyph glyph-name="uni043A" unicode="&#x43a;" horiz-adv-x="558" 
d="M495 0l-76 120c-63 97 -82 131 -178 131h-118v-251h-18v500h18v-233h101c96 0 115 35 177 132l67 101h22l-76 -114c-44 -66 -67 -105 -108 -124c52 -14 76 -54 125 -130l86 -132h-22z" />
    <glyph glyph-name="uni043B" unicode="&#x43b;" horiz-adv-x="545" 
d="M272 462l-213 -462h-19l229 500h6l230 -500h-19z" />
    <glyph glyph-name="uni043C" unicode="&#x43c;" horiz-adv-x="694" 
d="M594 0h-19v460l-228 -257l-229 257v-460h-18v500h6l241 -271l241 271h6v-500z" />
    <glyph glyph-name="uni043D" unicode="&#x43d;" horiz-adv-x="634" 
d="M534 0h-18v242h-398v-242h-18v500h18v-241h398v241h18v-500z" />
    <glyph glyph-name="uni043E" unicode="&#x43e;" 
d="M326 507c142 0 257 -115 257 -257s-115 -256 -257 -256s-256 114 -256 256s114 257 256 257zM327 490c-133 0 -238 -106 -238 -240s105 -239 238 -239c132 0 238 105 238 239s-106 240 -238 240z" />
    <glyph glyph-name="uni043F" unicode="&#x43f;" horiz-adv-x="634" 
d="M534 0h-18v484h-398v-484h-18v500h434v-500z" />
    <glyph glyph-name="uni0440" unicode="&#x440;" horiz-adv-x="689" 
d="M363 507c141 0 256 -115 256 -257s-115 -256 -256 -256c-109 0 -201 66 -240 161v-339h-18v684h19v-154c38 95 131 161 239 161zM363 490c-132 0 -238 -106 -238 -240s106 -239 238 -239c133 0 238 105 238 239s-105 240 -238 240z" />
    <glyph glyph-name="uni0441" unicode="&#x441;" horiz-adv-x="589" 
d="M326 507c79 0 150 -36 198 -93l-13 -12c-44 54 -110 88 -185 88c-132 0 -238 -106 -238 -240s106 -239 238 -239c75 0 142 34 185 87l12 -12c-47 -57 -118 -92 -197 -92c-142 0 -256 114 -256 256s114 257 256 257z" />
    <glyph glyph-name="uni0442" unicode="&#x442;" horiz-adv-x="521" 
d="M269 484v-484h-18v484h-211v16h441v-16h-212z" />
    <glyph glyph-name="uni0443" unicode="&#x443;" horiz-adv-x="656" 
d="M561 500v-439c0 -156 -77 -251 -235 -252c-84 0 -152 29 -208 75l12 13c52 -43 116 -72 196 -71c149 0 217 87 217 236v87c-43 -115 -147 -156 -226 -156c-128 0 -217 79 -217 232v275h18v-275c0 -145 79 -215 199 -215c136 0 226 100 226 259v231h18z" />
    <glyph glyph-name="uni0444" unicode="&#x444;" horiz-adv-x="1148" 
d="M821 507c142 0 257 -115 257 -257s-115 -256 -257 -256c-107 0 -199 65 -238 158v-315h-18v315c-39 -93 -132 -158 -239 -158c-141 0 -256 114 -256 256s115 257 256 257c107 0 199 -65 238 -158v151h19v-152c39 94 131 159 238 159zM327 11c132 0 238 105 238 239
s-106 240 -238 240c-133 0 -238 -106 -238 -240s105 -239 238 -239zM821 11c133 0 238 105 238 239s-105 240 -238 240c-132 0 -238 -106 -238 -240s106 -239 238 -239z" />
    <glyph glyph-name="uni0445" unicode="&#x445;" horiz-adv-x="552" 
d="M275 244l-212 -244h-23l223 257l-213 243h23l204 -233l202 233h22l-213 -245l223 -255h-23z" />
    <glyph glyph-name="uni0447" unicode="&#x447;" horiz-adv-x="651" 
d="M551 0h-19v235c-34 -80 -111 -123 -206 -123c-179 0 -231 100 -231 255v133h18v-134c0 -146 43 -237 212 -237c166 0 207 113 207 208v163h19v-500z" />
    <glyph glyph-name="uni0446" unicode="&#x446;" horiz-adv-x="675" 
d="M634 -130h-18v130h-516v500h18v-484h398v484h18v-484h100v-146z" />
    <glyph glyph-name="uni0448" unicode="&#x448;" horiz-adv-x="916" 
d="M816 0h-716v500h18v-484h331v484h18v-484h330v484h19v-500z" />
    <glyph glyph-name="uni0449" unicode="&#x449;" horiz-adv-x="956" 
d="M916 -130h-18v130h-798v500h18v-484h331v484h18v-484h330v484h19v-484h100v-146z" />
    <glyph glyph-name="uni044C" unicode="&#x44c;" horiz-adv-x="594" 
d="M118 320h229c137 0 187 -74 187 -159c0 -87 -50 -161 -187 -161h-247v500h18v-180zM118 16h229c128 0 169 67 169 145c0 76 -41 142 -169 142h-229v-287z" />
    <glyph glyph-name="uni044A" unicode="&#x44a;" horiz-adv-x="670" 
d="M159 320h229c136 0 186 -74 186 -159c0 -87 -50 -161 -186 -161h-248v484h-100v16h119v-180zM159 16h229c128 0 169 67 169 145c0 76 -41 142 -169 142h-229v-287z" />
    <glyph glyph-name="uni044B" unicode="&#x44b;" horiz-adv-x="728" 
d="M118 320h229c137 0 187 -74 187 -159c0 -87 -50 -161 -187 -161h-247v500h18v-180zM628 0h-18v500h18v-500zM118 16h229c128 0 169 67 169 145c0 76 -41 142 -169 142h-229v-287z" />
    <glyph glyph-name="uni044D" unicode="&#x44d;" horiz-adv-x="589" 
d="M263 507c141 0 256 -115 256 -257s-115 -256 -256 -256c-79 0 -150 35 -197 92l11 12c44 -53 110 -87 186 -87c129 0 233 101 237 231h-274v17h274c-4 130 -108 231 -237 231c-75 0 -142 -34 -185 -88l-13 12c47 57 118 93 198 93z" />
    <glyph glyph-name="uni044E" unicode="&#x44e;" horiz-adv-x="817" 
d="M490 507c142 0 257 -115 257 -257s-115 -256 -257 -256c-139 0 -252 110 -256 248h-116v-242h-18v500h18v-241h116c4 138 117 248 256 248zM490 11c132 0 238 105 238 239s-106 240 -238 240c-133 0 -238 -106 -238 -240s105 -239 238 -239z" />
    <glyph glyph-name="uni044F" unicode="&#x44f;" horiz-adv-x="596" 
d="M495 0h-18v181h-193c-89 -2 -108 -38 -170 -132l-32 -49h-22l42 62c43 63 66 103 104 122c-91 16 -145 75 -145 156c0 97 75 160 195 160h239v-500zM477 483h-221c-111 0 -177 -55 -177 -143c0 -86 66 -142 177 -142h221v285z" />
    <glyph glyph-name="uni0436.ss01" horiz-adv-x="836" 
d="M427 246v-246h-18v246h-130l-216 -246h-23l224 255l-214 245h23l206 -237h130v237h18v-237h130l206 237h23l-213 -245l223 -255h-23l-216 246h-130z" />
    <glyph glyph-name="uni043A.ss01" horiz-adv-x="558" 
d="M123 246v-246h-18v500h18v-237h155l206 237h23l-213 -245l223 -255h-23l-216 246h-155z" />
    <glyph glyph-name="uni044F.ss01" horiz-adv-x="586" 
d="M485 0h-18v181h-235l-159 -181h-23l160 182c-99 12 -159 73 -159 158c0 97 75 160 195 160h239v-500zM467 483h-221c-111 0 -177 -55 -177 -143c0 -86 66 -142 177 -142h221v285z" />
    <glyph glyph-name="zero" unicode="0" horiz-adv-x="860" 
d="M429 693c193 0 350 -157 350 -350c0 -194 -157 -350 -350 -350s-349 156 -349 350c0 193 156 350 349 350zM429 676c-183 0 -330 -148 -330 -333c0 -186 147 -333 330 -333c184 0 332 147 332 333c0 185 -148 333 -332 333z" />
    <glyph glyph-name="one" unicode="1" horiz-adv-x="308" 
d="M187 0h-18v642l-104 -125l-15 12l132 156h5v-685z" />
    <glyph glyph-name="two" unicode="2" horiz-adv-x="629" 
d="M569 0h-509v6l327 290c112 100 143 144 143 216c0 104 -102 164 -205 164h-13c-96 0 -180 -38 -224 -111l-12 10c45 77 135 117 236 117h13c112 0 223 -69 223 -181c0 -82 -43 -133 -162 -238l-290 -257h473v-16z" />
    <glyph glyph-name="three" unicode="3" horiz-adv-x="633" 
d="M555 680l-323 -271c30 9 63 13 111 14c153 0 229 -81 229 -193c0 -143 -103 -234 -239 -237h-11c-136 2 -229 64 -262 164l12 10c33 -98 121 -158 255 -158h5c128 3 222 84 222 220c0 107 -64 176 -222 176c-49 0 -94 -9 -133 -28l-15 11l333 281h-397v16h435v-5z" />
    <glyph glyph-name="four" unicode="4" horiz-adv-x="631" 
d="M491 162v-162h-18v162h-423v5l435 518h6v-507h90v-16h-90zM473 641l-393 -463h393v463z" />
    <glyph glyph-name="five" unicode="5" horiz-adv-x="633" 
d="M512 669h-383v-298c52 38 132 57 215 57c137 0 228 -81 228 -213c0 -129 -104 -219 -238 -222h-12c-136 2 -229 64 -262 164l12 11c33 -99 121 -159 255 -159h4c128 2 223 84 223 205c0 128 -79 198 -222 198c-74 0 -161 -23 -208 -67l-14 11v329h402v-16z" />
    <glyph glyph-name="six" unicode="6" horiz-adv-x="625" 
d="M326 692h7c92 0 159 -35 205 -96l-12 -11c-45 58 -105 91 -193 91h-7c-202 0 -247 -198 -248 -347c37 79 123 138 234 138c148 0 253 -105 253 -238s-105 -236 -253 -236c-162 0 -251 118 -251 251l-1 81c0 156 53 367 266 367zM313 450c-138 0 -233 -98 -233 -205
c0 -123 80 -235 233 -235c138 0 234 97 234 219c0 123 -96 221 -234 221z" />
    <glyph glyph-name="seven" unicode="7" horiz-adv-x="534" 
d="M484 680l-411 -680h-21l403 669h-405v16h434v-5z" />
    <glyph glyph-name="eight" unicode="8" horiz-adv-x="604" 
d="M380 368c97 -22 163 -86 163 -184c0 -121 -101 -189 -236 -191h-6c-137 0 -241 68 -241 191c0 98 66 162 163 184c-75 19 -133 69 -133 158c0 119 105 168 211 168h7c104 -2 205 -51 205 -168c0 -89 -58 -139 -133 -158zM109 526c0 -108 95 -150 193 -150
c97 0 193 42 193 150c0 109 -96 152 -193 152c-98 0 -193 -43 -193 -152zM302 10c128 0 223 62 223 174s-89 172 -223 175c-66 0 -223 -22 -223 -175c0 -112 95 -174 223 -174z" />
    <glyph glyph-name="nine" unicode="9" horiz-adv-x="625" 
d="M299 -7h-8c-91 0 -158 35 -204 96l12 11c44 -58 105 -91 192 -91h8c202 0 247 198 247 347c-36 -79 -122 -137 -233 -137c-148 0 -253 104 -253 237s105 236 252 236c163 0 252 -118 252 -251l1 -80c0 -157 -53 -368 -266 -368zM312 235c138 0 233 98 233 206
c0 122 -80 235 -233 235c-138 0 -234 -98 -234 -220c0 -123 96 -221 234 -221z" />
    <glyph glyph-name="zero.lf" horiz-adv-x="874" 
d="M436 707c197 0 357 -160 357 -357c0 -198 -160 -357 -357 -357s-356 159 -356 357c0 197 159 357 356 357zM436 691c-188 0 -338 -151 -338 -341c0 -191 150 -341 338 -341s339 150 339 341c0 190 -151 341 -339 341z" />
    <glyph glyph-name="one.lf" horiz-adv-x="308" 
d="M187 0h-18v656l-104 -124l-15 11l132 157h5v-700z" />
    <glyph glyph-name="two.lf" horiz-adv-x="629" 
d="M569 0h-509v6l327 305c112 104 143 144 143 215c0 104 -102 165 -205 165h-13c-96 0 -180 -39 -224 -112l-12 11c45 77 135 117 236 117h13c112 0 223 -70 223 -181c0 -83 -46 -130 -162 -239l-291 -271h474v-16z" />
    <glyph glyph-name="three.lf" horiz-adv-x="633" 
d="M555 694l-325 -286c31 10 64 14 113 15c153 0 229 -81 229 -193c0 -143 -103 -234 -239 -237h-11c-136 2 -229 64 -262 164l12 10c33 -98 121 -158 255 -158h7c127 3 220 85 220 220c0 105 -66 176 -210 176c-61 0 -106 -9 -145 -28l-15 11l334 296h-398v16h435v-6z" />
    <glyph glyph-name="four.lf" horiz-adv-x="631" 
d="M491 162v-162h-18v162h-423v5l435 533h6v-522h90v-16h-90zM473 656l-393 -478h393v478z" />
    <glyph glyph-name="five.lf" horiz-adv-x="633" 
d="M512 684h-383v-298c52 38 132 57 215 57c137 0 228 -81 228 -214c0 -143 -104 -236 -238 -236h-12c-136 2 -229 64 -262 164l12 10c33 -98 121 -158 255 -158h7c126 3 220 85 220 220c0 126 -81 198 -210 198c-88 0 -171 -22 -220 -67l-14 11v329h402v-16z" />
    <glyph glyph-name="six.lf" horiz-adv-x="625" 
d="M312 467c148 0 253 -105 253 -238s-105 -236 -253 -236c-162 0 -251 118 -251 251l-1 80c0 172 53 383 266 383h7c92 0 159 -35 205 -96l-12 -11c-45 58 -105 91 -193 91h-7c-203 0 -247 -198 -248 -362c37 79 123 138 234 138zM313 10c138 0 234 97 234 219
c0 123 -96 221 -234 221s-233 -98 -233 -205c0 -123 80 -235 233 -235z" />
    <glyph glyph-name="seven.lf" horiz-adv-x="541" 
d="M491 694l-420 -694h-21l412 684h-405v16h434v-6z" />
    <glyph glyph-name="eight.lf" horiz-adv-x="604" 
d="M380 381c97 -22 163 -87 163 -190c0 -127 -100 -195 -233 -198h-9c-137 0 -241 68 -241 198c0 103 66 168 163 190c-75 20 -133 69 -133 158c0 115 97 164 199 168h12c107 0 212 -49 212 -168c0 -89 -58 -138 -133 -158zM109 540c0 -109 95 -151 193 -151
c97 0 193 42 193 151c0 108 -96 151 -193 151c-98 0 -193 -43 -193 -151zM302 10c128 0 223 62 223 181c0 118 -89 178 -223 181c-66 0 -223 -22 -223 -181c0 -119 95 -181 223 -181z" />
    <glyph glyph-name="nine.lf" horiz-adv-x="625" 
d="M313 234c-148 0 -253 104 -253 237s105 236 252 236c163 0 252 -118 252 -251l1 -80c0 -172 -53 -383 -266 -383h-8c-91 0 -158 35 -204 96l12 11c44 -58 105 -91 192 -91h8c202 0 247 198 247 362c-36 -79 -123 -137 -233 -137zM312 691c-138 0 -234 -98 -234 -220
c0 -123 96 -221 234 -221s233 98 233 206c0 122 -80 235 -233 235z" />
    <glyph glyph-name="zero.osf" horiz-adv-x="711" 
d="M355 544c152 0 275 -123 275 -275c0 -153 -123 -276 -275 -276s-275 123 -275 276c0 152 123 275 275 275zM356 528c-141 0 -257 -117 -257 -259c0 -143 116 -259 257 -259c140 0 257 116 257 259c0 142 -117 259 -257 259z" />
    <glyph glyph-name="one.osf" horiz-adv-x="308" 
d="M187 0h-18v494l-104 -125l-15 12l132 156h5v-537z" />
    <glyph glyph-name="two.osf" horiz-adv-x="629" 
d="M569 0h-509v6l337 211c107 67 133 101 133 168c0 74 -79 143 -206 143h-12c-97 0 -180 -38 -224 -111l-12 10c45 77 135 117 236 117h12c135 0 224 -77 224 -159c0 -78 -38 -120 -152 -191l-283 -178h456v-16z" />
    <glyph glyph-name="three.osf" horiz-adv-x="633" 
d="M555 532l-325 -287c30 10 64 15 113 15c153 0 229 -81 229 -193c0 -129 -103 -219 -239 -222h-11c-136 2 -229 64 -262 164l12 11c33 -99 121 -159 255 -159h6c127 2 221 84 221 205c0 105 -66 177 -210 177c-61 0 -106 -10 -145 -29l-15 11l334 296h-398v16h435v-5z" />
    <glyph glyph-name="four.osf" horiz-adv-x="631" 
d="M491 14v-162h-18v162h-423v5l435 518h6v-507h90v-16h-90zM473 493l-393 -463h393v463z" />
    <glyph glyph-name="five.osf" horiz-adv-x="633" 
d="M512 521h-383v-298c52 38 132 57 215 57c137 0 228 -81 228 -213c0 -129 -104 -219 -238 -222h-12c-136 2 -229 64 -262 164l12 11c33 -99 121 -159 255 -159h5c127 2 222 84 222 205c0 126 -81 198 -210 198c-88 0 -171 -21 -220 -67l-14 11v329h402v-16z" />
    <glyph glyph-name="six.osf" horiz-adv-x="625" 
d="M312 467c148 0 253 -105 253 -238s-105 -236 -253 -236c-162 0 -251 118 -251 251l-1 81c0 156 53 367 266 367h7c92 0 159 -35 205 -96l-12 -11c-45 58 -105 91 -193 91h-7c-202 0 -247 -198 -248 -347c37 79 123 138 234 138zM313 10c138 0 234 97 234 219
c0 123 -96 221 -234 221s-233 -98 -233 -205c0 -123 80 -235 233 -235z" />
    <glyph glyph-name="seven.osf" horiz-adv-x="534" 
d="M484 532l-411 -680h-21l403 669h-405v16h434v-5z" />
    <glyph glyph-name="eight.osf" horiz-adv-x="604" 
d="M380 368c97 -22 163 -86 163 -184c0 -123 -104 -191 -242 -191h-4c-135 2 -237 69 -237 191c0 98 66 162 163 184c-75 19 -133 69 -133 158c0 117 102 167 207 168h4c107 0 212 -49 212 -168c0 -89 -58 -139 -133 -158zM109 526c0 -108 95 -150 193 -150
c97 0 193 42 193 150c0 109 -96 152 -193 152c-98 0 -193 -43 -193 -152zM302 10c128 0 223 62 223 174s-89 172 -223 175c-66 0 -223 -22 -223 -175c0 -112 95 -174 223 -174z" />
    <glyph glyph-name="nine.osf" horiz-adv-x="625" 
d="M313 71c-148 0 -253 104 -253 237s105 236 252 236c163 0 252 -118 252 -251l1 -80c0 -157 -53 -368 -266 -368h-8c-91 0 -158 35 -204 96l12 11c44 -58 105 -91 192 -91h8c202 0 247 198 247 347c-36 -79 -122 -137 -233 -137zM312 528c-138 0 -234 -98 -234 -220
c0 -123 96 -221 234 -221s233 98 233 206c0 122 -80 235 -233 235z" />
    <glyph glyph-name="zero.tf" horiz-adv-x="853" 
d="M426 707c197 0 357 -160 357 -357c0 -198 -160 -357 -357 -357s-356 159 -356 357c0 197 159 357 356 357zM426 691c-188 0 -338 -151 -338 -341c0 -191 150 -341 338 -341s339 150 339 341c0 190 -151 341 -339 341z" />
    <glyph glyph-name="one.tf" horiz-adv-x="278" 
d="M207 0h-18v656l-104 -124l-15 11l132 157h5v-700z" />
    <glyph glyph-name="two.tf" horiz-adv-x="649" 
d="M579 0h-509v6l327 305c112 104 143 144 143 215c0 104 -102 165 -205 165h-13c-96 0 -180 -39 -224 -112l-12 11c45 77 135 117 236 117h13c112 0 223 -70 223 -181c0 -83 -46 -130 -162 -239l-291 -271h474v-16z" />
    <glyph glyph-name="three.tf" 
d="M565 694l-325 -286c31 10 64 14 113 15c153 0 229 -81 229 -193c0 -143 -103 -234 -239 -237h-11c-136 2 -229 64 -262 164l12 10c33 -98 121 -158 255 -158h7c127 3 220 85 220 220c0 105 -66 176 -210 176c-61 0 -106 -9 -145 -28l-15 11l334 296h-398v16h435v-6z" />
    <glyph glyph-name="four.tf" horiz-adv-x="671" 
d="M511 162v-162h-18v162h-423v5l435 533h6v-522h90v-16h-90zM493 656l-393 -478h393v478z" />
    <glyph glyph-name="five.tf" 
d="M522 684h-383v-298c52 38 132 57 215 57c137 0 228 -81 228 -214c0 -143 -104 -236 -238 -236h-12c-136 2 -229 64 -262 164l12 10c33 -98 121 -158 255 -158h7c126 3 220 85 220 220c0 126 -81 198 -210 198c-88 0 -171 -22 -220 -67l-14 11v329h402v-16z" />
    <glyph glyph-name="six.tf" horiz-adv-x="645" 
d="M322 467c148 0 253 -105 253 -238s-105 -236 -253 -236c-162 0 -251 118 -251 251l-1 80c0 172 53 383 266 383h7c92 0 159 -35 205 -96l-12 -11c-45 58 -105 91 -193 91h-7c-203 0 -247 -198 -248 -362c37 79 123 138 234 138zM323 10c138 0 234 97 234 219
c0 123 -96 221 -234 221s-233 -98 -233 -205c0 -123 80 -235 233 -235z" />
    <glyph glyph-name="seven.tf" horiz-adv-x="581" 
d="M511 694l-420 -694h-21l412 684h-405v16h434v-6z" />
    <glyph glyph-name="eight.tf" horiz-adv-x="624" 
d="M390 381c97 -22 163 -87 163 -190c0 -127 -100 -195 -233 -198h-9c-137 0 -241 68 -241 198c0 103 66 168 163 190c-75 20 -133 69 -133 158c0 115 97 164 199 168h12c107 0 212 -49 212 -168c0 -89 -58 -138 -133 -158zM119 540c0 -109 95 -151 193 -151
c97 0 193 42 193 151c0 108 -96 151 -193 151c-98 0 -193 -43 -193 -151zM312 10c128 0 223 62 223 181c0 118 -89 178 -223 181c-66 0 -223 -22 -223 -181c0 -119 95 -181 223 -181z" />
    <glyph glyph-name="nine.tf" horiz-adv-x="645" 
d="M323 234c-148 0 -253 104 -253 237s105 236 252 236c163 0 252 -118 252 -251l1 -80c0 -172 -53 -383 -266 -383h-8c-91 0 -158 35 -204 96l12 11c44 -58 105 -91 192 -91h8c202 0 247 198 247 362c-36 -79 -123 -137 -233 -137zM323 691c-138 0 -234 -98 -234 -220
c0 -123 96 -221 234 -221s233 98 233 206c0 122 -80 235 -233 235z" />
    <glyph glyph-name="zero.tosf" horiz-adv-x="691" 
d="M345 548c152 0 275 -123 275 -275c0 -153 -123 -276 -275 -276s-275 123 -275 276c0 152 123 275 275 275zM345 532c-141 0 -257 -117 -257 -259c0 -143 116 -259 257 -259c140 0 257 116 257 259c0 142 -117 259 -257 259z" />
    <glyph glyph-name="one.tosf" horiz-adv-x="278" 
d="M207 0h-18v498l-104 -125l-15 12l132 156h5v-541z" />
    <glyph glyph-name="two.tosf" horiz-adv-x="649" 
d="M579 0h-509v6l337 211c107 67 133 101 133 168c0 74 -79 143 -206 143h-12c-97 0 -180 -38 -224 -111l-12 10c45 77 135 117 236 117h12c135 0 224 -77 224 -159c0 -78 -38 -120 -152 -191l-283 -178h456v-16z" />
    <glyph glyph-name="three.tosf" 
d="M565 532l-325 -287c30 10 64 15 113 15c153 0 229 -81 229 -193c0 -129 -103 -219 -239 -222h-11c-136 2 -229 64 -262 164l12 11c33 -99 121 -159 255 -159h6c127 2 221 84 221 205c0 105 -66 177 -210 177c-61 0 -106 -10 -145 -29l-15 11l334 296h-398v16h435v-5z" />
    <glyph glyph-name="four.tosf" horiz-adv-x="671" 
d="M511 14v-162h-18v162h-423v5l435 518h6v-507h90v-16h-90zM493 493l-393 -463h393v463z" />
    <glyph glyph-name="five.tosf" 
d="M522 521h-383v-298c52 38 132 57 215 57c137 0 228 -81 228 -213c0 -129 -104 -219 -238 -222h-12c-136 2 -229 64 -262 164l12 11c33 -99 121 -159 255 -159h5c127 2 222 84 222 205c0 126 -81 198 -210 198c-88 0 -171 -21 -220 -67l-14 11v329h402v-16z" />
    <glyph glyph-name="six.tosf" horiz-adv-x="645" 
d="M322 467c148 0 253 -105 253 -238s-105 -236 -253 -236c-162 0 -251 118 -251 251l-1 81c0 156 53 367 266 367h7c92 0 159 -35 205 -96l-12 -11c-45 58 -105 91 -193 91h-7c-202 0 -247 -198 -248 -347c37 79 123 138 234 138zM323 10c138 0 234 97 234 219
c0 123 -96 221 -234 221s-233 -98 -233 -205c0 -123 80 -235 233 -235z" />
    <glyph glyph-name="seven.tosf" horiz-adv-x="574" 
d="M504 532l-411 -680h-21l403 669h-405v16h434v-5z" />
    <glyph glyph-name="eight.tosf" horiz-adv-x="624" 
d="M390 368c97 -22 163 -86 163 -184c0 -123 -104 -191 -242 -191h-4c-135 2 -237 69 -237 191c0 98 66 162 163 184c-75 19 -133 69 -133 158c0 117 102 167 207 168h4c107 0 212 -49 212 -168c0 -89 -58 -139 -133 -158zM119 526c0 -108 95 -150 193 -150
c97 0 193 42 193 150c0 109 -96 152 -193 152c-98 0 -193 -43 -193 -152zM312 10c128 0 223 62 223 174s-89 172 -223 175c-66 0 -223 -22 -223 -175c0 -112 95 -174 223 -174z" />
    <glyph glyph-name="nine.tosf" horiz-adv-x="645" 
d="M323 71c-148 0 -253 104 -253 237s105 236 252 236c163 0 252 -118 252 -251l1 -80c0 -157 -53 -368 -266 -368h-8c-91 0 -158 35 -204 96l12 11c44 -58 105 -91 192 -91h8c202 0 247 198 247 347c-36 -79 -122 -137 -233 -137zM323 528c-138 0 -234 -98 -234 -220
c0 -123 96 -221 234 -221s233 98 233 206c0 122 -80 235 -233 235z" />
    <glyph glyph-name="fraction" unicode="&#x2044;" horiz-adv-x="434" 
d="M383 700l-314 -700h-19l314 700h19z" />
    <glyph glyph-name="onehalf" unicode="&#xbd;" horiz-adv-x="790" 
d="M173 382h-19v275l-69 -83l-15 11l97 115h6v-318zM181 0h-19l314 700h19zM720 0h-304v6l198 123c49 29 75 54 75 95c0 36 -40 84 -111 84h-7c-65 0 -113 -40 -132 -66l-13 13c24 34 78 71 144 71h8c85 0 130 -54 130 -103c0 -55 -42 -84 -94 -117l-143 -89h249v-17z" />
    <glyph glyph-name="onequarter" unicode="&#xbc;" horiz-adv-x="705" 
d="M154 657l-69 -83l-15 11l97 115h6v-318h-19v275zM181 0h-19l314 700h19zM587 72v-72h-19v72h-213v7l225 239h7v-228h47v-18h-47zM568 277l-175 -187h175v187z" />
    <glyph glyph-name="threequarters" unicode="&#xbe;" horiz-adv-x="841" 
d="M341 694l-166 -131c8 4 24 7 51 7c90 0 134 -38 134 -91c0 -60 -56 -104 -138 -104h-6c-86 1 -132 45 -146 69l14 13c11 -19 49 -65 135 -65c68 1 122 39 122 87c0 39 -39 73 -114 73c-44 0 -59 -5 -74 -11l-17 13l164 129h-193v17h234v-6zM317 0h-19l314 700h19zM723 72
v-72h-19v72h-213v7l225 239h7v-228h47v-18h-47zM704 277l-175 -187h175v187z" />
    <glyph glyph-name="oneeighth" unicode="&#x215b;" horiz-adv-x="762" 
d="M154 382v275l-69 -83l-15 11l97 115h6v-318h-19zM181 0h-19l314 700h19zM622 172c43 -14 70 -44 70 -85c0 -58 -53 -93 -126 -94h-4c-75 0 -129 35 -129 94c0 41 27 71 70 85c-33 12 -56 36 -56 72c0 54 52 80 110 81h5c61 0 116 -26 116 -81c0 -36 -23 -60 -56 -72z
M563 181c30 0 96 7 96 63c0 43 -44 64 -96 64s-96 -21 -96 -64c0 -42 42 -62 96 -63zM562 11c65 0 110 29 110 76c0 46 -45 76 -110 76s-110 -30 -110 -76c0 -47 45 -76 110 -76z" />
    <glyph glyph-name="threeeighths" unicode="&#x215c;" horiz-adv-x="899" 
d="M341 694l-166 -131c8 4 24 7 51 7c90 0 134 -38 134 -91c0 -60 -56 -104 -138 -104h-6c-86 1 -132 45 -146 69l14 13c11 -19 49 -65 135 -65c68 1 122 39 122 87c0 39 -39 73 -114 73c-44 0 -59 -5 -74 -11l-17 13l164 129h-193v17h234v-6zM317 0h-19l314 700h19z
M758 172c43 -14 70 -44 70 -85c0 -58 -53 -93 -126 -94h-4c-75 0 -129 35 -129 94c0 41 27 71 70 85c-33 12 -56 36 -56 72c0 54 52 80 110 81h5c61 0 116 -26 116 -81c0 -36 -23 -60 -56 -72zM699 181c30 0 96 7 96 63c0 43 -44 64 -96 64s-96 -21 -96 -64
c0 -42 42 -62 96 -63zM699 11c65 0 110 29 110 76c0 46 -45 76 -110 76s-110 -30 -110 -76c0 -47 45 -76 110 -76z" />
    <glyph glyph-name="fiveeighths" unicode="&#x215d;" horiz-adv-x="870" 
d="M335 682h-213v-124c19 11 57 21 105 21c90 0 133 -38 133 -100c0 -60 -56 -104 -138 -104h-6c-86 1 -132 45 -146 69l14 13c11 -19 49 -65 135 -64c68 0 122 38 122 86s-39 82 -114 82c-44 0 -83 -7 -107 -21l-17 5v155h232v-18zM289 0h-19l314 700h19zM730 172
c43 -14 70 -44 70 -85c0 -58 -53 -93 -126 -94h-4c-75 0 -129 35 -129 94c0 41 27 71 70 85c-33 12 -56 36 -56 72c0 54 52 80 110 81h5c61 0 116 -26 116 -81c0 -36 -23 -60 -56 -72zM671 181c30 0 96 7 96 63c0 43 -44 64 -96 64s-96 -21 -96 -64c0 -42 42 -62 96 -63z
M670 11c65 0 110 29 110 76c0 46 -45 76 -110 76s-110 -30 -110 -76c0 -47 45 -76 110 -76z" />
    <glyph glyph-name="seveneighths" unicode="&#x215e;" horiz-adv-x="760" 
d="M70 382l206 301h-195v17h226v-6l-215 -312h-22zM178 0h-19l314 700h19zM619 172c43 -14 70 -44 70 -85c0 -58 -53 -93 -126 -94h-4c-75 0 -129 35 -129 94c0 41 27 71 70 85c-33 12 -56 36 -56 72c0 54 52 80 110 81h5c61 0 116 -26 116 -81c0 -36 -23 -60 -56 -72z
M560 181c30 0 96 7 96 63c0 43 -44 64 -96 64s-96 -21 -96 -64c0 -42 42 -62 96 -63zM560 11c65 0 110 29 110 76c0 46 -45 76 -110 76s-110 -30 -110 -76c0 -47 45 -76 110 -76z" />
    <glyph glyph-name="zero.dnom" horiz-adv-x="433" 
d="M216 325c92 0 166 -74 166 -166s-74 -166 -166 -166s-166 74 -166 166s74 166 166 166zM217 308c-88 0 -147 -62 -147 -149s59 -148 147 -148s147 61 147 148s-59 149 -147 149z" />
    <glyph glyph-name="one.dnom" horiz-adv-x="203" 
d="M153 0h-19v275l-69 -83l-15 11l97 115h6v-318z" />
    <glyph glyph-name="two.dnom" horiz-adv-x="404" 
d="M354 0h-304v6l198 123c49 29 75 54 75 95c0 36 -40 84 -111 84h-7c-65 0 -113 -40 -132 -66l-13 13c24 34 78 71 144 71h8c85 0 130 -54 130 -103c0 -55 -42 -84 -94 -117l-143 -89h249v-17z" />
    <glyph glyph-name="three.dnom" horiz-adv-x="390" 
d="M321 312l-166 -131c8 4 24 7 51 7c90 0 134 -38 134 -91c0 -60 -56 -104 -138 -104h-6c-86 1 -132 45 -146 70l14 12c11 -19 49 -64 135 -64c68 0 122 38 122 86c0 39 -39 73 -114 73c-44 0 -59 -5 -74 -11l-17 13l164 129h-193v17h234v-6z" />
    <glyph glyph-name="four.dnom" horiz-adv-x="379" 
d="M282 72v-72h-19v72h-213v7l225 239h7v-228h47v-18h-47zM263 277l-175 -187h175v187z" />
    <glyph glyph-name="five.dnom" horiz-adv-x="390" 
d="M315 300h-213v-123c19 10 57 20 105 20c90 0 133 -38 133 -100c0 -60 -56 -104 -138 -104h-6c-86 1 -132 45 -146 70l14 12c11 -19 49 -64 135 -64c68 0 122 38 122 86c0 49 -39 82 -114 82c-44 0 -83 -7 -107 -21l-17 5v155h232v-18z" />
    <glyph glyph-name="six.dnom" horiz-adv-x="372" 
d="M185 219c82 0 136 -50 136 -113c0 -64 -55 -113 -136 -113c-92 0 -134 56 -134 119l-1 39c0 73 25 174 142 174h3c49 0 86 -19 107 -46l-13 -13c-14 17 -46 41 -94 41h-3c-92 0 -118 -78 -122 -137c23 29 64 49 115 49zM186 11c70 0 117 42 117 95s-47 95 -117 95
s-116 -42 -116 -89c0 -53 40 -101 116 -101z" />
    <glyph glyph-name="seven.dnom" horiz-adv-x="337" 
d="M287 312l-215 -312h-22l206 301h-195v17h226v-6z" />
    <glyph glyph-name="eight.dnom" horiz-adv-x="359" 
d="M239 172c43 -14 70 -44 70 -85c0 -58 -53 -93 -126 -94h-4c-75 0 -129 35 -129 94c0 41 27 71 70 85c-33 12 -56 36 -56 72c0 54 52 80 110 81h5c61 0 116 -26 116 -81c0 -36 -23 -60 -56 -72zM180 181c30 0 96 7 96 63c0 43 -44 64 -96 64s-96 -21 -96 -64
c0 -42 42 -62 96 -63zM180 11c65 0 110 29 110 76c0 46 -45 76 -110 76s-110 -30 -110 -76c0 -47 45 -76 110 -76z" />
    <glyph glyph-name="nine.dnom" horiz-adv-x="372" 
d="M186 99c-81 0 -136 50 -136 114c0 63 55 112 136 112c93 0 135 -56 135 -119v-39c0 -73 -25 -174 -141 -174h-4c-48 0 -85 19 -107 46l14 13c14 -17 46 -41 93 -41h4c91 0 117 78 121 137c-23 -29 -64 -49 -115 -49zM186 307c-71 0 -117 -42 -117 -94
c0 -53 46 -96 117 -96c70 0 116 43 116 89c0 53 -40 101 -116 101z" />
    <glyph glyph-name="zero.numr" horiz-adv-x="433" 
d="M216 707c92 0 166 -74 166 -166s-74 -166 -166 -166s-166 74 -166 166s74 166 166 166zM217 689c-88 0 -147 -61 -147 -148s59 -149 147 -149s147 62 147 149s-59 148 -147 148z" />
    <glyph glyph-name="one.numr" horiz-adv-x="203" 
d="M153 382h-19v275l-69 -83l-15 11l97 115h6v-318z" />
    <glyph glyph-name="two.numr" horiz-adv-x="404" 
d="M354 381h-304v7l198 122c49 30 75 55 75 95c0 37 -40 84 -111 84h-7c-65 0 -113 -40 -132 -65l-13 12c24 34 78 71 144 71h8c85 0 130 -53 130 -102c0 -55 -42 -85 -94 -117l-143 -89h249v-18z" />
    <glyph glyph-name="three.numr" horiz-adv-x="390" 
d="M321 694l-166 -131c8 4 24 7 51 7c90 0 134 -38 134 -91c0 -60 -56 -104 -138 -104h-6c-86 1 -132 45 -146 69l14 13c11 -19 49 -65 135 -65c68 1 122 39 122 87c0 39 -39 73 -114 73c-44 0 -59 -5 -74 -11l-17 13l164 129h-193v17h234v-6z" />
    <glyph glyph-name="four.numr" horiz-adv-x="379" 
d="M282 454v-72h-19v72h-213v6l225 240h7v-229h47v-17h-47zM263 659l-175 -188h175v188z" />
    <glyph glyph-name="five.numr" horiz-adv-x="390" 
d="M315 682h-213v-124c19 11 57 21 105 21c90 0 133 -38 133 -100c0 -60 -56 -104 -138 -104h-6c-86 1 -132 45 -146 69l14 13c11 -19 49 -65 135 -64c68 0 122 38 122 86s-39 82 -114 82c-44 0 -83 -7 -107 -21l-17 5v155h232v-18z" />
    <glyph glyph-name="six.numr" horiz-adv-x="372" 
d="M185 601c82 0 136 -50 136 -113c0 -64 -55 -113 -136 -113c-92 0 -134 56 -134 119l-1 39c0 73 25 174 142 174h3c49 0 86 -19 107 -46l-13 -13c-14 17 -46 41 -94 41h-3c-92 0 -118 -78 -122 -137c23 29 64 49 115 49zM186 393c70 0 117 42 117 95s-47 95 -117 95
s-116 -42 -116 -89c0 -53 40 -101 116 -101z" />
    <glyph glyph-name="seven.numr" horiz-adv-x="337" 
d="M287 694l-215 -312h-22l206 301h-195v17h226v-6z" />
    <glyph glyph-name="eight.numr" horiz-adv-x="359" 
d="M239 554c43 -14 70 -44 70 -86c0 -57 -53 -92 -126 -93h-4c-75 0 -129 35 -129 93c0 42 27 72 70 86c-33 12 -56 35 -56 71c0 54 52 81 110 82h5c61 0 116 -26 116 -82c0 -36 -23 -59 -56 -71zM180 562c30 0 96 8 96 64c0 43 -44 63 -96 63s-96 -20 -96 -63
s42 -63 96 -64zM180 393c65 0 110 28 110 75s-45 76 -110 76s-110 -29 -110 -76s45 -75 110 -75z" />
    <glyph glyph-name="nine.numr" horiz-adv-x="372" 
d="M186 481c-81 0 -136 50 -136 113c0 64 55 113 136 113c93 0 135 -56 135 -119v-39c0 -73 -25 -174 -141 -174h-4c-48 0 -85 19 -107 46l14 13c14 -17 46 -41 93 -41h4c91 0 117 78 121 137c-23 -29 -64 -49 -115 -49zM186 689c-71 0 -117 -42 -117 -95s46 -95 117 -95
c70 0 116 42 116 89c0 53 -40 101 -116 101z" />
    <glyph glyph-name="asterisk" unicode="*" horiz-adv-x="431" 
d="M311 451l-16 -11l-80 110l-80 -110l-15 11l79 110l-129 43l6 18l129 -42l1 136h19v-136l129 42l6 -18l-129 -43z" />
    <glyph glyph-name="backslash" unicode="\" horiz-adv-x="476" 
d="M405 0h-19l-316 700h19z" />
    <glyph glyph-name="bullet" unicode="&#x2022;" horiz-adv-x="357" 
d="M178 420c61 0 108 -48 108 -108s-47 -108 -108 -108c-60 0 -108 48 -108 108s48 108 108 108z" />
    <glyph glyph-name="colon" unicode=":" horiz-adv-x="181" 
d="M90 316c11 0 20 -9 20 -20c0 -12 -9 -21 -20 -21s-20 9 -20 21c0 11 9 20 20 20zM90 33c11 0 20 -9 20 -20s-9 -20 -20 -20s-20 9 -20 20s9 20 20 20z" />
    <glyph glyph-name="comma" unicode="," horiz-adv-x="206" 
d="M135 33l-54 -125h-11l35 125h30z" />
    <glyph glyph-name="ellipsis" unicode="&#x2026;" horiz-adv-x="518" 
d="M90 33c11 0 20 -9 20 -20s-9 -20 -20 -20s-20 9 -20 20s9 20 20 20zM259 33c11 0 20 -9 20 -20s-9 -20 -20 -20s-20 9 -20 20s9 20 20 20zM428 33c11 0 20 -9 20 -20s-9 -20 -20 -20s-20 9 -20 20s9 20 20 20z" />
    <glyph glyph-name="exclam" unicode="!" horiz-adv-x="181" 
d="M99 700v-330l-5 -228h-8l-5 228v330h18zM90 33c11 0 20 -9 20 -20s-9 -20 -20 -20s-20 9 -20 20s9 20 20 20z" />
    <glyph glyph-name="exclamdown" unicode="&#xa1;" horiz-adv-x="181" 
d="M90 550c11 0 20 -9 20 -20s-9 -20 -20 -20s-20 9 -20 20s9 20 20 20zM81 -157v330l5 228h8l5 -228v-330h-18z" />
    <glyph glyph-name="numbersign" unicode="#" horiz-adv-x="703" 
d="M432 253h161l-4 -19h-161l-50 -234h-19l50 234h-165l-51 -234h-19l51 234h-155l4 19h154l37 173h-154l4 18h154l54 256h19l-54 -256h165l55 256h19l-55 -256h161l-4 -18h-161zM284 426l-36 -173h166l36 173h-166z" />
    <glyph glyph-name="period" unicode="." horiz-adv-x="181" 
d="M90 33c11 0 20 -9 20 -20s-9 -20 -20 -20s-20 9 -20 20s9 20 20 20z" />
    <glyph glyph-name="periodcentered" unicode="&#xb7;" horiz-adv-x="181" 
d="M90 317c11 0 20 -9 20 -20s-9 -20 -20 -20s-20 9 -20 20s9 20 20 20z" />
    <glyph glyph-name="question" unicode="?" 
d="M332 707h11c135 -3 239 -93 239 -221c0 -131 -104 -210 -258 -212v-92h-18v109c161 0 258 67 258 195c0 121 -95 203 -223 205h-4c-134 0 -222 -68 -255 -158l-12 10c33 93 126 162 262 164zM315 33c11 0 20 -9 20 -20s-9 -20 -20 -20s-20 9 -20 20s9 20 20 20z" />
    <glyph glyph-name="questiondown" unicode="&#xbf;" 
d="M337 516c-11 0 -20 9 -20 20s9 20 20 20s20 -9 20 -20s-9 -20 -20 -20zM321 -159h-12c-135 4 -239 94 -239 222c0 131 105 210 258 212v92h18v-109c-161 0 -258 -67 -258 -195c0 -121 96 -203 223 -206h4c135 1 223 68 256 159l11 -11c-32 -92 -126 -161 -261 -164z" />
    <glyph glyph-name="quotedbl" unicode="&#x22;" horiz-adv-x="230" 
d="M84 561h-9l-5 139h19zM155 561h-9l-5 139h19z" />
    <glyph glyph-name="quotesingle" unicode="'" horiz-adv-x="159" 
d="M84 561h-9l-5 139h19z" />
    <glyph glyph-name="semicolon" unicode=";" horiz-adv-x="211" 
d="M120 316c11 0 20 -9 20 -20c0 -12 -9 -21 -20 -21s-20 9 -20 21c0 11 9 20 20 20zM135 33l-54 -125h-11l35 125h30z" />
    <glyph glyph-name="slash" unicode="/" horiz-adv-x="476" 
d="M405 700l-316 -700h-19l316 700h19z" />
    <glyph glyph-name="underscore" unicode="_" horiz-adv-x="554" 
d="M484 -100h-414v19h414v-19z" />
    <glyph glyph-name="braceleft" unicode="{" horiz-adv-x="358" 
d="M288 734h-36c-27 0 -51 -23 -51 -56v-260c0 -51 -32 -95 -79 -113c47 -19 79 -62 79 -114v-259c0 -33 24 -56 51 -56h36v-16h-35c-37 0 -70 30 -70 74v259c0 56 -46 101 -108 104h-5v16h5c62 2 108 47 108 104v259c0 44 33 74 70 74h35v-16z" />
    <glyph glyph-name="braceright" unicode="}" horiz-adv-x="358" 
d="M70 750h35c37 0 69 -30 69 -74v-259c0 -57 47 -102 109 -104h5v-16h-5c-62 -3 -109 -48 -109 -104v-259c0 -44 -32 -74 -69 -74h-35v16h35c27 0 51 23 51 56v259c0 52 32 95 80 114c-48 18 -80 62 -80 113v260c0 33 -24 56 -51 56h-35v16z" />
    <glyph glyph-name="bracketleft" unicode="[" horiz-adv-x="223" 
d="M88 -124h65v-16h-83v890h83v-16h-65v-858z" />
    <glyph glyph-name="bracketright" unicode="]" horiz-adv-x="223" 
d="M70 734v16h83v-890h-83v16h65v858h-65z" />
    <glyph glyph-name="parenleft" unicode="(" horiz-adv-x="378" 
d="M307 737v-17c-98 -50 -216 -211 -219 -413v-8c0 -206 119 -365 219 -422v-17c-107 55 -237 220 -237 439v7c3 216 131 383 237 431z" />
    <glyph glyph-name="parenright" unicode=")" horiz-adv-x="378" 
d="M70 720v17c106 -48 234 -215 237 -431v-7c0 -219 -130 -384 -237 -439v17c100 57 219 216 219 422v8c-3 202 -121 363 -219 413z" />
    <glyph glyph-name="emdash" unicode="&#x2014;" horiz-adv-x="681" 
d="M610 280h-540v19h540v-19z" />
    <glyph glyph-name="endash" unicode="&#x2013;" horiz-adv-x="513" 
d="M442 280h-372v19h372v-19z" />
    <glyph glyph-name="hyphen" unicode="-" horiz-adv-x="389" 
d="M318 280h-248v19h248v-19z" />
    <glyph glyph-name="guillemotleft" unicode="&#xab;" horiz-adv-x="384" 
d="M201 357l-101 -79l101 -78v-24l-131 103l131 103v-25zM314 357l-101 -79l101 -78v-24l-131 103l131 103v-25z" />
    <glyph glyph-name="guillemotright" unicode="&#xbb;" horiz-adv-x="384" 
d="M201 279l-131 -103v24l100 78l-100 79v25zM314 279l-131 -103v24l100 78l-100 79v25z" />
    <glyph glyph-name="guilsinglleft" unicode="&#x2039;" horiz-adv-x="271" 
d="M201 357l-101 -79l101 -78v-24l-131 103l131 103v-25z" />
    <glyph glyph-name="guilsinglright" unicode="&#x203a;" horiz-adv-x="271" 
d="M201 279l-131 -103v24l100 78l-100 79v25z" />
    <glyph glyph-name="quotedblbase" unicode="&#x201e;" horiz-adv-x="269" 
d="M135 33l-54 -125h-11l35 125h30zM198 33l-54 -125h-11l35 125h30z" />
    <glyph glyph-name="quotedblleft" unicode="&#x201c;" horiz-adv-x="269" 
d="M70 575l55 125h10l-35 -125h-30zM133 575l55 125h10l-35 -125h-30z" />
    <glyph glyph-name="quotedblright" unicode="&#x201d;" horiz-adv-x="269" 
d="M135 700l-54 -125h-11l35 125h30zM198 700l-54 -125h-11l35 125h30z" />
    <glyph glyph-name="quoteleft" unicode="&#x2018;" horiz-adv-x="206" 
d="M70 575l55 125h10l-35 -125h-30z" />
    <glyph glyph-name="quoteright" unicode="&#x2019;" horiz-adv-x="206" 
d="M135 700l-54 -125h-11l35 125h30z" />
    <glyph glyph-name="quotesinglbase" unicode="&#x201a;" horiz-adv-x="206" 
d="M135 33l-54 -125h-11l35 125h30z" />
    <glyph glyph-name="space" unicode=" " horiz-adv-x="299" 
 />
    <glyph glyph-name="cent" unicode="&#xa2;" horiz-adv-x="594" 
d="M326 490v-479c75 0 142 34 185 87l12 -12c-47 -57 -118 -92 -197 -92v-92h-19v93c-133 9 -237 119 -237 255s104 247 237 256v95h19v-94c79 0 150 -36 198 -93l-13 -12c-44 54 -110 88 -185 88zM88 250c0 -128 96 -229 219 -238v477c-123 -9 -219 -111 -219 -239z" />
    <glyph glyph-name="currency" unicode="&#xa4;" horiz-adv-x="552" 
d="M477 486l-49 -49c72 -79 72 -199 0 -278l50 -49l-14 -14l-49 50c-79 -72 -200 -72 -278 0l-50 -50l-13 14l49 49c-71 79 -71 199 1 278l-50 49l14 14l49 -50c79 71 199 71 277 0l50 50zM143 166c73 -74 192 -74 265 -1c74 72 74 191 1 265c-73 73 -191 74 -265 1
c-73 -73 -74 -192 -1 -265z" />
    <glyph glyph-name="dollar" unicode="$" horiz-adv-x="657" 
d="M334 379l51 -7c139 -18 201 -74 201 -184c0 -119 -117 -195 -243 -195h-5h-4v-48h-19v49c-127 6 -214 67 -245 163l12 10c31 -93 111 -151 233 -157v355l-25 3c-148 21 -201 71 -201 158c0 111 111 181 223 181h3v43h19v-43c96 -2 182 -42 226 -117l-12 -11
c-43 71 -122 110 -214 112v-312zM315 382v309h-3c-104 0 -205 -61 -205 -165c0 -77 43 -122 183 -141zM338 9h5c117 0 225 67 225 179c0 99 -54 150 -182 167l-52 7v-353h4z" />
    <glyph glyph-name="Euro" unicode="&#x20ac;" horiz-adv-x="857" 
d="M522 9c101 0 190 42 252 112l12 -13c-65 -71 -159 -115 -264 -115c-171 0 -313 120 -348 281h-104v17h101c-3 19 -5 39 -5 59c0 21 2 43 6 63h-102v17h105c36 159 177 277 347 277c105 0 199 -45 264 -117l-12 -11c-62 69 -151 112 -252 112c-161 0 -294 -110 -329 -261
h435l-18 -17h-420c-4 -20 -6 -41 -6 -63c0 -20 2 -40 5 -59h300l-18 -17h-279c34 -153 168 -265 330 -265z" />
    <glyph glyph-name="sterling" unicode="&#xa3;" horiz-adv-x="670" 
d="M601 16v-16h-531v20c127 21 140 41 95 323h-95v16h92l-22 133c-29 173 102 215 209 215h13c100 0 190 -40 235 -117l-11 -11c-45 73 -128 112 -224 112h-13c-97 0 -219 -38 -191 -200l23 -132h237v-16h-235c41 -246 33 -295 -46 -327h464z" />
    <glyph glyph-name="yen" unicode="&#xa5;" horiz-adv-x="725" 
d="M377 256h195v-19h-201v-89h201v-19h-201v-129h-18v129h-200v19h200v89h-200v19h193l-276 444h21l272 -436l271 436h21z" />
    <glyph glyph-name="approxequal" unicode="&#x2248;" horiz-adv-x="543" 
d="M70 306l43 53c35 41 93 33 135 8l61 -36c33 -19 80 -26 107 9l29 39h28l-44 -53c-34 -42 -92 -33 -134 -8l-61 36c-33 19 -81 26 -107 -9l-29 -39h-28zM473 257l-44 -53c-34 -41 -92 -33 -134 -8l-61 36c-33 19 -81 26 -107 -9l-29 -39h-28l43 53c35 42 93 33 135 8
l61 -36c33 -19 80 -26 107 9l29 39h28z" />
    <glyph glyph-name="asciitilde" unicode="~" horiz-adv-x="543" 
d="M473 325l-44 -52c-34 -42 -92 -33 -134 -9l-61 36c-33 19 -81 26 -107 -9l-29 -39h-28l43 53c35 41 93 33 135 8l61 -36c33 -19 80 -26 106 9l30 39h28z" />
    <glyph glyph-name="divide" unicode="&#xf7;" horiz-adv-x="555" 
d="M278 442c11 0 20 -9 20 -20c0 -12 -9 -20 -20 -20s-20 8 -20 20c0 11 9 20 20 20zM484 250h-414v16h414v-16zM278 109c11 0 20 -9 20 -20s-9 -20 -20 -20s-20 9 -20 20s9 20 20 20z" />
    <glyph glyph-name="emptyset" unicode="&#x2205;" 
d="M573 485l-59 -59c43 -46 69 -108 69 -176c0 -142 -115 -256 -257 -256c-67 0 -129 26 -174 68l-62 -62l-13 14l61 61c-42 46 -68 107 -68 175c0 142 114 257 256 257c67 0 129 -26 175 -68l59 59zM88 250c0 -63 23 -120 62 -163l338 339c-42 40 -99 64 -162 64
c-133 0 -238 -106 -238 -240zM326 11c132 0 238 105 238 239c0 63 -24 120 -63 163l-337 -339c42 -39 99 -63 162 -63z" />
    <glyph glyph-name="equal" unicode="=" horiz-adv-x="555" 
d="M484 362h-414v19h414v-19zM484 216h-414v19h414v-19z" />
    <glyph glyph-name="greater" unicode="&#x3e;" horiz-adv-x="449" 
d="M378 342l-308 -203v24l273 178l-273 179v24z" />
    <glyph glyph-name="greaterequal" unicode="&#x2265;" horiz-adv-x="449" 
d="M378 312l-308 -202v23l273 179l-273 179v24zM378 0h-308v19h308v-19z" />
    <glyph glyph-name="infinity" unicode="&#x221e;" horiz-adv-x="754" 
d="M195 321h7c48 0 112 -35 175 -115c63 80 126 115 175 115h6c71 0 125 -58 125 -129v-11c0 -71 -54 -129 -125 -129h-6c-49 0 -112 35 -175 115c-63 -80 -127 -115 -175 -115h-7c-70 0 -125 48 -125 129v11c0 71 55 129 125 129zM205 304h-6c-65 0 -110 -55 -110 -112v-11
c0 -68 45 -112 110 -112h6c50 0 102 35 163 119c-59 81 -116 116 -163 116zM555 304h-7c-47 0 -103 -35 -163 -117c60 -87 118 -118 163 -118h7c65 0 109 55 109 112v11c0 57 -44 112 -109 112z" />
    <glyph glyph-name="integral" unicode="&#x222b;" horiz-adv-x="336" 
d="M266 734h-14c-67 0 -93 -55 -90 -108l30 -640c3 -63 -32 -126 -109 -126h-13v16h14c66 0 93 55 90 109l-30 639c-3 63 32 126 108 126h14v-16z" />
    <glyph glyph-name="less" unicode="&#x3c;" horiz-adv-x="449" 
d="M378 520l-273 -179l273 -178v-24l-308 203l308 202v-24z" />
    <glyph glyph-name="lessequal" unicode="&#x2264;" horiz-adv-x="449" 
d="M378 491l-273 -179l273 -179v-23l-308 202l308 203v-24zM378 0h-308v19h308v-19z" />
    <glyph glyph-name="logicalnot" unicode="&#xac;" horiz-adv-x="555" 
d="M467 303h-397v19h414v-145h-17v126z" />
    <glyph glyph-name="minus" unicode="&#x2212;" horiz-adv-x="555" 
d="M484 303h-414v19h414v-19z" />
    <glyph glyph-name="multiply" unicode="&#xd7;" horiz-adv-x="446" 
d="M375 452l-139 -139l139 -140l-13 -13l-139 139l-140 -139l-13 13l139 140l-139 139l13 13l140 -139l139 139z" />
    <glyph glyph-name="notequal" unicode="&#x2260;" horiz-adv-x="555" 
d="M317 362l-57 -127h224v-19h-233l-56 -124h-19l56 124h-162v19h171l57 127h-228v19h237l54 119h19l-54 -119h158v-19h-167z" />
    <glyph glyph-name="partialdiff" unicode="&#x2202;" horiz-adv-x="676" 
d="M370 707h8c213 0 250 -212 218 -383l-15 -80c-24 -133 -133 -251 -296 -251c-147 0 -234 103 -210 236c23 133 146 238 294 238c111 0 187 -59 210 -138c30 163 -2 362 -204 362h-8c-67 0 -127 -33 -167 -74l-9 11c41 44 107 79 179 79zM365 450
c-138 0 -251 -98 -272 -221c-22 -122 57 -219 195 -219c153 0 252 112 274 235c19 107 -59 205 -197 205z" />
    <glyph glyph-name="percent" unicode="%" horiz-adv-x="815" 
d="M236 707c92 0 166 -74 166 -166s-74 -166 -166 -166s-166 74 -166 166s74 166 166 166zM636 700l-436 -700h-23l436 700h23zM237 689c-88 0 -147 -61 -147 -148s59 -148 147 -148s147 61 147 148s-59 148 -147 148zM578 325c92 0 166 -74 166 -166s-74 -166 -166 -166
s-166 74 -166 166s74 166 166 166zM579 308c-88 0 -147 -62 -147 -149s59 -148 147 -148s147 61 147 148s-59 149 -147 149z" />
    <glyph glyph-name="perthousand" unicode="&#x2030;" horiz-adv-x="1198" 
d="M236 707c92 0 166 -74 166 -166s-74 -166 -166 -166s-166 74 -166 166s74 166 166 166zM200 0h-23l436 700h23zM237 689c-88 0 -147 -61 -147 -148s59 -148 147 -148s147 61 147 148s-59 148 -147 148zM578 325c92 0 166 -74 166 -166s-74 -166 -166 -166
s-166 74 -166 166s74 166 166 166zM962 325c92 0 166 -74 166 -166s-74 -166 -166 -166s-166 74 -166 166s74 166 166 166zM579 308c-88 0 -147 -62 -147 -149s59 -148 147 -148s147 61 147 148s-59 149 -147 149zM962 308c-88 0 -147 -62 -147 -149s59 -148 147 -148
s147 61 147 148s-59 149 -147 149z" />
    <glyph glyph-name="plus" unicode="+" horiz-adv-x="555" 
d="M286 321h198v-17h-198v-198h-18v198h-198v17h198v199h18v-199z" />
    <glyph glyph-name="plusminus" unicode="&#xb1;" horiz-adv-x="555" 
d="M286 368h198v-17h-198v-149h-18v149h-198v17h198v149h18v-149zM484 129h-414v19h414v-19z" />
    <glyph glyph-name="product" unicode="&#x220f;" horiz-adv-x="690" 
d="M556 684v-849h-18v849h-387v-849h-18v849h-63v16h549v-16h-63z" />
    <glyph glyph-name="radical" unicode="&#x221a;" horiz-adv-x="700" 
d="M345 0h-5l-187 481l-83 -27v16l93 30l179 -461l267 661h20z" />
    <glyph glyph-name="summation" unicode="&#x2211;" horiz-adv-x="577" 
d="M507 685h-403l283 -402l-283 -402h403v-16h-437l293 418l-292 417l436 1v-16z" />
    <glyph glyph-name="lozenge" unicode="&#x25ca;" horiz-adv-x="543" 
d="M271 -28l-201 264l201 264l201 -264zM271 463l-175 -227l175 -228l175 228z" />
    <glyph glyph-name="ampersand" unicode="&#x26;" horiz-adv-x="675" 
d="M578 0l-67 68c-43 -50 -115 -75 -200 -75h-6c-134 2 -235 70 -235 198c0 94 55 156 137 183l-57 58c-25 26 -40 61 -40 107c0 119 105 168 202 168h4c94 -2 197 -49 197 -160v-7h-18c0 108 -96 151 -183 151c-88 0 -183 -43 -183 -152c0 -42 15 -75 39 -98l341 -344
c16 25 25 57 25 93h19c0 -42 -11 -78 -31 -107l83 -83h-27zM312 10c80 0 147 24 187 71l-277 279c-80 -23 -133 -81 -133 -169c0 -119 95 -181 223 -181z" />
    <glyph glyph-name="asciicircum" unicode="^" horiz-adv-x="543" 
d="M472 375h-23l-178 271l-178 -271h-23l201 307z" />
    <glyph glyph-name="at" unicode="@" horiz-adv-x="952" 
d="M475 663c265 0 406 -182 406 -407v-177c0 -66 -39 -85 -85 -86c-44 1 -84 21 -84 89v69c-39 -93 -131 -158 -238 -158c-142 0 -256 115 -256 257s114 258 256 258c107 0 199 -66 239 -159l-1 152h20v-421c0 -58 30 -69 64 -69s64 11 64 68v177c0 216 -130 387 -385 387
c-214 0 -383 -171 -383 -386c0 -217 169 -387 383 -387c63 0 123 15 175 41l14 -14c-56 -30 -121 -47 -189 -47c-224 0 -405 181 -405 407c0 224 181 406 405 406zM475 490c-133 0 -238 -106 -238 -240s105 -240 238 -240c132 0 239 106 239 240s-107 240 -239 240z" />
    <glyph glyph-name="bar" unicode="|" horiz-adv-x="159" 
d="M89 -60h-19v760h19v-760z" />
    <glyph glyph-name="brokenbar" unicode="&#xa6;" horiz-adv-x="159" 
d="M89 380h-19v319h19v-319zM89 -60h-19v319h19v-319z" />
    <glyph glyph-name="copyright" unicode="&#xa9;" horiz-adv-x="670" 
d="M335 700c153 0 265 -125 265 -270s-112 -270 -265 -270s-265 125 -265 270s112 270 265 270zM335 683c-143 0 -245 -115 -245 -253s102 -253 245 -253c144 0 246 115 246 253s-102 253 -246 253zM337 608c55 0 104 -25 136 -64l-11 -11c-30 32 -74 58 -125 58
c-85 0 -158 -74 -158 -161s73 -160 158 -160c52 0 94 28 124 59l12 -13c-33 -39 -82 -64 -136 -64c-99 0 -178 79 -178 178c0 98 79 178 178 178z" />
    <glyph glyph-name="dagger" unicode="&#x2020;" horiz-adv-x="388" 
d="M203 499h114v-17h-114v-542h-19v542h-114v17h114v201h19v-201z" />
    <glyph glyph-name="daggerdbl" unicode="&#x2021;" horiz-adv-x="388" 
d="M203 499h114v-17h-114v-322h114v-17h-114v-203h-19v203h-114v17h114v322h-114v17h114v201h19v-201z" />
    <glyph glyph-name="degree" unicode="&#xb0;" horiz-adv-x="377" 
d="M188 707c66 0 119 -53 119 -119c0 -65 -53 -118 -119 -118c-65 0 -118 53 -118 118c0 66 53 119 118 119zM188 689c-54 0 -98 -44 -98 -101c0 -56 44 -100 98 -100c55 0 99 44 99 100c0 57 -44 101 -99 101z" />
    <glyph glyph-name="uni2116" unicode="&#x2116;" horiz-adv-x="1344" 
d="M987 707c142 0 257 -115 257 -257s-115 -256 -257 -256s-256 114 -256 256s114 257 256 257zM630 0h-6l-486 653v-653h-18v700h6l486 -653v653h18v-700zM987 690c-133 0 -238 -106 -238 -240s105 -240 238 -240c132 0 238 106 238 240s-106 240 -238 240zM751 17h473v-17
h-473v17z" />
    <glyph glyph-name="paragraph" unicode="&#xb6;" horiz-adv-x="576" 
d="M505 681h-38v-844h-18v844h-118v-844h-19v471c-132 0 -242 51 -242 192s109 200 244 200h191v-19z" />
    <glyph glyph-name="registered" unicode="&#xae;" horiz-adv-x="670" 
d="M335 700c153 0 265 -125 265 -270s-112 -270 -265 -270s-265 125 -265 270s112 270 265 270zM335 683c-143 0 -245 -115 -245 -253s102 -253 245 -253c144 0 246 115 246 253s-102 253 -246 253zM190 601h187c81 0 115 -43 115 -102c0 -56 -31 -99 -107 -102l114 -138
h-24l-115 138h-150v-138h-20v342zM209 583v-168h167c68 0 96 38 96 84c0 47 -28 84 -96 84h-167z" />
    <glyph glyph-name="section" unicode="&#xa7;" horiz-adv-x="546" 
d="M265 624h15c66 0 147 -36 184 -93l-13 -12c-34 54 -110 88 -171 88h-9c-90 0 -163 -42 -163 -111c0 -45 16 -88 132 -101l85 -9c67 -8 150 -40 150 -136c0 -48 -23 -84 -60 -107c32 -22 41 -52 41 -84c0 -80 -80 -128 -176 -128h-15c-65 0 -146 36 -183 93l13 12
c33 -54 109 -87 170 -87h9c90 0 163 41 163 110c0 45 -15 88 -132 101l-84 9c-68 8 -151 40 -151 136c0 48 24 84 60 107c-31 22 -41 52 -41 84c0 80 80 128 176 128zM148 401c-36 -20 -59 -51 -59 -96c0 -86 74 -112 132 -118l84 -10c40 -4 70 -12 93 -23
c36 20 59 51 59 96c0 86 -74 112 -132 118l-84 10c-40 4 -70 12 -93 23z" />
    <glyph glyph-name="trademark" unicode="&#x2122;" horiz-adv-x="775" 
d="M220 683v-293h-19v293h-131v17h282v-17h-132zM704 390h-19v271l-142 -156l-142 156v-271h-19v310h7l154 -168l155 168h6v-310z" />
    <glyph glyph-name="acute" unicode="&#xb4;" horiz-adv-x="240" 
d="M91 612h-21l60 87h40z" />
    <glyph glyph-name="breve" unicode="&#x2d8;" horiz-adv-x="399" 
d="M311 699h17c0 -61 -57 -108 -129 -108c-73 0 -129 47 -129 108h17c0 -52 49 -90 112 -90s112 38 112 90z" />
    <glyph glyph-name="caron" unicode="&#x2c7;" horiz-adv-x="396" 
d="M202 605h-9l-123 94h29l99 -75l98 75h29z" />
    <glyph glyph-name="cedilla" unicode="&#xb8;" horiz-adv-x="249" 
d="M116 0l-11 -51c40 11 74 -12 74 -57c0 -49 -58 -74 -109 -41v20c41 -34 90 -16 90 21s-31 52 -79 33l16 75h19z" />
    <glyph glyph-name="circumflex" unicode="&#x2c6;" horiz-adv-x="396" 
d="M296 605l-98 76l-99 -76h-29l123 94h9l123 -94h-29z" />
    <glyph glyph-name="dieresis" unicode="&#xa8;" horiz-adv-x="371" 
d="M85 676c-8 0 -15 7 -15 15c0 9 7 15 15 15c9 0 16 -6 16 -15c0 -8 -7 -15 -16 -15zM285 676c-8 0 -15 7 -15 15c0 9 7 15 15 15c9 0 16 -6 16 -15c0 -8 -7 -15 -16 -15z" />
    <glyph glyph-name="dotaccent" unicode="&#x2d9;" horiz-adv-x="171" 
d="M85 676c-8 0 -15 7 -15 15c0 9 7 16 15 16c9 0 16 -7 16 -16c0 -8 -7 -15 -16 -15z" />
    <glyph glyph-name="grave" unicode="`" horiz-adv-x="240" 
d="M110 699l60 -87h-21l-79 87h40z" />
    <glyph glyph-name="hungarumlaut" unicode="&#x2dd;" horiz-adv-x="342" 
d="M91 612h-21l60 87h40zM192 612h-21l60 87h40z" />
    <glyph glyph-name="macron" unicode="&#xaf;" horiz-adv-x="386" 
d="M316 683h-246v16h246v-16z" />
    <glyph glyph-name="ogonek" unicode="&#x2db;" horiz-adv-x="239" 
d="M149 0h20c-59 -19 -80 -50 -80 -82c0 -46 39 -66 75 -66h2v-17h-2c-46 0 -94 26 -94 83c0 40 30 68 79 82z" />
    <glyph glyph-name="ring" unicode="&#x2da;" horiz-adv-x="282" 
d="M140 707c39 0 71 -33 71 -70c0 -40 -32 -72 -71 -72c-40 0 -70 32 -70 72c0 37 30 70 70 70zM140 689c-31 0 -50 -26 -50 -53c0 -28 19 -54 50 -54s52 26 52 54c0 27 -21 53 -52 53z" />
    <glyph glyph-name="tilde" unicode="&#x2dc;" horiz-adv-x="407" 
d="M337 700l-10 -33c-13 -41 -31 -63 -63 -63c-22 0 -36 10 -48 24l-38 43c-10 10 -20 16 -35 16c-25 0 -36 -16 -46 -50l-7 -27h-20l10 34c13 40 31 63 63 63c22 0 36 -11 48 -24l38 -43c10 -10 20 -17 35 -17c25 0 36 17 46 50l7 27h20z" />
    <glyph glyph-name="commaaccentcomb" unicode="&#x326;" horiz-adv-x="0" 
d="M91 -250h-21l60 87h40z" />
    </font>
</defs>
</svg>
