<?xml version="1.0" standalone="no"?>
<!DOCTYPE svg PUBLIC "-//W3C//DTD SVG 1.1//EN" "http://www.w3.org/Graphics/SVG/1.1/DTD/svg11.dtd" >
<svg xmlns="http://www.w3.org/2000/svg" xmlns:xlink="http://www.w3.org/1999/xlink" version="1.1">
<metadata>
Created by FontForge 20160407 at Mon May  9 10:35:46 2016
 By Jimmy Wärting
Copyright (c) 2013 by Mariya Pigoulevskaya. All rights reserved.
</metadata>
<defs>
<font id="Acrom-Bold" horiz-adv-x="643" >
  <font-face 
    font-family="Acrom Bold"
    font-weight="700"
    font-stretch="normal"
    units-per-em="1000"
    panose-1="0 0 8 0 0 0 0 0 0 0"
    ascent="750"
    descent="-250"
    x-height="500"
    cap-height="700"
    bbox="0 -396 1226 1060"
    underline-thickness="50"
    underline-position="-100"
    stemh="137"
    stemv="131"
    unicode-range="U+0020-25CA"
  />
<missing-glyph horiz-adv-x="500" 
d="M0 0v700h500v-700h-500zM250 395l170 255h-340zM280 350l170 -255v510zM80 50h340l-170 255zM50 605v-510l170 255z" />
    <glyph glyph-name=".notdef" horiz-adv-x="500" 
d="M0 0v700h500v-700h-500zM250 395l170 255h-340zM280 350l170 -255v510zM80 50h340l-170 255zM50 605v-510l170 255z" />
    <glyph glyph-name="A" unicode="A" horiz-adv-x="739" 
d="M246 128l-50 -128h-153l288 700h81l284 -700h-153l-50 128h-247zM370 450l-76 -191h151z" />
    <glyph glyph-name="Aacute" unicode="&#xc1;" horiz-adv-x="739" 
d="M416 750h-96l85 146h136zM696 0h-153l-50 128h-247l-50 -128h-153l288 700h81zM294 259h151l-75 191z" />
    <glyph glyph-name="Abreve" unicode="&#x102;" horiz-adv-x="739" 
d="M440 902h87c0 -88 -70 -152 -157 -152s-157 64 -157 152h88c0 -36 30 -64 69 -64s70 28 70 64zM696 0h-153l-50 128h-247l-50 -128h-153l288 700h81zM294 259h151l-75 191z" />
    <glyph glyph-name="Acaron" unicode="&#x1cd;" horiz-adv-x="739" 
d="M432 750h-127l-88 146h96l56 -51l55 52h96zM696 0h-153l-50 128h-247l-50 -128h-153l288 700h81zM294 259h151l-75 191z" />
    <glyph glyph-name="Acircumflex" unicode="&#xc2;" horiz-adv-x="739" 
d="M521 750h-96l-55 52l-56 -52h-96l88 147h127zM696 0h-153l-50 128h-247l-50 -128h-153l288 700h81zM294 259h151l-75 191z" />
    <glyph glyph-name="Adieresis" unicode="&#xc4;" horiz-adv-x="739" 
d="M262 750c-41 0 -74 29 -74 66s33 66 74 66c42 0 75 -29 75 -66s-33 -66 -75 -66zM477 750c-41 0 -74 29 -74 66s33 66 74 66c42 0 75 -29 75 -66s-33 -66 -75 -66zM246 128l-50 -128h-153l288 700h81l284 -700h-153l-50 128h-247zM370 450l-76 -191h151z" />
    <glyph glyph-name="Agrave" unicode="&#xc0;" horiz-adv-x="739" 
d="M423 750h-96l-125 146h136zM696 0h-153l-50 128h-247l-50 -128h-153l288 700h81zM294 259h151l-75 191z" />
    <glyph glyph-name="Amacron" unicode="&#x100;" horiz-adv-x="739" 
d="M501 750h-262v94h262v-94zM246 128l-50 -128h-153l288 700h81l284 -700h-153l-50 128h-247zM370 450l-76 -191h151z" />
    <glyph glyph-name="Aogonek" unicode="&#x104;" horiz-adv-x="739" 
d="M635 -53c0 -21 17 -32 45 -32h16v-79h-9c-55 0 -105 23 -105 76c0 36 22 64 78 88h-117l-50 128h-247l-50 -128h-153l288 700h81l284 -700c-47 -19 -61 -35 -61 -53zM445 259l-75 191l-76 -191h151z" />
    <glyph glyph-name="Aring" unicode="&#xc5;" horiz-adv-x="739" 
d="M369 939c52 0 95 -43 95 -94c0 -53 -43 -95 -95 -95s-94 42 -94 95c0 51 42 94 94 94zM370 877c-19 0 -32 -15 -32 -32c0 -18 13 -33 32 -33c18 0 32 15 32 33c0 17 -14 32 -32 32zM246 128l-50 -128h-153l288 700h81l284 -700h-153l-50 128h-247zM370 450l-76 -191h151z
" />
    <glyph glyph-name="Atilde" unicode="&#xc3;" horiz-adv-x="739" 
d="M531 861l-27 -70c-13 -34 -36 -51 -63 -53c-22 -2 -42 5 -56 15l-41 29c-13 9 -27 13 -39 12c-13 -2 -21 -10 -27 -25l-7 -19h-57l27 70c13 34 36 50 62 53c22 2 43 -4 57 -15l41 -29c12 -8 24 -13 36 -12c14 1 24 9 30 25l7 19h57zM246 128l-50 -128h-153l288 700h81
l284 -700h-153l-50 128h-247zM370 450l-76 -191h151z" />
    <glyph glyph-name="AE" unicode="&#xc6;" horiz-adv-x="888" 
d="M507 417h303v-130h-303v-157h329v-130h-467v128h-123l-50 -128h-153l288 700h505v-130h-329v-153zM369 448l-75 -189h75v189z" />
    <glyph glyph-name="B" unicode="B" horiz-adv-x="692" 
d="M105 700h270c203 0 237 -117 237 -186c0 -78 -38 -127 -92 -149c73 -17 119 -81 119 -164c0 -111 -62 -201 -259 -201h-275v700zM243 570v-150h147c74 0 92 42 92 75c0 32 -14 75 -92 75h-147zM243 301v-170h166c75 0 100 40 100 85c0 44 -28 85 -100 85h-166z" />
    <glyph glyph-name="C" unicode="C" horiz-adv-x="731" 
d="M414 707c104 0 198 -45 264 -116l-90 -83c-45 44 -106 69 -174 69c-122 0 -218 -93 -218 -227c0 -135 96 -227 218 -227c68 0 129 24 174 69l90 -83c-66 -71 -160 -116 -264 -116c-197 0 -356 160 -356 357s159 357 356 357z" />
    <glyph glyph-name="Cacute" unicode="&#x106;" horiz-adv-x="731" 
d="M414 750h-96l85 146h136zM414 707c104 0 198 -45 264 -116l-90 -83c-45 44 -106 69 -174 69c-122 0 -218 -93 -218 -227c0 -135 96 -227 218 -227c68 0 129 24 174 69l90 -83c-66 -71 -160 -116 -264 -116c-197 0 -356 160 -356 357s159 357 356 357z" />
    <glyph glyph-name="Ccaron" unicode="&#x10c;" horiz-adv-x="731" 
d="M477 750h-127l-88 146h96l56 -51l55 52h96zM414 707c104 0 198 -45 264 -116l-90 -83c-45 44 -106 69 -174 69c-122 0 -218 -93 -218 -227c0 -135 96 -227 218 -227c68 0 129 24 174 69l90 -83c-66 -71 -160 -116 -264 -116c-197 0 -356 160 -356 357s159 357 356 357z
" />
    <glyph glyph-name="Ccedilla" unicode="&#xc7;" horiz-adv-x="731" 
d="M414 123c68 0 129 24 174 69l90 -83c-66 -71 -160 -116 -264 -116h-3l-9 -27c34 12 85 0 85 -60c0 -59 -62 -94 -145 -47v34c35 -19 65 -9 65 16c0 21 -16 35 -58 16l25 70c-178 20 -316 171 -316 355c0 197 159 357 356 357c104 0 198 -45 264 -116l-90 -83
c-45 44 -106 69 -174 69c-122 0 -218 -93 -218 -227c0 -135 96 -227 218 -227z" />
    <glyph glyph-name="Cdotaccent" unicode="&#x10a;" horiz-adv-x="731" 
d="M414 882c42 0 75 -29 75 -66s-33 -66 -75 -66c-41 0 -74 29 -74 66s33 66 74 66zM414 707c104 0 198 -45 264 -116l-90 -83c-45 44 -106 69 -174 69c-122 0 -218 -93 -218 -227c0 -135 96 -227 218 -227c68 0 129 24 174 69l90 -83c-66 -71 -160 -116 -264 -116
c-197 0 -356 160 -356 357s159 357 356 357z" />
    <glyph glyph-name="D" unicode="D" horiz-adv-x="762" 
d="M105 700h243c197 0 356 -147 356 -350c0 -204 -159 -350 -356 -350h-243v700zM243 130h105c122 0 218 78 218 220c0 141 -96 220 -218 220h-105v-440z" />
    <glyph glyph-name="Eth" unicode="&#xd0;" horiz-adv-x="810" 
d="M154 700h243c197 0 356 -147 356 -350c0 -204 -159 -350 -356 -350h-243v311h-49v79h49v310zM292 130h105c122 0 218 78 218 220c0 141 -96 220 -218 220h-105v-180h63v-79h-63v-181z" />
    <glyph glyph-name="Dcaron" unicode="&#x10e;" horiz-adv-x="762" 
d="M419 750h-127l-88 146h96l56 -51l55 52h96zM105 700h243c197 0 356 -147 356 -350c0 -204 -159 -350 -356 -350h-243v700zM243 570v-440h105c122 0 218 78 218 220c0 141 -96 220 -218 220h-105z" />
    <glyph glyph-name="Dcroat" unicode="&#x110;" horiz-adv-x="810" 
d="M154 700h243c197 0 356 -147 356 -350c0 -204 -159 -350 -356 -350h-243v311h-49v79h49v310zM292 130h105c122 0 218 78 218 220c0 141 -96 220 -218 220h-105v-180h63v-79h-63v-181z" />
    <glyph glyph-name="E" unicode="E" horiz-adv-x="624" 
d="M243 417h303v-130h-303v-157h328v-130h-466v700h466v-130h-328v-153z" />
    <glyph glyph-name="Eacute" unicode="&#xc9;" horiz-adv-x="624" 
d="M349 750h-96l85 146h136zM571 570h-328v-153h303v-130h-303v-157h328v-130h-466v700h466v-130z" />
    <glyph glyph-name="Ecaron" unicode="&#x11a;" horiz-adv-x="624" 
d="M397 750h-127l-88 146h96l56 -51l55 52h96zM571 570h-328v-153h303v-130h-303v-157h328v-130h-466v700h466v-130z" />
    <glyph glyph-name="Ecircumflex" unicode="&#xca;" horiz-adv-x="624" 
d="M488 750h-96l-55 52l-56 -52h-96l88 147h127zM571 570h-328v-153h303v-130h-303v-157h328v-130h-466v700h466v-130z" />
    <glyph glyph-name="Edieresis" unicode="&#xcb;" horiz-adv-x="624" 
d="M228 883c42 0 75 -30 75 -67s-33 -66 -75 -66c-41 0 -74 29 -74 66s33 67 74 67zM443 883c42 0 75 -30 75 -67s-33 -66 -75 -66c-41 0 -74 29 -74 66s33 67 74 67zM571 570h-328v-153h303v-130h-303v-157h328v-130h-466v700h466v-130z" />
    <glyph glyph-name="Edotaccent" unicode="&#x116;" horiz-adv-x="624" 
d="M334 882c42 0 75 -29 75 -66s-33 -66 -75 -66c-41 0 -74 29 -74 66s33 66 74 66zM571 570h-328v-153h303v-130h-303v-157h328v-130h-466v700h466v-130z" />
    <glyph glyph-name="Egrave" unicode="&#xc8;" horiz-adv-x="624" 
d="M409 750h-96l-125 146h136zM571 570h-328v-153h303v-130h-303v-157h328v-130h-466v700h466v-130z" />
    <glyph glyph-name="Emacron" unicode="&#x112;" horiz-adv-x="624" 
d="M466 750h-262v94h262v-94zM571 570h-328v-153h303v-130h-303v-157h328v-130h-466v700h466v-130z" />
    <glyph glyph-name="Eogonek" unicode="&#x118;" horiz-adv-x="624" 
d="M511 -53c0 -21 17 -32 45 -32h16v-79h-9c-55 0 -105 23 -105 76c0 36 22 64 78 88h-431v700h466v-130h-328v-153h303v-130h-303v-157h328v-130h1c-47 -19 -61 -35 -61 -53z" />
    <glyph glyph-name="F" unicode="F" horiz-adv-x="624" 
d="M243 417h303v-130h-303v-287h-138v700h466v-130h-328v-153z" />
    <glyph glyph-name="G" unicode="G" horiz-adv-x="773" 
d="M414 706c104 0 198 -45 264 -116l-90 -83c-45 45 -106 69 -174 69c-122 0 -218 -92 -218 -227c0 -134 96 -227 218 -227c47 0 91 14 126 39v121h-128v104h266v-278c-66 -71 -160 -116 -264 -116c-197 0 -356 160 -356 357s159 357 356 357z" />
    <glyph glyph-name="Gbreve" unicode="&#x11e;" horiz-adv-x="773" 
d="M484 902h87c0 -88 -70 -152 -157 -152s-157 64 -157 152h88c0 -36 30 -64 69 -64s70 28 70 64zM414 706c104 0 198 -45 264 -116l-90 -83c-45 45 -106 69 -174 69c-122 0 -218 -92 -218 -227c0 -134 96 -227 218 -227c47 0 91 14 126 39v121h-128v104h266v-278
c-66 -71 -160 -116 -264 -116c-197 0 -356 160 -356 357s159 357 356 357z" />
    <glyph glyph-name="Gcommaaccent" unicode="&#x122;" horiz-adv-x="773" 
d="M414 706c104 0 198 -45 264 -116l-90 -83c-45 45 -106 69 -174 69c-122 0 -218 -92 -218 -227c0 -134 96 -227 218 -227c47 0 91 14 126 39v121h-128v104h266v-278c-66 -71 -160 -116 -264 -116c-197 0 -356 160 -356 357s159 357 356 357zM370 -215h-96l85 146h136z" />
    <glyph glyph-name="Gdotaccent" unicode="&#x120;" horiz-adv-x="773" 
d="M414 882c42 0 75 -29 75 -66s-33 -66 -75 -66c-41 0 -74 29 -74 66s33 66 74 66zM414 706c104 0 198 -45 264 -116l-90 -83c-45 45 -106 69 -174 69c-122 0 -218 -92 -218 -227c0 -134 96 -227 218 -227c47 0 91 14 126 39v121h-128v104h266v-278
c-66 -71 -160 -116 -264 -116c-197 0 -356 160 -356 357s159 357 356 357z" />
    <glyph glyph-name="H" unicode="H" horiz-adv-x="758" 
d="M652 0h-138v287h-271v-287h-138v700h138v-283h271v283h138v-700z" />
    <glyph glyph-name="Hbar" unicode="&#x126;" horiz-adv-x="899" 
d="M794 500h-71v-500h-138v287h-271v-287h-138v500h-71v78h71v122h138v-122h271v122h138v-122h71v-78zM585 500h-271v-83h271v83z" />
    <glyph glyph-name="I" unicode="I" horiz-adv-x="517" 
d="M327 130h84v-130h-306v130h84v440h-84v130h306v-130h-84v-440z" />
    <glyph glyph-name="IJ" unicode="&#x132;" horiz-adv-x="998" 
d="M411 570h-84v-440h84v-130h-306v130h84v440h-84v130h306v-130zM939 700v-444c0 -187 -113 -263 -246 -263s-246 76 -246 263v39h138v-59c0 -73 50 -113 108 -113s108 40 108 113v334h-205v130h343z" />
    <glyph glyph-name="Iacute" unicode="&#xcd;" horiz-adv-x="517" 
d="M263 750h-96l85 146h136zM411 570h-84v-440h84v-130h-306v130h84v440h-84v130h306v-130z" />
    <glyph glyph-name="Icaron" unicode="&#x1cf;" horiz-adv-x="536" 
d="M334 750h-127l-88 146h96l56 -51l55 52h96zM421 570h-84v-440h84v-130h-306v130h84v440h-84v130h306v-130z" />
    <glyph glyph-name="Icircumflex" unicode="&#xce;" horiz-adv-x="536" 
d="M422 750h-96l-55 52l-56 -52h-96l88 147h127zM421 570h-84v-440h84v-130h-306v130h84v440h-84v130h306v-130z" />
    <glyph glyph-name="Idieresis" unicode="&#xcf;" horiz-adv-x="575" 
d="M179 882c42 0 75 -29 75 -66s-33 -66 -75 -66c-41 0 -74 29 -74 66s33 66 74 66zM395 882c42 0 75 -29 75 -66s-33 -66 -75 -66c-41 0 -74 29 -74 66s33 66 74 66zM440 570h-84v-440h84v-130h-306v130h84v440h-84v130h306v-130z" />
    <glyph glyph-name="Idotaccent" unicode="&#x130;" horiz-adv-x="517" 
d="M258 750c-41 0 -74 29 -74 66s33 66 74 66c42 0 75 -29 75 -66s-33 -66 -75 -66zM327 130h84v-130h-306v130h84v440h-84v130h306v-130h-84v-440z" />
    <glyph glyph-name="Igrave" unicode="&#xcc;" horiz-adv-x="517" 
d="M255 896l85 -146h-96l-125 146h136zM327 130h84v-130h-306v130h84v440h-84v130h306v-130h-84v-440z" />
    <glyph glyph-name="Imacron" unicode="&#x12a;" horiz-adv-x="534" 
d="M396 750h-262v94h262v-94zM336 130h84v-130h-306v130h84v440h-84v130h306v-130h-84v-440z" />
    <glyph glyph-name="Iogonek" unicode="&#x12e;" horiz-adv-x="517" 
d="M327 570v-440h84v-130c-47 -19 -61 -35 -61 -53c0 -21 17 -32 45 -32h16v-79h-9c-55 0 -105 23 -105 76c0 36 22 64 78 88h-270v130h84v440h-84v130h306v-130h-84z" />
    <glyph glyph-name="J" unicode="J" horiz-adv-x="608" 
d="M550 700v-444c0 -187 -113 -263 -246 -263s-246 76 -246 263v39h138v-59c0 -73 50 -113 108 -113s108 40 108 113v334h-205v130h343z" />
    <glyph glyph-name="K" unicode="K" horiz-adv-x="745" 
d="M546 0l-144 225c-30 47 -47 63 -95 63h-64v-288h-138v700h138v-279h60c48 0 65 17 95 63l138 216h156l-165 -258c-40 -55 -62 -74 -81 -84c22 -10 45 -28 85 -91l171 -267h-156z" />
    <glyph glyph-name="Kcommaaccent" unicode="&#x136;" horiz-adv-x="745" 
d="M692 700l-165 -258c-40 -55 -62 -74 -81 -84c22 -10 45 -28 85 -91l171 -267h-156l-144 225c-30 47 -47 63 -95 63h-64v-288h-138v700h138v-279h60c48 0 65 17 95 63l138 216h156zM340 -215h-96l85 146h136z" />
    <glyph glyph-name="L" unicode="L" horiz-adv-x="601" 
d="M558 0h-453v700h138v-570h315v-130z" />
    <glyph glyph-name="Lacute" unicode="&#x139;" horiz-adv-x="601" 
d="M327 750h-96l85 146h136zM558 0h-453v700h138v-570h315v-130z" />
    <glyph glyph-name="Lcaron" unicode="&#x13d;" horiz-adv-x="601" 
d="M558 0h-453v700h138v-570h315v-130zM433 554h-96l85 146h136z" />
    <glyph glyph-name="Lcommaaccent" unicode="&#x13b;" horiz-adv-x="601" 
d="M558 0h-453v700h138v-570h315v-130zM290 -215h-96l85 146h136z" />
    <glyph glyph-name="Ldot" unicode="&#x13f;" horiz-adv-x="601" 
d="M558 0h-453v700h138v-570h315v-130zM483 303c-45 0 -76 35 -76 75s31 75 76 75c44 0 75 -35 75 -75s-31 -75 -75 -75z" />
    <glyph glyph-name="Lslash" unicode="&#x141;" horiz-adv-x="661" 
d="M618 130v-130h-453v336l-60 -26v77l60 26v287h138v-226l60 26v-77l-60 -26v-267h315z" />
    <glyph glyph-name="M" unicode="M" horiz-adv-x="897" 
d="M792 0h-138v447l-211 -262l-210 262v-447h-138v700h82l266 -334l267 334h82v-700z" />
    <glyph glyph-name="N" unicode="N" horiz-adv-x="741" 
d="M646 0h-82l-331 441v-441h-138v700h81l332 -441v441h138v-700z" />
    <glyph glyph-name="Nacute" unicode="&#x143;" horiz-adv-x="741" 
d="M380 750h-96l85 146h136zM646 0h-82l-331 441v-441h-138v700h81l332 -441v441h138v-700z" />
    <glyph glyph-name="Ncaron" unicode="&#x147;" horiz-adv-x="741" 
d="M368 845l55 52h96l-88 -147h-127l-88 147h96zM646 0h-82l-331 441v-441h-138v700h81l332 -441v441h138v-700z" />
    <glyph glyph-name="Ncommaaccent" unicode="&#x145;" horiz-adv-x="741" 
d="M646 0h-82l-331 441v-441h-138v700h81l332 -441v441h138v-700zM341 -215h-96l85 146h136z" />
    <glyph glyph-name="Eng" unicode="&#x14a;" horiz-adv-x="741" 
d="M646 700v-655c0 -158 -79 -244 -219 -236l-15 1v115h9c67 0 98 15 98 114v21l-286 381v-441h-138v700h81l332 -441v441h138z" />
    <glyph glyph-name="Ntilde" unicode="&#xd1;" horiz-adv-x="741" 
d="M306 873c22 2 43 -4 57 -15l41 -29c12 -8 24 -13 36 -12c14 1 24 9 30 25l7 19h57l-27 -70c-13 -34 -36 -51 -63 -53c-22 -2 -42 5 -56 15l-41 29c-13 9 -27 13 -39 12c-13 -2 -21 -10 -27 -25l-7 -19h-57l27 70c13 34 36 50 62 53zM646 0h-82l-331 441v-441h-138v700h81
l332 -441v441h138v-700z" />
    <glyph glyph-name="O" unicode="O" horiz-adv-x="829" 
d="M414 707c197 0 357 -160 357 -357c0 -198 -160 -357 -357 -357s-356 159 -356 357c0 197 159 357 356 357zM414 577c-122 0 -218 -93 -218 -227c0 -135 96 -227 218 -227c123 0 219 92 219 227c0 134 -96 227 -219 227z" />
    <glyph glyph-name="Oacute" unicode="&#xd3;" horiz-adv-x="829" 
d="M429 750h-96l85 146h136zM414 707c197 0 357 -160 357 -357c0 -198 -160 -357 -357 -357s-356 159 -356 357c0 197 159 357 356 357zM414 577c-122 0 -218 -93 -218 -227c0 -135 96 -227 218 -227c123 0 219 92 219 227c0 134 -96 227 -219 227z" />
    <glyph glyph-name="Ocaron" unicode="&#x1d1;" horiz-adv-x="829" 
d="M477 750h-127l-88 146h96l56 -51l55 52h96zM414 707c197 0 357 -160 357 -357c0 -198 -160 -357 -357 -357s-356 159 -356 357c0 197 159 357 356 357zM414 577c-122 0 -218 -93 -218 -227c0 -135 96 -227 218 -227c123 0 219 92 219 227c0 134 -96 227 -219 227z" />
    <glyph glyph-name="Ocircumflex" unicode="&#xd4;" horiz-adv-x="829" 
d="M565 750h-96l-55 52l-56 -52h-96l88 147h127zM414 707c197 0 357 -160 357 -357c0 -198 -160 -357 -357 -357s-356 159 -356 357c0 197 159 357 356 357zM414 577c-122 0 -218 -93 -218 -227c0 -135 96 -227 218 -227c123 0 219 92 219 227c0 134 -96 227 -219 227z" />
    <glyph glyph-name="Odieresis" unicode="&#xd6;" horiz-adv-x="829" 
d="M306 750c-41 0 -74 29 -74 66s33 66 74 66c42 0 75 -29 75 -66s-33 -66 -75 -66zM522 750c-41 0 -74 29 -74 66s33 66 74 66c42 0 75 -29 75 -66s-33 -66 -75 -66zM414 707c197 0 357 -160 357 -357c0 -198 -160 -357 -357 -357s-356 159 -356 357c0 197 159 357 356 357
zM414 577c-122 0 -218 -93 -218 -227c0 -135 96 -227 218 -227c123 0 219 92 219 227c0 134 -96 227 -219 227z" />
    <glyph glyph-name="Ograve" unicode="&#xd2;" horiz-adv-x="829" 
d="M405 896l85 -146h-96l-125 146h136zM414 707c197 0 357 -160 357 -357c0 -198 -160 -357 -357 -357s-356 159 -356 357c0 197 159 357 356 357zM414 577c-122 0 -218 -93 -218 -227c0 -135 96 -227 218 -227c123 0 219 92 219 227c0 134 -96 227 -219 227z" />
    <glyph glyph-name="Ohungarumlaut" unicode="&#x150;" horiz-adv-x="829" 
d="M354 750h-96l85 146h136zM527 750h-96l85 146h136zM414 707c197 0 357 -160 357 -357c0 -198 -160 -357 -357 -357s-356 159 -356 357c0 197 159 357 356 357zM414 577c-122 0 -218 -93 -218 -227c0 -135 96 -227 218 -227c123 0 219 92 219 227c0 134 -96 227 -219 227z
" />
    <glyph glyph-name="Omacron" unicode="&#x14c;" horiz-adv-x="829" 
d="M545 750h-262v94h262v-94zM414 707c197 0 357 -160 357 -357c0 -198 -160 -357 -357 -357s-356 159 -356 357c0 197 159 357 356 357zM414 577c-122 0 -218 -93 -218 -227c0 -135 96 -227 218 -227c123 0 219 92 219 227c0 134 -96 227 -219 227z" />
    <glyph glyph-name="Oslash" unicode="&#xd8;" horiz-adv-x="829" 
d="M771 700l-96 -106c59 -64 96 -150 96 -244c0 -198 -160 -357 -357 -357c-81 0 -156 27 -216 73l-59 -66h-81l96 106c-60 64 -96 149 -96 244c0 197 159 357 356 357c81 0 156 -27 216 -73l59 66h82zM196 350c0 -57 17 -107 47 -145l299 332c-36 26 -80 40 -128 40
c-122 0 -218 -93 -218 -227zM633 350c0 57 -17 107 -47 145l-300 -332c36 -26 80 -40 128 -40c123 0 219 92 219 227z" />
    <glyph glyph-name="Otilde" unicode="&#xd5;" horiz-adv-x="829" 
d="M573 861l-27 -70c-13 -34 -36 -51 -63 -53c-22 -2 -42 5 -56 15l-41 29c-13 9 -27 13 -39 12c-13 -2 -21 -10 -27 -25l-7 -19h-57l27 70c13 34 36 50 62 53c22 2 43 -4 57 -15l41 -29c12 -8 24 -13 36 -12c14 1 24 9 30 25l7 19h57zM414 707c197 0 357 -160 357 -357
c0 -198 -160 -357 -357 -357s-356 159 -356 357c0 197 159 357 356 357zM414 577c-122 0 -218 -93 -218 -227c0 -135 96 -227 218 -227c123 0 219 92 219 227c0 134 -96 227 -219 227z" />
    <glyph glyph-name="OE" unicode="&#x152;" horiz-adv-x="1152" 
d="M771 417h303v-130h-303v-157h328v-130h-466v90c-51 -58 -131 -97 -219 -97c-197 0 -356 159 -356 357c0 197 159 357 356 357c88 0 168 -39 219 -97v90h466v-130h-328v-153zM414 123c123 0 219 92 219 227c0 134 -96 227 -219 227c-122 0 -218 -93 -218 -227
c0 -135 96 -227 218 -227z" />
    <glyph glyph-name="P" unicode="P" horiz-adv-x="705" 
d="M105 700h230c196 0 312 -116 312 -269c0 -155 -116 -270 -312 -270h-92v-161h-138v700zM243 291h103c89 0 170 41 170 140c0 94 -81 139 -170 139h-103v-279z" />
    <glyph glyph-name="Thorn" unicode="&#xde;" horiz-adv-x="705" 
d="M243 629h92c196 0 312 -116 312 -270s-116 -269 -312 -269h-92v-90h-138v700h138v-71zM243 220h103c89 0 170 41 170 139c0 95 -81 140 -170 140h-103v-279z" />
    <glyph glyph-name="Q" unicode="Q" horiz-adv-x="865" 
d="M414 707c197 0 357 -160 357 -357c0 -92 -41 -175 -103 -227h140v-130h-394c-197 0 -356 159 -356 357c0 197 159 357 356 357zM414 577c-122 0 -218 -93 -218 -227c0 -135 96 -227 218 -227c123 0 219 92 219 227c0 134 -96 227 -219 227z" />
    <glyph glyph-name="R" unicode="R" horiz-adv-x="703" 
d="M105 700h238c196 0 304 -116 304 -264c0 -104 -56 -183 -151 -220c30 -19 61 -55 104 -123l60 -93h-155l-45 70c-54 83 -71 99 -140 101h-77v-171h-138v700zM243 570v-269h113c90 0 160 41 160 135c0 89 -70 134 -160 134h-113z" />
    <glyph glyph-name="Racute" unicode="&#x154;" horiz-adv-x="703" 
d="M348 750h-96l85 146h136zM105 700h238c196 0 304 -116 304 -264c0 -104 -56 -183 -151 -220c30 -19 61 -55 104 -123l60 -93h-155l-45 70c-54 83 -71 99 -140 101h-77v-171h-138v700zM243 570v-269h113c90 0 160 41 160 135c0 89 -70 134 -160 134h-113z" />
    <glyph glyph-name="Rcaron" unicode="&#x158;" horiz-adv-x="703" 
d="M416 750h-127l-88 146h96l56 -51l55 52h96zM105 700h238c196 0 304 -116 304 -264c0 -104 -56 -183 -151 -220c30 -19 61 -55 104 -123l60 -93h-155l-45 70c-54 83 -71 99 -140 101h-77v-171h-138v700zM243 570v-269h113c90 0 160 41 160 135c0 89 -70 134 -160 134h-113
z" />
    <glyph glyph-name="Rcommaaccent" unicode="&#x156;" horiz-adv-x="703" 
d="M105 700h238c196 0 304 -116 304 -264c0 -104 -56 -183 -151 -220c30 -19 61 -55 104 -123l60 -93h-155l-45 70c-54 83 -71 99 -140 101h-77v-171h-138v700zM243 570v-269h113c90 0 160 41 160 135c0 89 -70 134 -160 134h-113zM320 -215h-96l85 146h136z" />
    <glyph glyph-name="S" unicode="S" horiz-adv-x="680" 
d="M328 707h8c99 0 198 -48 270 -116l-90 -83c-52 42 -129 69 -180 69h-8c-46 0 -121 -17 -121 -78c0 -47 54 -61 117 -69l56 -6c142 -17 248 -70 248 -215c0 -133 -117 -215 -272 -216h-6c-140 0 -242 66 -297 141l90 83c31 -44 103 -94 207 -94h6c81 1 134 33 134 86
c0 61 -57 78 -129 87l-55 6c-134 16 -237 69 -237 192c0 131 114 211 259 213z" />
    <glyph glyph-name="Sacute" unicode="&#x15a;" horiz-adv-x="680" 
d="M347 750h-96l85 146h136zM328 707h8c99 0 198 -48 270 -116l-90 -83c-52 42 -129 69 -180 69h-8c-46 0 -121 -17 -121 -78c0 -47 54 -61 117 -69l56 -6c142 -17 248 -70 248 -215c0 -133 -117 -215 -272 -216h-6c-140 0 -242 66 -297 141l90 83c31 -44 103 -94 207 -94h6
c81 1 134 33 134 86c0 61 -57 78 -129 87l-55 6c-134 16 -237 69 -237 192c0 131 114 211 259 213z" />
    <glyph glyph-name="Scaron" unicode="&#x160;" horiz-adv-x="680" 
d="M397 750h-127l-88 146h96l56 -51l55 52h96zM328 707h8c99 0 198 -48 270 -116l-90 -83c-52 42 -129 69 -180 69h-8c-46 0 -121 -17 -121 -78c0 -47 54 -61 117 -69l56 -6c142 -17 248 -70 248 -215c0 -133 -117 -215 -272 -216h-6c-140 0 -242 66 -297 141l90 83
c31 -44 103 -94 207 -94h6c81 1 134 33 134 86c0 61 -57 78 -129 87l-55 6c-134 16 -237 69 -237 192c0 131 114 211 259 213z" />
    <glyph glyph-name="Scedilla" unicode="&#x15e;" horiz-adv-x="680" 
d="M353 -7l-9 -27c34 12 85 0 85 -60c0 -59 -62 -94 -145 -47v34c35 -19 65 -9 65 16c0 21 -16 35 -58 16l25 69c-123 10 -213 71 -263 140l90 83c31 -44 103 -94 207 -94h6c81 1 134 33 134 86c0 61 -57 78 -129 87l-55 6c-134 16 -237 69 -237 192c0 131 114 211 259 213
h8c99 0 198 -48 270 -116l-90 -83c-52 42 -129 69 -180 69h-8c-46 0 -121 -17 -121 -78c0 -47 54 -61 117 -69l56 -6c142 -17 248 -70 248 -215c0 -133 -117 -215 -272 -216h-3z" />
    <glyph glyph-name="Scommaaccent" unicode="&#x218;" horiz-adv-x="680" 
d="M328 707h8c99 0 198 -48 270 -116l-90 -83c-52 42 -129 69 -180 69h-8c-46 0 -121 -17 -121 -78c0 -47 54 -61 117 -69l56 -6c142 -17 248 -70 248 -215c0 -133 -117 -215 -272 -216h-6c-140 0 -242 66 -297 141l90 83c31 -44 103 -94 207 -94h6c81 1 134 33 134 86
c0 61 -57 78 -129 87l-55 6c-134 16 -237 69 -237 192c0 131 114 211 259 213zM312 -215h-96l85 146h136z" />
    <glyph glyph-name="T" unicode="T" horiz-adv-x="608" 
d="M373 570v-570h-138v570h-192v130h522v-130h-192z" />
    <glyph glyph-name="Tbar" unicode="&#x166;" horiz-adv-x="608" 
d="M373 570v-162h62v-94h-62v-314h-138v314h-63v94h63v162h-192v130h522v-130h-192z" />
    <glyph glyph-name="Tcaron" unicode="&#x164;" horiz-adv-x="608" 
d="M369 750h-127l-88 146h96l56 -51l55 52h96zM373 570v-570h-138v570h-192v130h522v-130h-192z" />
    <glyph glyph-name="Tcedilla" unicode="&#x162;" horiz-adv-x="608" 
d="M315 0l-11 -34c34 12 85 0 85 -60c0 -59 -62 -94 -145 -47v34c35 -19 65 -9 65 16c0 21 -16 35 -58 16l27 75h-43v570h-192v130h522v-130h-192v-570h-58z" />
    <glyph glyph-name="uni021A" unicode="&#x21a;" horiz-adv-x="608" 
d="M373 570v-570h-138v570h-192v130h522v-130h-192zM273 -215h-96l85 146h136z" />
    <glyph glyph-name="U" unicode="U" horiz-adv-x="768" 
d="M673 700v-406c0 -202 -137 -301 -284 -301c-148 0 -284 99 -284 301v406h138v-403c0 -131 73 -174 146 -174s146 43 146 174v403h138z" />
    <glyph glyph-name="Uacute" unicode="&#xda;" horiz-adv-x="768" 
d="M399 750h-96l85 146h136zM673 700v-406c0 -202 -137 -301 -284 -301c-148 0 -284 99 -284 301v406h138v-403c0 -131 73 -174 146 -174s146 43 146 174v403h138z" />
    <glyph glyph-name="Ucaron" unicode="&#x1d3;" horiz-adv-x="768" 
d="M452 750h-127l-88 146h96l56 -51l55 52h96zM673 700v-406c0 -202 -137 -301 -284 -301c-148 0 -284 99 -284 301v406h138v-403c0 -131 73 -174 146 -174s146 43 146 174v403h138z" />
    <glyph glyph-name="Ucircumflex" unicode="&#xdb;" horiz-adv-x="768" 
d="M444 750l-55 52l-56 -52h-96l88 147h127l88 -147h-96zM673 700v-406c0 -202 -137 -301 -284 -301c-148 0 -284 99 -284 301v406h138v-403c0 -131 73 -174 146 -174s146 43 146 174v403h138z" />
    <glyph glyph-name="Udieresis" unicode="&#xdc;" horiz-adv-x="768" 
d="M281 750c-41 0 -74 29 -74 66s33 66 74 66c42 0 75 -29 75 -66s-33 -66 -75 -66zM497 750c-41 0 -74 29 -74 66s33 66 74 66c42 0 75 -29 75 -66s-33 -66 -75 -66zM673 700v-406c0 -202 -137 -301 -284 -301c-148 0 -284 99 -284 301v406h138v-403
c0 -131 73 -174 146 -174s146 43 146 174v403h138z" />
    <glyph glyph-name="Udieresisacute" unicode="&#x1d7;" horiz-adv-x="768" 
d="M397 913h-96l85 146h136zM281 750c-41 0 -74 29 -74 66s33 66 74 66c42 0 75 -29 75 -66s-33 -66 -75 -66zM497 750c-41 0 -74 29 -74 66s33 66 74 66c42 0 75 -29 75 -66s-33 -66 -75 -66zM673 700v-406c0 -202 -137 -301 -284 -301c-148 0 -284 99 -284 301v406h138
v-403c0 -131 73 -174 146 -174s146 43 146 174v403h138z" />
    <glyph glyph-name="Udieresiscaron" unicode="&#x1d9;" horiz-adv-x="768" 
d="M389 1007l55 52h96l-88 -146h-127l-88 147h96zM281 882c42 0 75 -29 75 -66s-33 -66 -75 -66c-41 0 -74 29 -74 66s33 66 74 66zM497 882c42 0 75 -29 75 -66s-33 -66 -75 -66c-41 0 -74 29 -74 66s33 66 74 66zM673 700v-406c0 -202 -137 -301 -284 -301
c-148 0 -284 99 -284 301v406h138v-403c0 -131 73 -174 146 -174s146 43 146 174v403h138z" />
    <glyph glyph-name="Udieresisgrave" unicode="&#x1db;" horiz-adv-x="768" 
d="M390 1059l85 -146h-96l-125 146h136zM281 750c-41 0 -74 29 -74 66s33 66 74 66c42 0 75 -29 75 -66s-33 -66 -75 -66zM497 750c-41 0 -74 29 -74 66s33 66 74 66c42 0 75 -29 75 -66s-33 -66 -75 -66zM673 700v-406c0 -202 -137 -301 -284 -301c-148 0 -284 99 -284 301
v406h138v-403c0 -131 73 -174 146 -174s146 43 146 174v403h138z" />
    <glyph glyph-name="Udieresismacron" unicode="&#x1d5;" horiz-adv-x="768" 
d="M521 913h-262v93h262v-93zM281 750c-41 0 -74 29 -74 66s33 66 74 66c42 0 75 -29 75 -66s-33 -66 -75 -66zM497 750c-41 0 -74 29 -74 66s33 66 74 66c42 0 75 -29 75 -66s-33 -66 -75 -66zM673 700v-406c0 -202 -137 -301 -284 -301c-148 0 -284 99 -284 301v406h138
v-403c0 -131 73 -174 146 -174s146 43 146 174v403h138z" />
    <glyph glyph-name="Ugrave" unicode="&#xd9;" horiz-adv-x="768" 
d="M385 896l85 -146h-96l-125 146h136zM673 700v-406c0 -202 -137 -301 -284 -301c-148 0 -284 99 -284 301v406h138v-403c0 -131 73 -174 146 -174s146 43 146 174v403h138z" />
    <glyph glyph-name="Uhungarumlaut" unicode="&#x170;" horiz-adv-x="768" 
d="M306 750h-96l85 146h136zM479 750h-96l85 146h136zM673 700v-406c0 -202 -137 -301 -284 -301c-148 0 -284 99 -284 301v406h138v-403c0 -131 73 -174 146 -174s146 43 146 174v403h138z" />
    <glyph glyph-name="Umacron" unicode="&#x16a;" horiz-adv-x="768" 
d="M519 750h-262v94h262v-94zM673 700v-406c0 -202 -137 -301 -284 -301c-148 0 -284 99 -284 301v406h138v-403c0 -131 73 -174 146 -174s146 43 146 174v403h138z" />
    <glyph glyph-name="Uogonek" unicode="&#x172;" horiz-adv-x="768" 
d="M673 700v-406c0 -172 -100 -270 -221 -295c-45 -18 -59 -34 -59 -52c0 -21 17 -32 45 -32h16v-79h-9c-55 0 -105 23 -105 76c0 33 18 59 64 81h-15c-148 0 -284 99 -284 301v406h138v-403c0 -131 73 -174 146 -174s146 43 146 174v403h138z" />
    <glyph glyph-name="Uring" unicode="&#x16e;" horiz-adv-x="768" 
d="M389 939c52 0 95 -43 95 -94c0 -53 -43 -95 -95 -95s-94 42 -94 95c0 51 42 94 94 94zM389 877c-19 0 -32 -15 -32 -32c0 -18 13 -33 32 -33c18 0 32 15 32 33c0 17 -14 32 -32 32zM673 700v-406c0 -202 -137 -301 -284 -301c-148 0 -284 99 -284 301v406h138v-403
c0 -131 73 -174 146 -174s146 43 146 174v403h138z" />
    <glyph glyph-name="V" unicode="V" horiz-adv-x="741" 
d="M414 0h-82l-289 700h153l175 -447l175 447h153z" />
    <glyph glyph-name="W" unicode="W" horiz-adv-x="1155" 
d="M830 0h-82l-170 421l-171 -421h-81l-283 700h153l169 -446l172 446h81l172 -446l169 446h153z" />
    <glyph glyph-name="Wacute" unicode="&#x1e82;" horiz-adv-x="1155" 
d="M585 750h-96l85 146h136zM830 0h-82l-170 421l-171 -421h-81l-283 700h153l169 -446l172 446h81l172 -446l169 446h153z" />
    <glyph glyph-name="Wcircumflex" unicode="&#x174;" horiz-adv-x="1155" 
d="M633 750l-55 52l-56 -52h-96l88 147h127l88 -147h-96zM830 0h-82l-170 421l-171 -421h-81l-283 700h153l169 -446l172 446h81l172 -446l169 446h153z" />
    <glyph glyph-name="Wdieresis" unicode="&#x1e84;" horiz-adv-x="1155" 
d="M469 750c-41 0 -74 29 -74 66s33 66 74 66c42 0 75 -29 75 -66s-33 -66 -75 -66zM685 750c-41 0 -74 29 -74 66s33 66 74 66c42 0 75 -29 75 -66s-33 -66 -75 -66zM830 0h-82l-170 421l-171 -421h-81l-283 700h153l169 -446l172 446h81l172 -446l169 446h153z" />
    <glyph glyph-name="Wgrave" unicode="&#x1e80;" horiz-adv-x="1155" 
d="M577 896l85 -146h-96l-125 146h136zM830 0h-82l-170 421l-171 -421h-81l-283 700h153l169 -446l172 446h81l172 -446l169 446h153z" />
    <glyph glyph-name="X" unicode="X" horiz-adv-x="726" 
d="M362 238l-161 -238h-158l243 365l-227 335h157l149 -214l146 214h157l-227 -341l243 -359h-157z" />
    <glyph glyph-name="Y" unicode="Y" horiz-adv-x="722" 
d="M430 0h-138v234l-249 466h157l162 -296l161 296h157l-250 -466v-234z" />
    <glyph glyph-name="Yacute" unicode="&#xdd;" horiz-adv-x="722" 
d="M371 750h-96l85 146h136zM430 0h-138v234l-249 466h157l162 -296l161 296h157l-250 -466v-234z" />
    <glyph glyph-name="Ycircumflex" unicode="&#x176;" horiz-adv-x="722" 
d="M417 750l-55 52l-56 -52h-96l88 147h127l88 -147h-96zM430 0h-138v234l-249 466h157l162 -296l161 296h157l-250 -466v-234z" />
    <glyph glyph-name="Ydieresis" unicode="&#x178;" horiz-adv-x="722" 
d="M253 750c-41 0 -74 29 -74 66s33 66 74 66c42 0 75 -29 75 -66s-33 -66 -75 -66zM468 750c-41 0 -74 29 -74 66s33 66 74 66c42 0 75 -29 75 -66s-33 -66 -75 -66zM430 0h-138v234l-249 466h157l162 -296l161 296h157l-250 -466v-234z" />
    <glyph glyph-name="Ygrave" unicode="&#x1ef2;" horiz-adv-x="722" 
d="M350 896l85 -146h-96l-125 146h136zM430 0h-138v234l-249 466h157l162 -296l161 296h157l-250 -466v-234z" />
    <glyph glyph-name="Z" unicode="Z" horiz-adv-x="626" 
d="M574 0h-521v81l321 489h-294v130h485v-82l-321 -488h330v-130z" />
    <glyph glyph-name="Zacute" unicode="&#x179;" horiz-adv-x="626" 
d="M330 750h-96l85 146h136zM574 0h-521v81l321 489h-294v130h485v-82l-321 -488h330v-130z" />
    <glyph glyph-name="Zcaron" unicode="&#x17d;" horiz-adv-x="626" 
d="M377 750h-127l-88 146h96l56 -51l55 52h96zM574 0h-521v81l321 489h-294v130h485v-82l-321 -488h330v-130z" />
    <glyph glyph-name="Zdotaccent" unicode="&#x17b;" horiz-adv-x="626" 
d="M309 750c-41 0 -74 29 -74 66s33 66 74 66c42 0 75 -29 75 -66s-33 -66 -75 -66zM574 0h-521v81l321 489h-294v130h485v-82l-321 -488h330v-130z" />
    <glyph glyph-name="K.ss01" horiz-adv-x="741" 
d="M243 288v-288h-138v700h138v-279h107l185 279h157l-227 -343l233 -357h-156l-193 288h-106z" />
    <glyph glyph-name="Kcommaaccent.ss01" horiz-adv-x="741" 
d="M243 288v-288h-138v700h138v-279h107l185 279h157l-227 -343l233 -357h-156l-193 288h-106zM350 -215h-96l85 146h136z" />
    <glyph glyph-name="R.ss01" horiz-adv-x="702" 
d="M105 700h241c198 0 301 -116 301 -264c0 -105 -53 -191 -149 -234l159 -202h-156l-138 174c-9 -2 -19 -3 -28 -3h-92v-171h-138v700zM243 570v-269h115c89 0 158 41 158 135c0 89 -69 134 -158 134h-115z" />
    <glyph glyph-name="Racute.ss01" horiz-adv-x="702" 
d="M350 750h-96l85 146h136zM105 700h241c198 0 301 -116 301 -264c0 -105 -53 -191 -149 -234l159 -202h-156l-138 174c-9 -2 -19 -3 -28 -3h-92v-171h-138v700zM243 570v-269h115c89 0 158 41 158 135c0 89 -69 134 -158 134h-115z" />
    <glyph glyph-name="Rcaron.ss01" horiz-adv-x="702" 
d="M404 750h-127l-88 146h96l56 -51l55 52h96zM105 700h241c198 0 301 -116 301 -264c0 -105 -53 -191 -149 -234l159 -202h-156l-138 174c-9 -2 -19 -3 -28 -3h-92v-171h-138v700zM243 570v-269h115c89 0 158 41 158 135c0 89 -69 134 -158 134h-115z" />
    <glyph glyph-name="Rcommaaccent.ss01" horiz-adv-x="702" 
d="M105 700h241c198 0 301 -116 301 -264c0 -105 -53 -191 -149 -234l159 -202h-156l-138 174c-9 -2 -19 -3 -28 -3h-92v-171h-138v700zM243 570v-269h115c89 0 158 41 158 135c0 89 -69 134 -158 134h-115zM329 -215h-96l85 146h136z" />
    <glyph glyph-name="a" unicode="a" 
d="M557 0h-85l-7 71c-37 -47 -97 -77 -166 -77c-142 0 -244 114 -244 256s102 257 244 257c69 0 129 -31 166 -78l7 71h85v-500zM311 117c66 0 129 51 129 133s-63 134 -129 134c-67 0 -129 -52 -129 -134s62 -133 129 -133z" />
    <glyph glyph-name="aacute" unicode="&#xe1;" 
d="M333 545h-96l85 146h136zM557 0h-85l-7 71c-37 -47 -97 -77 -166 -77c-142 0 -244 114 -244 256s102 257 244 257c69 0 129 -31 166 -78l7 71h85v-500zM311 117c66 0 129 51 129 133s-63 134 -129 134c-67 0 -129 -52 -129 -134s62 -133 129 -133z" />
    <glyph glyph-name="abreve" unicode="&#x103;" 
d="M381 696h87c0 -88 -70 -151 -157 -151s-157 63 -157 151h88c0 -36 30 -64 69 -64s70 28 70 64zM299 507c69 0 129 -31 166 -78l7 71h85v-500h-85l-7 71c-37 -47 -97 -77 -166 -77c-142 0 -244 114 -244 256s102 257 244 257zM311 384c-67 0 -129 -52 -129 -134
s62 -133 129 -133c66 0 129 51 129 133s-63 134 -129 134z" />
    <glyph glyph-name="acaron" unicode="&#x1ce;" 
d="M375 545h-127l-88 146h96l56 -52l55 52h96zM557 0h-85l-7 71c-37 -47 -97 -77 -166 -77c-142 0 -244 114 -244 256s102 257 244 257c69 0 129 -31 166 -78l7 71h85v-500zM311 117c66 0 129 51 129 133s-63 134 -129 134c-67 0 -129 -52 -129 -134s62 -133 129 -133z" />
    <glyph glyph-name="acircumflex" unicode="&#xe2;" 
d="M367 545l-55 52l-56 -52h-96l88 146h127l88 -146h-96zM557 0h-85l-7 71c-37 -47 -97 -77 -166 -77c-142 0 -244 114 -244 256s102 257 244 257c69 0 129 -31 166 -78l7 71h85v-500zM311 117c66 0 129 51 129 133s-63 134 -129 134c-67 0 -129 -52 -129 -134
s62 -133 129 -133z" />
    <glyph glyph-name="adieresis" unicode="&#xe4;" 
d="M203 545c-41 0 -74 29 -74 66s33 66 74 66c42 0 75 -29 75 -66s-33 -66 -75 -66zM419 545c-41 0 -74 29 -74 66s33 66 74 66c42 0 75 -29 75 -66s-33 -66 -75 -66zM557 0h-85l-7 71c-37 -47 -97 -77 -166 -77c-142 0 -244 114 -244 256s102 257 244 257
c69 0 129 -31 166 -78l7 71h85v-500zM311 117c66 0 129 51 129 133s-63 134 -129 134c-67 0 -129 -52 -129 -134s62 -133 129 -133z" />
    <glyph glyph-name="agrave" unicode="&#xe0;" 
d="M322 691l85 -146h-96l-125 146h136zM557 0h-85l-7 71c-37 -47 -97 -77 -166 -77c-142 0 -244 114 -244 256s102 257 244 257c69 0 129 -31 166 -78l7 71h85v-500zM311 117c66 0 129 51 129 133s-63 134 -129 134c-67 0 -129 -52 -129 -134s62 -133 129 -133z" />
    <glyph glyph-name="amacron" unicode="&#x101;" 
d="M455 545h-262v93h262v-93zM557 0h-85l-7 71c-37 -47 -97 -77 -166 -77c-142 0 -244 114 -244 256s102 257 244 257c69 0 129 -31 166 -78l7 71h85v-500zM311 117c66 0 129 51 129 133s-63 134 -129 134c-67 0 -129 -52 -129 -134s62 -133 129 -133z" />
    <glyph glyph-name="aogonek" unicode="&#x105;" 
d="M557 500v-500c-47 -19 -61 -35 -61 -53c0 -21 17 -32 45 -32h16v-79h-9c-55 0 -105 23 -105 76c0 36 22 64 78 88h-49l-7 71c-37 -47 -97 -77 -166 -77c-142 0 -244 114 -244 256s102 257 244 257c69 0 129 -31 166 -78l7 71h85zM311 117c66 0 129 51 129 133
s-63 134 -129 134c-67 0 -129 -52 -129 -134s62 -133 129 -133z" />
    <glyph glyph-name="aring" unicode="&#xe5;" 
d="M311 734c52 0 95 -43 95 -95s-43 -94 -95 -94s-94 42 -94 94s42 95 94 95zM311 672c-19 0 -32 -15 -32 -33s13 -33 32 -33c18 0 32 15 32 33s-14 33 -32 33zM557 0h-85l-7 71c-37 -47 -97 -77 -166 -77c-142 0 -244 114 -244 256s102 257 244 257c69 0 129 -31 166 -78
l7 71h85v-500zM311 117c66 0 129 51 129 133s-63 134 -129 134c-67 0 -129 -52 -129 -134s62 -133 129 -133z" />
    <glyph glyph-name="atilde" unicode="&#xe3;" 
d="M476 655l-27 -69c-13 -35 -36 -51 -63 -54c-22 -2 -42 5 -56 15l-41 30c-13 8 -27 13 -39 11c-13 -1 -21 -9 -27 -25l-7 -18h-57l27 69c13 34 36 51 62 53c22 3 43 -4 57 -14l41 -29c12 -8 24 -13 36 -12c14 0 24 8 30 25l7 18h57zM557 0h-85l-7 71
c-37 -47 -97 -77 -166 -77c-142 0 -244 114 -244 256s102 257 244 257c69 0 129 -31 166 -78l7 71h85v-500zM311 117c66 0 129 51 129 133s-63 134 -129 134c-67 0 -129 -52 -129 -134s62 -133 129 -133z" />
    <glyph glyph-name="ae" unicode="&#xe6;" horiz-adv-x="981" 
d="M299 507c69 0 129 -31 166 -78l7 71h85v-46c32 32 79 53 136 53c106 0 182 -51 219 -135c22 -46 23 -114 8 -157h-349c0 -68 57 -105 125 -105c51 0 105 12 150 35l67 -73c-53 -40 -129 -78 -217 -78c-58 0 -107 20 -139 53v-47h-85l-7 71c-37 -47 -97 -77 -166 -77
c-142 0 -244 114 -244 256s102 257 244 257zM693 391c-68 0 -114 -48 -116 -96h229c0 12 -4 28 -12 40c-17 32 -53 56 -101 56zM311 384c-67 0 -129 -52 -129 -134s62 -133 129 -133c66 0 129 51 129 133s-63 134 -129 134z" />
    <glyph glyph-name="b" unicode="b" 
d="M212 700v-249c30 34 78 56 132 56c142 0 243 -115 243 -257s-101 -256 -243 -256c-70 0 -129 30 -167 77l-7 -71h-85v700h127zM331 384c-66 0 -129 -52 -129 -134s63 -133 129 -133c67 0 129 51 129 133s-62 134 -129 134z" />
    <glyph glyph-name="c" unicode="c" horiz-adv-x="559" 
d="M311 506c79 0 150 -36 197 -92l-76 -82c-41 38 -77 51 -121 51c-67 0 -129 -51 -129 -133s62 -133 129 -133c44 0 80 13 121 51l76 -82c-47 -56 -118 -92 -197 -92c-142 0 -256 114 -256 256s114 256 256 256z" />
    <glyph glyph-name="cacute" unicode="&#x107;" horiz-adv-x="559" 
d="M309 545h-96l85 146h136zM311 506c79 0 150 -36 197 -92l-76 -82c-41 38 -77 51 -121 51c-67 0 -129 -51 -129 -133s62 -133 129 -133c44 0 80 13 121 51l76 -82c-47 -56 -118 -92 -197 -92c-142 0 -256 114 -256 256s114 256 256 256z" />
    <glyph glyph-name="ccaron" unicode="&#x10d;" horiz-adv-x="559" 
d="M375 545h-127l-88 146h96l56 -52l55 52h96zM311 506c79 0 150 -36 197 -92l-76 -82c-41 38 -77 51 -121 51c-67 0 -129 -51 -129 -133s62 -133 129 -133c44 0 80 13 121 51l76 -82c-47 -56 -118 -92 -197 -92c-142 0 -256 114 -256 256s114 256 256 256z" />
    <glyph glyph-name="ccedilla" unicode="&#xe7;" horiz-adv-x="559" 
d="M311 117c44 0 80 13 121 51l76 -82c-46 -55 -116 -91 -194 -92l-9 -28c34 12 85 0 85 -60c0 -59 -62 -94 -145 -47v34c35 -19 65 -9 65 16c0 21 -16 35 -58 16l26 71c-126 16 -223 123 -223 254c0 142 114 256 256 256c79 0 150 -36 197 -92l-76 -82
c-41 38 -77 51 -121 51c-67 0 -129 -51 -129 -133s62 -133 129 -133z" />
    <glyph glyph-name="cdotaccent" unicode="&#x10b;" horiz-adv-x="559" 
d="M311 677c42 0 75 -29 75 -66s-33 -66 -75 -66c-41 0 -74 29 -74 66s33 66 74 66zM311 506c79 0 150 -36 197 -92l-76 -82c-41 38 -77 51 -121 51c-67 0 -129 -51 -129 -133s62 -133 129 -133c44 0 80 13 121 51l76 -82c-47 -56 -118 -92 -197 -92
c-142 0 -256 114 -256 256s114 256 256 256z" />
    <glyph glyph-name="d" unicode="d" 
d="M557 0h-85l-7 71c-37 -47 -97 -77 -166 -77c-142 0 -244 114 -244 256s102 257 244 257c54 0 101 -22 131 -56v249h127v-700zM311 117c66 0 129 51 129 133s-63 134 -129 134c-67 0 -129 -52 -129 -134s62 -133 129 -133z" />
    <glyph glyph-name="eth" unicode="&#xf0;" horiz-adv-x="653" 
d="M555 652l-36 -32c32 -43 49 -98 49 -160v-199c0 -165 -112 -269 -256 -269c-157 0 -257 114 -257 249s91 243 233 243c66 0 125 -32 153 -80v56c0 32 -5 58 -14 79l-53 -47l-43 47l52 47c-18 9 -40 14 -66 14c-57 0 -101 -15 -149 -40l-72 78c54 45 129 78 221 78
c63 0 116 -19 157 -50l38 34zM312 115c69 0 129 51 129 126c0 74 -62 126 -129 126c-66 0 -129 -52 -129 -126c0 -75 62 -126 129 -126z" />
    <glyph glyph-name="dcaron" unicode="&#x10f;" horiz-adv-x="896" 
d="M557 0h-85l-7 71c-37 -47 -97 -77 -166 -77c-142 0 -244 114 -244 256s102 257 244 257c54 0 101 -22 131 -56v249h127v-700zM685 554h-96l85 146h136zM311 117c66 0 129 51 129 133s-63 134 -129 134c-67 0 -129 -52 -129 -134s62 -133 129 -133z" />
    <glyph glyph-name="dcroat" unicode="&#x111;" horiz-adv-x="704" 
d="M619 549h-62v-549h-85l-7 71c-37 -47 -97 -77 -166 -77c-142 0 -244 114 -244 256s102 257 244 257c54 0 101 -22 131 -56v98h-61v94h61v57h127v-57h62v-94zM311 117c66 0 129 51 129 133s-63 134 -129 134c-67 0 -129 -52 -129 -134s62 -133 129 -133z" />
    <glyph glyph-name="e" unicode="e" horiz-adv-x="595" 
d="M307 507c107 0 182 -51 220 -135c21 -46 22 -114 8 -157h-349c0 -68 56 -105 124 -105c52 0 106 12 151 35l67 -73c-54 -40 -129 -78 -218 -78c-152 0 -255 110 -255 256c0 142 96 257 252 257zM307 391c-68 0 -114 -48 -116 -96h229c0 12 -4 28 -12 40
c-17 32 -53 56 -101 56z" />
    <glyph glyph-name="eacute" unicode="&#xe9;" horiz-adv-x="595" 
d="M325 545h-96l85 146h136zM307 507c107 0 182 -51 220 -135c21 -46 22 -114 8 -157h-349c0 -68 56 -105 124 -105c52 0 106 12 151 35l67 -73c-54 -40 -129 -78 -218 -78c-152 0 -255 110 -255 256c0 142 96 257 252 257zM307 391c-68 0 -114 -48 -116 -96h229
c0 12 -4 28 -12 40c-17 32 -53 56 -101 56z" />
    <glyph glyph-name="ecaron" unicode="&#x11b;" horiz-adv-x="595" 
d="M372 545h-127l-88 146h96l56 -52l55 52h96zM307 507c107 0 182 -51 220 -135c21 -46 22 -114 8 -157h-349c0 -68 56 -105 124 -105c52 0 106 12 151 35l67 -73c-54 -40 -129 -78 -218 -78c-152 0 -255 110 -255 256c0 142 96 257 252 257zM307 391
c-68 0 -114 -48 -116 -96h229c0 12 -4 28 -12 40c-17 32 -53 56 -101 56z" />
    <glyph glyph-name="ecircumflex" unicode="&#xea;" horiz-adv-x="595" 
d="M459 544h-96l-55 53l-56 -52h-96l88 146h127zM307 507c107 0 182 -51 220 -135c21 -46 22 -114 8 -157h-349c0 -68 56 -105 124 -105c52 0 106 12 151 35l67 -73c-54 -40 -129 -78 -218 -78c-152 0 -255 110 -255 256c0 142 96 257 252 257zM307 391
c-68 0 -114 -48 -116 -96h229c0 12 -4 28 -12 40c-17 32 -53 56 -101 56z" />
    <glyph glyph-name="edieresis" unicode="&#xeb;" horiz-adv-x="595" 
d="M201 677c42 0 75 -29 75 -66s-33 -66 -75 -66c-41 0 -74 29 -74 66s33 66 74 66zM416 677c42 0 75 -29 75 -66s-33 -66 -75 -66c-41 0 -74 29 -74 66s33 66 74 66zM307 507c107 0 182 -51 220 -135c21 -46 22 -114 8 -157h-349c0 -68 56 -105 124 -105
c52 0 106 12 151 35l67 -73c-54 -40 -129 -78 -218 -78c-152 0 -255 110 -255 256c0 142 96 257 252 257zM307 391c-68 0 -114 -48 -116 -96h229c0 12 -4 28 -12 40c-17 32 -53 56 -101 56z" />
    <glyph glyph-name="edotaccent" unicode="&#x117;" horiz-adv-x="595" 
d="M307 677c42 0 75 -29 75 -66s-33 -66 -75 -66c-41 0 -74 29 -74 66s33 66 74 66zM307 507c107 0 182 -51 220 -135c21 -46 22 -114 8 -157h-349c0 -68 56 -105 124 -105c52 0 106 12 151 35l67 -73c-54 -40 -129 -78 -218 -78c-152 0 -255 110 -255 256
c0 142 96 257 252 257zM307 391c-68 0 -114 -48 -116 -96h229c0 12 -4 28 -12 40c-17 32 -53 56 -101 56z" />
    <glyph glyph-name="egrave" unicode="&#xe8;" horiz-adv-x="595" 
d="M391 545h-96l-125 146h136zM307 507c107 0 182 -51 220 -135c21 -46 22 -114 8 -157h-349c0 -68 56 -105 124 -105c52 0 106 12 151 35l67 -73c-54 -40 -129 -78 -218 -78c-152 0 -255 110 -255 256c0 142 96 257 252 257zM307 391c-68 0 -114 -48 -116 -96h229
c0 12 -4 28 -12 40c-17 32 -53 56 -101 56z" />
    <glyph glyph-name="emacron" unicode="&#x113;" horiz-adv-x="595" 
d="M438 545h-262v93h262v-93zM307 507c107 0 182 -51 220 -135c21 -46 22 -114 8 -157h-349c0 -68 56 -105 124 -105c52 0 106 12 151 35l67 -73c-54 -40 -129 -78 -218 -78c-152 0 -255 110 -255 256c0 142 96 257 252 257zM307 391c-68 0 -114 -48 -116 -96h229
c0 12 -4 28 -12 40c-17 32 -53 56 -101 56z" />
    <glyph glyph-name="eogonek" unicode="&#x119;" horiz-adv-x="595" 
d="M527 372c21 -46 22 -114 8 -157h-349c0 -68 56 -105 124 -105c52 0 106 12 151 35l67 -73c-41 -31 -95 -60 -157 -72c-47 -19 -61 -35 -61 -53c0 -21 17 -32 45 -32h16v-79h-9c-55 0 -105 23 -105 76c0 33 19 60 65 82h-12c-152 0 -255 110 -255 256
c0 142 96 257 252 257c107 0 182 -51 220 -135zM191 295h229c0 12 -4 28 -12 40c-17 32 -53 56 -101 56c-68 0 -114 -48 -116 -96z" />
    <glyph glyph-name="f" unicode="f" horiz-adv-x="405" 
d="M354 705v-115h-9c-56 0 -97 -14 -97 -78v-12h106v-123h-107v-378h-127v378h-65v123h67v16c0 131 92 198 217 190z" />
    <glyph glyph-name="g" unicode="g" horiz-adv-x="638" 
d="M294 507c69 0 129 -30 166 -77l7 70h85v-436c0 -146 -95 -255 -251 -255c-92 0 -167 33 -221 78l72 77c48 -24 93 -40 149 -39c73 0 122 37 122 110v28c-30 -33 -77 -54 -129 -54c-142 0 -244 114 -244 248c0 135 102 250 244 250zM306 384c-67 0 -129 -52 -129 -127
c0 -74 62 -125 129 -125c66 0 129 51 129 125c0 75 -63 127 -129 127z" />
    <glyph glyph-name="gbreve" unicode="&#x11f;" horiz-adv-x="638" 
d="M376 696h87c0 -88 -70 -151 -157 -151s-157 63 -157 151h88c0 -36 30 -64 69 -64s70 28 70 64zM294 507c69 0 129 -30 166 -77l7 70h85v-436c0 -146 -95 -255 -251 -255c-92 0 -167 33 -221 78l72 77c48 -24 93 -40 149 -39c73 0 122 37 122 110v28
c-30 -33 -77 -54 -129 -54c-142 0 -244 114 -244 248c0 135 102 250 244 250zM306 384c-67 0 -129 -52 -129 -127c0 -74 62 -125 129 -125c66 0 129 51 129 125c0 75 -63 127 -129 127z" />
    <glyph glyph-name="gcommaaccent" unicode="&#x123;" horiz-adv-x="638" 
d="M294 507c69 0 129 -30 166 -77l7 70h85v-436c0 -146 -95 -255 -251 -255c-92 0 -167 33 -221 78l72 77c48 -24 93 -40 149 -39c73 0 122 37 122 110v28c-30 -33 -77 -54 -129 -54c-142 0 -244 114 -244 248c0 135 102 250 244 250zM306 384c-67 0 -129 -52 -129 -127
c0 -74 62 -125 129 -125c66 0 129 51 129 125c0 75 -63 127 -129 127zM270 -396h-96l85 146h136z" />
    <glyph glyph-name="gdotaccent" unicode="&#x121;" horiz-adv-x="638" 
d="M306 677c42 0 75 -29 75 -66s-33 -66 -75 -66c-41 0 -74 29 -74 66s33 66 74 66zM294 507c69 0 129 -30 166 -77l7 70h85v-436c0 -146 -95 -255 -251 -255c-92 0 -167 33 -221 78l72 77c48 -24 93 -40 149 -39c73 0 122 37 122 110v28c-30 -33 -77 -54 -129 -54
c-142 0 -244 114 -244 248c0 135 102 250 244 250zM306 384c-67 0 -129 -52 -129 -127c0 -74 62 -125 129 -125c66 0 129 51 129 125c0 75 -63 127 -129 127z" />
    <glyph glyph-name="h" unicode="h" horiz-adv-x="655" 
d="M356 507c144 0 218 -98 218 -243v-264h-127v256c0 93 -44 128 -111 128c-73 0 -119 -43 -119 -139v-245h-127v700h127v-252c32 41 85 59 139 59z" />
    <glyph glyph-name="hbar" unicode="&#x127;" horiz-adv-x="724" 
d="M425 507c144 0 218 -98 218 -243v-264h-127v256c0 93 -44 128 -111 128c-73 0 -119 -43 -119 -139v-245h-127v542h-69v87h69v71h127v-71h68v-87h-68v-94c32 41 85 59 139 59z" />
    <glyph glyph-name="i" unicode="i" horiz-adv-x="324" 
d="M164 545c-41 0 -74 29 -74 66s33 66 74 66c42 0 75 -29 75 -66s-33 -66 -75 -66zM101 0v500h127v-500h-127z" />
    <glyph glyph-name="dotlessi" unicode="&#x131;" horiz-adv-x="302" 
d="M90 0v500h127v-500h-127z" />
    <glyph glyph-name="iacute" unicode="&#xed;" horiz-adv-x="397" 
d="M186 545h-96l85 146h136zM107 0v500h127v-500h-127z" />
    <glyph glyph-name="icaron" unicode="&#x1d0;" horiz-adv-x="479" 
d="M305 545h-127l-88 146h96l56 -52l55 52h96zM305 0h-127v500h127v-500z" />
    <glyph glyph-name="icircumflex" unicode="&#xee;" horiz-adv-x="479" 
d="M305 691l88 -146h-96l-55 52l-56 -52h-96l88 146h127zM305 0h-127v500h127v-500z" />
    <glyph glyph-name="idieresis" unicode="&#xef;" horiz-adv-x="540" 
d="M164 545c-41 0 -74 29 -74 66s33 66 74 66c42 0 75 -29 75 -66s-33 -66 -75 -66zM380 545c-41 0 -74 29 -74 66s33 66 74 66c42 0 75 -29 75 -66s-33 -66 -75 -66zM210 0v500h127v-500h-127z" />
    <glyph glyph-name="i.loclTRK" horiz-adv-x="324" 
d="M164 545c-41 0 -74 29 -74 66s33 66 74 66c42 0 75 -29 75 -66s-33 -66 -75 -66zM101 0v500h127v-500h-127z" />
    <glyph glyph-name="igrave" unicode="&#xec;" horiz-adv-x="397" 
d="M226 691l86 -146h-97l-125 146h136zM175 0v500h127v-500h-127z" />
    <glyph glyph-name="ij" unicode="&#x133;" horiz-adv-x="543" 
d="M164 677c42 0 75 -29 75 -66s-33 -66 -75 -66c-41 0 -74 29 -74 66s33 66 74 66zM383 677c42 0 75 -29 75 -66s-33 -66 -75 -66c-41 0 -74 29 -74 66s33 66 74 66zM228 0h-127v500h127v-500zM447 -184h-128v684h128v-684z" />
    <glyph glyph-name="imacron" unicode="&#x12b;" horiz-adv-x="438" 
d="M352 545h-262v93h262v-93zM157 0v500h127v-500h-127z" />
    <glyph glyph-name="iogonek" unicode="&#x12f;" horiz-adv-x="343" 
d="M183 545c-41 0 -74 29 -74 66s33 66 74 66c42 0 75 -29 75 -66s-33 -66 -75 -66zM120 500h127v-500c-47 -19 -61 -35 -61 -53c0 -21 17 -32 45 -32h16v-79h-9c-55 0 -105 23 -105 76c0 36 22 64 78 88h-91v500z" />
    <glyph glyph-name="j" unicode="j" horiz-adv-x="324" 
d="M164 677c42 0 75 -29 75 -66s-33 -66 -75 -66c-41 0 -74 29 -74 66s33 66 74 66zM228 -184h-128v684h128v-684z" />
    <glyph glyph-name="k" unicode="k" horiz-adv-x="607" 
d="M433 0l-86 133c-30 46 -47 63 -95 63h-35v-196h-127v700h127v-382h31c47 0 64 16 94 63l78 119h141l-112 -169c-21 -33 -49 -64 -71 -73c25 -8 53 -40 76 -75l120 -183h-141z" />
    <glyph glyph-name="kcommaaccent" unicode="&#x137;" horiz-adv-x="607" 
d="M433 0l-86 133c-30 46 -47 63 -95 63h-35v-196h-127v700h127v-382h31c47 0 64 16 94 63l78 119h141l-112 -169c-21 -33 -49 -64 -71 -73c25 -8 53 -40 76 -75l120 -183h-141zM283 -215h-96l85 146h136z" />
    <glyph glyph-name="l" unicode="l" horiz-adv-x="299" 
d="M90 0v700h128v-700h-128z" />
    <glyph glyph-name="lacute" unicode="&#x13a;" horiz-adv-x="393" 
d="M186 750h-96l85 146h136zM107 700h128v-700h-128v700z" />
    <glyph glyph-name="lcaron" unicode="&#x13e;" horiz-adv-x="550" 
d="M90 700h128v-700h-128v700zM343 554h-96l85 146h136z" />
    <glyph glyph-name="lcommaaccent" unicode="&#x13c;" horiz-adv-x="393" 
d="M152 700h128v-700h-128v700zM186 -206h-96l85 147h136z" />
    <glyph glyph-name="ldot" unicode="&#x140;" horiz-adv-x="484" 
d="M90 700h128v-700h-128v700zM327 377c44 0 75 -35 75 -75s-31 -75 -75 -75c-45 0 -76 35 -76 75s31 75 76 75z" />
    <glyph glyph-name="lslash" unicode="&#x142;" horiz-adv-x="430" 
d="M348 423l-64 -28v-395h-128v339l-66 -29v77l66 29v284h128v-228l64 28v-77z" />
    <glyph glyph-name="m" unicode="m" horiz-adv-x="1007" 
d="M708 507c144 0 218 -98 218 -243v-264h-127v256c0 93 -43 128 -111 128c-73 0 -119 -43 -119 -139v-245h-127v256c0 93 -44 128 -111 128c-73 0 -119 -43 -119 -139v-245h-127v500h85l9 -78c34 56 98 85 172 85c84 0 146 -35 178 -97c32 63 99 97 179 97z" />
    <glyph glyph-name="n" unicode="n" horiz-adv-x="650" 
d="M351 507c144 0 218 -98 218 -243v-264h-127v256c0 93 -44 128 -111 128c-73 0 -119 -43 -119 -139v-245h-127v500h85l9 -78c34 56 98 85 172 85z" />
    <glyph glyph-name="nacute" unicode="&#x144;" horiz-adv-x="650" 
d="M342 545h-96l85 146h136zM351 507c144 0 218 -98 218 -243v-264h-127v256c0 93 -44 128 -111 128c-73 0 -119 -43 -119 -139v-245h-127v500h85l9 -78c34 56 98 85 172 85z" />
    <glyph glyph-name="ncaron" unicode="&#x148;" horiz-adv-x="650" 
d="M400 545h-127l-88 146h96l56 -52l55 52h96zM351 507c144 0 218 -98 218 -243v-264h-127v256c0 93 -44 128 -111 128c-73 0 -119 -43 -119 -139v-245h-127v500h85l9 -78c34 56 98 85 172 85z" />
    <glyph glyph-name="ncommaaccent" unicode="&#x146;" horiz-adv-x="650" 
d="M351 507c144 0 218 -98 218 -243v-264h-127v256c0 93 -44 128 -111 128c-73 0 -119 -43 -119 -139v-245h-127v500h85l9 -78c34 56 98 85 172 85zM312 -215h-96l85 146h136z" />
    <glyph glyph-name="eng" unicode="&#x14b;" horiz-adv-x="650" 
d="M351 507c144 0 218 -98 218 -243v-219c0 -158 -78 -244 -219 -236l-15 1v115h9c68 0 98 15 98 114v217c0 93 -44 128 -111 128c-73 0 -119 -43 -119 -139v-245h-127v500h85l9 -78c34 56 98 85 172 85z" />
    <glyph glyph-name="ntilde" unicode="&#xf1;" horiz-adv-x="650" 
d="M487 655l-27 -69c-13 -35 -36 -51 -63 -54c-22 -2 -42 5 -56 15l-41 30c-13 8 -27 13 -39 11c-13 -1 -21 -9 -27 -25l-7 -18h-57l27 69c13 34 36 51 62 53c22 3 43 -4 57 -14l41 -29c12 -8 24 -13 36 -12c14 0 24 8 30 25l7 18h57zM351 507c144 0 218 -98 218 -243v-264
h-127v256c0 93 -44 128 -111 128c-73 0 -119 -43 -119 -139v-245h-127v500h85l9 -78c34 56 98 85 172 85z" />
    <glyph glyph-name="o" unicode="o" horiz-adv-x="623" 
d="M311 507c142 0 257 -115 257 -257s-115 -256 -257 -256s-256 114 -256 256s114 257 256 257zM311 384c-67 0 -129 -52 -129 -134s62 -133 129 -133c66 0 129 51 129 133s-63 134 -129 134z" />
    <glyph glyph-name="oacute" unicode="&#xf3;" horiz-adv-x="623" 
d="M319 545h-96l85 146h136zM311 507c142 0 257 -115 257 -257s-115 -256 -257 -256s-256 114 -256 256s114 257 256 257zM311 384c-67 0 -129 -52 -129 -134s62 -133 129 -133c66 0 129 51 129 133s-63 134 -129 134z" />
    <glyph glyph-name="ocaron" unicode="&#x1d2;" horiz-adv-x="623" 
d="M375 544l-127 1l-88 147h96l56 -53l55 52h96zM311 507c142 0 257 -115 257 -257s-115 -256 -257 -256s-256 114 -256 256s114 257 256 257zM311 384c-67 0 -129 -52 -129 -134s62 -133 129 -133c66 0 129 51 129 133s-63 134 -129 134z" />
    <glyph glyph-name="ocircumflex" unicode="&#xf4;" horiz-adv-x="623" 
d="M367 545l-55 52l-56 -53h-96l88 147h127l88 -146h-96zM311 507c142 0 257 -115 257 -257s-115 -256 -257 -256s-256 114 -256 256s114 257 256 257zM311 384c-67 0 -129 -52 -129 -134s62 -133 129 -133c66 0 129 51 129 133s-63 134 -129 134z" />
    <glyph glyph-name="odieresis" unicode="&#xf6;" horiz-adv-x="623" 
d="M204 545c-41 0 -74 29 -74 66s33 66 74 66c42 0 75 -29 75 -66s-33 -66 -75 -66zM420 545c-41 0 -74 29 -74 66s33 66 74 66c42 0 75 -29 75 -66s-33 -66 -75 -66zM311 507c142 0 257 -115 257 -257s-115 -256 -257 -256s-256 114 -256 256s114 257 256 257zM311 384
c-67 0 -129 -52 -129 -134s62 -133 129 -133c66 0 129 51 129 133s-63 134 -129 134z" />
    <glyph glyph-name="ograve" unicode="&#xf2;" horiz-adv-x="623" 
d="M300 691l85 -146h-96l-125 146h136zM311 507c142 0 257 -115 257 -257s-115 -256 -257 -256s-256 114 -256 256s114 257 256 257zM311 384c-67 0 -129 -52 -129 -134s62 -133 129 -133c66 0 129 51 129 133s-63 134 -129 134z" />
    <glyph glyph-name="ohungarumlaut" unicode="&#x151;" horiz-adv-x="629" 
d="M242 545h-96l85 146h136zM415 545h-96l85 146h136zM311 507c142 0 257 -115 257 -257s-115 -256 -257 -256s-256 114 -256 256s114 257 256 257zM311 384c-67 0 -129 -52 -129 -134s62 -133 129 -133c66 0 129 51 129 133s-63 134 -129 134z" />
    <glyph glyph-name="omacron" unicode="&#x14d;" horiz-adv-x="623" 
d="M441 545h-262v93h262v-93zM311 507c142 0 257 -115 257 -257s-115 -256 -257 -256s-256 114 -256 256s114 257 256 257zM311 384c-67 0 -129 -52 -129 -134s62 -133 129 -133c66 0 129 51 129 133s-63 134 -129 134z" />
    <glyph glyph-name="oslash" unicode="&#xf8;" horiz-adv-x="623" 
d="M568 500l-67 -77c42 -46 67 -106 67 -173c0 -142 -115 -256 -257 -256c-53 0 -102 16 -143 43l-32 -37h-81l67 77c-42 46 -67 106 -67 173c0 142 114 257 256 257c53 0 102 -16 143 -44l32 37h82zM182 250c0 -30 8 -56 22 -77l168 195c-18 10 -40 16 -61 16
c-67 0 -129 -52 -129 -134zM440 250c0 30 -8 56 -22 76l-168 -194c19 -10 40 -15 61 -15c66 0 129 51 129 133z" />
    <glyph glyph-name="otilde" unicode="&#xf5;" horiz-adv-x="623" 
d="M469 655l-27 -69c-13 -35 -36 -51 -63 -54c-22 -2 -42 5 -56 15l-41 30c-13 8 -27 13 -39 11c-13 -1 -21 -9 -27 -25l-7 -18h-57l27 69c13 34 36 51 62 53c22 3 43 -4 57 -14l41 -29c12 -8 24 -13 36 -12c14 0 24 8 30 25l7 18h57zM311 507c142 0 257 -115 257 -257
s-115 -256 -257 -256s-256 114 -256 256s114 257 256 257zM311 384c-67 0 -129 -52 -129 -134s62 -133 129 -133c66 0 129 51 129 133s-63 134 -129 134z" />
    <glyph glyph-name="oe" unicode="&#x153;" horiz-adv-x="980" 
d="M693 507c106 0 181 -51 219 -135c21 -46 23 -114 8 -157h-349c0 -68 56 -105 125 -105c51 0 105 12 150 35l67 -73c-54 -40 -129 -78 -217 -78c-86 0 -155 36 -195 95c-41 -57 -111 -95 -190 -95c-142 0 -256 114 -256 256s114 257 256 257c78 0 148 -38 189 -95
c39 57 107 95 193 95zM692 391c-68 0 -114 -48 -116 -96h229c0 12 -4 28 -12 40c-17 32 -53 56 -101 56zM311 384c-67 0 -129 -52 -129 -134s62 -133 129 -133c66 0 129 51 129 133s-63 134 -129 134z" />
    <glyph glyph-name="p" unicode="p" horiz-adv-x="636" 
d="M337 506c142 0 243 -114 243 -256s-101 -257 -243 -257c-54 0 -102 23 -132 56v-233h-127v684h85l7 -71c38 47 97 77 167 77zM325 383c-66 0 -129 -51 -129 -133s63 -134 129 -134c67 0 129 52 129 134s-62 133 -129 133z" />
    <glyph glyph-name="thorn" unicode="&#xfe;" horiz-adv-x="644" 
d="M214 700v-250c30 34 78 56 132 56c142 0 243 -114 243 -256s-101 -257 -243 -257c-54 0 -102 23 -132 56v-233h-127v884h127zM333 383c-66 0 -129 -51 -129 -133s63 -134 129 -134c67 0 129 52 129 134s-62 133 -129 133z" />
    <glyph glyph-name="q" unicode="q" 
d="M557 -184h-127v233c-30 -33 -77 -56 -131 -56c-142 0 -244 115 -244 257s102 256 244 256c69 0 129 -30 166 -77l7 71h85v-684zM311 116c66 0 129 52 129 134s-63 133 -129 133c-67 0 -129 -51 -129 -133s62 -134 129 -134z" />
    <glyph glyph-name="r" unicode="r" horiz-adv-x="436" 
d="M403 384h-51c-93 0 -140 -63 -140 -158v-226h-127v500h85l14 -108c37 70 104 115 198 115h21v-123z" />
    <glyph glyph-name="racute" unicode="&#x155;" horiz-adv-x="436" 
d="M249 545h-96l85 146h136zM403 384h-51c-93 0 -140 -63 -140 -158v-226h-127v500h85l14 -108c37 70 104 115 198 115h21v-123z" />
    <glyph glyph-name="rcaron" unicode="&#x159;" horiz-adv-x="436" 
d="M304 545h-127l-88 146h96l56 -52l55 52h96zM403 384h-51c-93 0 -140 -63 -140 -158v-226h-127v500h85l14 -108c37 70 104 115 198 115h21v-123z" />
    <glyph glyph-name="rcommaaccent" unicode="&#x157;" horiz-adv-x="436" 
d="M403 384h-51c-93 0 -140 -63 -140 -158v-226h-127v500h85l14 -108c37 70 104 115 198 115h21v-123zM213 -215h-96l85 146h136z" />
    <glyph glyph-name="s" unicode="s" horiz-adv-x="552" 
d="M270 507h8c83 0 164 -36 208 -93l-72 -67c-32 36 -93 59 -135 59h-8c-45 -1 -77 -18 -77 -50c0 -28 21 -40 83 -45l34 -4c101 -7 185 -47 185 -156c0 -89 -77 -157 -201 -157h-5c-98 0 -193 38 -235 96l72 68c30 -35 101 -61 162 -61h5c43 0 75 15 75 49
c0 39 -30 49 -86 54l-28 3c-119 10 -188 57 -188 145c0 102 92 158 203 159z" />
    <glyph glyph-name="sacute" unicode="&#x15b;" horiz-adv-x="552" 
d="M300 545h-96l85 146h136zM270 507h8c83 0 164 -36 208 -93l-72 -67c-32 36 -93 59 -135 59h-8c-45 -1 -77 -18 -77 -50c0 -28 21 -40 83 -45l34 -4c101 -7 185 -47 185 -156c0 -89 -77 -157 -201 -157h-5c-98 0 -193 38 -235 96l72 68c30 -35 101 -61 162 -61h5
c43 0 75 15 75 49c0 39 -30 49 -86 54l-28 3c-119 10 -188 57 -188 145c0 102 92 158 203 159z" />
    <glyph glyph-name="scaron" unicode="&#x161;" horiz-adv-x="552" 
d="M339 545h-127l-88 146h96l56 -52l55 52h96zM270 507h8c83 0 164 -36 208 -93l-72 -67c-32 36 -93 59 -135 59h-8c-45 -1 -77 -18 -77 -50c0 -28 21 -40 83 -45l34 -4c101 -7 185 -47 185 -156c0 -89 -77 -157 -201 -157h-5c-98 0 -193 38 -235 96l72 68
c30 -35 101 -61 162 -61h5c43 0 75 15 75 49c0 39 -30 49 -86 54l-28 3c-119 10 -188 57 -188 145c0 102 92 158 203 159z" />
    <glyph glyph-name="scedilla" unicode="&#x15f;" horiz-adv-x="552" 
d="M496 151c0 -89 -77 -157 -201 -157l-9 -28c34 12 85 0 85 -60c0 -59 -62 -94 -145 -47v34c35 -19 65 -9 65 16c0 21 -16 35 -58 16l25 70c-86 7 -166 43 -203 95l72 68c30 -35 101 -61 162 -61h5c43 0 75 15 75 49c0 39 -30 49 -86 54l-28 3c-119 10 -188 57 -188 145
c0 102 92 158 203 159h8c83 0 164 -36 208 -93l-72 -67c-32 36 -93 59 -135 59h-8c-45 -1 -77 -18 -77 -50c0 -28 21 -40 83 -45l34 -4c101 -7 185 -47 185 -156z" />
    <glyph glyph-name="scommaaccent" unicode="&#x219;" horiz-adv-x="552" 
d="M270 507h8c83 0 164 -36 208 -93l-72 -67c-32 36 -93 59 -135 59h-8c-45 -1 -77 -18 -77 -50c0 -28 21 -40 83 -45l34 -4c101 -7 185 -47 185 -156c0 -89 -77 -157 -201 -157h-5c-98 0 -193 38 -235 96l72 68c30 -35 101 -61 162 -61h5c43 0 75 15 75 49
c0 39 -30 49 -86 54l-28 3c-119 10 -188 57 -188 145c0 102 92 158 203 159zM241 -215h-96l85 146h136z" />
    <glyph glyph-name="germandbls" unicode="&#xdf;" horiz-adv-x="655" 
d="M319 707h30c190 0 231 -117 231 -188c0 -78 -39 -138 -94 -160c71 -17 116 -81 116 -163c0 -112 -70 -202 -260 -203h-76v130h77c76 0 128 23 128 88c0 44 -27 85 -99 85h-74v129h60c75 0 92 42 92 75c0 48 -32 77 -101 77h-35c-69 0 -98 -36 -98 -84v-493h-131v512
c0 71 40 196 234 195z" />
    <glyph glyph-name="t" unicode="t" horiz-adv-x="359" 
d="M248 377v-377h-128v377h-65v123h65v168h128v-168h65v-123h-65z" />
    <glyph glyph-name="tbar" unicode="&#x167;" horiz-adv-x="359" 
d="M248 377v-64h65v-123h-65v-190h-128v190h-65v123h65v64h-65v123h65v168h128v-168h65v-123h-65z" />
    <glyph glyph-name="tcaron" unicode="&#x165;" horiz-adv-x="551" 
d="M381 554h-96l85 146h136zM248 377v-377h-128v377h-65v123h65v168h128v-168h65v-123h-65z" />
    <glyph glyph-name="tcedilla" unicode="&#x163;" horiz-adv-x="359" 
d="M188 0l-11 -34c34 12 85 0 85 -60c0 -59 -62 -94 -145 -47v34c35 -19 65 -9 65 16c0 21 -16 35 -58 16l27 75h-31v377h-65v123h65v168h128v-168h65v-123h-65v-377h-60z" />
    <glyph glyph-name="uni021B" unicode="&#x21b;" horiz-adv-x="359" 
d="M249 377v-377h-128v377h-65v123h65v168h128v-168h65v-123h-65zM157 -215h-96l85 146h136z" />
    <glyph glyph-name="u" unicode="u" horiz-adv-x="645" 
d="M564 0h-85l-9 78c-34 -56 -97 -85 -171 -85c-145 0 -219 98 -219 243v264h127v-256c0 -93 44 -128 112 -128c72 0 118 43 118 139v245h127v-500z" />
    <glyph glyph-name="uacute" unicode="&#xfa;" horiz-adv-x="645" 
d="M440 691l-125 -146h-96l85 146h136zM564 0h-85l-9 78c-34 -56 -97 -85 -171 -85c-145 0 -219 98 -219 243v264h127v-256c0 -93 44 -128 112 -128c72 0 118 43 118 139v245h127v-500z" />
    <glyph glyph-name="ucaron" unicode="&#x1d4;" horiz-adv-x="645" 
d="M382 545h-127l-88 146h96l56 -52l55 52h96zM564 0h-85l-9 78c-34 -56 -97 -85 -171 -85c-145 0 -219 98 -219 243v264h127v-256c0 -93 44 -128 112 -128c72 0 118 43 118 139v245h127v-500z" />
    <glyph glyph-name="ucircumflex" unicode="&#xfb;" horiz-adv-x="645" 
d="M374 545l-55 52l-56 -52h-96l88 146h127l88 -146h-96zM564 0h-85l-9 78c-34 -56 -97 -85 -171 -85c-145 0 -219 98 -219 243v264h127v-256c0 -93 44 -128 112 -128c72 0 118 43 118 139v245h127v-500z" />
    <glyph glyph-name="udieresis" unicode="&#xfc;" horiz-adv-x="645" 
d="M214 677c42 0 75 -29 75 -66s-33 -66 -75 -66c-41 0 -74 29 -74 66s33 66 74 66zM429 677c42 0 75 -29 75 -66s-33 -66 -75 -66c-41 0 -74 29 -74 66s33 66 74 66zM564 0h-85l-9 78c-34 -56 -97 -85 -171 -85c-145 0 -219 98 -219 243v264h127v-256
c0 -93 44 -128 112 -128c72 0 118 43 118 139v245h127v-500z" />
    <glyph glyph-name="udieresisacute" unicode="&#x1d8;" horiz-adv-x="645" 
d="M352 705h-96l85 147h136zM214 677c42 0 75 -29 75 -66s-33 -67 -75 -67c-41 0 -74 30 -74 67s33 66 74 66zM429 677c42 0 75 -29 75 -66s-33 -67 -75 -67c-41 0 -74 30 -74 67s33 66 74 66zM564 0h-85l-9 78c-34 -56 -97 -85 -171 -85c-145 0 -219 98 -219 243v264h127
v-256c0 -93 44 -128 112 -128c72 0 118 43 118 139v245h127v-500z" />
    <glyph glyph-name="udieresiscaron" unicode="&#x1da;" horiz-adv-x="645" 
d="M382 705h-127l-88 147h96l56 -52l55 52h96zM214 677c42 0 75 -29 75 -66s-33 -66 -75 -66c-41 0 -74 29 -74 66s33 66 74 66zM429 677c42 0 75 -29 75 -66s-33 -66 -75 -66c-41 0 -74 29 -74 66s33 66 74 66zM564 0h-85l-9 78c-34 -56 -97 -85 -171 -85
c-145 0 -219 98 -219 243v264h127v-256c0 -93 44 -128 112 -128c72 0 118 43 118 139v245h127v-500z" />
    <glyph glyph-name="udieresisgrave" unicode="&#x1dc;" horiz-adv-x="645" 
d="M396 705h-96l-125 146h136zM214 677c42 0 75 -29 75 -66s-33 -66 -75 -66c-41 0 -74 29 -74 66s33 66 74 66zM429 677c42 0 75 -29 75 -66s-33 -66 -75 -66c-41 0 -74 29 -74 66s33 66 74 66zM564 0h-85l-9 78c-34 -56 -97 -85 -171 -85c-145 0 -219 98 -219 243v264h127
v-256c0 -93 44 -128 112 -128c72 0 118 43 118 139v245h127v-500z" />
    <glyph glyph-name="udieresismacron" unicode="&#x1d6;" horiz-adv-x="645" 
d="M454 705h-262v94h262v-94zM214 677c42 0 75 -29 75 -66s-33 -66 -75 -66c-41 0 -74 29 -74 66s33 66 74 66zM429 677c42 0 75 -29 75 -66s-33 -66 -75 -66c-41 0 -74 29 -74 66s33 66 74 66zM564 0h-85l-9 78c-34 -56 -97 -85 -171 -85c-145 0 -219 98 -219 243v264h127
v-256c0 -93 44 -128 112 -128c72 0 118 43 118 139v245h127v-500z" />
    <glyph glyph-name="ugrave" unicode="&#xf9;" horiz-adv-x="645" 
d="M389 545h-96l-125 146h136zM564 0h-85l-9 78c-34 -56 -97 -85 -171 -85c-145 0 -219 98 -219 243v264h127v-256c0 -93 44 -128 112 -128c72 0 118 43 118 139v245h127v-500z" />
    <glyph glyph-name="uhungarumlaut" unicode="&#x171;" horiz-adv-x="646" 
d="M235 545h-96l85 146h136zM409 545h-96l85 146h136zM564 0h-85l-9 78c-34 -56 -97 -85 -171 -85c-145 0 -219 98 -219 243v264h127v-256c0 -93 44 -128 112 -128c72 0 118 43 118 139v245h127v-500z" />
    <glyph glyph-name="umacron" unicode="&#x16b;" horiz-adv-x="645" 
d="M450 545h-262v93h262v-93zM564 0h-85l-9 78c-34 -56 -97 -85 -171 -85c-145 0 -219 98 -219 243v264h127v-256c0 -93 44 -128 112 -128c72 0 118 43 118 139v245h127v-500z" />
    <glyph glyph-name="uogonek" unicode="&#x173;" horiz-adv-x="645" 
d="M564 500v-500c-47 -19 -61 -35 -61 -53c0 -21 17 -32 45 -32h16v-79h-9c-55 0 -105 23 -105 76c0 36 22 64 78 88h-49l-9 78c-34 -56 -97 -85 -171 -85c-145 0 -219 98 -219 243v264h127v-256c0 -93 44 -128 112 -128c72 0 118 43 118 139v245h127z" />
    <glyph glyph-name="uring" unicode="&#x16f;" horiz-adv-x="645" 
d="M319 734c52 0 95 -43 95 -95s-43 -94 -95 -94s-94 42 -94 94s42 95 94 95zM319 672c-19 0 -32 -15 -32 -33s13 -33 32 -33c18 0 32 15 32 33s-14 33 -32 33zM564 0h-85l-9 78c-34 -56 -97 -85 -171 -85c-145 0 -219 98 -219 243v264h127v-256c0 -93 44 -128 112 -128
c72 0 118 43 118 139v245h127v-500z" />
    <glyph glyph-name="v" unicode="v" horiz-adv-x="609" 
d="M346 0h-82l-231 500h135l137 -313l138 313h134z" />
    <glyph glyph-name="w" unicode="w" horiz-adv-x="955" 
d="M695 0h-81l-136 297l-136 -297h-82l-227 500h135l133 -313l136 313h82l136 -313l133 313h135z" />
    <glyph glyph-name="wacute" unicode="&#x1e83;" horiz-adv-x="955" 
d="M495 545h-96l85 146h136zM695 0h-81l-136 297l-136 -297h-82l-227 500h135l133 -313l136 313h82l136 -313l133 313h135z" />
    <glyph glyph-name="wcircumflex" unicode="&#x175;" horiz-adv-x="955" 
d="M533 545l-55 52l-56 -52h-96l88 146h127l88 -146h-96zM695 0h-81l-136 297l-136 -297h-82l-227 500h135l133 -313l136 313h82l136 -313l133 313h135z" />
    <glyph glyph-name="wdieresis" unicode="&#x1e85;" horiz-adv-x="955" 
d="M370 545c-41 0 -74 29 -74 66s33 66 74 66c42 0 75 -29 75 -66s-33 -66 -75 -66zM585 545c-41 0 -74 29 -74 66s33 66 74 66c42 0 75 -29 75 -66s-33 -66 -75 -66zM695 0h-81l-136 297l-136 -297h-82l-227 500h135l133 -313l136 313h82l136 -313l133 313h135z" />
    <glyph glyph-name="wgrave" unicode="&#x1e81;" horiz-adv-x="955" 
d="M468 691l85 -146h-96l-125 146h136zM695 0h-81l-136 297l-136 -297h-82l-227 500h135l133 -313l136 313h82l136 -313l133 313h135z" />
    <glyph glyph-name="x" unicode="x" horiz-adv-x="600" 
d="M299 154l-119 -154h-147l195 260l-184 240h147l111 -138l108 138h146l-184 -245l196 -255h-147z" />
    <glyph glyph-name="y" unicode="y" horiz-adv-x="650" 
d="M569 500v-436c0 -146 -95 -255 -250 -255c-92 0 -168 33 -222 78l72 77c48 -24 93 -40 150 -39c72 0 122 37 122 110v32c-32 -41 -85 -59 -137 -59c-145 0 -219 99 -219 244v248h127v-241c0 -92 44 -128 112 -128c72 0 118 43 118 139v230h127z" />
    <glyph glyph-name="yacute" unicode="&#xfd;" horiz-adv-x="650" 
d="M321 545h-96l85 146h136zM569 500v-436c0 -146 -95 -255 -250 -255c-92 0 -168 33 -222 78l72 77c48 -24 93 -40 150 -39c72 0 122 37 122 110v32c-32 -41 -85 -59 -137 -59c-145 0 -219 99 -219 244v248h127v-241c0 -92 44 -128 112 -128c72 0 118 43 118 139v230h127z
" />
    <glyph glyph-name="ycircumflex" unicode="&#x177;" horiz-adv-x="650" 
d="M387 691l88 -146h-96l-55 52l-56 -52h-96l88 146h127zM212 500v-241c0 -92 44 -128 112 -128c72 0 118 43 118 139v230h127v-436c0 -146 -95 -255 -250 -255c-92 0 -168 33 -222 78l72 77c48 -24 93 -40 150 -39c72 0 122 37 122 110v32c-32 -41 -85 -59 -137 -59
c-145 0 -219 99 -219 244v248h127z" />
    <glyph glyph-name="ydieresis" unicode="&#xff;" horiz-adv-x="650" 
d="M217 677c42 0 75 -29 75 -66s-33 -66 -75 -66c-41 0 -74 29 -74 66s33 66 74 66zM433 677c42 0 75 -29 75 -66s-33 -66 -75 -66c-41 0 -74 29 -74 66s33 66 74 66zM212 500v-241c0 -92 44 -128 112 -128c72 0 118 43 118 139v230h127v-436c0 -146 -95 -255 -250 -255
c-92 0 -168 33 -222 78l72 77c48 -24 93 -40 150 -39c72 0 122 37 122 110v32c-32 -41 -85 -59 -137 -59c-145 0 -219 99 -219 244v248h127z" />
    <glyph glyph-name="ygrave" unicode="&#x1ef3;" horiz-adv-x="650" 
d="M414 545h-96l-125 146h136zM212 500v-241c0 -92 44 -128 112 -128c72 0 118 43 118 139v230h127v-436c0 -146 -95 -255 -250 -255c-92 0 -168 33 -222 78l72 77c48 -24 93 -40 150 -39c72 0 122 37 122 110v32c-32 -41 -85 -59 -137 -59c-145 0 -219 99 -219 244v248h127
z" />
    <glyph glyph-name="z" unicode="z" horiz-adv-x="535" 
d="M480 0h-425l1 96l233 281h-215v123h396l-1 -96l-233 -281h244v-123z" />
    <glyph glyph-name="zacute" unicode="&#x17a;" horiz-adv-x="535" 
d="M277 545h-96l85 146h136zM480 0h-425l1 96l233 281h-215v123h396l-1 -96l-233 -281h244v-123z" />
    <glyph glyph-name="zcaron" unicode="&#x17e;" horiz-adv-x="535" 
d="M329 545h-127l-88 146h96l56 -52l55 52h96zM469 404l-233 -281h244v-123h-425l1 96l233 281h-215v123h396z" />
    <glyph glyph-name="zdotaccent" unicode="&#x17c;" horiz-adv-x="535" 
d="M261 545c-41 0 -74 29 -74 66s33 66 74 66c42 0 75 -29 75 -66s-33 -66 -75 -66zM480 0h-425l1 96l233 281h-215v123h396l-1 -96l-233 -281h244v-123z" />
    <glyph glyph-name="k.ss01" horiz-adv-x="607" 
d="M217 194v-194h-127v700h127v-383h75l132 183h141l-174 -244l183 -256h-142l-140 194h-75z" />
    <glyph glyph-name="kcommaaccent.ss01" horiz-adv-x="607" 
d="M217 194v-194h-127v700h127v-383h75l132 183h141l-174 -244l183 -256h-142l-140 194h-75zM403 -69l-125 -146h-96l85 146h136z" />
    <glyph glyph-name="uni0410" unicode="&#x410;" horiz-adv-x="739" 
d="M246 128l-50 -128h-153l288 700h81l284 -700h-153l-50 128h-247zM370 450l-76 -191h151z" />
    <glyph glyph-name="uni0411" unicode="&#x411;" horiz-adv-x="699" 
d="M243 442h164c162 0 240 -89 240 -221s-75 -221 -240 -221h-302v700h468v-130h-330v-128zM243 130h166c79 0 107 35 107 91c0 57 -32 91 -107 91h-166v-182z" />
    <glyph glyph-name="uni0412" unicode="&#x412;" horiz-adv-x="692" 
d="M105 700h270c203 0 237 -117 237 -186c0 -78 -38 -127 -92 -149c73 -17 119 -81 119 -164c0 -111 -62 -201 -259 -201h-275v700zM243 570v-150h147c74 0 92 42 92 75c0 32 -14 75 -92 75h-147zM243 301v-170h166c75 0 100 40 100 85c0 44 -28 85 -100 85h-166z" />
    <glyph glyph-name="uni0413" unicode="&#x413;" horiz-adv-x="601" 
d="M243 570v-570h-138v700h453v-130h-315z" />
    <glyph glyph-name="uni0414" unicode="&#x414;" horiz-adv-x="807" 
d="M769 -129h-138v129h-456v-129h-138v259h93l234 570h82l231 -570h92v-259zM403 447l-125 -317h251z" />
    <glyph glyph-name="uni0415" unicode="&#x415;" horiz-adv-x="635" 
d="M243 417h303v-130h-303v-157h328v-130h-466v700h466v-130h-328v-153z" />
    <glyph glyph-name="uni0401" unicode="&#x401;" horiz-adv-x="624" 
d="M227 750c-41 0 -74 29 -74 66s33 66 74 66c42 0 75 -29 75 -66s-33 -66 -75 -66zM443 750c-41 0 -74 29 -74 66s33 66 74 66c42 0 75 -29 75 -66s-33 -66 -75 -66zM243 417h303v-130h-303v-157h328v-130h-466v700h466v-130h-328v-153z" />
    <glyph glyph-name="uni0416" unicode="&#x416;" horiz-adv-x="1089" 
d="M891 0l-144 225c-31 47 -47 63 -95 63h-38v-288h-138v288h-38c-48 0 -65 -16 -95 -63l-144 -225h-156l171 267c41 63 63 81 85 91c-19 10 -41 29 -81 84l-164 258h156l137 -216c31 -46 48 -63 95 -63h34v279h138v-279h33c48 0 65 17 95 63l138 216h156l-165 -258
c-39 -55 -62 -74 -80 -84c21 -10 44 -28 85 -91l171 -267h-156z" />
    <glyph glyph-name="uni0417" unicode="&#x417;" horiz-adv-x="639" 
d="M255 425h88c74 0 92 42 92 75c0 47 -31 77 -98 77h-5c-55 0 -133 -27 -185 -69l-90 83c72 69 171 116 270 116h7c190 -2 231 -117 231 -188c0 -78 -39 -138 -95 -160c72 -17 117 -81 117 -163c0 -112 -70 -202 -259 -203h-7c-108 0 -210 53 -278 128l90 83
c49 -48 128 -81 193 -81h5c74 1 125 24 125 88c0 44 -28 85 -100 85h-101v129z" />
    <glyph glyph-name="uni0418" unicode="&#x418;" horiz-adv-x="741" 
d="M646 0h-138v441l-332 -441h-81v700h138v-441l331 441h82v-700z" />
    <glyph glyph-name="uni0419" unicode="&#x419;" horiz-adv-x="741" 
d="M371 750c-87 0 -157 63 -157 151h88c0 -36 30 -64 69 -64s70 28 70 64h87c0 -88 -70 -151 -157 -151zM646 0h-138v441l-332 -441h-81v700h138v-441l331 441h82v-700z" />
    <glyph glyph-name="uni041A" unicode="&#x41a;" horiz-adv-x="745" 
d="M546 0l-144 225c-30 47 -47 63 -95 63h-64v-288h-138v700h138v-279h60c48 0 65 17 95 63l138 216h156l-165 -258c-40 -55 -62 -74 -81 -84c22 -10 45 -28 85 -91l171 -267h-156z" />
    <glyph glyph-name="uni041B" unicode="&#x41b;" horiz-adv-x="739" 
d="M370 447l-174 -447h-153l288 700h81l284 -700h-153z" />
    <glyph glyph-name="uni041C" unicode="&#x41c;" horiz-adv-x="897" 
d="M792 0h-138v447l-211 -262l-210 262v-447h-138v700h82l266 -334l267 334h82v-700z" />
    <glyph glyph-name="uni041D" unicode="&#x41d;" horiz-adv-x="738" 
d="M642 0h-138v287h-271v-287h-138v700h138v-283h271v283h138v-700z" />
    <glyph glyph-name="uni041E" unicode="&#x41e;" horiz-adv-x="829" 
d="M414 707c197 0 357 -160 357 -357c0 -198 -160 -357 -357 -357s-356 159 -356 357c0 197 159 357 356 357zM414 577c-122 0 -218 -93 -218 -227c0 -135 96 -227 218 -227c123 0 219 92 219 227c0 134 -96 227 -219 227z" />
    <glyph glyph-name="uni041F" unicode="&#x41f;" horiz-adv-x="730" 
d="M635 0h-138v570h-264v-570h-138v700h540v-700z" />
    <glyph glyph-name="uni0420" unicode="&#x420;" horiz-adv-x="705" 
d="M105 700h230c196 0 312 -116 312 -269c0 -155 -116 -270 -312 -270h-92v-161h-138v700zM243 291h103c89 0 170 41 170 140c0 94 -81 139 -170 139h-103v-279z" />
    <glyph glyph-name="uni0421" unicode="&#x421;" horiz-adv-x="731" 
d="M414 707c104 0 198 -45 264 -116l-90 -83c-45 44 -106 69 -174 69c-122 0 -218 -93 -218 -227c0 -135 96 -227 218 -227c68 0 129 24 174 69l90 -83c-66 -71 -160 -116 -264 -116c-197 0 -356 160 -356 357s159 357 356 357z" />
    <glyph glyph-name="uni0422" unicode="&#x422;" horiz-adv-x="608" 
d="M373 570v-570h-138v570h-192v130h522v-130h-192z" />
    <glyph glyph-name="uni0423" unicode="&#x423;" horiz-adv-x="751" 
d="M309 0h-156l144 253l-254 447h157l176 -305l175 305h157z" />
    <glyph glyph-name="uni0424" unicode="&#x424;" horiz-adv-x="1132" 
d="M800 663c168 0 275 -126 275 -286s-107 -286 -275 -286c-69 0 -129 30 -165 75v-166h-138v166c-36 -45 -95 -75 -164 -75c-168 0 -275 126 -275 286s107 286 275 286c68 0 128 -29 164 -75v112h138v-112c37 46 97 75 165 75zM346 222c85 0 151 63 151 155
s-66 156 -151 156c-84 0 -150 -64 -150 -156s66 -155 150 -155zM786 222c85 0 151 63 151 155s-66 156 -151 156c-84 0 -150 -64 -150 -156s66 -155 150 -155z" />
    <glyph glyph-name="uni0425" unicode="&#x425;" horiz-adv-x="726" 
d="M362 238l-161 -238h-158l243 365l-227 335h157l149 -214l146 214h157l-227 -341l243 -359h-157z" />
    <glyph glyph-name="uni0427" unicode="&#x427;" horiz-adv-x="703" 
d="M598 0h-138v244c-30 -45 -84 -70 -152 -70c-132 0 -255 70 -255 279v247h138v-254c0 -109 62 -142 139 -142c63 0 130 36 130 143v253h138v-700z" />
    <glyph glyph-name="uni0426" unicode="&#x426;" horiz-adv-x="770" 
d="M728 -129h-138v129h-495v700h138v-570h267v570h138v-570h90v-259z" />
    <glyph glyph-name="uni0428" unicode="&#x428;" horiz-adv-x="1050" 
d="M947 0h-852v700h138v-570h219v570h138v-570h219v570h138v-700z" />
    <glyph glyph-name="uni0429" unicode="&#x429;" horiz-adv-x="1123" 
d="M1036 -129h-138v129h-803v700h138v-570h219v570h138v-570h219v570h138v-570h89v-259z" />
    <glyph glyph-name="uni042F" unicode="&#x42f;" horiz-adv-x="703" 
d="M598 0h-138v171h-77c-68 -2 -86 -18 -140 -101l-45 -70h-155l60 93c44 68 74 104 105 123c-95 37 -151 116 -151 220c0 148 107 264 303 264h238v-700zM460 570h-113c-90 0 -160 -45 -160 -134c0 -94 70 -135 160 -135h113v269z" />
    <glyph glyph-name="uni042C" unicode="&#x42c;" horiz-adv-x="682" 
d="M236 442h157c162 0 239 -89 239 -221s-74 -221 -239 -221h-295v700h138v-258zM236 130h159c78 0 107 35 107 91c0 57 -32 91 -107 91h-159v-182z" />
    <glyph glyph-name="uni042A" unicode="&#x42a;" horiz-adv-x="716" 
d="M271 442h156c162 0 240 -89 240 -221s-74 -221 -240 -221h-294v570h-90v130h228v-258zM270 130h159c78 0 107 35 107 91c0 57 -32 91 -107 91h-159v-182z" />
    <glyph glyph-name="uni042B" unicode="&#x42b;" horiz-adv-x="947" 
d="M236 442h157c162 0 239 -89 239 -221s-74 -221 -239 -221h-295v700h138v-258zM841 0h-138v700h138v-700zM236 130h159c78 0 107 35 107 91c0 57 -32 91 -107 91h-159v-182z" />
    <glyph glyph-name="uni042D" unicode="&#x42d;" horiz-adv-x="731" 
d="M317 707c197 0 356 -160 356 -357s-159 -357 -356 -357c-104 0 -198 45 -264 116l90 83c45 -45 106 -69 174 -69c101 0 184 66 206 162h-249v130h249c-22 96 -105 162 -206 162c-68 0 -129 -25 -174 -69l-90 83c66 71 160 116 264 116z" />
    <glyph glyph-name="uni042E" unicode="&#x42e;" horiz-adv-x="1094" 
d="M679 707c197 0 357 -160 357 -357c0 -198 -160 -357 -357 -357c-175 0 -319 126 -348 292h-95v-285h-138v700h138v-285h95c29 166 174 292 348 292zM679 123c123 0 219 92 219 227c0 134 -96 227 -219 227c-122 0 -218 -93 -218 -227c0 -135 96 -227 218 -227z" />
    <glyph glyph-name="uni0416.ss01" horiz-adv-x="1089" 
d="M1040 700l-227 -343l234 -357h-157l-192 288h-84v-288h-138v288h-84l-193 -288h-156l233 357l-227 343h157l185 -279h85v279h138v-279h84l186 279h156z" />
    <glyph glyph-name="uni041A.ss01" horiz-adv-x="741" 
d="M243 288v-288h-138v700h138v-279h107l185 279h157l-227 -343l233 -357h-156l-193 288h-106z" />
    <glyph glyph-name="uni042F.ss01" horiz-adv-x="702" 
d="M596 0h-138v171h-92c-9 0 -20 1 -28 3l-139 -174h-155l159 202c-96 43 -149 129 -149 234c0 148 103 264 301 264h241v-700zM458 570h-115c-89 0 -158 -45 -158 -134c0 -94 69 -135 158 -135h115v269z" />
    <glyph glyph-name="uni0430" unicode="&#x430;" 
d="M557 0h-85l-7 71c-37 -47 -97 -77 -166 -77c-142 0 -244 114 -244 256s102 257 244 257c69 0 129 -31 166 -78l7 71h85v-500zM311 117c66 0 129 51 129 133s-63 134 -129 134c-67 0 -129 -52 -129 -134s62 -133 129 -133z" />
    <glyph glyph-name="uni0431" unicode="&#x431;" horiz-adv-x="623" 
d="M427 700h127c0 -95 -45 -149 -187 -149h-32c-94 0 -153 -44 -153 -125v-22c28 48 87 80 153 80c142 0 233 -100 233 -234c0 -143 -100 -258 -257 -258c-144 0 -256 104 -256 269v120c0 176 104 277 290 277c65 0 82 10 82 42zM311 367c-67 0 -129 -52 -129 -126
c0 -75 60 -126 129 -126c68 0 129 51 129 126c0 74 -63 126 -129 126z" />
    <glyph glyph-name="uni0432" unicode="&#x432;" horiz-adv-x="599" 
d="M85 500h262c119 0 172 -51 172 -136c0 -47 -19 -86 -68 -103c61 -14 91 -56 91 -112c0 -106 -58 -149 -194 -149h-263v500zM212 392v-89h128c36 1 52 18 52 45s-17 44 -54 44h-126zM212 108h139c48 0 64 23 64 52c0 28 -16 50 -62 51h-141v-103z" />
    <glyph glyph-name="uni0433" unicode="&#x433;" horiz-adv-x="497" 
d="M212 377v-377h-127v500h375v-123h-248z" />
    <glyph glyph-name="uni0434" unicode="&#x434;" horiz-adv-x="648" 
d="M616 -93h-127v93h-329v-93h-127v216h76l174 377h82l174 -377h77v-216zM324 313l-85 -190h170z" />
    <glyph glyph-name="uni0435" unicode="&#x435;" horiz-adv-x="610" 
d="M307 507c107 0 182 -51 220 -135c21 -46 22 -114 8 -157h-349c0 -68 56 -105 124 -105c52 0 106 12 151 35l67 -73c-54 -40 -129 -78 -218 -78c-152 0 -255 110 -255 256c0 142 96 257 252 257zM307 391c-68 0 -114 -48 -116 -96h229c0 12 -4 28 -12 40
c-17 32 -53 56 -101 56z" />
    <glyph glyph-name="uni0451" unicode="&#x451;" horiz-adv-x="595" 
d="M199 677c42 0 75 -29 75 -66s-33 -66 -75 -66c-41 0 -74 29 -74 66s33 66 74 66zM415 677c42 0 75 -29 75 -66s-33 -66 -75 -66c-41 0 -74 29 -74 66s33 66 74 66zM307 507c107 0 182 -51 220 -135c21 -46 22 -114 8 -157h-349c0 -68 56 -105 124 -105
c52 0 106 12 151 35l67 -73c-54 -40 -129 -78 -218 -78c-152 0 -255 110 -255 256c0 142 96 257 252 257zM307 391c-68 0 -114 -48 -116 -96h229c0 12 -4 28 -12 40c-17 32 -53 56 -101 56z" />
    <glyph glyph-name="uni0436" unicode="&#x436;" horiz-adv-x="896" 
d="M722 0l-86 133c-30 46 -47 63 -95 63h-29v-196h-127v196h-30c-48 0 -65 -17 -95 -63l-86 -133h-141l120 183c23 35 51 67 76 75c-22 9 -50 40 -71 73l-112 169h141l78 -119c30 -47 47 -63 94 -63h26v182h127v-182h25c48 0 65 16 95 63l77 119h141l-111 -169
c-22 -33 -49 -64 -72 -73c26 -8 53 -40 76 -75l120 -183h-141z" />
    <glyph glyph-name="uni0437" unicode="&#x437;" horiz-adv-x="547" 
d="M396 261c62 -13 93 -55 93 -112c0 -103 -84 -155 -204 -156h-9c-104 0 -195 52 -226 95l69 75c37 -31 92 -54 154 -55h9c47 1 80 21 80 59c0 28 -17 50 -63 51h-80v78h68c35 0 51 18 51 44c0 36 -30 51 -67 52h-6c-54 0 -93 -20 -132 -50l-67 73c45 47 120 92 209 92h7
c98 -1 183 -50 183 -138c0 -48 -19 -89 -69 -108z" />
    <glyph glyph-name="uni0438" unicode="&#x438;" horiz-adv-x="635" 
d="M550 0h-127v295l-256 -295h-82v500h127v-295l256 295h82v-500z" />
    <glyph glyph-name="uni0439" unicode="&#x439;" horiz-adv-x="635" 
d="M319 543c-87 0 -157 64 -157 152h88c0 -36 30 -64 69 -64s70 28 70 64h87c0 -88 -70 -152 -157 -152zM550 0h-127v295l-256 -295h-82v500h127v-295l256 295h82v-500z" />
    <glyph glyph-name="uni043A" unicode="&#x43a;" horiz-adv-x="599" 
d="M433 0l-86 133c-30 46 -47 63 -95 63h-35v-196h-127v500h127v-182h31c47 0 64 16 94 63l78 119h141l-112 -169c-21 -33 -49 -64 -71 -73c25 -8 53 -40 76 -75l120 -183h-141z" />
    <glyph glyph-name="uni043B" unicode="&#x43b;" horiz-adv-x="609" 
d="M305 313l-137 -313h-135l231 500h82l231 -500h-134z" />
    <glyph glyph-name="uni043C" unicode="&#x43c;" horiz-adv-x="705" 
d="M619 0h-127v295l-140 -161l-140 161v-295h-127v500h82l185 -214l185 214h82v-500z" />
    <glyph glyph-name="uni043D" unicode="&#x43d;" 
d="M557 0h-127v192h-218v-192h-127v500h127v-185h218v185h127v-500z" />
    <glyph glyph-name="uni043E" unicode="&#x43e;" horiz-adv-x="623" 
d="M311 507c142 0 257 -115 257 -257s-115 -256 -257 -256s-256 114 -256 256s114 257 256 257zM311 384c-67 0 -129 -52 -129 -134s62 -133 129 -133c66 0 129 51 129 133s-63 134 -129 134z" />
    <glyph glyph-name="uni043F" unicode="&#x43f;" 
d="M557 0h-127v377h-218v-377h-127v500h472v-500z" />
    <glyph glyph-name="uni0440" unicode="&#x440;" horiz-adv-x="648" 
d="M349 506c142 0 243 -114 243 -256s-101 -257 -243 -257c-54 0 -102 23 -132 56v-233h-127v684h85l7 -71c38 47 97 77 167 77zM336 383c-66 0 -129 -51 -129 -133s63 -134 129 -134c67 0 129 52 129 134s-62 133 -129 133z" />
    <glyph glyph-name="uni0441" unicode="&#x441;" horiz-adv-x="559" 
d="M311 506c79 0 150 -36 197 -92l-76 -82c-41 38 -77 51 -121 51c-67 0 -129 -51 -129 -133s62 -133 129 -133c44 0 80 13 121 51l76 -82c-47 -56 -118 -92 -197 -92c-142 0 -256 114 -256 256s114 256 256 256z" />
    <glyph glyph-name="uni0442" unicode="&#x442;" horiz-adv-x="503" 
d="M315 377v-377h-126v377h-156v123h438v-123h-156z" />
    <glyph glyph-name="uni0443" unicode="&#x443;" horiz-adv-x="650" 
d="M569 500v-436c0 -146 -95 -255 -250 -255c-92 0 -168 33 -222 78l72 77c48 -24 93 -40 150 -39c72 0 122 37 122 110v32c-32 -41 -85 -59 -137 -59c-145 0 -219 99 -219 244v248h127v-241c0 -92 44 -128 112 -128c72 0 118 43 118 139v230h127z" />
    <glyph glyph-name="uni0444" unicode="&#x444;" horiz-adv-x="988" 
d="M688 506c142 0 244 -114 244 -256s-102 -257 -244 -257c-53 0 -100 22 -131 56v-227h-127v227c-31 -34 -78 -56 -131 -56c-142 0 -244 115 -244 257s102 256 244 256c67 0 125 -29 162 -74l4 68h58l4 -67c36 44 94 73 161 73zM311 116c66 0 129 52 129 134
s-63 133 -129 133c-67 0 -129 -51 -129 -133s62 -134 129 -134zM676 116c67 0 129 52 129 134s-62 133 -129 133c-66 0 -129 -51 -129 -133s63 -134 129 -134z" />
    <glyph glyph-name="uni0445" unicode="&#x445;" horiz-adv-x="600" 
d="M299 154l-119 -154h-147l195 260l-184 240h147l111 -138l108 138h146l-184 -245l196 -255h-147z" />
    <glyph glyph-name="uni0447" unicode="&#x447;" horiz-adv-x="648" 
d="M563 0h-127v160c-30 -32 -76 -51 -134 -51c-157 0 -222 104 -222 249v142h127v-134c0 -93 34 -134 115 -134c80 0 114 46 114 126v142h127v-500z" />
    <glyph glyph-name="uni0446" unicode="&#x446;" horiz-adv-x="664" 
d="M631 -93h-127v93h-419v500h127v-377h211v377h127v-377h81v-216z" />
    <glyph glyph-name="uni0448" unicode="&#x448;" horiz-adv-x="916" 
d="M831 0h-746v500h127v-377h183v377h126v-377h183v377h127v-500z" />
    <glyph glyph-name="uni0449" unicode="&#x449;" horiz-adv-x="945" 
d="M912 -93h-127v93h-700v500h127v-377h183v377h126v-377h183v377h127v-377h81v-216z" />
    <glyph glyph-name="uni044C" unicode="&#x44c;" horiz-adv-x="590" 
d="M212 356h116c175 0 210 -104 210 -178s-35 -178 -210 -178h-243v500h127v-144zM212 119h130c54 0 69 27 69 59s-15 59 -69 59h-130v-118z" />
    <glyph glyph-name="uni044A" unicode="&#x44a;" horiz-adv-x="651" 
d="M245 356h116c175 0 210 -104 210 -178s-35 -178 -210 -178h-243v377h-85v123h212v-144zM245 119h130c54 0 69 27 69 59s-15 59 -69 59h-130v-118z" />
    <glyph glyph-name="uni044B" unicode="&#x44b;" horiz-adv-x="798" 
d="M212 356h116c175 0 210 -104 210 -178s-35 -178 -210 -178h-243v500h127v-144zM713 0h-127v500h127v-500zM212 119h130c54 0 69 27 69 59s-15 59 -69 59h-130v-118z" />
    <glyph glyph-name="uni044D" unicode="&#x44d;" horiz-adv-x="559" 
d="M247 506c142 0 256 -114 256 -256s-114 -256 -256 -256c-79 0 -150 36 -197 92l76 82c41 -38 77 -51 121 -51c56 0 106 37 120 93h-155v80h155c-14 56 -64 93 -120 93c-44 0 -80 -13 -121 -51l-76 82c47 56 118 92 197 92z" />
    <glyph glyph-name="uni044E" unicode="&#x44e;" horiz-adv-x="850" 
d="M538 507c142 0 257 -115 257 -257s-115 -256 -257 -256c-122 0 -223 85 -248 198h-78v-192h-127v500h127v-185h80c27 110 126 192 246 192zM538 117c66 0 129 51 129 133s-63 134 -129 134c-67 0 -129 -52 -129 -134s62 -133 129 -133z" />
    <glyph glyph-name="uni044F" unicode="&#x44f;" horiz-adv-x="570" 
d="M507 0h-127v145h-52c-42 -1 -58 -18 -89 -63l-56 -82h-138l64 96c16 24 30 49 54 67c-69 21 -110 88 -110 152c0 84 48 185 219 185h235v-500zM380 377h-122c-53 0 -78 -24 -78 -62s25 -63 78 -63h122v125z" />
    <glyph glyph-name="uni0436.ss01" horiz-adv-x="881" 
d="M504 194v-194h-126v194h-63l-140 -194h-142l182 256l-173 244h141l132 -183h63v183h126v-183h63l132 183h142l-174 -244l182 -256h-141l-141 194h-63z" />
    <glyph glyph-name="uni043A.ss01" horiz-adv-x="607" 
d="M217 194v-194h-127v500h127v-183h75l132 183h141l-174 -244l183 -256h-142l-140 194h-75z" />
    <glyph glyph-name="uni044F.ss01" horiz-adv-x="568" 
d="M506 0h-127v145h-88l-109 -145h-139l118 164c-69 22 -109 88 -109 151c0 84 48 185 219 185h235v-500zM378 377h-122c-53 0 -78 -24 -78 -62s25 -63 78 -63h122v125z" />
    <glyph glyph-name="zero" unicode="0" horiz-adv-x="816" 
d="M408 693c194 0 350 -157 350 -350c0 -194 -156 -350 -350 -350s-350 156 -350 350c0 193 156 350 350 350zM408 563c-118 0 -211 -90 -211 -220c0 -131 93 -219 211 -219c119 0 212 88 212 219c0 130 -93 220 -212 220z" />
    <glyph glyph-name="one" unicode="1" horiz-adv-x="446" 
d="M342 0h-138v442l-72 -86l-89 68l217 261h82v-685z" />
    <glyph glyph-name="two" unicode="2" horiz-adv-x="635" 
d="M583 0h-530v83l288 241c53 43 95 82 95 135c0 66 -51 103 -115 104h-6c-48 0 -95 -21 -159 -77l-90 82c83 84 170 125 260 125h8c158 -2 237 -101 237 -206c0 -102 -68 -179 -186 -272l-98 -85h296v-130z" />
    <glyph glyph-name="three" unicode="3" horiz-adv-x="651" 
d="M568 604l-197 -190c14 1 28 2 47 1c118 -16 180 -99 180 -198c0 -119 -78 -222 -256 -224h-7c-120 1 -214 54 -282 128l90 83c71 -61 125 -81 190 -81h7c76 1 128 50 128 114s-40 106 -134 106c-41 0 -78 -17 -99 -26l-65 49l197 190h-251v129h452v-81z" />
    <glyph glyph-name="four" unicode="4" horiz-adv-x="628" 
d="M518 111v-111h-138v111h-337v81l393 493h82v-444h68v-130h-68zM379 461l-175 -220h175v220z" />
    <glyph glyph-name="five" unicode="5" horiz-adv-x="647" 
d="M529 556h-302v-139c20 14 68 37 140 37c151 0 228 -96 228 -226c0 -115 -79 -233 -260 -235h-8c-119 1 -206 54 -274 128l90 83c71 -61 120 -81 184 -81h7c70 1 130 42 130 115c0 74 -51 116 -138 116c-73 0 -133 -39 -156 -55l-65 49v337h424v-129z" />
    <glyph glyph-name="six" unicode="6" horiz-adv-x="621" 
d="M336 693h6c106 -1 168 -45 212 -94l-89 -83c-46 34 -80 47 -124 47h-5c-87 0 -139 -78 -150 -178c28 47 83 80 157 80c123 0 226 -84 226 -230c0 -120 -87 -242 -250 -242c-154 0 -266 120 -266 294v38c0 212 104 368 283 368zM311 348c-69 0 -120 -47 -120 -109
c0 -65 47 -115 120 -115c68 0 119 46 119 111c0 66 -51 113 -119 113z" />
    <glyph glyph-name="seven" unicode="7" horiz-adv-x="559" 
d="M517 604l-326 -604h-147l300 556h-301v129h474v-81z" />
    <glyph glyph-name="eight" unicode="8" horiz-adv-x="605" 
d="M435 364c69 -25 118 -84 118 -164c0 -118 -87 -206 -246 -207h-6c-160 0 -248 89 -248 207c0 80 49 139 118 164c-49 25 -95 70 -95 149c0 87 73 180 222 180h12c148 0 221 -94 221 -180c0 -79 -47 -124 -96 -149zM206 488c0 -55 43 -83 97 -83c53 0 96 28 96 83
c0 56 -43 83 -96 83c-54 0 -97 -27 -97 -83zM303 121c69 0 119 39 119 103c0 63 -48 102 -119 102c-53 0 -119 -29 -119 -102c0 -64 50 -103 119 -103z" />
    <glyph glyph-name="nine" unicode="9" horiz-adv-x="621" 
d="M286 -7h-6c-106 1 -169 45 -213 94l90 83c46 -35 80 -47 124 -47h5c87 0 139 78 150 178c-28 -47 -83 -80 -157 -80c-123 0 -226 84 -226 229c0 121 87 243 250 243c153 0 266 -120 266 -294v-38c0 -212 -104 -368 -283 -368zM311 338c68 0 119 47 119 108
c0 66 -47 116 -119 116c-69 0 -120 -46 -120 -112c0 -65 51 -112 120 -112z" />
    <glyph glyph-name="zero.lf" horiz-adv-x="830" 
d="M415 707c198 0 358 -160 358 -357c0 -198 -160 -357 -358 -357s-357 159 -357 357c0 197 159 357 357 357zM415 577c-122 0 -219 -93 -219 -227c0 -135 97 -227 219 -227c123 0 219 92 219 227c0 134 -96 227 -219 227z" />
    <glyph glyph-name="one.lf" horiz-adv-x="446" 
d="M342 0h-138v457l-72 -87l-89 69l217 261h82v-700z" />
    <glyph glyph-name="two.lf" horiz-adv-x="635" 
d="M583 0h-530v82l288 245c66 57 95 93 95 147c0 65 -50 101 -114 103h-7c-48 0 -95 -21 -159 -77l-90 82c83 84 170 125 260 125h8c158 -2 237 -101 237 -205c0 -103 -56 -177 -186 -284l-98 -88h296v-130z" />
    <glyph glyph-name="three.lf" horiz-adv-x="651" 
d="M568 619l-198 -205c14 1 28 2 47 1c119 -16 181 -99 181 -198c0 -118 -78 -221 -255 -224h-8c-120 1 -214 54 -282 128l90 83c71 -61 125 -81 190 -81h7c76 1 128 50 128 114s-40 106 -131 106c-44 0 -81 -17 -102 -26l-65 49l200 204h-254v130h452v-81z" />
    <glyph glyph-name="four.lf" horiz-adv-x="628" 
d="M518 122v-122h-138v122h-337v81l393 497h82v-448h68v-130h-68zM380 476l-176 -224h176v224z" />
    <glyph glyph-name="five.lf" horiz-adv-x="647" 
d="M529 570h-302v-149c20 14 68 37 140 37c151 0 228 -97 228 -226c0 -119 -79 -238 -260 -239h-8c-119 1 -206 54 -274 128l90 83c71 -61 120 -81 184 -81h8c70 1 129 42 129 119c0 74 -52 116 -134 116c-77 0 -136 -39 -160 -56l-65 50v348h424v-130z" />
    <glyph glyph-name="six.lf" horiz-adv-x="621" 
d="M343 465c123 0 226 -84 226 -230c0 -120 -87 -242 -250 -242c-154 0 -266 120 -266 294v48c0 213 102 369 278 372h7c109 0 172 -44 216 -94l-89 -83c-45 34 -79 47 -123 47h-6c-90 0 -144 -82 -151 -195c27 49 83 83 158 83zM311 124c68 0 119 46 119 111
c0 66 -51 113 -119 113c-69 0 -120 -47 -120 -109c0 -65 47 -115 120 -115z" />
    <glyph glyph-name="seven.lf" horiz-adv-x="561" 
d="M519 619l-329 -619h-147l304 570h-302v130h474v-81z" />
    <glyph glyph-name="eight.lf" horiz-adv-x="605" 
d="M435 370c69 -25 118 -85 118 -166c0 -122 -87 -211 -246 -212h-6c-160 0 -248 89 -248 212c0 81 49 141 118 166c-49 24 -95 70 -95 149c0 93 71 187 219 188h13c149 0 223 -93 223 -188c0 -79 -47 -125 -96 -149zM206 494c0 -56 43 -83 97 -83c53 0 96 27 96 83
c0 55 -43 83 -96 83c-54 0 -97 -28 -97 -83zM303 123c69 0 119 40 119 105s-48 103 -119 104c-53 0 -119 -29 -119 -104c0 -65 50 -105 119 -105z" />
    <glyph glyph-name="nine.lf" horiz-adv-x="621" 
d="M279 235c-123 0 -226 84 -226 230c0 120 87 242 250 242c153 0 266 -120 266 -294v-48c0 -213 -102 -369 -278 -372h-8c-108 0 -171 45 -216 94l90 83c45 -34 79 -46 123 -47h6c90 0 144 82 151 195c-27 -49 -83 -83 -158 -83zM311 576c-69 0 -120 -46 -120 -111
c0 -66 51 -113 120 -113c68 0 119 47 119 109c0 65 -47 115 -119 115z" />
    <glyph glyph-name="zero.osf" horiz-adv-x="673" 
d="M336 544c153 0 280 -123 280 -275c0 -153 -127 -276 -280 -276c-152 0 -278 123 -278 276c0 152 126 275 278 275zM337 414c-79 0 -140 -64 -140 -145c0 -83 61 -145 140 -145s140 62 140 145c0 81 -61 145 -140 145z" />
    <glyph glyph-name="one.osf" horiz-adv-x="446" 
d="M342 0h-138v294l-72 -86l-89 68l217 261h82v-537z" />
    <glyph glyph-name="two.osf" horiz-adv-x="635" 
d="M583 0h-530v82l323 187c44 26 60 45 60 78c0 37 -33 66 -90 67h-8c-47 0 -118 -21 -182 -77l-90 83c83 83 184 124 274 124h8c163 -2 223 -96 223 -178c0 -84 -45 -137 -158 -185l-88 -52h258v-129z" />
    <glyph glyph-name="three.osf" horiz-adv-x="651" 
d="M568 456l-198 -194c18 1 36 1 57 -1c113 -19 171 -100 171 -196c0 -115 -78 -218 -255 -220h-8c-120 1 -214 54 -282 128l90 83c71 -61 125 -81 190 -81h7c76 1 128 50 128 110c0 64 -40 106 -131 106c-44 0 -81 -16 -102 -26l-65 50l197 193h-251v129h452v-81z" />
    <glyph glyph-name="four.osf" horiz-adv-x="628" 
d="M518 -37v-111h-138v111h-337v81l393 493h82v-444h68v-130h-68zM379 313l-175 -220h175v220z" />
    <glyph glyph-name="five.osf" horiz-adv-x="647" 
d="M529 408h-302v-139c20 14 68 37 140 37c151 0 228 -96 228 -226c0 -115 -80 -233 -262 -235h-6c-119 1 -206 54 -274 128l90 83c71 -61 120 -81 184 -81h7c70 1 130 42 130 115c0 74 -52 116 -134 116c-77 0 -136 -39 -160 -55l-65 49v337h424v-129z" />
    <glyph glyph-name="six.osf" horiz-adv-x="621" 
d="M343 465c123 0 226 -84 226 -230c0 -120 -87 -242 -250 -242c-154 0 -266 120 -266 294v38c0 212 104 368 283 368h5c107 -1 169 -45 213 -94l-89 -83c-46 35 -80 47 -125 47h-4c-87 0 -139 -78 -150 -178c28 47 83 80 157 80zM311 124c68 0 119 46 119 111
c0 66 -51 113 -119 113c-69 0 -120 -47 -120 -109c0 -65 47 -115 120 -115z" />
    <glyph glyph-name="seven.osf" horiz-adv-x="559" 
d="M517 456l-326 -604h-147l300 556h-301v129h474v-81z" />
    <glyph glyph-name="eight.osf" horiz-adv-x="605" 
d="M435 364c69 -25 118 -84 118 -164c0 -118 -88 -207 -248 -207h-5c-160 1 -247 89 -247 207c0 80 49 139 118 164c-49 25 -95 70 -95 149c0 86 73 180 221 180h11c149 0 223 -93 223 -180c0 -79 -47 -124 -96 -149zM206 488c0 -55 43 -83 97 -83c53 0 96 28 96 83
c0 56 -43 83 -96 83c-54 0 -97 -27 -97 -83zM303 121c69 0 119 39 119 103c0 63 -48 102 -119 102c-53 0 -119 -29 -119 -102c0 -64 50 -103 119 -103z" />
    <glyph glyph-name="nine.osf" horiz-adv-x="621" 
d="M279 73c-123 0 -226 84 -226 229c0 120 87 242 250 242c153 0 266 -120 266 -294v-37c0 -212 -104 -369 -283 -369h-5c-107 1 -169 46 -214 94l90 83c46 -34 80 -46 125 -46h4c87 0 139 78 150 177c-28 -47 -83 -79 -157 -79zM311 414c-69 0 -120 -46 -120 -112
s51 -112 120 -112c68 0 119 46 119 108c0 66 -47 116 -119 116z" />
    <glyph glyph-name="zero.tf" horiz-adv-x="825" 
d="M412 707c198 0 358 -160 358 -357c0 -198 -160 -357 -358 -357s-357 159 -357 357c0 197 159 357 357 357zM412 577c-122 0 -219 -93 -219 -227c0 -135 97 -227 219 -227c123 0 219 92 219 227c0 134 -96 227 -219 227z" />
    <glyph glyph-name="one.tf" horiz-adv-x="409" 
d="M354 0h-138v457l-72 -87l-89 69l217 261h82v-700z" />
    <glyph glyph-name="two.tf" horiz-adv-x="640" 
d="M585 0h-530v82l288 245c66 57 95 93 95 147c0 65 -50 101 -114 103h-7c-48 0 -95 -21 -159 -77l-90 82c83 84 170 125 260 125h8c158 -2 237 -101 237 -205c0 -103 -56 -177 -186 -284l-98 -88h296v-130z" />
    <glyph glyph-name="three.tf" horiz-adv-x="656" 
d="M570 619l-198 -205c14 1 28 2 47 1c119 -16 181 -99 181 -198c0 -118 -78 -221 -255 -224h-8c-120 1 -214 54 -282 128l90 83c71 -61 125 -81 190 -81h7c76 1 128 50 128 114s-40 106 -131 106c-44 0 -81 -17 -102 -26l-65 49l200 204h-254v130h452v-81z" />
    <glyph glyph-name="four.tf" horiz-adv-x="653" 
d="M530 122v-122h-138v122h-337v81l393 497h82v-448h68v-130h-68zM392 476l-176 -224h176v224z" />
    <glyph glyph-name="five.tf" horiz-adv-x="652" 
d="M531 570h-302v-149c20 14 68 37 140 37c151 0 228 -97 228 -226c0 -119 -79 -238 -260 -239h-8c-119 1 -206 54 -274 128l90 83c71 -61 120 -81 184 -81h8c70 1 129 42 129 119c0 74 -52 116 -134 116c-77 0 -136 -39 -160 -56l-65 50v348h424v-130z" />
    <glyph glyph-name="six.tf" horiz-adv-x="626" 
d="M345 465c123 0 226 -84 226 -230c0 -120 -87 -242 -250 -242c-154 0 -266 120 -266 294v48c0 213 102 369 278 372h7c109 0 172 -44 216 -94l-89 -83c-45 34 -79 47 -123 47h-6c-90 0 -144 -82 -151 -195c27 49 83 83 158 83zM314 124c68 0 119 46 119 111
c0 66 -51 113 -119 113c-69 0 -120 -47 -120 -109c0 -65 47 -115 120 -115z" />
    <glyph glyph-name="seven.tf" horiz-adv-x="586" 
d="M531 619l-329 -619h-147l304 570h-302v130h474v-81z" />
    <glyph glyph-name="eight.tf" horiz-adv-x="611" 
d="M437 370c69 -25 118 -85 118 -166c0 -122 -87 -211 -246 -212h-6c-160 0 -248 89 -248 212c0 81 49 141 118 166c-49 24 -95 70 -95 149c0 93 71 187 219 188h13c149 0 223 -93 223 -188c0 -79 -47 -125 -96 -149zM209 494c0 -56 43 -83 97 -83c53 0 96 27 96 83
c0 55 -43 83 -96 83c-54 0 -97 -28 -97 -83zM305 123c69 0 119 40 119 105s-48 103 -119 104c-53 0 -119 -29 -119 -104c0 -65 50 -105 119 -105z" />
    <glyph glyph-name="nine.tf" horiz-adv-x="626" 
d="M281 235c-123 0 -226 84 -226 230c0 120 87 242 250 242c153 0 266 -120 266 -294v-48c0 -213 -102 -369 -278 -372h-8c-108 0 -171 45 -216 94l90 83c45 -34 79 -46 123 -47h6c90 0 144 82 151 195c-27 -49 -83 -83 -158 -83zM313 576c-69 0 -120 -46 -120 -111
c0 -66 51 -113 120 -113c68 0 119 47 119 109c0 65 -47 115 -119 115z" />
    <glyph glyph-name="zero.tosf" horiz-adv-x="668" 
d="M333 545c153 0 280 -123 280 -275c0 -153 -127 -276 -280 -276c-152 0 -278 123 -278 276c0 152 126 275 278 275zM334 415c-79 0 -140 -64 -140 -145c0 -83 61 -145 140 -145s140 62 140 145c0 81 -61 145 -140 145z" />
    <glyph glyph-name="one.tosf" horiz-adv-x="409" 
d="M354 0h-138v295l-72 -86l-89 68l217 261h82v-538z" />
    <glyph glyph-name="two.tosf" horiz-adv-x="640" 
d="M585 0h-530v82l323 187c44 26 60 45 60 78c0 37 -33 66 -90 67h-8c-47 0 -118 -21 -182 -77l-90 83c83 83 184 124 274 124h8c163 -2 223 -96 223 -178c0 -84 -45 -137 -158 -185l-88 -52h258v-129z" />
    <glyph glyph-name="three.tosf" horiz-adv-x="656" 
d="M570 456l-198 -194c18 1 36 1 57 -1c113 -19 171 -100 171 -196c0 -115 -78 -218 -255 -220h-8c-120 1 -214 54 -282 128l90 83c71 -61 125 -81 190 -81h7c76 1 128 50 128 110c0 64 -40 106 -131 106c-44 0 -81 -16 -102 -26l-65 50l197 193h-251v129h452v-81z" />
    <glyph glyph-name="four.tosf" horiz-adv-x="653" 
d="M530 -37v-111h-138v111h-337v81l393 493h82v-444h68v-130h-68zM392 313l-175 -220h175v220z" />
    <glyph glyph-name="five.tosf" horiz-adv-x="652" 
d="M531 408h-302v-139c20 14 68 37 140 37c151 0 228 -96 228 -226c0 -115 -80 -233 -262 -235h-6c-119 1 -206 54 -274 128l90 83c71 -61 120 -81 184 -81h7c70 1 130 42 130 115c0 74 -52 116 -134 116c-77 0 -136 -39 -160 -55l-65 49v337h424v-129z" />
    <glyph glyph-name="six.tosf" horiz-adv-x="626" 
d="M345 465c123 0 226 -84 226 -230c0 -120 -87 -242 -250 -242c-154 0 -266 120 -266 294v38c0 212 104 368 283 368h5c107 -1 169 -45 213 -94l-89 -83c-46 35 -80 47 -125 47h-4c-87 0 -139 -78 -150 -178c28 47 83 80 157 80zM314 124c68 0 119 46 119 111
c0 66 -51 113 -119 113c-69 0 -120 -47 -120 -109c0 -65 47 -115 120 -115z" />
    <glyph glyph-name="seven.tosf" horiz-adv-x="584" 
d="M529 456l-326 -604h-147l300 556h-301v129h474v-81z" />
    <glyph glyph-name="eight.tosf" horiz-adv-x="611" 
d="M437 364c69 -25 118 -84 118 -164c0 -118 -88 -207 -248 -207h-5c-160 1 -247 89 -247 207c0 80 49 139 118 164c-49 25 -95 70 -95 149c0 86 73 180 221 180h11c149 0 223 -93 223 -180c0 -79 -47 -124 -96 -149zM209 488c0 -55 43 -83 97 -83c53 0 96 28 96 83
c0 56 -43 83 -96 83c-54 0 -97 -27 -97 -83zM305 121c69 0 119 39 119 103c0 63 -48 102 -119 102c-53 0 -119 -29 -119 -102c0 -64 50 -103 119 -103z" />
    <glyph glyph-name="nine.tosf" horiz-adv-x="626" 
d="M281 73c-123 0 -226 84 -226 229c0 120 87 242 250 242c153 0 266 -120 266 -294v-37c0 -212 -104 -369 -283 -369h-5c-107 1 -169 46 -214 94l90 83c46 -34 80 -46 125 -46h4c87 0 139 78 150 177c-28 -47 -83 -79 -157 -79zM313 414c-69 0 -120 -46 -120 -112
s51 -112 120 -112c68 0 119 46 119 108c0 66 -47 116 -119 116z" />
    <glyph glyph-name="fraction" unicode="&#x2044;" horiz-adv-x="510" 
d="M468 700l-345 -700h-80l345 700h80z" />
    <glyph glyph-name="onehalf" unicode="&#xbd;" horiz-adv-x="753" 
d="M231 382h-90v198l-39 -47l-47 36l109 131h67v-318zM219 0h-80l345 700h80zM698 0h-283v46l149 110c26 19 41 33 41 51c0 21 -18 37 -44 38h-4c-31 0 -60 -18 -80 -33l-55 51c45 39 89 63 152 63h4c69 -1 114 -47 114 -100c0 -50 -32 -81 -88 -115l-45 -28h139v-83z" />
    <glyph glyph-name="onequarter" unicode="&#xbc;" horiz-adv-x="703" 
d="M141 580l-39 -47l-47 36l109 131h67v-318h-90v198zM219 0h-80l345 700h80zM614 54v-54h-90v54h-161v46l189 218h62v-192h33v-72h-33zM524 209l-74 -83h74v83z" />
    <glyph glyph-name="threequarters" unicode="&#xbe;" horiz-adv-x="767" 
d="M318 641l-91 -70c11 -1 22 -3 35 -6c51 -13 75 -45 75 -86c0 -52 -43 -104 -129 -104h-4c-64 0 -112 26 -149 62l51 47c17 -13 40 -31 80 -31c37 1 64 18 64 42c0 22 -22 36 -54 35c-18 -1 -29 -4 -39 -9l-28 22l96 80h-138v77h231v-59zM283 0h-80l345 700h80zM679 54
v-54h-90v54h-161v46l189 218h62v-192h33v-72h-33zM588 209l-74 -83h74v83z" />
    <glyph glyph-name="oneeighth" unicode="&#x215b;" horiz-adv-x="744" 
d="M141 382v198l-39 -47l-47 36l109 131h67v-318h-90zM219 0h-80l345 700h80zM635 169c32 -12 54 -41 54 -77c0 -56 -43 -99 -133 -99h-3c-91 0 -134 43 -134 99c0 36 22 65 54 77c-23 13 -43 34 -43 70c0 41 35 86 120 86h6c86 0 122 -45 122 -86c0 -36 -20 -57 -43 -70z
M554 190c21 0 47 10 47 37c0 25 -20 38 -47 38s-47 -13 -47 -38c0 -24 20 -37 47 -37zM554 56c34 0 57 19 57 47c0 29 -23 47 -57 47c-35 0 -58 -18 -58 -47c0 -28 23 -47 58 -47z" />
    <glyph glyph-name="threeeighths" unicode="&#x215c;" horiz-adv-x="808" 
d="M318 641l-91 -70c11 -1 22 -3 35 -6c51 -13 75 -45 75 -86c0 -52 -43 -104 -129 -104h-4c-64 0 -112 26 -149 62l51 47c17 -13 40 -31 80 -31c37 1 64 18 64 42c0 22 -22 36 -54 35c-18 -1 -29 -4 -39 -9l-28 22l96 80h-138v77h231v-59zM283 0h-80l345 700h80zM699 169
c32 -12 54 -41 54 -77c0 -56 -43 -99 -133 -99h-3c-91 0 -134 43 -134 99c0 36 22 65 54 77c-23 13 -43 34 -43 70c0 41 35 86 120 86h6c86 0 122 -45 122 -86c0 -36 -20 -57 -43 -70zM618 190c21 0 47 10 47 37c0 25 -20 38 -47 38s-47 -13 -47 -38c0 -24 20 -37 47 -37z
M618 56c34 0 57 19 57 47c0 29 -23 47 -57 47c-35 0 -58 -18 -58 -47c0 -28 23 -47 58 -47z" />
    <glyph glyph-name="fiveeighths" unicode="&#x215d;" horiz-adv-x="801" 
d="M309 623h-150v-53c18 7 40 12 63 12c71 0 115 -43 115 -102c0 -52 -43 -104 -128 -105h-5c-64 0 -112 26 -149 62l51 47c17 -12 40 -30 80 -30c37 0 64 17 64 41s-20 39 -54 39c-24 1 -51 -5 -72 -17l-32 23v160h217v-77zM276 0h-80l345 700h80zM691 169
c32 -12 54 -41 54 -77c0 -56 -43 -99 -133 -99h-3c-91 0 -134 43 -134 99c0 36 22 65 54 77c-23 13 -43 34 -43 70c0 41 35 86 120 86h6c86 0 122 -45 122 -86c0 -36 -20 -57 -43 -70zM610 190c21 0 47 10 47 37c0 25 -20 38 -47 38s-47 -13 -47 -38c0 -24 20 -37 47 -37z
M611 56c34 0 57 19 57 47c0 29 -23 47 -57 47c-35 0 -58 -18 -58 -47c0 -28 23 -47 58 -47z" />
    <glyph glyph-name="seveneighths" unicode="&#x215e;" horiz-adv-x="714" 
d="M55 382l144 241h-141v77h243v-53l-158 -265h-88zM188 0h-80l345 700h80zM604 169c32 -12 54 -41 54 -77c0 -56 -43 -99 -133 -99h-3c-91 0 -134 43 -134 99c0 36 22 65 54 77c-23 13 -43 34 -43 70c0 41 35 86 120 86h6c86 0 122 -45 122 -86c0 -36 -20 -57 -43 -70z
M523 190c21 0 47 10 47 37c0 25 -20 38 -47 38s-47 -13 -47 -38c0 -24 20 -37 47 -37zM524 56c34 0 57 19 57 47c0 29 -23 47 -57 47c-35 0 -58 -18 -58 -47c0 -28 23 -47 58 -47z" />
    <glyph glyph-name="zero.dnom" horiz-adv-x="403" 
d="M201 325c98 0 174 -75 174 -166c0 -92 -76 -166 -174 -166c-97 0 -173 74 -173 166c0 91 76 166 173 166zM202 242c-47 0 -83 -33 -83 -83c0 -51 36 -84 83 -84s83 33 83 84c0 50 -36 83 -83 83z" />
    <glyph glyph-name="one.dnom" horiz-adv-x="261" 
d="M219 0h-90v198l-39 -47l-47 36l109 131h67v-318z" />
    <glyph glyph-name="two.dnom" horiz-adv-x="368" 
d="M326 0h-283v46l149 110c26 19 41 33 41 51c0 21 -18 37 -44 38h-4c-31 0 -60 -18 -80 -33l-55 51c45 39 89 63 152 63h4c69 -1 114 -47 114 -100c0 -50 -32 -81 -88 -115l-45 -28h139v-83z" />
    <glyph glyph-name="three.dnom" horiz-adv-x="367" 
d="M306 260l-91 -70c11 -2 22 -3 35 -7c51 -13 75 -45 75 -85c0 -52 -43 -104 -129 -105h-4c-64 0 -112 26 -149 62l51 47c17 -12 40 -30 80 -30c37 0 64 17 64 41c0 23 -22 36 -54 35c-18 0 -29 -3 -39 -8l-28 21l96 80h-138v77h231v-58z" />
    <glyph glyph-name="four.dnom" horiz-adv-x="369" 
d="M294 54v-54h-90v54h-161v46l189 218h62v-192h33v-72h-33zM203 209l-74 -83h74v83z" />
    <glyph glyph-name="five.dnom" horiz-adv-x="367" 
d="M297 241h-150v-53c18 7 40 12 63 12c71 0 115 -43 115 -102c0 -52 -43 -104 -128 -105h-5c-64 0 -112 26 -149 62l51 47c17 -12 40 -30 80 -30c37 0 64 17 64 41s-20 39 -54 40c-24 0 -51 -6 -72 -18l-32 23v160h217v-77z" />
    <glyph glyph-name="six.dnom" horiz-adv-x="360" 
d="M202 217c63 0 116 -40 116 -109c0 -57 -47 -115 -134 -115c-88 0 -141 57 -141 140v17c0 101 53 175 153 175h4c56 -1 87 -22 107 -45l-44 -41c-20 14 -37 22 -64 22h-3c-40 0 -69 -33 -76 -78c15 20 42 34 82 34zM180 61c32 0 55 19 55 47s-23 47 -55 47
c-31 0 -54 -19 -54 -45c0 -28 21 -49 54 -49z" />
    <glyph glyph-name="seven.dnom" horiz-adv-x="332" 
d="M289 266l-158 -266h-88l144 242h-141v76h243v-52z" />
    <glyph glyph-name="eight.dnom" horiz-adv-x="355" 
d="M259 169c32 -12 54 -41 54 -77c0 -56 -43 -99 -133 -99h-3c-91 0 -134 43 -134 99c0 36 22 65 54 77c-23 13 -43 34 -43 70c0 41 35 86 120 86h6c86 0 122 -45 122 -86c0 -36 -20 -57 -43 -70zM178 190c21 0 47 10 47 37c0 25 -20 38 -47 38s-47 -13 -47 -38
c0 -24 20 -37 47 -37zM178 56c34 0 57 19 57 47c0 29 -23 47 -57 47c-35 0 -58 -18 -58 -47c0 -28 23 -47 58 -47z" />
    <glyph glyph-name="nine.dnom" horiz-adv-x="360" 
d="M160 101c-64 0 -117 40 -117 109c0 57 47 115 134 115c88 0 141 -57 141 -140v-17c0 -101 -53 -175 -153 -175h-3c-57 1 -87 22 -108 45l44 41c20 -14 37 -22 64 -22h3c40 0 70 33 76 78c-15 -20 -42 -34 -81 -34zM181 257c-32 0 -55 -20 -55 -47c0 -28 23 -47 55 -47
c31 0 54 19 54 45c0 28 -21 49 -54 49z" />
    <glyph glyph-name="zero.numr" horiz-adv-x="403" 
d="M201 707c98 0 174 -74 174 -166s-76 -166 -174 -166c-97 0 -173 74 -173 166s76 166 173 166zM202 625c-47 0 -83 -34 -83 -84s36 -83 83 -83s83 33 83 83s-36 84 -83 84z" />
    <glyph glyph-name="one.numr" horiz-adv-x="261" 
d="M219 382h-90v198l-39 -47l-47 36l109 131h67v-318z" />
    <glyph glyph-name="two.numr" horiz-adv-x="368" 
d="M326 382l-283 -1v47l149 110c26 18 41 32 41 50c0 21 -18 37 -44 38h-4c-31 0 -60 -17 -80 -33l-55 51c45 39 89 63 152 63h4c69 -1 114 -46 114 -99c0 -51 -32 -82 -88 -116l-45 -28h139v-82z" />
    <glyph glyph-name="three.numr" horiz-adv-x="367" 
d="M306 641l-91 -70c11 -1 22 -3 35 -6c51 -13 75 -45 75 -86c0 -52 -43 -104 -129 -104h-4c-64 0 -112 26 -149 62l51 47c17 -13 40 -31 80 -31c37 1 64 18 64 42c0 22 -22 36 -54 35c-18 -1 -29 -4 -39 -9l-28 22l96 80h-138v77h231v-59z" />
    <glyph glyph-name="four.numr" horiz-adv-x="369" 
d="M294 436v-54h-90v54h-161v46l189 218h62v-192h33v-72h-33zM203 590l-74 -82h74v82z" />
    <glyph glyph-name="five.numr" horiz-adv-x="367" 
d="M297 623h-150v-53c18 7 40 12 63 12c71 0 115 -43 115 -102c0 -52 -43 -104 -128 -105h-5c-64 0 -112 26 -149 62l51 47c17 -12 40 -30 80 -30c37 0 64 17 64 41s-20 39 -54 39c-24 1 -51 -5 -72 -17l-32 23v160h217v-77z" />
    <glyph glyph-name="six.numr" horiz-adv-x="360" 
d="M202 599c63 0 116 -40 116 -109c0 -57 -47 -115 -134 -115c-88 0 -141 57 -141 140v17c0 101 53 175 153 175h4c56 -1 87 -22 107 -45l-44 -41c-20 14 -37 22 -64 22h-3c-40 0 -69 -33 -76 -78c15 20 42 34 82 34zM180 443c32 0 55 20 55 47c0 28 -23 47 -55 47
c-31 0 -54 -19 -54 -45c0 -28 21 -49 54 -49z" />
    <glyph glyph-name="seven.numr" horiz-adv-x="332" 
d="M289 647l-158 -265h-88l144 241h-141v77h243v-53z" />
    <glyph glyph-name="eight.numr" horiz-adv-x="355" 
d="M259 551c32 -12 54 -41 54 -77c0 -56 -43 -99 -133 -99h-3c-91 0 -134 43 -134 99c0 36 22 65 54 77c-23 13 -43 34 -43 70c0 41 35 86 120 86h6c86 0 122 -45 122 -86c0 -36 -20 -57 -43 -70zM178 572c21 0 47 10 47 37c0 25 -20 38 -47 38s-47 -13 -47 -38
c0 -24 20 -37 47 -37zM178 438c34 0 57 19 57 47c0 29 -23 47 -57 47c-35 0 -58 -18 -58 -47c0 -28 23 -47 58 -47z" />
    <glyph glyph-name="nine.numr" horiz-adv-x="360" 
d="M160 483c-64 0 -117 40 -117 109c0 57 47 115 134 115c88 0 141 -57 141 -140v-17c0 -101 -53 -175 -153 -175h-3c-57 1 -87 22 -108 45l44 41c20 -14 37 -22 64 -22h3c40 0 70 33 76 78c-15 -20 -42 -34 -81 -34zM181 639c-32 0 -55 -19 -55 -47s23 -47 55 -47
c31 0 54 19 54 45c0 28 -21 49 -54 49z" />
    <glyph glyph-name="asterisk" unicode="*" horiz-adv-x="479" 
d="M388 405l-56 -46l-93 131l-94 -131l-55 45l107 117l-142 31l19 69l138 -48l-9 144h72l-9 -145l138 49l19 -69l-143 -31z" />
    <glyph glyph-name="backslash" unicode="\" horiz-adv-x="430" 
d="M374 0h-79l-240 700h80z" />
    <glyph glyph-name="bullet" unicode="&#x2022;" horiz-adv-x="421" 
d="M210 448c87 0 156 -69 156 -155s-69 -155 -156 -155c-86 0 -155 69 -155 155s69 155 155 155z" />
    <glyph glyph-name="colon" unicode=":" horiz-adv-x="262" 
d="M131 452c42 0 75 -30 75 -67c0 -38 -33 -68 -75 -68c-43 0 -76 30 -76 68c0 37 33 67 76 67zM131 128c42 0 75 -30 75 -68c0 -37 -33 -67 -75 -67c-43 0 -76 30 -76 67c0 38 33 68 76 68z" />
    <glyph glyph-name="comma" unicode="," horiz-adv-x="329" 
d="M273 128l-125 -272h-93l84 272h134z" />
    <glyph glyph-name="ellipsis" unicode="&#x2026;" horiz-adv-x="742" 
d="M131 128c42 0 75 -30 75 -68c0 -37 -33 -67 -75 -67c-43 0 -76 30 -76 67c0 38 33 68 76 68zM371 128c42 0 75 -30 75 -68c0 -37 -33 -67 -75 -67c-43 0 -76 30 -76 67c0 38 33 68 76 68zM612 128c42 0 75 -30 75 -68c0 -37 -33 -67 -75 -67c-43 0 -76 30 -76 67
c0 38 33 68 76 68z" />
    <glyph glyph-name="exclam" unicode="!" horiz-adv-x="262" 
d="M200 700v-269l-12 -241h-114l-12 240v270h138zM131 128c42 0 75 -30 75 -68c0 -37 -33 -67 -75 -67c-43 0 -76 30 -76 67c0 38 33 68 76 68z" />
    <glyph glyph-name="exclamdown" unicode="&#xa1;" horiz-adv-x="262" 
d="M131 546c42 0 75 -30 75 -68c0 -37 -33 -67 -75 -67c-43 0 -76 30 -76 67c0 38 33 68 76 68zM62 -161v270l12 239h114l12 -240v-269h-138z" />
    <glyph glyph-name="numbersign" unicode="#" horiz-adv-x="687" 
d="M466 280h122l-15 -71h-122l-44 -209h-80l44 209h-117l-44 -209h-80l45 209h-120l15 71h120l28 134h-119l15 72h119l46 214h80l-46 -214h117l46 214h80l-46 -214h121l-15 -72h-121zM298 414l-28 -134h117l28 134h-117z" />
    <glyph glyph-name="period" unicode="." horiz-adv-x="262" 
d="M131 128c42 0 75 -30 75 -68c0 -37 -33 -67 -75 -67c-43 0 -76 30 -76 67c0 38 33 68 76 68z" />
    <glyph glyph-name="periodcentered" unicode="&#xb7;" horiz-adv-x="262" 
d="M131 377c44 0 75 -35 75 -75s-31 -75 -75 -75c-45 0 -76 35 -76 75s31 75 76 75z" />
    <glyph glyph-name="question" unicode="?" horiz-adv-x="656" 
d="M337 707h8c177 -3 255 -106 255 -220c0 -122 -89 -193 -210 -211v-83h-138v159c179 -10 218 50 218 115c0 63 -52 109 -129 110h-6c-65 0 -119 -22 -190 -81l-90 83c68 72 162 128 282 128zM321 128c42 0 75 -30 75 -68c0 -37 -33 -67 -75 -67c-43 0 -76 30 -76 67
c0 38 33 68 76 68z" />
    <glyph glyph-name="questiondown" unicode="&#xbf;" horiz-adv-x="656" 
d="M335 416c-43 0 -76 30 -76 67c0 38 33 68 76 68c42 0 75 -30 75 -68c0 -37 -33 -67 -75 -67zM319 -163h-9c-176 3 -255 105 -255 219c0 123 89 194 211 211v83h138v-159c-179 11 -218 -50 -218 -115c0 -62 52 -108 128 -109h7c64 0 118 22 190 81l89 -83
c-68 -73 -162 -128 -281 -128z" />
    <glyph glyph-name="quotedbl" unicode="&#x22;" horiz-adv-x="327" 
d="M133 516h-69l-9 184h87zM263 516h-69l-9 184h87z" />
    <glyph glyph-name="quotesingle" unicode="'" horiz-adv-x="197" 
d="M133 516h-69l-9 184h87z" />
    <glyph glyph-name="semicolon" unicode=";" horiz-adv-x="345" 
d="M214 452c42 0 75 -30 75 -67c0 -38 -33 -68 -75 -68c-43 0 -76 30 -76 68c0 37 33 67 76 67zM273 128l-125 -272h-93l84 272h134z" />
    <glyph glyph-name="slash" unicode="/" horiz-adv-x="430" 
d="M374 700l-239 -700h-80l239 700h80z" />
    <glyph glyph-name="underscore" unicode="_" horiz-adv-x="525" 
d="M470 -111h-415v60h415v-60z" />
    <glyph glyph-name="braceleft" unicode="{" horiz-adv-x="408" 
d="M352 620h-19c-27 0 -51 -23 -51 -56v-107c0 -71 -23 -133 -92 -145c69 -12 91 -66 91 -128v-137c0 -33 25 -56 52 -56h19v-130h-42c-99 0 -164 60 -166 167l-1 120c-3 89 -28 101 -83 104h-5v119h5c56 2 82 14 83 101l1 111c2 106 67 167 166 167h42v-130z" />
    <glyph glyph-name="braceright" unicode="}" horiz-adv-x="408" 
d="M55 750h42c99 0 165 -61 166 -167l1 -111c2 -87 27 -99 83 -101h5v-119h-5c-55 -3 -80 -15 -83 -104l-1 -120c-2 -107 -67 -167 -166 -167h-42v130h20c27 0 51 23 51 56v137c0 62 22 116 91 128c-69 12 -91 74 -91 145v107c0 33 -24 56 -51 56h-20v130z" />
    <glyph glyph-name="bracketleft" unicode="[" horiz-adv-x="314" 
d="M193 -9h65v-131h-203v890h203v-130h-65v-629z" />
    <glyph glyph-name="bracketright" unicode="]" horiz-adv-x="314" 
d="M55 620v130h203v-890h-203v131h65v629h-65z" />
    <glyph glyph-name="parenleft" unicode="(" horiz-adv-x="382" 
d="M326 747v-131c-89 -86 -132 -207 -132 -304v-15c0 -98 42 -219 132 -307v-130c-176 99 -271 277 -271 437v15c1 159 95 338 271 435z" />
    <glyph glyph-name="parenright" unicode=")" horiz-adv-x="382" 
d="M55 616v131c176 -97 271 -276 271 -435v-15c0 -160 -94 -338 -271 -437v130c90 88 133 209 133 307v15c-1 97 -43 218 -133 304z" />
    <glyph glyph-name="emdash" unicode="&#x2014;" horiz-adv-x="651" 
d="M595 249h-540v79h540v-79z" />
    <glyph glyph-name="endash" unicode="&#x2013;" horiz-adv-x="483" 
d="M427 249h-372v79h372v-79z" />
    <glyph glyph-name="hyphen" unicode="-" horiz-adv-x="359" 
d="M303 249h-248v79h248v-79z" />
    <glyph glyph-name="guillemotleft" unicode="&#xab;" horiz-adv-x="489" 
d="M253 331l-81 -73l81 -72v-112l-198 184l198 185v-112zM433 331l-81 -73l81 -72v-112l-198 184l198 185v-112z" />
    <glyph glyph-name="guillemotright" unicode="&#xbb;" horiz-adv-x="489" 
d="M253 258l-198 -184v112l81 72l-81 73v112zM433 258l-198 -184v112l81 72l-81 73v112z" />
    <glyph glyph-name="guilsinglleft" unicode="&#x2039;" horiz-adv-x="308" 
d="M253 331l-81 -73l81 -72v-112l-198 184l198 185v-112z" />
    <glyph glyph-name="guilsinglright" unicode="&#x203a;" horiz-adv-x="308" 
d="M253 258l-198 -184v112l81 72l-81 73v112z" />
    <glyph glyph-name="quotedblbase" unicode="&#x201e;" horiz-adv-x="502" 
d="M273 128l-125 -272h-93l84 272h134zM447 128l-125 -272h-93l84 272h134z" />
    <glyph glyph-name="quotedblleft" unicode="&#x201c;" horiz-adv-x="502" 
d="M55 428l125 272h93l-84 -272h-134zM229 428l125 272h93l-84 -272h-134z" />
    <glyph glyph-name="quotedblright" unicode="&#x201d;" horiz-adv-x="502" 
d="M273 700l-125 -272h-93l84 272h134zM447 700l-125 -272h-93l84 272h134z" />
    <glyph glyph-name="quoteleft" unicode="&#x2018;" horiz-adv-x="329" 
d="M55 428l125 272h93l-84 -272h-134z" />
    <glyph glyph-name="quoteright" unicode="&#x2019;" horiz-adv-x="329" 
d="M273 700l-125 -272h-93l84 272h134z" />
    <glyph glyph-name="quotesinglbase" unicode="&#x201a;" horiz-adv-x="329" 
d="M273 128l-125 -272h-93l84 272h134z" />
    <glyph glyph-name="space" unicode=" " horiz-adv-x="337" 
 />
    <glyph glyph-name="cent" unicode="&#xa2;" horiz-adv-x="564" 
d="M348 379v-258c29 6 55 20 84 47l76 -82c-40 -47 -96 -80 -160 -89v-95h-79v95c-122 20 -214 125 -214 253s92 233 214 253v98h79v-98c64 -9 120 -42 160 -89l-76 -82c-29 27 -55 41 -84 47zM182 250c0 -64 38 -110 87 -126v252c-49 -16 -87 -62 -87 -126z" />
    <glyph glyph-name="currency" unicode="&#xa4;" horiz-adv-x="636" 
d="M580 469l-64 -64c61 -84 61 -199 0 -284l63 -63l-56 -56l-63 64c-84 -62 -199 -62 -283 0l-65 -65l-56 56l65 65c-62 84 -62 199 0 283l-65 64l56 56l65 -65c84 62 199 62 283 1l64 64zM283 157c51 -19 117 5 136 71s-16 121 -67 140c-51 20 -117 -5 -136 -71
s16 -121 67 -140z" />
    <glyph glyph-name="dollar" unicode="$" horiz-adv-x="685" 
d="M630 209c0 -127 -107 -207 -251 -215v-45h-79v47c-113 14 -197 73 -245 138l90 83c26 -36 79 -77 155 -90v176c-130 17 -229 70 -229 191c0 122 99 200 229 211v45h79v-46c85 -11 167 -54 229 -113l-90 -83c-39 32 -93 55 -139 64v-148h3c142 -17 248 -70 248 -215z
M209 499c0 -40 40 -56 91 -65v141c-43 -6 -91 -27 -91 -76zM379 294v-170c69 6 113 37 113 85c0 56 -49 75 -113 85z" />
    <glyph glyph-name="Euro" unicode="&#x20ac;" horiz-adv-x="801" 
d="M482 123c68 0 129 24 174 69l90 -83c-66 -71 -160 -116 -264 -116c-160 0 -296 106 -340 252h-87v79h72c-1 9 -1 17 -1 26s0 19 1 28h-72v79h87c46 145 180 250 340 250c104 0 198 -45 264 -116l-90 -83c-45 44 -106 69 -174 69c-86 0 -159 -46 -195 -120h235l-21 -79
h-236c-1 -9 -1 -18 -1 -28c0 -9 0 -18 1 -26h200l-21 -79h-158c36 -75 109 -122 196 -122z" />
    <glyph glyph-name="sterling" unicode="&#xa3;" horiz-adv-x="686" 
d="M434 262h-161c12 -59 12 -100 -34 -132h326v-130h-508v86c82 53 91 105 80 176h-82v130h55c-5 28 -10 59 -13 93c-8 149 114 222 260 222h8c98 -2 195 -49 265 -116l-89 -83c-53 42 -130 69 -181 69h-9c-44 -1 -123 -16 -116 -114c2 -25 6 -49 10 -71h189v-130z" />
    <glyph glyph-name="yen" unicode="&#xa5;" horiz-adv-x="748" 
d="M498 339h137v-154h-193v-185h-138v185h-192v154h136l-193 361h157l162 -296l161 296h157z" />
    <glyph glyph-name="approxequal" unicode="&#x2248;" horiz-adv-x="542" 
d="M55 266l41 70c41 73 109 71 155 44l62 -36c34 -20 73 -23 92 8l22 36h59l-40 -69c-42 -74 -110 -71 -156 -44l-61 36c-35 20 -74 23 -93 -9l-22 -36h-59zM486 248l-40 -70c-42 -73 -110 -71 -156 -44l-61 36c-35 20 -74 23 -93 -9l-22 -35h-59l41 69c41 73 109 71 155 44
l62 -36c34 -20 73 -23 92 9l22 36h59z" />
    <glyph glyph-name="asciitilde" unicode="~" horiz-adv-x="545" 
d="M490 330l-42 -87c-37 -76 -110 -71 -156 -44l-61 36c-35 20 -74 23 -93 -9l-17 -28h-66l42 87c37 76 110 71 156 43l61 -35c35 -20 74 -23 93 8l18 29h65z" />
    <glyph glyph-name="divide" unicode="&#xf7;" horiz-adv-x="525" 
d="M263 492c42 0 75 -29 75 -67s-33 -68 -75 -68c-43 0 -76 30 -76 68s33 67 76 67zM469 219h-414v78h414v-78zM263 156c42 0 75 -29 75 -67s-33 -67 -75 -67c-43 0 -76 29 -76 67s33 67 76 67z" />
    <glyph glyph-name="emptyset" unicode="&#x2205;" horiz-adv-x="662" 
d="M604 468l-66 -66c31 -43 49 -95 49 -152c0 -142 -115 -256 -257 -256c-56 0 -108 18 -151 49l-66 -67l-56 56l66 66c-31 43 -49 95 -49 152c0 142 114 257 256 257c57 0 109 -18 152 -49l66 66zM201 250c0 -23 5 -43 13 -61l178 179c-19 10 -40 16 -62 16
c-67 0 -129 -52 -129 -134zM459 250c0 22 -5 42 -13 60l-177 -178c18 -10 39 -15 61 -15c66 0 129 51 129 133z" />
    <glyph glyph-name="equal" unicode="=" horiz-adv-x="525" 
d="M469 294h-414v79h414v-79zM469 152h-414v79h414v-79z" />
    <glyph glyph-name="greater" unicode="&#x3e;" horiz-adv-x="478" 
d="M423 342l-368 -203v113l166 89l-166 91v112z" />
    <glyph glyph-name="greaterequal" unicode="&#x2265;" horiz-adv-x="478" 
d="M423 320l-368 -203v113l166 89l-166 91v112zM423 0h-368v79h368v-79z" />
    <glyph glyph-name="infinity" unicode="&#x221e;" horiz-adv-x="623" 
d="M173 333h6c42 0 92 -24 132 -77c41 53 91 77 133 77h6c71 0 118 -58 118 -140v-11c0 -82 -47 -141 -118 -141h-6c-42 0 -92 24 -133 77c-40 -53 -90 -77 -132 -77h-6c-71 0 -118 56 -118 141v11c0 81 47 140 118 140zM191 252h-3c-32 0 -52 -26 -52 -62v-6
c0 -39 20 -62 52 -62h3c26 0 53 24 75 67c-21 42 -51 63 -75 63zM435 252h-3c-25 0 -54 -23 -75 -66c22 -44 50 -64 75 -64h3c32 0 52 26 52 62v6c0 36 -20 62 -52 62z" />
    <glyph glyph-name="integral" unicode="&#x222b;" horiz-adv-x="357" 
d="M302 620h-14c-37 0 -64 -31 -61 -70l41 -508c10 -111 -68 -181 -176 -181h-37v130h14c37 0 64 32 61 69l-41 509c-10 112 67 181 176 181h37v-130z" />
    <glyph glyph-name="less" unicode="&#x3c;" horiz-adv-x="478" 
d="M423 432l-167 -91l167 -89v-113l-368 203l368 202v-112z" />
    <glyph glyph-name="lessequal" unicode="&#x2264;" horiz-adv-x="478" 
d="M423 410l-167 -91l167 -89v-113l-368 203l368 202v-112zM423 0h-368v79h368v-79z" />
    <glyph glyph-name="logicalnot" unicode="&#xac;" horiz-adv-x="525" 
d="M383 232h-328v79h414v-182h-86v103z" />
    <glyph glyph-name="minus" unicode="&#x2212;" horiz-adv-x="525" 
d="M469 232h-414v79h414v-79z" />
    <glyph glyph-name="multiply" unicode="&#xd7;" horiz-adv-x="459" 
d="M404 390l-118 -118l118 -119l-56 -56l-119 118l-118 -118l-56 56l118 119l-118 118l56 56l118 -118l119 118z" />
    <glyph glyph-name="notequal" unicode="&#x2260;" horiz-adv-x="525" 
d="M308 294l-21 -63h182v-79h-209l-43 -128h-80l43 128h-125v79h152l21 63h-173v79h199l43 127h80l-43 -127h135v-79h-161z" />
    <glyph glyph-name="partialdiff" unicode="&#x2202;" horiz-adv-x="657" 
d="M363 707h7c179 0 261 -156 223 -372l-9 -48c-31 -174 -164 -294 -318 -294c-163 0 -228 122 -207 242c26 146 144 230 267 230c75 0 124 -34 143 -83c13 111 -30 193 -119 195h-5c-40 0 -75 -12 -124 -42l-75 83c48 44 117 88 217 89zM337 348c-68 0 -128 -47 -139 -113
c-12 -65 31 -111 100 -111c72 0 128 50 140 115c11 62 -32 109 -101 109z" />
    <glyph glyph-name="percent" unicode="%" horiz-adv-x="826" 
d="M228 707c98 0 174 -74 174 -166s-76 -166 -174 -166c-97 0 -173 74 -173 166s76 166 173 166zM642 700l-377 -700h-81l377 700h81zM229 625c-47 0 -83 -34 -83 -84s36 -83 83 -83s83 33 83 83s-36 84 -83 84zM597 325c98 0 174 -75 174 -166c0 -92 -76 -166 -174 -166
c-97 0 -173 74 -173 166c0 91 76 166 173 166zM597 242c-47 0 -83 -33 -83 -83c0 -51 36 -84 83 -84s83 33 83 84c0 50 -36 83 -83 83z" />
    <glyph glyph-name="perthousand" unicode="&#x2030;" horiz-adv-x="1210" 
d="M228 707c98 0 174 -74 174 -166s-76 -166 -174 -166c-97 0 -173 74 -173 166s76 166 173 166zM265 0h-81l377 700h81zM229 625c-47 0 -83 -34 -83 -84s36 -83 83 -83s83 33 83 83s-36 84 -83 84zM597 325c98 0 174 -75 174 -166c0 -92 -76 -166 -174 -166
c-97 0 -173 74 -173 166c0 91 76 166 173 166zM981 325c98 0 174 -75 174 -166c0 -92 -76 -166 -174 -166c-97 0 -173 74 -173 166c0 91 76 166 173 166zM597 242c-47 0 -83 -33 -83 -83c0 -51 36 -84 83 -84s83 33 83 84c0 50 -36 83 -83 83zM981 242
c-47 0 -83 -33 -83 -83c0 -51 36 -84 83 -84s83 33 83 84c0 50 -36 83 -83 83z" />
    <glyph glyph-name="plus" unicode="+" horiz-adv-x="525" 
d="M305 311h164v-79h-164v-167h-86v167h-164v79h164v168h86v-168z" />
    <glyph glyph-name="plusminus" unicode="&#xb1;" horiz-adv-x="525" 
d="M305 394h164v-79h-164v-102h-86v102h-164v79h164v102h86v-102zM469 97h-414v79h414v-79z" />
    <glyph glyph-name="product" unicode="&#x220f;" horiz-adv-x="779" 
d="M648 570v-613h-138v613h-241v-613h-138v613h-76v130h669v-130h-76z" />
    <glyph glyph-name="radical" unicode="&#x221a;" horiz-adv-x="637" 
d="M349 0h-92l-119 354l-83 -24v108l200 62l85 -314l167 514h75z" />
    <glyph glyph-name="summation" unicode="&#x2211;" horiz-adv-x="583" 
d="M527 570h-262l172 -287l-172 -288h262v-130h-472l242 418l-241 417h471v-130z" />
    <glyph glyph-name="lozenge" unicode="&#x25ca;" horiz-adv-x="504" 
d="M252 -17l-197 259l197 258l196 -258zM252 375l-103 -133l103 -134l102 134z" />
    <glyph glyph-name="ampersand" unicode="&#x26;" horiz-adv-x="693" 
d="M504 0l-43 47c-39 -31 -92 -49 -158 -49h-6c-159 1 -242 89 -242 204c0 78 46 138 112 164l-24 25c-33 36 -59 78 -59 134c0 87 68 172 207 172h12c128 -1 211 -88 211 -195v-14h-131c0 56 -38 83 -89 83c-41 0 -83 -24 -83 -74c0 -26 8 -44 28 -66l210 -224
c7 18 11 37 11 58h95c0 -50 -10 -99 -31 -142l113 -123h-133zM305 125c27 0 51 6 68 19l-145 155c-26 -14 -42 -38 -42 -70c0 -65 50 -104 119 -104z" />
    <glyph glyph-name="asciicircum" unicode="^" horiz-adv-x="513" 
d="M457 388h-81l-120 183l-120 -183h-81l201 307z" />
    <glyph glyph-name="at" unicode="@" horiz-adv-x="921" 
d="M460 661c231 0 406 -175 406 -394v-58c0 -107 -56 -175 -148 -176c-52 1 -90 19 -109 57l-4 23c-34 -51 -91 -83 -160 -83c-122 0 -211 98 -211 220s89 221 211 221c62 0 114 -28 147 -70l5 64h70v-288c0 -44 23 -64 53 -64c29 0 55 14 55 96v54c0 198 -152 315 -315 315
c-157 0 -314 -120 -314 -323c0 -204 157 -322 314 -322c59 0 121 18 174 53l60 -61c-66 -47 -147 -75 -234 -75c-225 0 -405 180 -405 405c0 224 180 406 405 406zM455 371c-60 0 -116 -48 -116 -121s56 -120 116 -120c61 0 117 47 117 120s-56 121 -117 121z" />
    <glyph glyph-name="bar" unicode="|" horiz-adv-x="197" 
d="M142 -60h-87v760h87v-760z" />
    <glyph glyph-name="brokenbar" unicode="&#xa6;" horiz-adv-x="197" 
d="M142 368h-87v332h87v-332zM142 -60h-87v331h87v-331z" />
    <glyph glyph-name="copyright" unicode="&#xa9;" horiz-adv-x="648" 
d="M324 700c150 0 268 -122 268 -270s-118 -270 -268 -270s-269 122 -269 270s119 270 269 270zM324 649c-122 0 -217 -99 -217 -219c0 -121 95 -219 217 -219s217 98 217 219c0 120 -95 219 -217 219zM324 587c48 0 92 -22 121 -56l-46 -49c-25 22 -47 32 -75 32
c-41 0 -80 -33 -80 -84c0 -50 39 -83 80 -83c28 0 50 10 75 33l45 -50c-28 -35 -72 -57 -120 -57c-87 0 -157 70 -157 157s70 157 157 157z" />
    <glyph glyph-name="dagger" unicode="&#x2020;" horiz-adv-x="406" 
d="M246 500h104v-79h-104v-481h-87v481h-104v79h104v200h87v-200z" />
    <glyph glyph-name="daggerdbl" unicode="&#x2021;" horiz-adv-x="406" 
d="M246 500h104v-79h-104v-201h104v-79h-104v-201h-87v201h-104v79h104v201h-104v79h104v200h87v-200z" />
    <glyph glyph-name="degree" unicode="&#xb0;" horiz-adv-x="362" 
d="M181 739c69 0 125 -56 125 -126c0 -69 -56 -125 -125 -125c-70 0 -126 56 -126 125c0 70 56 126 126 126zM181 667c-30 0 -54 -24 -54 -54s24 -54 54 -54c29 0 53 24 53 54s-24 54 -53 54z" />
    <glyph glyph-name="uni2116" unicode="&#x2116;" horiz-adv-x="1311" 
d="M969 707c142 0 257 -115 257 -257s-115 -256 -257 -256s-256 114 -256 256s114 257 256 257zM656 0h-82l-331 441v-441h-138v700h81l332 -441v441h138v-700zM969 584c-67 0 -129 -52 -129 -134s62 -133 129 -133c66 0 129 51 129 133s-63 134 -129 134zM733 116h473v-116
h-473v116z" />
    <glyph glyph-name="paragraph" unicode="&#xb6;" horiz-adv-x="661" 
d="M606 620h-60v-783h-87v783h-75v-783h-87v471c-132 0 -242 51 -242 192s109 200 244 200h307v-80z" />
    <glyph glyph-name="registered" unicode="&#xae;" horiz-adv-x="648" 
d="M324 700c150 0 268 -122 268 -270s-118 -270 -268 -270s-269 122 -269 270s119 270 269 270zM324 649c-122 0 -217 -99 -217 -219c0 -121 95 -219 217 -219s217 98 217 219c0 120 -95 219 -217 219zM192 579h146c99 0 124 -59 124 -107c0 -38 -23 -75 -69 -85l75 -105
h-78l-68 91h-56v-91h-74v297zM266 508v-72h79c32 0 43 15 43 36s-11 36 -43 36h-79z" />
    <glyph glyph-name="section" unicode="&#xa7;" horiz-adv-x="552" 
d="M266 624h12c83 0 164 -36 208 -93l-72 -67c-32 36 -93 59 -135 59h-10c-44 -1 -75 -18 -75 -50c0 -21 10 -38 50 -42l32 -2c123 -1 220 -47 220 -161c0 -38 -14 -71 -40 -97c19 -22 28 -49 28 -81c0 -100 -89 -156 -198 -159h-12c-84 0 -164 36 -209 93l72 67
c32 -36 93 -59 135 -59h8c46 1 77 18 77 50c0 21 -9 38 -50 42l-32 2c-101 1 -220 36 -220 161c0 38 15 71 40 97c-19 22 -28 49 -28 81c0 100 90 156 199 159zM204 329c-14 -8 -22 -20 -22 -37c0 -34 30 -48 84 -54l31 -3c19 -2 36 -5 50 -9c14 8 22 20 22 37
c0 35 -30 49 -85 54l-29 3c-20 2 -37 5 -51 9z" />
    <glyph glyph-name="trademark" unicode="&#x2122;" horiz-adv-x="749" 
d="M232 622v-232h-81v232h-96v78h274v-78h-97zM694 390h-81v179l-87 -99l-87 99v-179h-81v310h52l116 -133l116 133h52v-310z" />
    <glyph glyph-name="acute" unicode="&#xb4;" horiz-adv-x="332" 
d="M151 591h-96l85 146h136z" />
    <glyph glyph-name="breve" unicode="&#x2d8;" horiz-adv-x="425" 
d="M282 737h87c0 -88 -70 -152 -157 -152s-157 64 -157 152h88c0 -36 30 -64 69 -64s70 28 70 64z" />
    <glyph glyph-name="caron" unicode="&#x2c7;" horiz-adv-x="414" 
d="M270 589h-127l-88 146h96l56 -52l55 53h96z" />
    <glyph glyph-name="cedilla" unicode="&#xb8;" horiz-adv-x="255" 
d="M126 0l-11 -34c34 12 85 0 85 -60c0 -59 -62 -94 -145 -47v34c35 -19 65 -9 65 16c0 21 -16 35 -58 16l27 75h37z" />
    <glyph glyph-name="circumflex" unicode="&#x2c6;" horiz-adv-x="414" 
d="M262 590l-55 52l-56 -52h-96l88 147h127l88 -147h-96z" />
    <glyph glyph-name="dieresis" unicode="&#xa8;" horiz-adv-x="475" 
d="M129 606c-41 0 -74 29 -74 66c0 38 33 67 74 67c42 0 75 -29 75 -67c0 -37 -33 -66 -75 -66zM345 606c-41 0 -74 29 -74 66c0 38 33 67 74 67c42 0 75 -29 75 -67c0 -37 -33 -66 -75 -66z" />
    <glyph glyph-name="dotaccent" unicode="&#x2d9;" horiz-adv-x="259" 
d="M129 606c-41 0 -74 30 -74 67s33 66 74 66c42 0 75 -29 75 -66s-33 -67 -75 -67z" />
    <glyph glyph-name="grave" unicode="`" horiz-adv-x="332" 
d="M191 737l85 -146h-96l-125 146h136z" />
    <glyph glyph-name="hungarumlaut" unicode="&#x2dd;" horiz-adv-x="506" 
d="M151 591h-96l85 146h136zM325 591h-96l85 146h136z" />
    <glyph glyph-name="macron" unicode="&#xaf;" horiz-adv-x="373" 
d="M317 643h-262v94h262v-94z" />
    <glyph glyph-name="ogonek" unicode="&#x2db;" horiz-adv-x="225" 
d="M133 0h36c-47 -19 -61 -35 -61 -53c0 -21 17 -32 45 -32h16v-79h-9c-55 0 -105 23 -105 76c0 36 22 64 78 88z" />
    <glyph glyph-name="ring" unicode="&#x2da;" horiz-adv-x="299" 
d="M149 739c52 0 95 -43 95 -94c0 -53 -43 -95 -95 -95s-94 42 -94 95c0 51 42 94 94 94zM150 677c-19 0 -32 -15 -32 -33c0 -17 13 -32 32 -32c18 0 32 15 32 32c0 18 -14 33 -32 33z" />
    <glyph glyph-name="tilde" unicode="&#x2dc;" horiz-adv-x="428" 
d="M372 700l-27 -69c-13 -35 -36 -51 -63 -54c-22 -2 -42 5 -56 15l-41 29c-13 9 -27 13 -39 12c-13 -2 -21 -10 -27 -25l-7 -19h-57l27 70c13 34 36 50 62 53c22 3 43 -4 57 -15l41 -29c12 -8 24 -12 36 -12c14 1 24 9 30 25l7 19h57z" />
    <glyph glyph-name="commaaccentcomb" unicode="&#x326;" horiz-adv-x="0" 
d="M151 -250h-96l85 146h136z" />
    </font>
</defs>
</svg>
