<?xml version="1.0" standalone="no"?>
<!DOCTYPE svg PUBLIC "-//W3C//DTD SVG 1.1//EN" "http://www.w3.org/Graphics/SVG/1.1/DTD/svg11.dtd" >
<svg xmlns="http://www.w3.org/2000/svg" xmlns:xlink="http://www.w3.org/1999/xlink" version="1.1">
<metadata>
Created by FontForge 20160407 at Mon May  9 10:35:46 2016
 By Jimmy Wärting
Copyright (c) 2013 by Mariya Pigoulevskaya. All rights reserved.
</metadata>
<defs>
<font id="Acrom-Medium" horiz-adv-x="646" >
  <font-face 
    font-family="Acrom Medium"
    font-weight="500"
    font-stretch="normal"
    units-per-em="1000"
    panose-1="0 0 6 0 0 0 0 0 0 0"
    ascent="750"
    descent="-250"
    x-height="500"
    cap-height="700"
    bbox="0 -381 1231 1023"
    underline-thickness="50"
    underline-position="-100"
    stemh="107"
    stemv="103"
    unicode-range="U+0020-25CA"
  />
<missing-glyph horiz-adv-x="500" 
d="M0 0v700h500v-700h-500zM250 395l170 255h-340zM280 350l170 -255v510zM80 50h340l-170 255zM50 605v-510l170 255z" />
    <glyph glyph-name=".notdef" horiz-adv-x="500" 
d="M0 0v700h500v-700h-500zM250 395l170 255h-340zM280 350l170 -255v510zM80 50h340l-170 255zM50 605v-510l170 255z" />
    <glyph glyph-name="A" unicode="A" horiz-adv-x="727" 
d="M227 157l-64 -157h-119l289 700h63l286 -700h-119l-63 157h-273zM364 503l-99 -244h198z" />
    <glyph glyph-name="Aacute" unicode="&#xc1;" horiz-adv-x="727" 
d="M397 750h-77l79 132h112zM682 0h-119l-63 157h-273l-64 -157h-119l289 700h63zM265 259h198l-99 244z" />
    <glyph glyph-name="Abreve" unicode="&#x102;" horiz-adv-x="727" 
d="M444 891h70c0 -81 -67 -141 -150 -141s-150 60 -150 141h70c0 -40 35 -71 80 -71s80 31 80 71zM682 0h-119l-63 157h-273l-64 -157h-119l289 700h63zM265 259h198l-99 244z" />
    <glyph glyph-name="Acaron" unicode="&#x1cd;" horiz-adv-x="727" 
d="M411 750h-97l-97 133h79l67 -57l66 58h79zM682 0h-119l-63 157h-273l-64 -157h-119l289 700h63zM265 259h198l-99 244z" />
    <glyph glyph-name="Acircumflex" unicode="&#xc2;" horiz-adv-x="727" 
d="M509 750h-79l-66 58l-67 -58h-79l97 134h97zM682 0h-119l-63 157h-273l-64 -157h-119l289 700h63zM265 259h198l-99 244z" />
    <glyph glyph-name="Adieresis" unicode="&#xc4;" horiz-adv-x="727" 
d="M259 750c-34 0 -60 24 -60 54c0 29 26 53 60 53c33 0 59 -24 59 -53c0 -30 -26 -54 -59 -54zM471 750c-34 0 -60 24 -60 54c0 29 26 53 60 53c33 0 59 -24 59 -53c0 -30 -26 -54 -59 -54zM227 157l-64 -157h-119l289 700h63l286 -700h-119l-63 157h-273zM364 503
l-99 -244h198z" />
    <glyph glyph-name="Agrave" unicode="&#xc0;" horiz-adv-x="727" 
d="M410 750h-77l-114 132h112zM682 0h-119l-63 157h-273l-64 -157h-119l289 700h63zM265 259h198l-99 244z" />
    <glyph glyph-name="Amacron" unicode="&#x100;" horiz-adv-x="727" 
d="M493 750h-258v75h258v-75zM227 157l-64 -157h-119l289 700h63l286 -700h-119l-63 157h-273zM364 503l-99 -244h198z" />
    <glyph glyph-name="Aogonek" unicode="&#x104;" horiz-adv-x="727" 
d="M617 -61c0 -26 22 -40 52 -40h12v-63h-7c-53 0 -102 23 -102 78c0 37 24 64 78 86h-87l-63 157h-273l-64 -157h-119l289 700h63l286 -700c-50 -19 -65 -38 -65 -61zM463 259l-99 244l-99 -244h198z" />
    <glyph glyph-name="Aring" unicode="&#xc5;" horiz-adv-x="727" 
d="M363 927c49 0 89 -40 89 -88c0 -49 -40 -89 -89 -89s-88 40 -88 89c0 48 39 88 88 88zM364 876c-22 0 -37 -17 -37 -37c0 -21 15 -38 37 -38c21 0 36 17 36 38c0 20 -15 37 -36 37zM227 157l-64 -157h-119l289 700h63l286 -700h-119l-63 157h-273zM364 503l-99 -244h198z
" />
    <glyph glyph-name="Atilde" unicode="&#xc3;" horiz-adv-x="727" 
d="M519 856l-23 -61c-13 -36 -35 -54 -63 -56c-22 -1 -41 6 -54 17l-41 33c-12 9 -25 14 -38 13c-16 -1 -24 -11 -31 -31l-7 -21h-48l23 61c13 35 34 53 62 55c22 2 41 -6 55 -17l40 -32c11 -9 23 -14 36 -13c17 0 26 10 34 31l7 21h48zM227 157l-64 -157h-119l289 700h63
l286 -700h-119l-63 157h-273zM364 503l-99 -244h198z" />
    <glyph glyph-name="AE" unicode="&#xc6;" horiz-adv-x="871" 
d="M470 404h323v-102h-323v-200h346v-102h-454v157h-135l-64 -157h-119l289 700h483v-102h-346v-194zM362 500l-97 -241h97v241z" />
    <glyph glyph-name="B" unicode="B" horiz-adv-x="692" 
d="M109 700h262c200 0 235 -108 235 -183s-36 -128 -100 -151c83 -17 132 -82 132 -169c0 -111 -63 -197 -252 -197h-277v700zM217 598v-190h165c98 0 121 49 121 95c0 45 -17 95 -121 95h-165zM217 315v-213h191c95 0 127 47 127 106c0 60 -37 107 -127 107h-191z" />
    <glyph glyph-name="C" unicode="C" horiz-adv-x="738" 
d="M419 707c104 0 198 -45 264 -116l-70 -65c-50 50 -118 79 -194 79c-139 0 -248 -107 -248 -255c0 -149 109 -255 248 -255c76 0 144 28 194 79l70 -65c-66 -71 -160 -116 -264 -116c-197 0 -356 160 -356 357s159 357 356 357z" />
    <glyph glyph-name="Cacute" unicode="&#x106;" horiz-adv-x="738" 
d="M419 750h-77l79 132h112zM419 707c104 0 198 -45 264 -116l-70 -65c-50 50 -118 79 -194 79c-139 0 -248 -107 -248 -255c0 -149 109 -255 248 -255c76 0 144 28 194 79l70 -65c-66 -71 -160 -116 -264 -116c-197 0 -356 160 -356 357s159 357 356 357z" />
    <glyph glyph-name="Ccaron" unicode="&#x10c;" horiz-adv-x="738" 
d="M468 750h-97l-97 133h79l67 -57l66 58h79zM419 707c104 0 198 -45 264 -116l-70 -65c-50 50 -118 79 -194 79c-139 0 -248 -107 -248 -255c0 -149 109 -255 248 -255c76 0 144 28 194 79l70 -65c-66 -71 -160 -116 -264 -116c-197 0 -356 160 -356 357s159 357 356 357z
" />
    <glyph glyph-name="Ccedilla" unicode="&#xc7;" horiz-adv-x="738" 
d="M419 95c76 0 144 28 194 79l70 -65c-66 -71 -160 -116 -264 -116h-2l-9 -31c36 11 82 -4 82 -60s-61 -88 -136 -45v30c36 -22 72 -11 72 18c0 25 -21 39 -64 20l22 70c-180 17 -321 170 -321 355c0 197 159 357 356 357c104 0 198 -45 264 -116l-70 -65
c-50 50 -118 79 -194 79c-139 0 -248 -107 -248 -255c0 -149 109 -255 248 -255z" />
    <glyph glyph-name="Cdotaccent" unicode="&#x10a;" horiz-adv-x="738" 
d="M420 857c33 0 59 -24 59 -53c0 -30 -26 -54 -59 -54c-34 0 -60 24 -60 54c0 29 26 53 60 53zM419 707c104 0 198 -45 264 -116l-70 -65c-50 50 -118 79 -194 79c-139 0 -248 -107 -248 -255c0 -149 109 -255 248 -255c76 0 144 28 194 79l70 -65
c-66 -71 -160 -116 -264 -116c-197 0 -356 160 -356 357s159 357 356 357z" />
    <glyph glyph-name="D" unicode="D" horiz-adv-x="760" 
d="M109 700h232c197 0 356 -144 356 -350s-159 -350 -356 -350h-232v700zM217 102h124c138 0 248 90 248 248c0 157 -110 248 -248 248h-124v-496z" />
    <glyph glyph-name="Eth" unicode="&#xd0;" horiz-adv-x="818" 
d="M167 700h232c197 0 356 -144 356 -350s-159 -350 -356 -350h-232v319h-58v63h58v318zM275 102h124c138 0 248 90 248 248c0 157 -110 248 -248 248h-124v-216h84v-63h-84v-217z" />
    <glyph glyph-name="Dcaron" unicode="&#x10e;" horiz-adv-x="760" 
d="M402 750h-97l-97 133h79l67 -57l66 58h79zM109 700h232c197 0 356 -144 356 -350s-159 -350 -356 -350h-232v700zM217 598v-496h124c138 0 248 90 248 248c0 157 -110 248 -248 248h-124z" />
    <glyph glyph-name="Dcroat" unicode="&#x110;" horiz-adv-x="818" 
d="M167 700h232c197 0 356 -144 356 -350s-159 -350 -356 -350h-232v319h-58v63h58v318zM275 102h124c138 0 248 90 248 248c0 157 -110 248 -248 248h-124v-216h84v-63h-84v-217z" />
    <glyph glyph-name="E" unicode="E" horiz-adv-x="618" 
d="M217 404h323v-102h-323v-200h347v-102h-455v700h455v-102h-347v-194z" />
    <glyph glyph-name="Eacute" unicode="&#xc9;" horiz-adv-x="618" 
d="M341 750h-77l79 132h112zM564 598h-347v-194h323v-102h-323v-200h347v-102h-455v700h455v-102z" />
    <glyph glyph-name="Ecaron" unicode="&#x11a;" horiz-adv-x="618" 
d="M382 750h-97l-97 133h79l67 -57l66 58h79zM564 598h-347v-194h323v-102h-323v-200h347v-102h-455v700h455v-102z" />
    <glyph glyph-name="Ecircumflex" unicode="&#xca;" horiz-adv-x="618" 
d="M480 750h-79l-66 58l-67 -58h-79l97 134h97zM564 598h-347v-194h323v-102h-323v-200h347v-102h-455v700h455v-102z" />
    <glyph glyph-name="Edieresis" unicode="&#xcb;" horiz-adv-x="618" 
d="M228 857c33 0 59 -23 59 -53s-26 -54 -59 -54c-34 0 -60 24 -60 54s26 53 60 53zM439 857c33 0 59 -23 59 -53s-26 -54 -59 -54c-34 0 -60 24 -60 54s26 53 60 53zM564 598h-347v-194h323v-102h-323v-200h347v-102h-455v700h455v-102z" />
    <glyph glyph-name="Edotaccent" unicode="&#x116;" horiz-adv-x="618" 
d="M332 857c33 0 59 -24 59 -53c0 -30 -26 -54 -59 -54c-34 0 -60 24 -60 54c0 29 26 53 60 53zM564 598h-347v-194h323v-102h-323v-200h347v-102h-455v700h455v-102z" />
    <glyph glyph-name="Egrave" unicode="&#xc8;" horiz-adv-x="618" 
d="M397 750h-77l-114 132h112zM564 598h-347v-194h323v-102h-323v-200h347v-102h-455v700h455v-102z" />
    <glyph glyph-name="Emacron" unicode="&#x112;" horiz-adv-x="618" 
d="M461 750h-258v75h258v-75zM564 598h-347v-194h323v-102h-323v-200h347v-102h-455v700h455v-102z" />
    <glyph glyph-name="Eogonek" unicode="&#x118;" horiz-adv-x="618" 
d="M217 598v-194h323v-102h-323v-200h347v-102h-1c-50 -19 -65 -38 -65 -61c0 -26 22 -40 52 -40h12v-63h-7c-53 0 -102 23 -102 78c0 37 24 64 78 86h-422v700h455v-102h-347z" />
    <glyph glyph-name="F" unicode="F" horiz-adv-x="618" 
d="M217 404h323v-102h-323v-302h-108v700h455v-102h-347v-194z" />
    <glyph glyph-name="G" unicode="G" horiz-adv-x="783" 
d="M419 706c104 0 198 -45 264 -116l-70 -65c-50 51 -118 80 -194 80c-139 0 -248 -107 -248 -256c0 -148 109 -255 248 -255c60 0 114 20 156 55v145h-160v83h268v-269c-66 -71 -160 -116 -264 -116c-197 0 -356 160 -356 357s159 357 356 357z" />
    <glyph glyph-name="Gbreve" unicode="&#x11e;" horiz-adv-x="783" 
d="M499 891h70c0 -81 -67 -141 -150 -141s-150 60 -150 141h70c0 -40 35 -71 80 -71s80 31 80 71zM419 706c104 0 198 -45 264 -116l-70 -65c-50 51 -118 80 -194 80c-139 0 -248 -107 -248 -256c0 -148 109 -255 248 -255c60 0 114 20 156 55v145h-160v83h268v-269
c-66 -71 -160 -116 -264 -116c-197 0 -356 160 -356 357s159 357 356 357z" />
    <glyph glyph-name="Gcommaaccent" unicode="&#x122;" horiz-adv-x="783" 
d="M419 706c104 0 198 -45 264 -116l-70 -65c-50 51 -118 80 -194 80c-139 0 -248 -107 -248 -256c0 -148 109 -255 248 -255c60 0 114 20 156 55v145h-160v83h268v-269c-66 -71 -160 -116 -264 -116c-197 0 -356 160 -356 357s159 357 356 357zM377 -200h-77l79 131h112z
" />
    <glyph glyph-name="Gdotaccent" unicode="&#x120;" horiz-adv-x="783" 
d="M420 857c33 0 59 -24 59 -53c0 -30 -26 -54 -59 -54c-34 0 -60 24 -60 54c0 29 26 53 60 53zM419 706c104 0 198 -45 264 -116l-70 -65c-50 51 -118 80 -194 80c-139 0 -248 -107 -248 -256c0 -148 109 -255 248 -255c60 0 114 20 156 55v145h-160v83h268v-269
c-66 -71 -160 -116 -264 -116c-197 0 -356 160 -356 357s159 357 356 357z" />
    <glyph glyph-name="H" unicode="H" horiz-adv-x="756" 
d="M647 0h-108v302h-322v-302h-108v700h108v-296h322v296h108v-700z" />
    <glyph glyph-name="Hbar" unicode="&#x126;" horiz-adv-x="912" 
d="M803 500h-78v-500h-108v302h-322v-302h-108v500h-78v63h78v137h108v-137h322v137h108v-137h78v-63zM617 500h-322v-96h322v96z" />
    <glyph glyph-name="I" unicode="I" horiz-adv-x="492" 
d="M300 102h83v-102h-274v102h83v496h-83v102h274v-102h-83v-496z" />
    <glyph glyph-name="IJ" unicode="&#x132;" horiz-adv-x="956" 
d="M383 598h-83v-496h83v-102h-274v102h83v496h-83v102h274v-102zM892 700v-453c0 -172 -102 -254 -237 -254c-136 0 -238 82 -238 254v34h108v-48c0 -86 52 -138 130 -138s130 52 130 138v365h-223v102h330z" />
    <glyph glyph-name="Iacute" unicode="&#xcd;" horiz-adv-x="492" 
d="M247 750h-77l79 132h112zM383 598h-83v-496h83v-102h-274v102h83v496h-83v102h274v-102z" />
    <glyph glyph-name="Icaron" unicode="&#x1cf;" horiz-adv-x="526" 
d="M313 750h-97l-97 133h79l67 -57l66 58h79zM400 598h-83v-496h83v-102h-274v102h83v496h-83v102h274v-102z" />
    <glyph glyph-name="Icircumflex" unicode="&#xce;" horiz-adv-x="526" 
d="M410 750h-79l-66 58l-67 -58h-79l97 134h97zM400 598h-83v-496h83v-102h-274v102h83v496h-83v102h274v-102z" />
    <glyph glyph-name="Idieresis" unicode="&#xcf;" horiz-adv-x="549" 
d="M169 857c33 0 59 -24 59 -53c0 -30 -26 -54 -59 -54c-34 0 -60 24 -60 54c0 29 26 53 60 53zM381 857c33 0 59 -24 59 -53c0 -30 -26 -54 -59 -54c-34 0 -60 24 -60 54c0 29 26 53 60 53zM411 598h-83v-496h83v-102h-274v102h83v496h-83v102h274v-102z" />
    <glyph glyph-name="Idotaccent" unicode="&#x130;" horiz-adv-x="492" 
d="M247 750c-34 0 -60 24 -60 54c0 29 26 53 60 53c33 0 59 -24 59 -53c0 -30 -26 -54 -59 -54zM300 102h83v-102h-274v102h83v496h-83v102h274v-102h-83v-496z" />
    <glyph glyph-name="Igrave" unicode="&#xcc;" horiz-adv-x="492" 
d="M237 882l79 -132h-77l-114 132h112zM300 102h83v-102h-274v102h83v496h-83v102h274v-102h-83v-496z" />
    <glyph glyph-name="Imacron" unicode="&#x12a;" horiz-adv-x="522" 
d="M389 750h-258v75h258v-75zM315 102h83v-102h-274v102h83v496h-83v102h274v-102h-83v-496z" />
    <glyph glyph-name="Iogonek" unicode="&#x12e;" horiz-adv-x="492" 
d="M300 598v-496h83v-102c-50 -19 -65 -38 -65 -61c0 -26 22 -40 52 -40h12v-63h-7c-53 0 -102 23 -102 78c0 37 24 64 78 86h-242v102h83v496h-83v102h274v-102h-83z" />
    <glyph glyph-name="J" unicode="J" horiz-adv-x="603" 
d="M539 700v-453c0 -172 -103 -254 -238 -254c-136 0 -238 82 -238 254v34h108v-48c0 -86 52 -138 130 -138s130 52 130 138v365h-223v102h331z" />
    <glyph glyph-name="K" unicode="K" horiz-adv-x="732" 
d="M565 0l-144 223c-38 60 -55 80 -115 80h-89v-303h-108v700h108v-293h81c60 0 77 21 116 80l136 213h123l-159 -247c-41 -59 -63 -82 -88 -95c30 -10 53 -34 95 -100l166 -258h-122z" />
    <glyph glyph-name="Kcommaaccent" unicode="&#x136;" horiz-adv-x="732" 
d="M673 700l-159 -247c-41 -59 -63 -82 -88 -95c30 -10 53 -34 95 -100l166 -258h-122l-144 223c-38 60 -55 80 -115 80h-89v-303h-108v700h108v-293h81c60 0 77 21 116 80l136 213h123zM331 -200h-77l79 131h112z" />
    <glyph glyph-name="L" unicode="L" horiz-adv-x="598" 
d="M554 0h-445v700h108v-598h337v-102z" />
    <glyph glyph-name="Lacute" unicode="&#x139;" horiz-adv-x="598" 
d="M328 750h-77l79 132h112zM554 0h-445v700h108v-598h337v-102z" />
    <glyph glyph-name="Lcaron" unicode="&#x13d;" horiz-adv-x="598" 
d="M554 0h-445v700h108v-598h337v-102zM440 569h-77l79 131h112z" />
    <glyph glyph-name="Lcommaaccent" unicode="&#x13b;" horiz-adv-x="598" 
d="M554 0h-445v700h108v-598h337v-102zM287 -200h-77l79 131h112z" />
    <glyph glyph-name="Ldot" unicode="&#x13f;" horiz-adv-x="598" 
d="M554 0h-445v700h108v-598h337v-102zM492 296c-36 0 -62 28 -62 61s26 61 62 61s61 -28 61 -61s-25 -61 -61 -61z" />
    <glyph glyph-name="Lslash" unicode="&#x141;" horiz-adv-x="658" 
d="M614 102v-102h-445v363l-60 -26v63l60 26v274h108v-226l59 26v-63l-59 -26v-309h337z" />
    <glyph glyph-name="M" unicode="M" horiz-adv-x="895" 
d="M786 0h-108v498l-235 -296l-236 296v-498h-108v700h63l281 -355l281 355h62v-700z" />
    <glyph glyph-name="N" unicode="N" horiz-adv-x="739" 
d="M640 0h-63l-370 494v-494h-108v700h63l370 -494v494h108v-700z" />
    <glyph glyph-name="Nacute" unicode="&#x143;" horiz-adv-x="739" 
d="M375 750h-77l79 132h112zM640 0h-63l-370 494v-494h-108v700h63l370 -494v494h108v-700z" />
    <glyph glyph-name="Ncaron" unicode="&#x147;" horiz-adv-x="739" 
d="M364 826l66 58h79l-97 -134h-97l-97 134h79zM640 0h-63l-370 494v-494h-108v700h63l370 -494v494h108v-700z" />
    <glyph glyph-name="Ncommaaccent" unicode="&#x145;" horiz-adv-x="739" 
d="M640 0h-63l-370 494v-494h-108v700h63l370 -494v494h108v-700zM335 -200h-77l79 131h112z" />
    <glyph glyph-name="Eng" unicode="&#x14a;" horiz-adv-x="739" 
d="M640 700v-670c0 -152 -83 -228 -209 -221l-15 1l1 91h9c69 0 114 19 114 125v23l-333 445v-494h-108v700h63l370 -494v494h108z" />
    <glyph glyph-name="Ntilde" unicode="&#xd1;" horiz-adv-x="739" 
d="M305 866c22 2 41 -6 55 -17l40 -32c11 -9 23 -14 36 -13c17 0 26 10 34 31l7 21h48l-23 -61c-13 -36 -35 -54 -63 -56c-22 -1 -41 6 -54 17l-41 33c-12 9 -25 14 -38 13c-16 -1 -24 -11 -31 -31l-7 -21h-48l23 61c13 35 34 53 62 55zM640 0h-63l-370 494v-494h-108v700
h63l370 -494v494h108v-700z" />
    <glyph glyph-name="O" unicode="O" horiz-adv-x="840" 
d="M419 707c197 0 357 -160 357 -357c0 -198 -160 -357 -357 -357s-356 159 -356 357c0 197 159 357 356 357zM419 605c-139 0 -248 -107 -248 -255c0 -149 109 -255 248 -255s249 106 249 255c0 148 -110 255 -249 255z" />
    <glyph glyph-name="Oacute" unicode="&#xd3;" horiz-adv-x="840" 
d="M431 750h-77l79 132h112zM419 707c197 0 357 -160 357 -357c0 -198 -160 -357 -357 -357s-356 159 -356 357c0 197 159 357 356 357zM419 605c-139 0 -248 -107 -248 -255c0 -149 109 -255 248 -255s249 106 249 255c0 148 -110 255 -249 255z" />
    <glyph glyph-name="Ocaron" unicode="&#x1d1;" horiz-adv-x="840" 
d="M468 750h-97l-97 133h79l67 -58l66 59h79zM419 707c197 0 357 -160 357 -357c0 -198 -160 -357 -357 -357s-356 159 -356 357c0 197 159 357 356 357zM419 605c-139 0 -248 -107 -248 -255c0 -149 109 -255 248 -255s249 106 249 255c0 148 -110 255 -249 255z" />
    <glyph glyph-name="Ocircumflex" unicode="&#xd4;" horiz-adv-x="840" 
d="M565 750h-79l-66 58l-67 -58h-79l97 134h97zM419 707c197 0 357 -160 357 -357c0 -198 -160 -357 -357 -357s-356 159 -356 357c0 197 159 357 356 357zM419 605c-139 0 -248 -107 -248 -255c0 -149 109 -255 248 -255s249 106 249 255c0 148 -110 255 -249 255z" />
    <glyph glyph-name="Odieresis" unicode="&#xd6;" horiz-adv-x="840" 
d="M315 750c-34 0 -60 24 -60 54c0 29 26 53 60 53c33 0 59 -24 59 -53c0 -30 -26 -54 -59 -54zM526 750c-34 0 -60 24 -60 54c0 29 26 53 60 53c33 0 59 -24 59 -53c0 -30 -26 -54 -59 -54zM419 707c197 0 357 -160 357 -357c0 -198 -160 -357 -357 -357s-356 159 -356 357
c0 197 159 357 356 357zM419 605c-139 0 -248 -107 -248 -255c0 -149 109 -255 248 -255s249 106 249 255c0 148 -110 255 -249 255z" />
    <glyph glyph-name="Ograve" unicode="&#xd2;" horiz-adv-x="840" 
d="M403 882l79 -132h-77l-114 132h112zM419 707c197 0 357 -160 357 -357c0 -198 -160 -357 -357 -357s-356 159 -356 357c0 197 159 357 356 357zM419 605c-139 0 -248 -107 -248 -255c0 -149 109 -255 248 -255s249 106 249 255c0 148 -110 255 -249 255z" />
    <glyph glyph-name="Ohungarumlaut" unicode="&#x150;" horiz-adv-x="840" 
d="M363 750h-77l79 132h112zM519 750h-77l79 132h112zM419 707c197 0 357 -160 357 -357c0 -198 -160 -357 -357 -357s-356 159 -356 357c0 197 159 357 356 357zM419 605c-139 0 -248 -107 -248 -255c0 -149 109 -255 248 -255s249 106 249 255c0 148 -110 255 -249 255z
" />
    <glyph glyph-name="Omacron" unicode="&#x14c;" horiz-adv-x="840" 
d="M549 750h-258v75h258v-75zM419 707c197 0 357 -160 357 -357c0 -198 -160 -357 -357 -357s-356 159 -356 357c0 197 159 357 356 357zM419 605c-139 0 -248 -107 -248 -255c0 -149 109 -255 248 -255s249 106 249 255c0 148 -110 255 -249 255z" />
    <glyph glyph-name="Oslash" unicode="&#xd8;" horiz-adv-x="840" 
d="M776 700l-97 -105c60 -64 97 -150 97 -245c0 -198 -160 -357 -357 -357c-85 0 -162 29 -223 78l-66 -71h-67l97 105c-60 64 -97 150 -97 245c0 197 159 357 356 357c85 0 162 -30 224 -79l66 72h67zM171 350c0 -67 22 -125 59 -169l343 372c-42 33 -95 52 -154 52
c-139 0 -248 -107 -248 -255zM668 350c0 67 -22 125 -59 169l-344 -372c42 -33 95 -52 154 -52c139 0 249 106 249 255z" />
    <glyph glyph-name="Otilde" unicode="&#xd5;" horiz-adv-x="840" 
d="M572 856l-23 -61c-13 -36 -35 -54 -63 -56c-22 -1 -41 6 -54 17l-41 33c-12 9 -25 14 -38 13c-16 -1 -24 -11 -31 -31l-7 -21h-48l23 61c13 35 34 53 62 55c22 2 41 -6 55 -17l40 -32c11 -9 23 -14 36 -13c17 0 26 10 34 31l7 21h48zM419 707c197 0 357 -160 357 -357
c0 -198 -160 -357 -357 -357s-356 159 -356 357c0 197 159 357 356 357zM419 605c-139 0 -248 -107 -248 -255c0 -149 109 -255 248 -255s249 106 249 255c0 148 -110 255 -249 255z" />
    <glyph glyph-name="OE" unicode="&#x152;" horiz-adv-x="1178" 
d="M776 404h323v-102h-323v-200h347v-102h-455v126c-51 -79 -144 -133 -249 -133c-197 0 -356 159 -356 357c0 197 159 357 356 357c105 0 198 -54 249 -133v126h455v-102h-347v-194zM419 95c139 0 249 106 249 255c0 148 -110 255 -249 255s-248 -107 -248 -255
c0 -149 109 -255 248 -255z" />
    <glyph glyph-name="P" unicode="P" horiz-adv-x="707" 
d="M109 700h226c187 0 308 -106 308 -263c0 -158 -121 -263 -308 -263h-118v-174h-108v700zM217 275h125c105 0 199 47 199 162c0 111 -94 161 -199 161h-125v-323z" />
    <glyph glyph-name="Thorn" unicode="&#xde;" horiz-adv-x="707" 
d="M217 623h118c187 0 308 -106 308 -263c0 -158 -121 -264 -308 -264h-118v-96h-108v700h108v-77zM217 198h125c105 0 199 47 199 162c0 111 -94 161 -199 161h-125v-323z" />
    <glyph glyph-name="Q" unicode="Q" horiz-adv-x="867" 
d="M419 707c197 0 357 -160 357 -357c0 -109 -57 -204 -139 -255h166v-102h-384c-197 0 -356 159 -356 357c0 197 159 357 356 357zM419 605c-139 0 -248 -107 -248 -255c0 -149 109 -255 248 -255s249 106 249 255c0 148 -110 255 -249 255z" />
    <glyph glyph-name="R" unicode="R" horiz-adv-x="698" 
d="M109 700h232c187 0 302 -106 302 -258c0 -111 -64 -188 -165 -223c35 -17 67 -52 110 -119l65 -100h-121l-52 80c-56 87 -81 102 -153 104h-110v-184h-108v700zM217 598v-313h133c105 0 191 47 191 157c0 106 -86 156 -191 156h-133z" />
    <glyph glyph-name="Racute" unicode="&#x154;" horiz-adv-x="698" 
d="M344 750h-77l79 132h112zM109 700h232c187 0 302 -106 302 -258c0 -111 -64 -188 -165 -223c35 -17 67 -52 110 -119l65 -100h-121l-52 80c-56 87 -81 102 -153 104h-110v-184h-108v700zM217 598v-313h133c105 0 191 47 191 157c0 106 -86 156 -191 156h-133z" />
    <glyph glyph-name="Rcaron" unicode="&#x158;" horiz-adv-x="698" 
d="M401 750h-97l-97 133h79l67 -57l66 58h79zM109 700h232c187 0 302 -106 302 -258c0 -111 -64 -188 -165 -223c35 -17 67 -52 110 -119l65 -100h-121l-52 80c-56 87 -81 102 -153 104h-110v-184h-108v700zM217 598v-313h133c105 0 191 47 191 157c0 106 -86 156 -191 156
h-133z" />
    <glyph glyph-name="Rcommaaccent" unicode="&#x156;" horiz-adv-x="698" 
d="M109 700h232c187 0 302 -106 302 -258c0 -111 -64 -188 -165 -223c35 -17 67 -52 110 -119l65 -100h-121l-52 80c-56 87 -81 102 -153 104h-110v-184h-108v700zM217 598v-313h133c105 0 191 47 191 157c0 106 -86 156 -191 156h-133zM313 -200h-77l79 131h112z" />
    <glyph glyph-name="S" unicode="S" horiz-adv-x="669" 
d="M321 707h9c99 0 196 -46 261 -116l-70 -65c-50 49 -129 80 -191 80h-9c-61 0 -142 -29 -142 -101c0 -54 51 -75 133 -86l66 -8c141 -17 236 -71 236 -207c0 -130 -117 -210 -265 -211h-5c-140 0 -241 65 -290 147l70 65c32 -58 108 -111 220 -111h5c91 1 157 42 157 110
c0 70 -56 96 -142 107l-66 8c-137 16 -227 69 -227 183c0 126 113 204 250 205z" />
    <glyph glyph-name="Sacute" unicode="&#x15a;" horiz-adv-x="669" 
d="M335 750h-77l79 132h112zM321 707h9c99 0 196 -46 261 -116l-70 -65c-50 49 -129 80 -191 80h-9c-61 0 -142 -29 -142 -101c0 -54 51 -75 133 -86l66 -8c141 -17 236 -71 236 -207c0 -130 -117 -210 -265 -211h-5c-140 0 -241 65 -290 147l70 65
c32 -58 108 -111 220 -111h5c91 1 157 42 157 110c0 70 -56 96 -142 107l-66 8c-137 16 -227 69 -227 183c0 126 113 204 250 205z" />
    <glyph glyph-name="Scaron" unicode="&#x160;" horiz-adv-x="669" 
d="M376 750h-97l-97 133h79l67 -57l66 58h79zM321 707h9c99 0 196 -46 261 -116l-70 -65c-50 49 -129 80 -191 80h-9c-61 0 -142 -29 -142 -101c0 -54 51 -75 133 -86l66 -8c141 -17 236 -71 236 -207c0 -130 -117 -210 -265 -211h-5c-140 0 -241 65 -290 147l70 65
c32 -58 108 -111 220 -111h5c91 1 157 42 157 110c0 70 -56 96 -142 107l-66 8c-137 16 -227 69 -227 183c0 126 113 204 250 205z" />
    <glyph glyph-name="Scedilla" unicode="&#x15e;" horiz-adv-x="669" 
d="M347 -7l-9 -31c36 11 82 -4 82 -60s-61 -88 -136 -45v30c36 -22 72 -11 72 18c0 25 -21 39 -64 20l22 69c-124 9 -215 70 -260 146l70 65c32 -58 108 -111 220 -111h5c91 1 157 42 157 110c0 70 -56 96 -142 107l-66 8c-137 16 -227 69 -227 183c0 126 113 204 250 205h9
c99 0 196 -46 261 -116l-70 -65c-50 49 -129 80 -191 80h-9c-61 0 -142 -29 -142 -101c0 -54 51 -75 133 -86l66 -8c141 -17 236 -71 236 -207c0 -130 -117 -210 -265 -211h-2z" />
    <glyph glyph-name="Scommaaccent" unicode="&#x218;" horiz-adv-x="669" 
d="M321 707h9c99 0 196 -46 261 -116l-70 -65c-50 49 -129 80 -191 80h-9c-61 0 -142 -29 -142 -101c0 -54 51 -75 133 -86l66 -8c141 -17 236 -71 236 -207c0 -130 -117 -210 -265 -211h-5c-140 0 -241 65 -290 147l70 65c32 -58 108 -111 220 -111h5c91 1 157 42 157 110
c0 70 -56 96 -142 107l-66 8c-137 16 -227 69 -227 183c0 126 113 204 250 205zM306 -200h-77l79 131h112z" />
    <glyph glyph-name="T" unicode="T" horiz-adv-x="606" 
d="M356 598v-598h-108v598h-204v102h517v-102h-205z" />
    <glyph glyph-name="Tbar" unicode="&#x166;" horiz-adv-x="606" 
d="M356 598v-197h76v-74h-76v-327h-108v327h-75v74h75v197h-204v102h517v-102h-205z" />
    <glyph glyph-name="Tcaron" unicode="&#x164;" horiz-adv-x="606" 
d="M353 750h-97l-97 133h79l67 -57l66 58h79zM356 598v-598h-108v598h-204v102h517v-102h-205z" />
    <glyph glyph-name="Tcedilla" unicode="&#x162;" horiz-adv-x="606" 
d="M314 0l-11 -38c36 11 82 -4 82 -60s-61 -88 -136 -45v30c36 -22 72 -11 72 18c0 25 -21 39 -64 20l24 75h-33v598h-204v102h517v-102h-205v-598h-42z" />
    <glyph glyph-name="uni021A" unicode="&#x21a;" horiz-adv-x="606" 
d="M356 598v-598h-108v598h-204v102h517v-102h-205zM272 -200h-77l79 131h112z" />
    <glyph glyph-name="U" unicode="U" horiz-adv-x="777" 
d="M678 700v-403c0 -196 -127 -304 -285 -304c-157 0 -284 108 -284 304v403h108v-400c0 -142 77 -205 176 -205c100 0 177 63 177 205v400h108z" />
    <glyph glyph-name="Uacute" unicode="&#xda;" horiz-adv-x="777" 
d="M400 750h-77l79 132h112zM678 700v-403c0 -196 -127 -304 -285 -304c-157 0 -284 108 -284 304v403h108v-400c0 -142 77 -205 176 -205c100 0 177 63 177 205v400h108z" />
    <glyph glyph-name="Ucaron" unicode="&#x1d3;" horiz-adv-x="777" 
d="M442 750h-97l-97 133h79l67 -57l66 58h79zM678 700v-403c0 -196 -127 -304 -285 -304c-157 0 -284 108 -284 304v403h108v-400c0 -142 77 -205 176 -205c100 0 177 63 177 205v400h108z" />
    <glyph glyph-name="Ucircumflex" unicode="&#xdb;" horiz-adv-x="777" 
d="M460 750l-66 58l-67 -58h-79l97 134h97l97 -134h-79zM678 700v-403c0 -196 -127 -304 -285 -304c-157 0 -284 108 -284 304v403h108v-400c0 -142 77 -205 176 -205c100 0 177 63 177 205v400h108z" />
    <glyph glyph-name="Udieresis" unicode="&#xdc;" horiz-adv-x="777" 
d="M289 750c-34 0 -60 24 -60 54c0 29 26 53 60 53c33 0 59 -24 59 -53c0 -30 -26 -54 -59 -54zM500 750c-34 0 -60 24 -60 54c0 29 26 53 60 53c33 0 59 -24 59 -53c0 -30 -26 -54 -59 -54zM678 700v-403c0 -196 -127 -304 -285 -304c-157 0 -284 108 -284 304v403h108
v-400c0 -142 77 -205 176 -205c100 0 177 63 177 205v400h108z" />
    <glyph glyph-name="Udieresisacute" unicode="&#x1d7;" horiz-adv-x="777" 
d="M399 889h-77l79 131h112zM289 750c-34 0 -60 24 -60 54c0 29 26 53 60 53c33 0 59 -24 59 -53c0 -30 -26 -54 -59 -54zM500 750c-34 0 -60 24 -60 54c0 29 26 53 60 53c33 0 59 -24 59 -53c0 -30 -26 -54 -59 -54zM678 700v-403c0 -196 -127 -304 -285 -304
c-157 0 -284 108 -284 304v403h108v-400c0 -142 77 -205 176 -205c100 0 177 63 177 205v400h108z" />
    <glyph glyph-name="Udieresiscaron" unicode="&#x1d9;" horiz-adv-x="777" 
d="M393 964l66 58h79l-97 -133h-97l-97 134h79zM289 857c33 0 59 -24 59 -53c0 -30 -26 -54 -59 -54c-34 0 -60 24 -60 54c0 29 26 53 60 53zM500 857c33 0 59 -24 59 -53c0 -30 -26 -54 -59 -54c-34 0 -60 24 -60 54c0 29 26 53 60 53zM678 700v-403
c0 -196 -127 -304 -285 -304c-157 0 -284 108 -284 304v403h108v-400c0 -142 77 -205 176 -205c100 0 177 63 177 205v400h108z" />
    <glyph glyph-name="Udieresisgrave" unicode="&#x1db;" horiz-adv-x="777" 
d="M384 1020l79 -131h-77l-114 131h112zM289 750c-34 0 -60 24 -60 54c0 29 26 53 60 53c33 0 59 -24 59 -53c0 -30 -26 -54 -59 -54zM500 750c-34 0 -60 24 -60 54c0 29 26 53 60 53c33 0 59 -24 59 -53c0 -30 -26 -54 -59 -54zM678 700v-403c0 -196 -127 -304 -285 -304
c-157 0 -284 108 -284 304v403h108v-400c0 -142 77 -205 176 -205c100 0 177 63 177 205v400h108z" />
    <glyph glyph-name="Udieresismacron" unicode="&#x1d5;" horiz-adv-x="777" 
d="M523 889h-258v74h258v-74zM289 750c-34 0 -60 24 -60 54c0 29 26 53 60 53c33 0 59 -24 59 -53c0 -30 -26 -54 -59 -54zM500 750c-34 0 -60 24 -60 54c0 29 26 53 60 53c33 0 59 -24 59 -53c0 -30 -26 -54 -59 -54zM678 700v-403c0 -196 -127 -304 -285 -304
c-157 0 -284 108 -284 304v403h108v-400c0 -142 77 -205 176 -205c100 0 177 63 177 205v400h108z" />
    <glyph glyph-name="Ugrave" unicode="&#xd9;" horiz-adv-x="777" 
d="M381 882l79 -132h-77l-114 132h112zM678 700v-403c0 -196 -127 -304 -285 -304c-157 0 -284 108 -284 304v403h108v-400c0 -142 77 -205 176 -205c100 0 177 63 177 205v400h108z" />
    <glyph glyph-name="Uhungarumlaut" unicode="&#x170;" horiz-adv-x="777" 
d="M311 750h-77l79 132h112zM466 750h-77l79 132h112zM678 700v-403c0 -196 -127 -304 -285 -304c-157 0 -284 108 -284 304v403h108v-400c0 -142 77 -205 176 -205c100 0 177 63 177 205v400h108z" />
    <glyph glyph-name="Umacron" unicode="&#x16a;" horiz-adv-x="777" 
d="M522 750h-258v75h258v-75zM678 700v-403c0 -196 -127 -304 -285 -304c-157 0 -284 108 -284 304v403h108v-400c0 -142 77 -205 176 -205c100 0 177 63 177 205v400h108z" />
    <glyph glyph-name="Uogonek" unicode="&#x172;" horiz-adv-x="777" 
d="M678 700v-403c0 -170 -95 -273 -223 -298c-48 -19 -62 -37 -62 -60c0 -26 22 -40 52 -40h12v-63h-7c-53 0 -102 23 -102 78c0 33 20 59 63 79h-18c-157 0 -284 108 -284 304v403h108v-400c0 -142 77 -205 176 -205c100 0 177 63 177 205v400h108z" />
    <glyph glyph-name="Uring" unicode="&#x16e;" horiz-adv-x="777" 
d="M393 927c49 0 89 -40 89 -88c0 -49 -40 -89 -89 -89s-88 40 -88 89c0 48 39 88 88 88zM394 876c-22 0 -37 -17 -37 -37c0 -21 15 -38 37 -38c21 0 36 17 36 38c0 20 -15 37 -36 37zM678 700v-403c0 -196 -127 -304 -285 -304c-157 0 -284 108 -284 304v403h108v-400
c0 -142 77 -205 176 -205c100 0 177 63 177 205v400h108z" />
    <glyph glyph-name="V" unicode="V" horiz-adv-x="732" 
d="M398 0h-63l-291 700h119l203 -501l201 501h120z" />
    <glyph glyph-name="W" unicode="W" horiz-adv-x="1166" 
d="M841 0h-62l-196 481l-196 -481h-63l-280 700h119l191 -500l197 500h63l197 -500l191 500h119z" />
    <glyph glyph-name="Wacute" unicode="&#x1e82;" horiz-adv-x="1166" 
d="M589 750h-77l79 132h112zM841 0h-62l-196 481l-196 -481h-63l-280 700h119l191 -500l197 500h63l197 -500l191 500h119z" />
    <glyph glyph-name="Wcircumflex" unicode="&#x174;" horiz-adv-x="1166" 
d="M650 750l-66 58l-67 -58h-79l97 134h97l97 -134h-79zM841 0h-62l-196 481l-196 -481h-63l-280 700h119l191 -500l197 500h63l197 -500l191 500h119z" />
    <glyph glyph-name="Wdieresis" unicode="&#x1e84;" horiz-adv-x="1166" 
d="M478 750c-34 0 -60 24 -60 54c0 29 26 53 60 53c33 0 59 -24 59 -53c0 -30 -26 -54 -59 -54zM689 750c-34 0 -60 24 -60 54c0 29 26 53 60 53c33 0 59 -24 59 -53c0 -30 -26 -54 -59 -54zM841 0h-62l-196 481l-196 -481h-63l-280 700h119l191 -500l197 500h63l197 -500
l191 500h119z" />
    <glyph glyph-name="Wgrave" unicode="&#x1e80;" horiz-adv-x="1166" 
d="M573 882l79 -132h-77l-114 132h112zM841 0h-62l-196 481l-196 -481h-63l-280 700h119l191 -500l197 500h63l197 -500l191 500h119z" />
    <glyph glyph-name="X" unicode="X" horiz-adv-x="707" 
d="M352 264l-184 -264h-124l248 363l-234 337h124l173 -243l169 243h124l-234 -342l248 -358h-124z" />
    <glyph glyph-name="Y" unicode="Y" horiz-adv-x="713" 
d="M410 0h-108v237l-258 463h123l189 -331l189 331h123l-258 -463v-237z" />
    <glyph glyph-name="Yacute" unicode="&#xdd;" horiz-adv-x="713" 
d="M364 750h-77l79 132h112zM410 0h-108v237l-258 463h123l189 -331l189 331h123l-258 -463v-237z" />
    <glyph glyph-name="Ycircumflex" unicode="&#x176;" horiz-adv-x="713" 
d="M423 750l-66 58l-67 -58h-79l97 134h97l97 -134h-79zM410 0h-108v237l-258 463h123l189 -331l189 331h123l-258 -463v-237z" />
    <glyph glyph-name="Ydieresis" unicode="&#x178;" horiz-adv-x="713" 
d="M251 750c-34 0 -60 24 -60 54c0 29 26 53 60 53c33 0 59 -24 59 -53c0 -30 -26 -54 -59 -54zM463 750c-34 0 -60 24 -60 54c0 29 26 53 60 53c33 0 59 -24 59 -53c0 -30 -26 -54 -59 -54zM410 0h-108v237l-258 463h123l189 -331l189 331h123l-258 -463v-237z" />
    <glyph glyph-name="Ygrave" unicode="&#x1ef2;" horiz-adv-x="713" 
d="M338 882l79 -132h-77l-114 132h112zM410 0h-108v237l-258 463h123l189 -331l189 331h123l-258 -463v-237z" />
    <glyph glyph-name="Z" unicode="Z" horiz-adv-x="627" 
d="M572 0h-518v62l359 536h-329v102h480v-62l-359 -536h367v-102z" />
    <glyph glyph-name="Zacute" unicode="&#x179;" horiz-adv-x="627" 
d="M321 750h-77l79 132h112zM572 0h-518v62l359 536h-329v102h480v-62l-359 -536h367v-102z" />
    <glyph glyph-name="Zcaron" unicode="&#x17d;" horiz-adv-x="627" 
d="M364 750h-97l-97 133h79l67 -57l66 58h79zM572 0h-518v62l359 536h-329v102h480v-62l-359 -536h367v-102z" />
    <glyph glyph-name="Zdotaccent" unicode="&#x17b;" horiz-adv-x="627" 
d="M310 750c-34 0 -60 24 -60 54c0 29 26 53 60 53c33 0 59 -24 59 -53c0 -30 -26 -54 -59 -54zM572 0h-518v62l359 536h-329v102h480v-62l-359 -536h367v-102z" />
    <glyph glyph-name="K.ss01" horiz-adv-x="724" 
d="M217 303v-303h-108v700h108v-293h132l201 293h123l-234 -344l241 -356h-123l-209 303h-131z" />
    <glyph glyph-name="Kcommaaccent.ss01" horiz-adv-x="724" 
d="M217 303v-303h-108v700h108v-293h132l201 293h123l-234 -344l241 -356h-123l-209 303h-131zM338 -200h-77l79 131h112z" />
    <glyph glyph-name="R.ss01" horiz-adv-x="697" 
d="M109 700h234c188 0 300 -106 300 -258c0 -112 -61 -195 -163 -233l169 -209h-122l-154 187c-11 -2 -23 -3 -35 -3h-121v-184h-108v700zM217 598v-313h134c105 0 190 47 190 157c0 106 -85 156 -190 156h-134z" />
    <glyph glyph-name="Racute.ss01" horiz-adv-x="697" 
d="M345 750h-77l79 132h112zM109 700h234c188 0 300 -106 300 -258c0 -112 -61 -195 -163 -233l169 -209h-122l-154 187c-11 -2 -23 -3 -35 -3h-121v-184h-108v700zM217 598v-313h134c105 0 190 47 190 157c0 106 -85 156 -190 156h-134z" />
    <glyph glyph-name="Rcaron.ss01" horiz-adv-x="697" 
d="M383 750h-97l-97 133h79l67 -57l66 58h79zM109 700h234c188 0 300 -106 300 -258c0 -112 -61 -195 -163 -233l169 -209h-122l-154 187c-11 -2 -23 -3 -35 -3h-121v-184h-108v700zM217 598v-313h134c105 0 190 47 190 157c0 106 -85 156 -190 156h-134z" />
    <glyph glyph-name="Rcommaaccent.ss01" horiz-adv-x="697" 
d="M109 700h234c188 0 300 -106 300 -258c0 -112 -61 -195 -163 -233l169 -209h-122l-154 187c-11 -2 -23 -3 -35 -3h-121v-184h-108v700zM217 598v-313h134c105 0 190 47 190 157c0 106 -85 156 -190 156h-134zM320 -200h-77l79 131h112z" />
    <glyph glyph-name="a" unicode="a" horiz-adv-x="653" 
d="M564 0h-68l-6 92c-37 -59 -105 -98 -184 -98c-142 0 -247 114 -247 256s105 257 247 257c79 0 147 -40 184 -99l6 92h68v-500zM315 90c83 0 157 65 157 160s-74 161 -157 161s-156 -66 -156 -161s73 -160 156 -160z" />
    <glyph glyph-name="aacute" unicode="&#xe1;" horiz-adv-x="653" 
d="M331 553h-77l79 132h112zM564 0h-68l-6 92c-37 -59 -105 -98 -184 -98c-142 0 -247 114 -247 256s105 257 247 257c79 0 147 -40 184 -99l6 92h68v-500zM315 90c83 0 157 65 157 160s-74 161 -157 161s-156 -66 -156 -161s73 -160 156 -160z" />
    <glyph glyph-name="abreve" unicode="&#x103;" horiz-adv-x="653" 
d="M395 694h70c0 -81 -67 -141 -150 -141s-150 60 -150 141h70c0 -40 35 -70 80 -70s80 30 80 70zM306 507c79 0 147 -40 184 -99l6 92h68v-500h-68l-6 92c-37 -59 -105 -98 -184 -98c-142 0 -247 114 -247 256s105 257 247 257zM315 411c-83 0 -156 -66 -156 -161
s73 -160 156 -160s157 65 157 160s-74 161 -157 161z" />
    <glyph glyph-name="acaron" unicode="&#x1ce;" horiz-adv-x="653" 
d="M364 553h-97l-97 134h79l67 -58l66 58h79zM564 0h-68l-6 92c-37 -59 -105 -98 -184 -98c-142 0 -247 114 -247 256s105 257 247 257c79 0 147 -40 184 -99l6 92h68v-500zM315 90c83 0 157 65 157 160s-74 161 -157 161s-156 -66 -156 -161s73 -160 156 -160z" />
    <glyph glyph-name="acircumflex" unicode="&#xe2;" horiz-adv-x="653" 
d="M381 553l-66 59l-67 -58h-79l97 133h97l97 -134h-79zM564 0h-68l-6 92c-37 -59 -105 -98 -184 -98c-142 0 -247 114 -247 256s105 257 247 257c79 0 147 -40 184 -99l6 92h68v-500zM315 90c83 0 157 65 157 160s-74 161 -157 161s-156 -66 -156 -161s73 -160 156 -160z
" />
    <glyph glyph-name="adieresis" unicode="&#xe4;" horiz-adv-x="653" 
d="M210 553c-34 0 -60 24 -60 54s26 53 60 53c33 0 59 -23 59 -53s-26 -54 -59 -54zM422 553c-34 0 -60 24 -60 54s26 53 60 53c33 0 59 -23 59 -53s-26 -54 -59 -54zM564 0h-68l-6 92c-37 -59 -105 -98 -184 -98c-142 0 -247 114 -247 256s105 257 247 257
c79 0 147 -40 184 -99l6 92h68v-500zM315 90c83 0 157 65 157 160s-74 161 -157 161s-156 -66 -156 -161s73 -160 156 -160z" />
    <glyph glyph-name="agrave" unicode="&#xe0;" horiz-adv-x="653" 
d="M314 685l79 -132h-77l-114 132h112zM564 0h-68l-6 92c-37 -59 -105 -98 -184 -98c-142 0 -247 114 -247 256s105 257 247 257c79 0 147 -40 184 -99l6 92h68v-500zM315 90c83 0 157 65 157 160s-74 161 -157 161s-156 -66 -156 -161s73 -160 156 -160z" />
    <glyph glyph-name="amacron" unicode="&#x101;" horiz-adv-x="653" 
d="M454 553h-258v75h258v-75zM564 0h-68l-6 92c-37 -59 -105 -98 -184 -98c-142 0 -247 114 -247 256s105 257 247 257c79 0 147 -40 184 -99l6 92h68v-500zM315 90c83 0 157 65 157 160s-74 161 -157 161s-156 -66 -156 -161s73 -160 156 -160z" />
    <glyph glyph-name="aogonek" unicode="&#x105;" horiz-adv-x="653" 
d="M564 500v-500c-50 -19 -65 -38 -65 -61c0 -26 22 -40 52 -40h12v-63h-7c-53 0 -102 23 -102 78c0 37 24 64 78 86h-36l-6 92c-37 -59 -105 -98 -184 -98c-142 0 -247 114 -247 256s105 257 247 257c79 0 147 -40 184 -99l6 92h68zM315 90c83 0 157 65 157 160
s-74 161 -157 161s-156 -66 -156 -161s73 -160 156 -160z" />
    <glyph glyph-name="aring" unicode="&#xe5;" horiz-adv-x="653" 
d="M315 731c49 0 89 -40 89 -89s-40 -89 -89 -89s-88 40 -88 89s39 89 88 89zM316 680c-22 0 -37 -18 -37 -38s15 -38 37 -38c21 0 36 18 36 38s-15 38 -36 38zM564 0h-68l-6 92c-37 -59 -105 -98 -184 -98c-142 0 -247 114 -247 256s105 257 247 257c79 0 147 -40 184 -99
l6 92h68v-500zM315 90c83 0 157 65 157 160s-74 161 -157 161s-156 -66 -156 -161s73 -160 156 -160z" />
    <glyph glyph-name="atilde" unicode="&#xe3;" horiz-adv-x="653" 
d="M471 659l-23 -60c-13 -36 -35 -54 -63 -56c-22 -2 -41 6 -54 17l-41 33c-12 8 -25 14 -38 12c-16 -1 -24 -11 -31 -31l-7 -21h-48l23 61c13 36 34 54 62 56c22 2 41 -6 55 -17l40 -33c11 -8 23 -14 36 -13c17 0 26 11 34 31l7 21h48zM564 0h-68l-6 92
c-37 -59 -105 -98 -184 -98c-142 0 -247 114 -247 256s105 257 247 257c79 0 147 -40 184 -99l6 92h68v-500zM315 90c83 0 157 65 157 160s-74 161 -157 161s-156 -66 -156 -161s73 -160 156 -160z" />
    <glyph glyph-name="ae" unicode="&#xe6;" horiz-adv-x="1018" 
d="M306 507c79 0 147 -40 184 -99l6 92h68v-72c33 47 91 79 161 79c108 0 185 -54 222 -141c19 -42 21 -104 9 -142h-381c0 -88 67 -139 156 -139c58 0 114 16 161 44l54 -58c-55 -42 -128 -77 -215 -77c-74 0 -133 29 -167 78v-72h-68l-6 92c-37 -59 -105 -98 -184 -98
c-142 0 -247 114 -247 256s105 257 247 257zM726 416c-85 0 -143 -60 -147 -128h287c0 15 -4 34 -12 49c-21 46 -66 79 -128 79zM315 411c-83 0 -156 -66 -156 -161s73 -160 156 -160s157 65 157 160s-74 161 -157 161z" />
    <glyph glyph-name="b" unicode="b" horiz-adv-x="653" 
d="M189 700v-275c32 49 91 82 158 82c142 0 247 -115 247 -257s-105 -256 -247 -256c-79 0 -147 39 -184 98l-6 -92h-68v700h100zM339 411c-83 0 -157 -66 -157 -161s74 -160 157 -160s156 65 156 160s-73 161 -156 161z" />
    <glyph glyph-name="c" unicode="c" horiz-adv-x="566" 
d="M315 506c79 0 150 -36 197 -92l-60 -65c-41 43 -85 61 -137 61c-83 0 -156 -65 -156 -160s73 -160 156 -160c52 0 96 19 137 61l60 -65c-47 -56 -118 -92 -197 -92c-142 0 -256 114 -256 256s114 256 256 256z" />
    <glyph glyph-name="cacute" unicode="&#x107;" horiz-adv-x="566" 
d="M306 553h-77l79 132h112zM315 506c79 0 150 -36 197 -92l-60 -65c-41 43 -85 61 -137 61c-83 0 -156 -65 -156 -160s73 -160 156 -160c52 0 96 19 137 61l60 -65c-47 -56 -118 -92 -197 -92c-142 0 -256 114 -256 256s114 256 256 256z" />
    <glyph glyph-name="ccaron" unicode="&#x10d;" horiz-adv-x="566" 
d="M363 553h-97l-97 134h79l67 -58l66 58h79zM315 506c79 0 150 -36 197 -92l-60 -65c-41 43 -85 61 -137 61c-83 0 -156 -65 -156 -160s73 -160 156 -160c52 0 96 19 137 61l60 -65c-47 -56 -118 -92 -197 -92c-142 0 -256 114 -256 256s114 256 256 256z" />
    <glyph glyph-name="ccedilla" unicode="&#xe7;" horiz-adv-x="566" 
d="M315 90c52 0 96 19 137 61l60 -65c-47 -56 -117 -92 -196 -92l-9 -32c36 11 82 -4 82 -60s-61 -88 -136 -45v30c36 -22 72 -11 72 18c0 25 -21 39 -64 20l23 71c-127 15 -225 123 -225 254c0 142 114 256 256 256c79 0 150 -36 197 -92l-60 -65c-41 43 -85 61 -137 61
c-83 0 -156 -65 -156 -160s73 -160 156 -160z" />
    <glyph glyph-name="cdotaccent" unicode="&#x10b;" horiz-adv-x="566" 
d="M315 660c33 0 59 -23 59 -53s-26 -54 -59 -54c-34 0 -60 24 -60 54s26 53 60 53zM315 506c79 0 150 -36 197 -92l-60 -65c-41 43 -85 61 -137 61c-83 0 -156 -65 -156 -160s73 -160 156 -160c52 0 96 19 137 61l60 -65c-47 -56 -118 -92 -197 -92
c-142 0 -256 114 -256 256s114 256 256 256z" />
    <glyph glyph-name="d" unicode="d" horiz-adv-x="653" 
d="M564 0h-68l-6 92c-37 -59 -105 -98 -184 -98c-142 0 -247 114 -247 256s105 257 247 257c67 0 126 -33 158 -82v275h100v-700zM315 90c83 0 157 65 157 160s-74 161 -157 161s-156 -66 -156 -161s73 -160 156 -160z" />
    <glyph glyph-name="eth" unicode="&#xf0;" horiz-adv-x="661" 
d="M561 661l-40 -36c33 -43 51 -100 51 -166v-201c0 -159 -111 -266 -256 -266c-155 0 -257 115 -257 251c0 137 97 247 239 247c76 0 144 -41 174 -100v69c0 42 -8 77 -23 103l-63 -56l-35 39l62 55c-23 15 -52 22 -88 22c-62 1 -112 -18 -161 -47l-57 61
c55 46 128 77 218 77c65 0 118 -18 158 -50l42 37zM315 88c87 0 157 65 157 155s-73 155 -157 155c-83 0 -156 -65 -156 -155s71 -155 156 -155z" />
    <glyph glyph-name="dcaron" unicode="&#x10f;" horiz-adv-x="876" 
d="M564 0h-68l-6 92c-37 -59 -105 -98 -184 -98c-142 0 -247 114 -247 256s105 257 247 257c67 0 126 -33 158 -82v275h100v-700zM673 569h-77l79 131h112zM315 90c83 0 157 65 157 160s-74 161 -157 161s-156 -66 -156 -161s73 -160 156 -160z" />
    <glyph glyph-name="dcroat" unicode="&#x111;" horiz-adv-x="722" 
d="M633 555h-69v-555h-68l-6 92c-37 -59 -105 -98 -184 -98c-142 0 -247 114 -247 256s105 257 247 257c67 0 126 -33 158 -82v130h-69v74h69v71h100v-71h69v-74zM315 90c83 0 157 65 157 160s-74 161 -157 161s-156 -66 -156 -161s73 -160 156 -160z" />
    <glyph glyph-name="e" unicode="e" horiz-adv-x="605" 
d="M312 507c108 0 185 -54 222 -141c19 -42 21 -104 9 -142h-381c0 -88 67 -139 156 -139c58 0 114 16 161 44l54 -58c-55 -42 -128 -77 -215 -77c-154 0 -259 108 -259 256c0 142 98 257 253 257zM313 416c-85 0 -143 -60 -147 -128h287c0 15 -4 34 -12 49
c-21 46 -66 79 -128 79z" />
    <glyph glyph-name="eacute" unicode="&#xe9;" horiz-adv-x="605" 
d="M325 553h-77l79 132h112zM312 507c108 0 185 -54 222 -141c19 -42 21 -104 9 -142h-381c0 -88 67 -139 156 -139c58 0 114 16 161 44l54 -58c-55 -42 -128 -77 -215 -77c-154 0 -259 108 -259 256c0 142 98 257 253 257zM313 416c-85 0 -143 -60 -147 -128h287
c0 15 -4 34 -12 49c-21 46 -66 79 -128 79z" />
    <glyph glyph-name="ecaron" unicode="&#x11b;" horiz-adv-x="605" 
d="M361 553h-97l-97 134h79l67 -58l66 58h79zM312 507c108 0 185 -54 222 -141c19 -42 21 -104 9 -142h-381c0 -88 67 -139 156 -139c58 0 114 16 161 44l54 -58c-55 -42 -128 -77 -215 -77c-154 0 -259 108 -259 256c0 142 98 257 253 257zM313 416
c-85 0 -143 -60 -147 -128h287c0 15 -4 34 -12 49c-21 46 -66 79 -128 79z" />
    <glyph glyph-name="ecircumflex" unicode="&#xea;" horiz-adv-x="605" 
d="M458 553h-79l-66 58l-67 -57h-79l97 133h97zM312 507c108 0 185 -54 222 -141c19 -42 21 -104 9 -142h-381c0 -88 67 -139 156 -139c58 0 114 16 161 44l54 -58c-55 -42 -128 -77 -215 -77c-154 0 -259 108 -259 256c0 142 98 257 253 257zM313 416
c-85 0 -143 -60 -147 -128h287c0 15 -4 34 -12 49c-21 46 -66 79 -128 79z" />
    <glyph glyph-name="edieresis" unicode="&#xeb;" horiz-adv-x="605" 
d="M208 661c33 0 59 -24 59 -54s-26 -54 -59 -54c-34 0 -60 24 -60 54s26 54 60 54zM420 661c33 0 59 -24 59 -54s-26 -54 -59 -54c-34 0 -60 24 -60 54s26 54 60 54zM312 507c108 0 185 -54 222 -141c19 -42 21 -104 9 -142h-381c0 -88 67 -139 156 -139
c58 0 114 16 161 44l54 -58c-55 -42 -128 -77 -215 -77c-154 0 -259 108 -259 256c0 142 98 257 253 257zM313 416c-85 0 -143 -60 -147 -128h287c0 15 -4 34 -12 49c-21 46 -66 79 -128 79z" />
    <glyph glyph-name="edotaccent" unicode="&#x117;" horiz-adv-x="605" 
d="M313 660c33 0 59 -23 59 -53s-26 -54 -59 -54c-34 0 -60 24 -60 54s26 53 60 53zM312 507c108 0 185 -54 222 -141c19 -42 21 -104 9 -142h-381c0 -88 67 -139 156 -139c58 0 114 16 161 44l54 -58c-55 -42 -128 -77 -215 -77c-154 0 -259 108 -259 256
c0 142 98 257 253 257zM313 416c-85 0 -143 -60 -147 -128h287c0 15 -4 34 -12 49c-21 46 -66 79 -128 79z" />
    <glyph glyph-name="egrave" unicode="&#xe8;" horiz-adv-x="605" 
d="M380 553h-77l-114 132h112zM312 507c108 0 185 -54 222 -141c19 -42 21 -104 9 -142h-381c0 -88 67 -139 156 -139c58 0 114 16 161 44l54 -58c-55 -42 -128 -77 -215 -77c-154 0 -259 108 -259 256c0 142 98 257 253 257zM313 416c-85 0 -143 -60 -147 -128h287
c0 15 -4 34 -12 49c-21 46 -66 79 -128 79z" />
    <glyph glyph-name="emacron" unicode="&#x113;" horiz-adv-x="605" 
d="M441 553h-258v75h258v-75zM312 507c108 0 185 -54 222 -141c19 -42 21 -104 9 -142h-381c0 -88 67 -139 156 -139c58 0 114 16 161 44l54 -58c-55 -42 -128 -77 -215 -77c-154 0 -259 108 -259 256c0 142 98 257 253 257zM313 416c-85 0 -143 -60 -147 -128h287
c0 15 -4 34 -12 49c-21 46 -66 79 -128 79z" />
    <glyph glyph-name="eogonek" unicode="&#x119;" horiz-adv-x="605" 
d="M534 366c19 -42 21 -104 9 -142h-381c0 -88 67 -139 156 -139c58 0 114 16 161 44l54 -58c-42 -32 -95 -60 -157 -72c-48 -18 -63 -37 -63 -60c0 -26 22 -40 52 -40h12v-63h-7c-53 0 -102 23 -102 78c0 34 20 59 65 80h-15c-154 0 -259 108 -259 256
c0 142 98 257 253 257c108 0 185 -54 222 -141zM166 288h287c0 15 -4 34 -12 49c-21 46 -66 79 -128 79c-85 0 -143 -60 -147 -128z" />
    <glyph glyph-name="f" unicode="f" horiz-adv-x="401" 
d="M351 705v-90h-9c-62 0 -113 -20 -113 -98v-17h122v-96h-123v-405h-100v405h-69v96h70v19c0 132 93 194 208 187z" />
    <glyph glyph-name="g" unicode="g" horiz-adv-x="648" 
d="M301 507c79 0 146 -39 184 -97l5 90h69v-437c0 -148 -91 -254 -247 -254c-90 0 -163 32 -218 77l57 61c49 -29 98 -47 161 -47c92 0 146 50 146 142v43c-33 -48 -91 -80 -157 -80c-142 0 -247 114 -247 251c0 136 105 251 247 251zM310 411c-83 0 -156 -66 -156 -155
c0 -90 73 -155 156 -155s157 65 157 155c0 89 -74 155 -157 155z" />
    <glyph glyph-name="gbreve" unicode="&#x11f;" horiz-adv-x="648" 
d="M390 694h70c0 -81 -67 -141 -150 -141s-150 60 -150 141h70c0 -40 35 -70 80 -70s80 30 80 70zM301 507c79 0 146 -39 184 -97l5 90h69v-437c0 -148 -91 -254 -247 -254c-90 0 -163 32 -218 77l57 61c49 -29 98 -47 161 -47c92 0 146 50 146 142v43
c-33 -48 -91 -80 -157 -80c-142 0 -247 114 -247 251c0 136 105 251 247 251zM310 411c-83 0 -156 -66 -156 -155c0 -90 73 -155 156 -155s157 65 157 155c0 89 -74 155 -157 155z" />
    <glyph glyph-name="gcommaaccent" unicode="&#x123;" horiz-adv-x="648" 
d="M301 507c79 0 146 -39 184 -97l5 90h69v-437c0 -148 -91 -254 -247 -254c-90 0 -163 32 -218 77l57 61c49 -29 98 -47 161 -47c92 0 146 50 146 142v43c-33 -48 -91 -80 -157 -80c-142 0 -247 114 -247 251c0 136 105 251 247 251zM310 411c-83 0 -156 -66 -156 -155
c0 -90 73 -155 156 -155s157 65 157 155c0 89 -74 155 -157 155zM273 -381h-77l79 131h112z" />
    <glyph glyph-name="gdotaccent" unicode="&#x121;" horiz-adv-x="648" 
d="M310 660c33 0 59 -23 59 -53s-26 -54 -59 -54c-34 0 -60 24 -60 54s26 53 60 53zM301 507c79 0 146 -39 184 -97l5 90h69v-437c0 -148 -91 -254 -247 -254c-90 0 -163 32 -218 77l57 61c49 -29 98 -47 161 -47c92 0 146 50 146 142v43c-33 -48 -91 -80 -157 -80
c-142 0 -247 114 -247 251c0 136 105 251 247 251zM310 411c-83 0 -156 -66 -156 -155c0 -90 73 -155 156 -155s157 65 157 155c0 89 -74 155 -157 155z" />
    <glyph glyph-name="h" unicode="h" horiz-adv-x="656" 
d="M354 507c140 0 218 -93 218 -241v-266h-100v261c0 106 -52 150 -133 150c-88 0 -145 -58 -145 -169v-242h-100v700h100v-276c35 59 100 83 160 83z" />
    <glyph glyph-name="hbar" unicode="&#x127;" horiz-adv-x="731" 
d="M429 507c140 0 218 -93 218 -241v-266h-100v261c0 106 -52 150 -133 150c-88 0 -145 -58 -145 -169v-242h-100v549h-75v70h75v81h100v-81h73v-70h-73v-125c35 59 100 83 160 83z" />
    <glyph glyph-name="i" unicode="i" horiz-adv-x="302" 
d="M154 553c-34 0 -60 24 -60 54s26 53 60 53c33 0 59 -23 59 -53s-26 -54 -59 -54zM103 0v500h100v-500h-100z" />
    <glyph glyph-name="dotlessi" unicode="&#x131;" horiz-adv-x="283" 
d="M94 0v500h100v-500h-100z" />
    <glyph glyph-name="iacute" unicode="&#xed;" horiz-adv-x="374" 
d="M171 553h-77l79 132h112zM112 0v500h100v-500h-100z" />
    <glyph glyph-name="icaron" unicode="&#x1d0;" horiz-adv-x="474" 
d="M288 553h-97l-97 134h79l67 -58l66 58h79zM290 0h-100v500h100v-500z" />
    <glyph glyph-name="icircumflex" unicode="&#xee;" horiz-adv-x="474" 
d="M288 687l97 -134h-79l-66 59l-67 -58h-79l97 133h97zM290 0h-100v500h100v-500z" />
    <glyph glyph-name="idieresis" unicode="&#xef;" horiz-adv-x="514" 
d="M153 553c-33 0 -59 24 -59 54s26 53 59 53c34 0 60 -23 60 -53s-26 -54 -60 -54zM365 553c-34 0 -60 24 -60 54s26 53 60 53c33 0 59 -23 59 -53s-26 -54 -59 -54zM211 0v500h100v-500h-100z" />
    <glyph glyph-name="i.loclTRK" horiz-adv-x="302" 
d="M154 553c-34 0 -60 24 -60 54s26 53 60 53c33 0 59 -23 59 -53s-26 -54 -59 -54zM103 0v500h100v-500h-100z" />
    <glyph glyph-name="igrave" unicode="&#xec;" horiz-adv-x="374" 
d="M207 685l78 -132h-77l-114 132h113zM178 0v500h100v-500h-100z" />
    <glyph glyph-name="ij" unicode="&#x133;" horiz-adv-x="499" 
d="M154 660c33 0 59 -23 59 -53s-26 -54 -59 -54c-34 0 -60 24 -60 54s26 53 60 53zM351 660c33 0 59 -23 59 -53s-26 -54 -59 -54c-34 0 -60 24 -60 54s26 53 60 53zM203 0h-100v500h100v-500zM400 -184h-100v684h100v-684z" />
    <glyph glyph-name="imacron" unicode="&#x12b;" horiz-adv-x="441" 
d="M352 553h-258v75h258v-75zM173 0v500h100v-500h-100z" />
    <glyph glyph-name="iogonek" unicode="&#x12f;" horiz-adv-x="335" 
d="M187 553c-34 0 -60 24 -60 54s26 53 60 53c33 0 59 -23 59 -53s-26 -54 -59 -54zM136 500h100v-500c-50 -19 -65 -38 -65 -61c0 -26 22 -40 52 -40h12v-63h-7c-52 0 -102 23 -102 78c0 37 24 64 78 86h-68v500z" />
    <glyph glyph-name="j" unicode="j" horiz-adv-x="302" 
d="M154 660c33 0 59 -23 59 -53s-26 -54 -59 -54c-34 0 -60 24 -60 54s26 53 60 53zM203 -184h-100v684h100v-684z" />
    <glyph glyph-name="k" unicode="k" horiz-adv-x="595" 
d="M449 0l-84 130c-38 59 -56 79 -115 79h-56v-209h-100v700h100v-394h48c60 0 77 20 115 80l75 114h111l-102 -156c-28 -41 -54 -74 -81 -85c32 -10 59 -43 88 -88l112 -171h-111z" />
    <glyph glyph-name="kcommaaccent" unicode="&#x137;" horiz-adv-x="595" 
d="M449 0l-84 130c-38 59 -56 79 -115 79h-56v-209h-100v700h100v-394h48c60 0 77 20 115 80l75 114h111l-102 -156c-28 -41 -54 -74 -81 -85c32 -10 59 -43 88 -88l112 -171h-111zM272 -200h-77l79 131h112z" />
    <glyph glyph-name="l" unicode="l" horiz-adv-x="281" 
d="M94 0v700h100v-700h-100z" />
    <glyph glyph-name="lacute" unicode="&#x13a;" horiz-adv-x="371" 
d="M171 750h-77l79 132h112zM112 700h100v-700h-100v700z" />
    <glyph glyph-name="lcaron" unicode="&#x13e;" horiz-adv-x="501" 
d="M94 700h100v-700h-100v700zM301 569h-77l79 131h112z" />
    <glyph glyph-name="lcommaaccent" unicode="&#x13c;" horiz-adv-x="371" 
d="M155 700h100v-700h-100v700zM171 -193h-77l79 131h112z" />
    <glyph glyph-name="ldot" unicode="&#x140;" horiz-adv-x="438" 
d="M94 700h100v-700h-100v700zM290 362c36 0 61 -29 61 -61c0 -33 -25 -61 -61 -61s-62 28 -62 61c0 32 26 61 62 61z" />
    <glyph glyph-name="lslash" unicode="&#x142;" horiz-adv-x="408" 
d="M321 437l-63 -28v-409h-100v365l-64 -28v63l64 28v272h100v-228l63 28v-63z" />
    <glyph glyph-name="m" unicode="m" horiz-adv-x="1030" 
d="M728 507c140 0 218 -93 218 -241v-266h-100v261c0 106 -53 150 -133 150c-89 0 -146 -58 -146 -169v-242h-100v261c0 106 -52 150 -133 150c-88 0 -145 -58 -145 -169v-242h-100v500h68l7 -96c37 71 110 103 185 103c91 0 158 -41 187 -116c34 79 111 116 192 116z" />
    <glyph glyph-name="n" unicode="n" horiz-adv-x="651" 
d="M349 507c140 0 218 -93 218 -241v-266h-100v261c0 106 -52 150 -133 150c-88 0 -145 -58 -145 -169v-242h-100v500h68l7 -96c37 71 110 103 185 103z" />
    <glyph glyph-name="nacute" unicode="&#x144;" horiz-adv-x="651" 
d="M342 553h-77l79 132h112zM349 507c140 0 218 -93 218 -241v-266h-100v261c0 106 -52 150 -133 150c-88 0 -145 -58 -145 -169v-242h-100v500h68l7 -96c37 71 110 103 185 103z" />
    <glyph glyph-name="ncaron" unicode="&#x148;" horiz-adv-x="651" 
d="M387 553h-97l-97 134h79l67 -58l66 58h79zM349 507c140 0 218 -93 218 -241v-266h-100v261c0 106 -52 150 -133 150c-88 0 -145 -58 -145 -169v-242h-100v500h68l7 -96c37 71 110 103 185 103z" />
    <glyph glyph-name="ncommaaccent" unicode="&#x146;" horiz-adv-x="651" 
d="M349 507c140 0 218 -93 218 -241v-266h-100v261c0 106 -52 150 -133 150c-88 0 -145 -58 -145 -169v-242h-100v500h68l7 -96c37 71 110 103 185 103zM311 -200h-77l79 131h112z" />
    <glyph glyph-name="eng" unicode="&#x14b;" horiz-adv-x="651" 
d="M349 507c140 0 218 -93 218 -241v-236c0 -151 -82 -228 -209 -221l-14 1v91h9c70 0 114 19 115 125l-1 235c0 106 -52 150 -133 150c-88 0 -145 -58 -145 -169v-242h-100v500h68l7 -96c37 71 110 103 185 103z" />
    <glyph glyph-name="ntilde" unicode="&#xf1;" horiz-adv-x="651" 
d="M481 659l-23 -60c-13 -36 -35 -54 -63 -56c-22 -2 -41 6 -54 17l-41 33c-12 8 -25 14 -38 12c-16 -1 -24 -11 -31 -31l-7 -21h-48l23 61c13 36 34 54 62 56c22 2 41 -6 55 -17l40 -33c11 -8 23 -14 36 -13c17 0 26 11 34 31l7 21h48zM349 507c140 0 218 -93 218 -241
v-266h-100v261c0 106 -52 150 -133 150c-88 0 -145 -58 -145 -169v-242h-100v500h68l7 -96c37 71 110 103 185 103z" />
    <glyph glyph-name="o" unicode="o" horiz-adv-x="631" 
d="M315 507c142 0 257 -115 257 -257s-115 -256 -257 -256s-256 114 -256 256s114 257 256 257zM315 411c-83 0 -156 -66 -156 -161s73 -160 156 -160s157 65 157 160s-74 161 -157 161z" />
    <glyph glyph-name="oacute" unicode="&#xf3;" horiz-adv-x="631" 
d="M321 553h-77l79 132h112zM315 507c142 0 257 -115 257 -257s-115 -256 -257 -256s-256 114 -256 256s114 257 256 257zM315 411c-83 0 -156 -66 -156 -161s73 -160 156 -160s157 65 157 160s-74 161 -157 161z" />
    <glyph glyph-name="ocaron" unicode="&#x1d2;" horiz-adv-x="631" 
d="M363 553l-97 1l-97 133h79l67 -58l66 58h79zM315 507c142 0 257 -115 257 -257s-115 -256 -257 -256s-256 114 -256 256s114 257 256 257zM315 411c-83 0 -156 -66 -156 -161s73 -160 156 -160s157 65 157 160s-74 161 -157 161z" />
    <glyph glyph-name="ocircumflex" unicode="&#xf4;" horiz-adv-x="631" 
d="M381 553l-66 59l-67 -59h-79l97 134h97l97 -134h-79zM315 507c142 0 257 -115 257 -257s-115 -256 -257 -256s-256 114 -256 256s114 257 256 257zM315 411c-83 0 -156 -66 -156 -161s73 -160 156 -160s157 65 157 160s-74 161 -157 161z" />
    <glyph glyph-name="odieresis" unicode="&#xf6;" horiz-adv-x="631" 
d="M211 553c-34 0 -60 24 -60 54s26 53 60 53c33 0 59 -23 59 -53s-26 -54 -59 -54zM423 553c-34 0 -60 24 -60 54s26 53 60 53c33 0 59 -23 59 -53s-26 -54 -59 -54zM315 507c142 0 257 -115 257 -257s-115 -256 -257 -256s-256 114 -256 256s114 257 256 257zM315 411
c-83 0 -156 -66 -156 -161s73 -160 156 -160s157 65 157 160s-74 161 -157 161z" />
    <glyph glyph-name="ograve" unicode="&#xf2;" horiz-adv-x="631" 
d="M297 685l79 -132h-77l-114 132h112zM315 507c142 0 257 -115 257 -257s-115 -256 -257 -256s-256 114 -256 256s114 257 256 257zM315 411c-83 0 -156 -66 -156 -161s73 -160 156 -160s157 65 157 160s-74 161 -157 161z" />
    <glyph glyph-name="ohungarumlaut" unicode="&#x151;" horiz-adv-x="635" 
d="M250 553h-77l79 132h112zM406 553h-77l79 132h112zM315 507c142 0 257 -115 257 -257s-115 -256 -257 -256s-256 114 -256 256s114 257 256 257zM315 411c-83 0 -156 -66 -156 -161s73 -160 156 -160s157 65 157 160s-74 161 -157 161z" />
    <glyph glyph-name="omacron" unicode="&#x14d;" horiz-adv-x="631" 
d="M443 553h-258v75h258v-75zM315 507c142 0 257 -115 257 -257s-115 -256 -257 -256s-256 114 -256 256s114 257 256 257zM315 411c-83 0 -156 -66 -156 -161s73 -160 156 -160s157 65 157 160s-74 161 -157 161z" />
    <glyph glyph-name="oslash" unicode="&#xf8;" horiz-adv-x="631" 
d="M572 500l-68 -76c42 -46 68 -107 68 -174c0 -142 -115 -256 -257 -256c-57 0 -109 18 -151 49l-38 -43h-67l68 76c-42 46 -68 107 -68 174c0 142 114 257 256 257c57 0 109 -18 151 -49l38 42h68zM159 250c0 -39 13 -74 33 -100l210 235c-26 17 -56 26 -87 26
c-83 0 -156 -66 -156 -161zM472 250c0 39 -13 74 -33 100l-210 -234c25 -17 55 -26 86 -26c83 0 157 65 157 160z" />
    <glyph glyph-name="otilde" unicode="&#xf5;" horiz-adv-x="631" 
d="M467 659l-23 -60c-13 -36 -35 -54 -63 -56c-22 -2 -41 6 -54 17l-41 33c-12 8 -25 14 -38 12c-16 -1 -24 -11 -31 -31l-7 -21h-48l23 61c13 36 34 54 62 56c22 2 41 -6 55 -17l40 -33c11 -8 23 -14 36 -13c17 0 26 11 34 31l7 21h48zM315 507c142 0 257 -115 257 -257
s-115 -256 -257 -256s-256 114 -256 256s114 257 256 257zM315 411c-83 0 -156 -66 -156 -161s73 -160 156 -160s157 65 157 160s-74 161 -157 161z" />
    <glyph glyph-name="oe" unicode="&#x153;" horiz-adv-x="1017" 
d="M725 507c108 0 185 -54 222 -141c19 -42 20 -104 8 -142h-381c0 -88 68 -139 156 -139c59 0 115 16 162 44l53 -58c-54 -42 -128 -77 -215 -77c-97 0 -173 44 -210 117c-40 -69 -117 -117 -205 -117c-142 0 -256 114 -256 256s114 257 256 257c88 0 165 -48 204 -118
c36 70 111 118 206 118zM725 416c-85 0 -143 -60 -147 -128h287c0 15 -4 34 -12 49c-21 46 -66 79 -128 79zM315 411c-83 0 -156 -66 -156 -161s73 -160 156 -160s157 65 157 160s-74 161 -157 161z" />
    <glyph glyph-name="p" unicode="p" horiz-adv-x="638" 
d="M332 506c142 0 247 -114 247 -256s-105 -257 -247 -257c-67 0 -126 34 -158 83v-260h-100v684h68l6 -92c37 59 105 98 184 98zM323 410c-83 0 -157 -65 -157 -160s74 -160 157 -160s156 65 156 160s-73 160 -156 160z" />
    <glyph glyph-name="thorn" unicode="&#xfe;" horiz-adv-x="655" 
d="M191 700v-276c32 49 91 82 158 82c142 0 247 -114 247 -256s-105 -257 -247 -257c-67 0 -126 34 -158 83v-260h-100v884h100zM341 410c-83 0 -157 -65 -157 -160s74 -160 157 -160s156 65 156 160s-73 160 -156 160z" />
    <glyph glyph-name="q" unicode="q" horiz-adv-x="653" 
d="M564 -184h-100v260c-32 -49 -91 -83 -158 -83c-142 0 -247 115 -247 257s105 256 247 256c79 0 147 -39 184 -98l6 92h68v-684zM315 90c83 0 157 65 157 160s-74 160 -157 160s-156 -65 -156 -160s73 -160 156 -160z" />
    <glyph glyph-name="r" unicode="r" horiz-adv-x="432" 
d="M398 411h-40c-118 0 -169 -81 -169 -191v-220h-100v500h68l11 -122c38 82 112 129 213 129h17v-96z" />
    <glyph glyph-name="racute" unicode="&#x155;" horiz-adv-x="432" 
d="M244 553h-77l79 132h112zM398 411h-40c-118 0 -169 -81 -169 -191v-220h-100v500h68l11 -122c38 82 112 129 213 129h17v-96z" />
    <glyph glyph-name="rcaron" unicode="&#x159;" horiz-adv-x="432" 
d="M288 553h-97l-97 134h79l67 -58l66 58h79zM398 411h-40c-118 0 -169 -81 -169 -191v-220h-100v500h68l11 -122c38 82 112 129 213 129h17v-96z" />
    <glyph glyph-name="rcommaaccent" unicode="&#x157;" horiz-adv-x="432" 
d="M398 411h-40c-118 0 -169 -81 -169 -191v-220h-100v500h68l11 -122c38 82 112 129 213 129h17v-96zM207 -200h-77l79 131h112z" />
    <glyph glyph-name="s" unicode="s" horiz-adv-x="550" 
d="M269 507h10c78 0 159 -36 202 -93l-57 -53c-33 41 -98 66 -144 66h-8c-57 -1 -99 -24 -99 -65c0 -32 20 -52 95 -59l46 -5c93 -8 177 -42 177 -152c0 -89 -80 -152 -198 -152h-6c-96 0 -189 39 -228 98l57 54c29 -41 103 -71 170 -71h4c56 0 101 21 101 68
c0 54 -41 64 -97 70l-43 5c-120 11 -178 58 -178 138c0 96 89 150 196 151z" />
    <glyph glyph-name="sacute" unicode="&#x15b;" horiz-adv-x="550" 
d="M292 553h-77l79 132h112zM269 507h10c78 0 159 -36 202 -93l-57 -53c-33 41 -98 66 -144 66h-8c-57 -1 -99 -24 -99 -65c0 -32 20 -52 95 -59l46 -5c93 -8 177 -42 177 -152c0 -89 -80 -152 -198 -152h-6c-96 0 -189 39 -228 98l57 54c29 -41 103 -71 170 -71h4
c56 0 101 21 101 68c0 54 -41 64 -97 70l-43 5c-120 11 -178 58 -178 138c0 96 89 150 196 151z" />
    <glyph glyph-name="scaron" unicode="&#x161;" horiz-adv-x="550" 
d="M323 553h-97l-97 134h79l67 -58l66 58h79zM269 507h10c78 0 159 -36 202 -93l-57 -53c-33 41 -98 66 -144 66h-8c-57 -1 -99 -24 -99 -65c0 -32 20 -52 95 -59l46 -5c93 -8 177 -42 177 -152c0 -89 -80 -152 -198 -152h-6c-96 0 -189 39 -228 98l57 54
c29 -41 103 -71 170 -71h4c56 0 101 21 101 68c0 54 -41 64 -97 70l-43 5c-120 11 -178 58 -178 138c0 96 89 150 196 151z" />
    <glyph glyph-name="scedilla" unicode="&#x15f;" horiz-adv-x="550" 
d="M491 146c0 -89 -80 -152 -198 -152l-9 -32c36 11 82 -4 82 -60s-61 -88 -136 -45v30c36 -22 72 -11 72 18c0 25 -21 39 -64 20l22 70c-86 6 -166 43 -201 97l57 54c29 -41 103 -71 170 -71h4c56 0 101 21 101 68c0 54 -41 64 -97 70l-43 5c-120 11 -178 58 -178 138
c0 96 89 150 196 151h10c78 0 159 -36 202 -93l-57 -53c-33 41 -98 66 -144 66h-8c-57 -1 -99 -24 -99 -65c0 -32 20 -52 95 -59l46 -5c93 -8 177 -42 177 -152z" />
    <glyph glyph-name="scommaaccent" unicode="&#x219;" horiz-adv-x="550" 
d="M269 507h10c78 0 159 -36 202 -93l-57 -53c-33 41 -98 66 -144 66h-8c-57 -1 -99 -24 -99 -65c0 -32 20 -52 95 -59l46 -5c93 -8 177 -42 177 -152c0 -89 -80 -152 -198 -152h-6c-96 0 -189 39 -228 98l57 54c29 -41 103 -71 170 -71h4c56 0 101 21 101 68
c0 54 -41 64 -97 70l-43 5c-120 11 -178 58 -178 138c0 96 89 150 196 151zM240 -200h-77l79 131h112z" />
    <glyph glyph-name="germandbls" unicode="&#xdf;" horiz-adv-x="657" 
d="M320 707h31c181 0 229 -108 229 -186c0 -76 -37 -137 -103 -160c79 -18 126 -83 126 -167c0 -114 -77 -200 -257 -201h-97v102h98c92 0 153 33 153 110c0 60 -37 106 -127 106h-80v101h63c98 0 121 49 121 95c0 59 -37 99 -126 99h-35c-88 0 -124 -46 -124 -105v-501
h-103v516c0 78 47 191 231 191z" />
    <glyph glyph-name="t" unicode="t" horiz-adv-x="347" 
d="M228 404v-404h-100v404h-69v96h69v168h100v-168h70v-96h-70z" />
    <glyph glyph-name="tbar" unicode="&#x167;" horiz-adv-x="347" 
d="M228 404v-82h70v-96h-70v-226h-100v226h-69v96h69v82h-69v96h69v168h100v-168h70v-96h-70z" />
    <glyph glyph-name="tcaron" unicode="&#x165;" horiz-adv-x="510" 
d="M347 569h-77l79 131h112zM228 404v-404h-100v404h-69v96h69v168h100v-168h70v-96h-70z" />
    <glyph glyph-name="tcedilla" unicode="&#x163;" horiz-adv-x="347" 
d="M184 0l-11 -38c36 11 82 -4 82 -60s-61 -88 -136 -45v30c36 -22 72 -11 72 18c0 25 -21 39 -64 20l24 75h-23v404h-69v96h69v168h100v-168h70v-96h-70v-404h-44z" />
    <glyph glyph-name="uni021B" unicode="&#x21b;" horiz-adv-x="347" 
d="M229 404v-404h-100v404h-69v96h69v168h100v-168h70v-96h-70zM145 -200h-77l79 131h112z" />
    <glyph glyph-name="u" unicode="u" 
d="M562 0h-68l-7 96c-36 -71 -110 -103 -185 -103c-140 0 -218 93 -218 241v266h100v-261c0 -106 52 -150 133 -150c88 0 146 58 146 169v242h99v-500z" />
    <glyph glyph-name="uacute" unicode="&#xfa;" 
d="M428 685l-114 -132h-77l79 132h112zM562 0h-68l-7 96c-36 -71 -110 -103 -185 -103c-140 0 -218 93 -218 241v266h100v-261c0 -106 52 -150 133 -150c88 0 146 58 146 169v242h99v-500z" />
    <glyph glyph-name="ucaron" unicode="&#x1d4;" 
d="M366 553h-97l-97 134h79l67 -58l66 58h79zM562 0h-68l-7 96c-36 -71 -110 -103 -185 -103c-140 0 -218 93 -218 241v266h100v-261c0 -106 52 -150 133 -150c88 0 146 58 146 169v242h99v-500z" />
    <glyph glyph-name="ucircumflex" unicode="&#xfb;" 
d="M384 553l-66 59l-67 -58h-79l97 133h97l97 -134h-79zM562 0h-68l-7 96c-36 -71 -110 -103 -185 -103c-140 0 -218 93 -218 241v266h100v-261c0 -106 52 -150 133 -150c88 0 146 58 146 169v242h99v-500z" />
    <glyph glyph-name="udieresis" unicode="&#xfc;" 
d="M216 660c33 0 59 -23 59 -53s-26 -54 -59 -54c-34 0 -60 24 -60 54s26 53 60 53zM427 660c33 0 59 -23 59 -53s-26 -54 -59 -54c-34 0 -60 24 -60 54s26 53 60 53zM562 0h-68l-7 96c-36 -71 -110 -103 -185 -103c-140 0 -218 93 -218 241v266h100v-261
c0 -106 52 -150 133 -150c88 0 146 58 146 169v242h99v-500z" />
    <glyph glyph-name="udieresisacute" unicode="&#x1d8;" 
d="M342 689h-77l79 132h112zM216 660c33 0 59 -23 59 -53s-26 -54 -59 -54c-34 0 -60 24 -60 54s26 53 60 53zM427 660c33 0 59 -23 59 -53s-26 -54 -59 -54c-34 0 -60 24 -60 54s26 53 60 53zM562 0h-68l-7 96c-36 -71 -110 -103 -185 -103c-140 0 -218 93 -218 241v266
h100v-261c0 -106 52 -150 133 -150c88 0 146 58 146 169v242h99v-500z" />
    <glyph glyph-name="udieresiscaron" unicode="&#x1da;" 
d="M366 689h-97l-97 133h79l67 -57l66 58h79zM216 660c33 0 59 -23 59 -53s-26 -54 -59 -54c-34 0 -60 24 -60 54s26 53 60 53zM427 660c33 0 59 -23 59 -53s-26 -54 -59 -54c-34 0 -60 24 -60 54s26 53 60 53zM562 0h-68l-7 96c-36 -71 -110 -103 -185 -103
c-140 0 -218 93 -218 241v266h100v-261c0 -106 52 -150 133 -150c88 0 146 58 146 169v242h99v-500z" />
    <glyph glyph-name="udieresisgrave" unicode="&#x1dc;" 
d="M381 689h-77l-114 132h112zM216 660c33 0 59 -23 59 -53s-26 -54 -59 -54c-34 0 -60 24 -60 54s26 53 60 53zM427 660c33 0 59 -23 59 -53s-26 -54 -59 -54c-34 0 -60 24 -60 54s26 53 60 53zM562 0h-68l-7 96c-36 -71 -110 -103 -185 -103c-140 0 -218 93 -218 241v266
h100v-261c0 -106 52 -150 133 -150c88 0 146 58 146 169v242h99v-500z" />
    <glyph glyph-name="udieresismacron" unicode="&#x1d6;" 
d="M452 689h-258v75h258v-75zM216 660c33 0 59 -23 59 -53s-26 -54 -59 -54c-34 0 -60 24 -60 54s26 53 60 53zM427 660c33 0 59 -23 59 -53s-26 -54 -59 -54c-34 0 -60 24 -60 54s26 53 60 53zM562 0h-68l-7 96c-36 -71 -110 -103 -185 -103c-140 0 -218 93 -218 241v266
h100v-261c0 -106 52 -150 133 -150c88 0 146 58 146 169v242h99v-500z" />
    <glyph glyph-name="ugrave" unicode="&#xf9;" 
d="M375 553h-77l-114 132h112zM562 0h-68l-7 96c-36 -71 -110 -103 -185 -103c-140 0 -218 93 -218 241v266h100v-261c0 -106 52 -150 133 -150c88 0 146 58 146 169v242h99v-500z" />
    <glyph glyph-name="uhungarumlaut" unicode="&#x171;" horiz-adv-x="647" 
d="M239 553h-77l79 132h112zM395 553h-77l79 132h112zM562 0h-68l-7 96c-36 -71 -110 -103 -185 -103c-140 0 -218 93 -218 241v266h100v-261c0 -106 52 -150 133 -150c88 0 146 58 146 169v242h99v-500z" />
    <glyph glyph-name="umacron" unicode="&#x16b;" 
d="M447 553h-258v75h258v-75zM562 0h-68l-7 96c-36 -71 -110 -103 -185 -103c-140 0 -218 93 -218 241v266h100v-261c0 -106 52 -150 133 -150c88 0 146 58 146 169v242h99v-500z" />
    <glyph glyph-name="uogonek" unicode="&#x173;" 
d="M562 500v-500c-50 -19 -65 -38 -65 -61c0 -26 22 -40 52 -40h12v-63h-7c-53 0 -102 23 -102 78c0 37 24 64 78 86h-36l-7 96c-36 -71 -110 -103 -185 -103c-140 0 -218 93 -218 241v266h100v-261c0 -106 52 -150 133 -150c88 0 146 58 146 169v242h99z" />
    <glyph glyph-name="uring" unicode="&#x16f;" 
d="M317 731c49 0 89 -40 89 -89s-40 -89 -89 -89s-88 40 -88 89s39 89 88 89zM318 680c-22 0 -37 -18 -37 -38s15 -38 37 -38c21 0 36 18 36 38s-15 38 -36 38zM562 0h-68l-7 96c-36 -71 -110 -103 -185 -103c-140 0 -218 93 -218 241v266h100v-261c0 -106 52 -150 133 -150
c88 0 146 58 146 169v242h99v-500z" />
    <glyph glyph-name="v" unicode="v" horiz-adv-x="593" 
d="M327 0h-62l-231 500h106l156 -351l157 351h105z" />
    <glyph glyph-name="w" unicode="w" horiz-adv-x="950" 
d="M691 0h-63l-153 338l-154 -338h-63l-224 500h106l149 -350l155 350h62l154 -350l150 350h105z" />
    <glyph glyph-name="wacute" unicode="&#x1e83;" horiz-adv-x="950" 
d="M488 553h-77l79 132h112zM691 0h-63l-153 338l-154 -338h-63l-224 500h106l149 -350l155 350h62l154 -350l150 350h105z" />
    <glyph glyph-name="wcircumflex" unicode="&#x175;" horiz-adv-x="950" 
d="M541 553l-66 59l-67 -58h-79l97 133h97l97 -134h-79zM691 0h-63l-153 338l-154 -338h-63l-224 500h106l149 -350l155 350h62l154 -350l150 350h105z" />
    <glyph glyph-name="wdieresis" unicode="&#x1e85;" horiz-adv-x="950" 
d="M371 553c-34 0 -60 24 -60 54s26 53 60 53c33 0 59 -23 59 -53s-26 -54 -59 -54zM582 553c-34 0 -60 24 -60 54s26 53 60 53c33 0 59 -23 59 -53s-26 -54 -59 -54zM691 0h-63l-153 338l-154 -338h-63l-224 500h106l149 -350l155 350h62l154 -350l150 350h105z" />
    <glyph glyph-name="wgrave" unicode="&#x1e81;" horiz-adv-x="950" 
d="M459 685l79 -132h-77l-114 132h112zM691 0h-63l-153 338l-154 -338h-63l-224 500h106l149 -350l155 350h62l154 -350l150 350h105z" />
    <glyph glyph-name="x" unicode="x" horiz-adv-x="588" 
d="M292 176l-142 -176h-116l202 259l-191 241h116l134 -162l131 162h116l-191 -245l202 -255h-116z" />
    <glyph glyph-name="y" unicode="y" horiz-adv-x="651" 
d="M567 500v-437c0 -148 -90 -254 -246 -254c-90 0 -164 32 -218 77l57 61c48 -29 98 -47 161 -47c91 0 146 50 146 142v46c-35 -60 -101 -83 -160 -83c-140 0 -218 93 -218 240v255h100v-249c0 -106 52 -150 133 -150c88 0 146 57 146 169v230h99z" />
    <glyph glyph-name="yacute" unicode="&#xfd;" horiz-adv-x="651" 
d="M320 553h-77l79 132h112zM567 500v-437c0 -148 -90 -254 -246 -254c-90 0 -164 32 -218 77l57 61c48 -29 98 -47 161 -47c91 0 146 50 146 142v46c-35 -60 -101 -83 -160 -83c-140 0 -218 93 -218 240v255h100v-249c0 -106 52 -150 133 -150c88 0 146 57 146 169v230h99z
" />
    <glyph glyph-name="ycircumflex" unicode="&#x177;" horiz-adv-x="651" 
d="M371 687l97 -134h-79l-66 59l-67 -58h-79l97 133h97zM189 500v-249c0 -106 52 -150 133 -150c88 0 146 57 146 169v230h99v-437c0 -148 -90 -254 -246 -254c-90 0 -164 32 -218 77l57 61c48 -29 98 -47 161 -47c91 0 146 50 146 142v46c-35 -60 -101 -83 -160 -83
c-140 0 -218 93 -218 240v255h100z" />
    <glyph glyph-name="ydieresis" unicode="&#xff;" horiz-adv-x="651" 
d="M218 660c33 0 59 -23 59 -53s-26 -54 -59 -54c-34 0 -60 24 -60 54s26 53 60 53zM430 660c33 0 59 -23 59 -53s-26 -54 -59 -54c-34 0 -60 24 -60 54s26 53 60 53zM189 500v-249c0 -106 52 -150 133 -150c88 0 146 57 146 169v230h99v-437c0 -148 -90 -254 -246 -254
c-90 0 -164 32 -218 77l57 61c48 -29 98 -47 161 -47c91 0 146 50 146 142v46c-35 -60 -101 -83 -160 -83c-140 0 -218 93 -218 240v255h100z" />
    <glyph glyph-name="ygrave" unicode="&#x1ef3;" horiz-adv-x="651" 
d="M395 553h-77l-114 132h112zM189 500v-249c0 -106 52 -150 133 -150c88 0 146 57 146 169v230h99v-437c0 -148 -90 -254 -246 -254c-90 0 -164 32 -218 77l57 61c48 -29 98 -47 161 -47c91 0 146 50 146 142v46c-35 -60 -101 -83 -160 -83c-140 0 -218 93 -218 240v255
h100z" />
    <glyph glyph-name="z" unicode="z" horiz-adv-x="547" 
d="M488 0h-429l1 73l273 331h-251v96h395v-73l-274 -331h285v-96z" />
    <glyph glyph-name="zacute" unicode="&#x17a;" horiz-adv-x="547" 
d="M275 553h-77l79 132h112zM488 0h-429l1 73l273 331h-251v96h395v-73l-274 -331h285v-96z" />
    <glyph glyph-name="zcaron" unicode="&#x17e;" horiz-adv-x="547" 
d="M322 553h-97l-97 134h79l67 -58l66 58h79zM477 427l-274 -331h285v-96h-429l1 73l273 331h-251v96h395v-73z" />
    <glyph glyph-name="zdotaccent" unicode="&#x17c;" horiz-adv-x="547" 
d="M268 553c-34 0 -60 24 -60 54s26 53 60 53c33 0 59 -23 59 -53s-26 -54 -59 -54zM488 0h-429l1 73l273 331h-251v96h395v-73l-274 -331h285v-96z" />
    <glyph glyph-name="k.ss01" horiz-adv-x="595" 
d="M194 207v-207h-100v700h100v-396h95l150 196h112l-184 -245l193 -255h-112l-159 207h-95z" />
    <glyph glyph-name="kcommaaccent.ss01" horiz-adv-x="595" 
d="M194 207v-207h-100v700h100v-396h95l150 196h112l-184 -245l193 -255h-112l-159 207h-95zM381 -69l-114 -131h-77l79 131h112z" />
    <glyph glyph-name="uni0410" unicode="&#x410;" horiz-adv-x="727" 
d="M227 157l-64 -157h-119l289 700h63l286 -700h-119l-63 157h-273zM364 503l-99 -244h198z" />
    <glyph glyph-name="uni0411" unicode="&#x411;" horiz-adv-x="698" 
d="M217 433h189c160 0 237 -86 237 -217c0 -130 -71 -216 -237 -216h-297v700h456v-102h-348v-165zM217 102h191c98 0 133 42 133 114c0 73 -41 115 -133 115h-191v-229z" />
    <glyph glyph-name="uni0412" unicode="&#x412;" horiz-adv-x="692" 
d="M109 700h262c200 0 235 -108 235 -183s-36 -128 -100 -151c83 -17 132 -82 132 -169c0 -111 -63 -197 -252 -197h-277v700zM217 598v-190h165c98 0 121 49 121 95c0 45 -17 95 -121 95h-165zM217 315v-213h191c95 0 127 47 127 106c0 60 -37 107 -127 107h-191z" />
    <glyph glyph-name="uni0413" unicode="&#x413;" horiz-adv-x="598" 
d="M217 598v-598h-108v700h445v-102h-337z" />
    <glyph glyph-name="uni0414" unicode="&#x414;" horiz-adv-x="809" 
d="M773 -129h-108v129h-522v-129h-108v231h92l247 598h63l245 -598h91v-231zM405 501l-162 -399h323z" />
    <glyph glyph-name="uni0415" unicode="&#x415;" horiz-adv-x="626" 
d="M217 404h323v-102h-323v-200h347v-102h-455v700h455v-102h-347v-194z" />
    <glyph glyph-name="uni0401" unicode="&#x401;" horiz-adv-x="618" 
d="M227 750c-34 0 -60 24 -60 54c0 29 26 53 60 53c33 0 59 -24 59 -53c0 -30 -26 -54 -59 -54zM439 750c-34 0 -60 24 -60 54c0 29 26 53 60 53c33 0 59 -24 59 -53c0 -30 -26 -54 -59 -54zM217 404h323v-102h-323v-200h347v-102h-455v700h455v-102h-347v-194z" />
    <glyph glyph-name="uni0416" unicode="&#x416;" horiz-adv-x="1078" 
d="M911 0l-144 224c-38 59 -55 79 -115 79h-60v-303h-108v303h-59c-60 0 -77 -20 -115 -79l-144 -224h-122l166 258c42 66 65 90 95 100c-24 13 -47 36 -87 95l-160 247h123l136 -213c39 -59 56 -80 116 -80h51v293h108v-293h52c60 0 77 21 116 80l136 213h123l-160 -247
c-40 -59 -63 -82 -87 -95c30 -10 53 -34 95 -100l166 -258h-122z" />
    <glyph glyph-name="uni0417" unicode="&#x417;" horiz-adv-x="637" 
d="M244 412h91c98 0 122 49 122 95c0 58 -37 98 -124 99h-6c-65 0 -145 -30 -195 -80l-70 65c65 71 162 116 261 116h7c181 -1 229 -108 229 -186c0 -76 -37 -137 -103 -160c79 -18 126 -83 126 -167c0 -114 -77 -200 -256 -201h-6c-117 0 -216 56 -276 137l70 65
c46 -61 127 -100 209 -100h6c90 0 150 34 150 110c0 60 -37 106 -127 106h-108v101z" />
    <glyph glyph-name="uni0418" unicode="&#x418;" horiz-adv-x="739" 
d="M640 0h-108v494l-370 -494h-63v700h108v-494l370 494h63v-700z" />
    <glyph glyph-name="uni0419" unicode="&#x419;" horiz-adv-x="739" 
d="M370 750c-83 0 -150 59 -150 140h70c0 -39 35 -70 80 -70s80 31 80 70h70c0 -81 -67 -140 -150 -140zM640 0h-108v494l-370 -494h-63v700h108v-494l370 494h63v-700z" />
    <glyph glyph-name="uni041A" unicode="&#x41a;" horiz-adv-x="732" 
d="M565 0l-144 223c-38 60 -55 80 -115 80h-89v-303h-108v700h108v-293h81c60 0 77 21 116 80l136 213h123l-159 -247c-41 -59 -63 -82 -88 -95c30 -10 53 -34 95 -100l166 -258h-122z" />
    <glyph glyph-name="uni041B" unicode="&#x41b;" horiz-adv-x="727" 
d="M363 501l-200 -501h-119l289 700h63l286 -700h-119z" />
    <glyph glyph-name="uni041C" unicode="&#x41c;" horiz-adv-x="895" 
d="M786 0h-108v498l-235 -296l-236 296v-498h-108v700h63l281 -355l281 355h62v-700z" />
    <glyph glyph-name="uni041D" unicode="&#x41d;" horiz-adv-x="736" 
d="M637 0h-108v302h-322v-302h-108v700h108v-296h322v296h108v-700z" />
    <glyph glyph-name="uni041E" unicode="&#x41e;" horiz-adv-x="840" 
d="M419 707c197 0 357 -160 357 -357c0 -198 -160 -357 -357 -357s-356 159 -356 357c0 197 159 357 356 357zM419 605c-139 0 -248 -107 -248 -255c0 -149 109 -255 248 -255s249 106 249 255c0 148 -110 255 -249 255z" />
    <glyph glyph-name="uni041F" unicode="&#x41f;" horiz-adv-x="730" 
d="M631 0h-108v598h-316v-598h-108v700h532v-700z" />
    <glyph glyph-name="uni0420" unicode="&#x420;" horiz-adv-x="707" 
d="M109 700h226c187 0 308 -106 308 -263c0 -158 -121 -263 -308 -263h-118v-174h-108v700zM217 275h125c105 0 199 47 199 162c0 111 -94 161 -199 161h-125v-323z" />
    <glyph glyph-name="uni0421" unicode="&#x421;" horiz-adv-x="738" 
d="M419 707c104 0 198 -45 264 -116l-70 -65c-50 50 -118 79 -194 79c-139 0 -248 -107 -248 -255c0 -149 109 -255 248 -255c76 0 144 28 194 79l70 -65c-66 -71 -160 -116 -264 -116c-197 0 -356 160 -356 357s159 357 356 357z" />
    <glyph glyph-name="uni0422" unicode="&#x422;" horiz-adv-x="606" 
d="M356 598v-598h-108v598h-204v102h517v-102h-205z" />
    <glyph glyph-name="uni0423" unicode="&#x423;" horiz-adv-x="734" 
d="M281 0h-123l147 252l-261 448h123l200 -337l199 337h123z" />
    <glyph glyph-name="uni0424" unicode="&#x424;" horiz-adv-x="1180" 
d="M837 675c166 0 279 -128 279 -289s-113 -288 -279 -288c-84 0 -156 42 -193 103v-201h-108v201c-38 -61 -110 -103 -193 -103c-167 0 -280 127 -280 288s113 289 280 289c83 0 155 -43 193 -105v130h108v-129c38 61 110 104 193 104zM354 200c102 0 182 78 182 186
s-80 187 -182 187s-182 -79 -182 -187s80 -186 182 -186zM827 200c102 0 182 78 182 186s-80 187 -182 187s-182 -79 -182 -187s80 -186 182 -186z" />
    <glyph glyph-name="uni0425" unicode="&#x425;" horiz-adv-x="707" 
d="M352 264l-184 -264h-124l248 363l-234 337h124l173 -243l169 243h124l-234 -342l248 -358h-124z" />
    <glyph glyph-name="uni0427" unicode="&#x427;" horiz-adv-x="703" 
d="M594 0h-108v267c-33 -64 -99 -96 -176 -96c-135 0 -256 73 -256 282v247h108v-252c0 -133 73 -176 165 -176c77 0 158 48 159 177v251h108v-700z" />
    <glyph glyph-name="uni0426" unicode="&#x426;" horiz-adv-x="771" 
d="M726 -129h-108v129h-519v700h108v-598h319v598h108v-598h92v-231z" />
    <glyph glyph-name="uni0428" unicode="&#x428;" horiz-adv-x="1050" 
d="M945 0h-846v700h108v-598h261v598h108v-598h261v598h108v-700z" />
    <glyph glyph-name="uni0429" unicode="&#x429;" horiz-adv-x="1115" 
d="M1037 -129h-108v129h-830v700h108v-598h261v598h108v-598h261v598h108v-598h92v-231z" />
    <glyph glyph-name="uni042F" unicode="&#x42f;" horiz-adv-x="698" 
d="M589 0h-108v184h-110c-71 -2 -96 -17 -153 -104l-51 -80h-122l65 100c43 67 76 102 110 119c-101 35 -165 112 -165 223c0 152 116 258 303 258h231v-700zM481 598h-133c-105 0 -191 -50 -191 -156c0 -110 86 -157 191 -157h133v313z" />
    <glyph glyph-name="uni042C" unicode="&#x42c;" horiz-adv-x="682" 
d="M211 433h184c159 0 237 -86 237 -217c0 -130 -72 -216 -237 -216h-292v700h108v-267zM211 102h186c97 0 132 42 132 114c0 73 -40 115 -132 115h-186v-229z" />
    <glyph glyph-name="uni042A" unicode="&#x42a;" horiz-adv-x="715" 
d="M244 433h184c160 0 237 -86 237 -217c0 -130 -72 -216 -237 -216h-292v598h-92v102h200v-267zM245 102h186c97 0 132 42 132 114c0 73 -40 115 -132 115h-186v-229z" />
    <glyph glyph-name="uni042B" unicode="&#x42b;" horiz-adv-x="932" 
d="M211 433h184c159 0 237 -86 237 -217c0 -130 -72 -216 -237 -216h-292v700h108v-267zM823 0h-108v700h108v-700zM211 102h186c97 0 132 42 132 114c0 73 -40 115 -132 115h-186v-229z" />
    <glyph glyph-name="uni042D" unicode="&#x42d;" horiz-adv-x="738" 
d="M318 707c197 0 356 -160 356 -357s-159 -357 -356 -357c-104 0 -198 45 -264 116l70 65c50 -51 118 -79 194 -79c122 0 222 85 239 205h-287v101h287c-18 119 -117 204 -239 204c-76 0 -144 -29 -194 -79l-70 65c66 71 160 116 264 116z" />
    <glyph glyph-name="uni042E" unicode="&#x42e;" horiz-adv-x="1092" 
d="M671 707c197 0 357 -160 357 -357c0 -198 -160 -357 -357 -357c-179 0 -327 133 -350 307h-110v-300h-108v700h108v-299h110c23 173 171 306 350 306zM672 95c139 0 249 106 249 255c0 148 -110 255 -249 255s-248 -107 -248 -255c0 -149 109 -255 248 -255z" />
    <glyph glyph-name="uni0416.ss01" horiz-adv-x="1078" 
d="M1026 700l-234 -344l241 -356h-123l-209 303h-109v-303h-108v303h-108l-209 -303h-123l241 356l-234 344h123l201 -293h109v293h108v-293h110l201 293h123z" />
    <glyph glyph-name="uni041A.ss01" horiz-adv-x="724" 
d="M217 303v-303h-108v700h108v-293h132l201 293h123l-234 -344l241 -356h-123l-209 303h-131z" />
    <glyph glyph-name="uni042F.ss01" horiz-adv-x="697" 
d="M588 0h-108v184h-121c-12 0 -24 1 -35 3l-154 -187h-122l170 209c-102 38 -164 121 -164 233c0 152 112 258 301 258h233v-700zM480 598h-134c-105 0 -190 -50 -190 -156c0 -110 85 -157 190 -157h134v313z" />
    <glyph glyph-name="uni0430" unicode="&#x430;" horiz-adv-x="653" 
d="M564 0h-68l-6 92c-37 -59 -105 -98 -184 -98c-142 0 -247 114 -247 256s105 257 247 257c79 0 147 -40 184 -99l6 92h68v-500zM315 90c83 0 157 65 157 160s-74 161 -157 161s-156 -66 -156 -161s73 -160 156 -160z" />
    <glyph glyph-name="uni0431" unicode="&#x431;" horiz-adv-x="631" 
d="M450 700h99c0 -86 -47 -130 -179 -130h-26c-114 0 -185 -50 -185 -152v-28c31 60 98 100 174 100c142 0 239 -104 239 -240c0 -143 -102 -258 -257 -258c-145 0 -256 107 -256 266v126c0 175 107 271 292 271c78 0 99 10 99 45zM316 398c-84 0 -157 -65 -157 -155
s70 -155 157 -155c85 0 156 65 156 155s-74 155 -156 155z" />
    <glyph glyph-name="uni0432" unicode="&#x432;" horiz-adv-x="602" 
d="M89 500h262c117 0 166 -53 166 -133c0 -48 -19 -88 -70 -106c63 -14 94 -58 94 -116c0 -99 -57 -145 -189 -145h-263v500zM189 415v-120h157c52 0 72 26 72 60s-21 60 -73 60h-156zM189 85h166c63 0 86 28 86 68c0 39 -22 68 -85 68l-167 1v-137z" />
    <glyph glyph-name="uni0433" unicode="&#x433;" horiz-adv-x="504" 
d="M189 404v-404h-100v500h380v-96h-280z" />
    <glyph glyph-name="uni0434" unicode="&#x434;" horiz-adv-x="648" 
d="M613 -102h-99v102h-380v-102h-100v198h72l186 404h63l186 -404h72v-198zM324 351l-115 -255h231z" />
    <glyph glyph-name="uni0435" unicode="&#x435;" horiz-adv-x="616" 
d="M312 507c108 0 185 -54 222 -141c19 -42 21 -104 9 -142h-381c0 -88 67 -139 156 -139c58 0 114 16 161 44l54 -58c-55 -42 -128 -77 -215 -77c-154 0 -259 108 -259 256c0 142 98 257 253 257zM313 416c-85 0 -143 -60 -147 -128h287c0 15 -4 34 -12 49
c-21 46 -66 79 -128 79z" />
    <glyph glyph-name="uni0451" unicode="&#x451;" horiz-adv-x="605" 
d="M207 660c33 0 59 -23 59 -53s-26 -54 -59 -54c-34 0 -60 24 -60 54s26 53 60 53zM419 660c33 0 59 -23 59 -53s-26 -54 -59 -54c-34 0 -60 24 -60 54s26 53 60 53zM312 507c108 0 185 -54 222 -141c19 -42 21 -104 9 -142h-381c0 -88 67 -139 156 -139
c58 0 114 16 161 44l54 -58c-55 -42 -128 -77 -215 -77c-154 0 -259 108 -259 256c0 142 98 257 253 257zM313 416c-85 0 -143 -60 -147 -128h287c0 15 -4 34 -12 49c-21 46 -66 79 -128 79z" />
    <glyph glyph-name="uni0436" unicode="&#x436;" horiz-adv-x="883" 
d="M737 0l-84 130c-38 59 -55 79 -115 79h-47v-209h-100v209h-46c-60 0 -78 -20 -116 -79l-84 -130h-111l112 171c29 45 56 78 88 88c-27 11 -53 44 -81 85l-102 156h111l75 -114c38 -60 55 -80 115 -80h39v194h100v-194h39c60 0 77 20 116 80l74 114h112l-103 -156
c-27 -41 -54 -74 -81 -85c32 -10 59 -43 89 -88l111 -171h-111z" />
    <glyph glyph-name="uni0437" unicode="&#x437;" horiz-adv-x="554" 
d="M395 261c65 -14 96 -57 96 -116c0 -101 -85 -151 -203 -152h-13c-101 0 -191 50 -221 98l55 59c34 -38 95 -66 164 -66h12c61 0 106 25 106 75c0 39 -22 67 -85 68h-84v62h74c52 1 72 26 72 60c0 46 -41 67 -91 67h-9c-58 0 -107 -23 -144 -59l-53 58
c42 50 119 92 205 92h9c99 0 182 -49 182 -136c0 -48 -20 -91 -72 -110z" />
    <glyph glyph-name="uni0438" unicode="&#x438;" horiz-adv-x="635" 
d="M546 0h-100v336l-294 -336h-63v500h100v-336l294 336h63v-500z" />
    <glyph glyph-name="uni0439" unicode="&#x439;" horiz-adv-x="635" 
d="M318 551c-83 0 -150 59 -150 141h70c0 -40 35 -71 80 -71s80 31 80 71h70c0 -82 -67 -141 -150 -141zM546 0h-100v336l-294 -336h-63v500h100v-336l294 336h63v-500z" />
    <glyph glyph-name="uni043A" unicode="&#x43a;" horiz-adv-x="589" 
d="M449 0l-84 130c-38 59 -56 79 -115 79h-56v-209h-100v500h100v-194h48c60 0 77 20 115 80l75 114h111l-102 -156c-28 -41 -54 -74 -81 -85c32 -10 59 -43 88 -88l112 -171h-111z" />
    <glyph glyph-name="uni043B" unicode="&#x43b;" horiz-adv-x="593" 
d="M296 351l-156 -351h-106l231 500h62l231 -500h-105z" />
    <glyph glyph-name="uni043C" unicode="&#x43c;" horiz-adv-x="702" 
d="M613 0h-100v336l-162 -185l-162 185v-336h-100v500h63l199 -228l199 228h63v-500z" />
    <glyph glyph-name="uni043D" unicode="&#x43d;" horiz-adv-x="641" 
d="M552 0h-100v205h-263v-205h-100v500h100v-199h263v199h100v-500z" />
    <glyph glyph-name="uni043E" unicode="&#x43e;" horiz-adv-x="631" 
d="M315 507c142 0 257 -115 257 -257s-115 -256 -257 -256s-256 114 -256 256s114 257 256 257zM315 411c-83 0 -156 -66 -156 -161s73 -160 156 -160s157 65 157 160s-74 161 -157 161z" />
    <glyph glyph-name="uni043F" unicode="&#x43f;" horiz-adv-x="641" 
d="M552 0h-100v404h-263v-404h-100v500h463v-500z" />
    <glyph glyph-name="uni0440" unicode="&#x440;" horiz-adv-x="658" 
d="M352 506c142 0 247 -114 247 -256s-105 -257 -247 -257c-67 0 -126 34 -158 83v-260h-100v684h68l6 -92c37 59 105 98 184 98zM344 410c-83 0 -157 -65 -157 -160s74 -160 157 -160s156 65 156 160s-73 160 -156 160z" />
    <glyph glyph-name="uni0441" unicode="&#x441;" horiz-adv-x="566" 
d="M315 506c79 0 150 -36 197 -92l-60 -65c-41 43 -85 61 -137 61c-83 0 -156 -65 -156 -160s73 -160 156 -160c52 0 96 19 137 61l60 -65c-47 -56 -118 -92 -197 -92c-142 0 -256 114 -256 256s114 256 256 256z" />
    <glyph glyph-name="uni0442" unicode="&#x442;" horiz-adv-x="508" 
d="M303 404v-404h-100v404h-169v96h439v-96h-170z" />
    <glyph glyph-name="uni0443" unicode="&#x443;" horiz-adv-x="651" 
d="M567 500v-437c0 -148 -90 -254 -246 -254c-90 0 -164 32 -218 77l57 61c48 -29 98 -47 161 -47c91 0 146 50 146 142v46c-35 -60 -101 -83 -160 -83c-140 0 -218 93 -218 240v255h100v-249c0 -106 52 -150 133 -150c88 0 146 57 146 169v230h99z" />
    <glyph glyph-name="uni0444" unicode="&#x444;" horiz-adv-x="1028" 
d="M722 506c142 0 247 -114 247 -256s-105 -257 -247 -257c-67 0 -126 33 -158 82v-250h-100v249c-33 -48 -91 -81 -158 -81c-142 0 -247 115 -247 257s105 256 247 256c77 0 144 -38 181 -95l3 89h48l3 -88c37 56 104 94 181 94zM315 90c83 0 157 65 157 160
s-74 160 -157 160s-156 -65 -156 -160s73 -160 156 -160zM713 90c83 0 156 65 156 160s-73 160 -156 160s-157 -65 -157 -160s74 -160 157 -160z" />
    <glyph glyph-name="uni0445" unicode="&#x445;" horiz-adv-x="588" 
d="M292 176l-142 -176h-116l202 259l-191 241h116l134 -162l131 162h116l-191 -245l202 -255h-116z" />
    <glyph glyph-name="uni0447" unicode="&#x447;" horiz-adv-x="649" 
d="M560 0h-100v178c-31 -44 -85 -68 -152 -68c-163 0 -224 103 -224 250v140h100v-134c0 -106 36 -160 139 -160c102 0 137 63 137 147v147h100v-500z" />
    <glyph glyph-name="uni0446" unicode="&#x446;" horiz-adv-x="666" 
d="M632 -102h-100v102h-443v500h100v-404h257v404h100v-404h86v-198z" />
    <glyph glyph-name="uni0448" unicode="&#x448;" horiz-adv-x="916" 
d="M827 0h-738v500h100v-404h219v404h100v-404h220v404h99v-500z" />
    <glyph glyph-name="uni0449" unicode="&#x449;" horiz-adv-x="948" 
d="M913 -102h-100v102h-724v500h100v-404h219v404h100v-404h220v404h99v-404h86v-198z" />
    <glyph glyph-name="uni044C" unicode="&#x44c;" horiz-adv-x="591" 
d="M189 347h144c165 0 204 -96 204 -173c0 -78 -39 -174 -204 -174h-244v500h100v-153zM189 93h155c72 0 93 37 93 81c0 43 -21 80 -93 80h-155v-161z" />
    <glyph glyph-name="uni044A" unicode="&#x44a;" horiz-adv-x="655" 
d="M223 347h144c165 0 204 -96 204 -173c0 -78 -39 -174 -204 -174h-244v404h-89v96h189v-153zM223 93h155c72 0 93 37 93 81c0 43 -21 80 -93 80h-155v-161z" />
    <glyph glyph-name="uni044B" unicode="&#x44b;" horiz-adv-x="781" 
d="M189 347h144c165 0 204 -96 204 -173c0 -78 -39 -174 -204 -174h-244v500h100v-153zM692 0h-100v500h100v-500zM189 93h155c72 0 93 37 93 81c0 43 -21 80 -93 80h-155v-161z" />
    <glyph glyph-name="uni044D" unicode="&#x44d;" horiz-adv-x="566" 
d="M251 506c142 0 256 -114 256 -256s-114 -256 -256 -256c-79 0 -150 36 -197 92l60 65c41 -42 86 -61 137 -61c75 0 138 53 149 128h-184v65h184c-11 74 -75 127 -149 127c-51 0 -95 -18 -137 -61l-60 65c47 56 118 92 197 92z" />
    <glyph glyph-name="uni044E" unicode="&#x44e;" horiz-adv-x="842" 
d="M526 507c142 0 257 -115 257 -257s-115 -256 -257 -256c-126 0 -230 91 -250 211h-87v-205h-100v500h100v-199h89c21 117 124 206 248 206zM526 90c83 0 157 65 157 160s-74 161 -157 161s-156 -66 -156 -161s73 -160 156 -160z" />
    <glyph glyph-name="uni044F" unicode="&#x44f;" horiz-adv-x="577" 
d="M504 0h-100v154h-87c-54 -1 -71 -23 -109 -80l-50 -74h-109l58 88c23 33 40 62 67 80c-74 20 -119 85 -119 153c0 88 55 179 213 179h236v-500zM404 404h-146c-68 0 -103 -32 -103 -83c0 -50 35 -82 103 -82h146v165z" />
    <glyph glyph-name="uni0436.ss01" horiz-adv-x="870" 
d="M484 207v-207h-99v207h-80l-159 -207h-112l193 255l-184 245h112l150 -196h80v196h99v-196h80l150 196h112l-184 -245l193 -255h-112l-159 207h-80z" />
    <glyph glyph-name="uni043A.ss01" horiz-adv-x="595" 
d="M194 207v-207h-100v500h100v-196h95l150 196h112l-184 -245l193 -255h-112l-159 207h-95z" />
    <glyph glyph-name="uni044F.ss01" horiz-adv-x="573" 
d="M500 0h-100v154h-125l-121 -154h-110l128 169c-76 19 -121 84 -121 152c0 88 55 179 213 179h236v-500zM400 404h-146c-68 0 -103 -32 -103 -83c0 -50 35 -82 103 -82h146v165z" />
    <glyph glyph-name="zero" unicode="0" horiz-adv-x="827" 
d="M413 693c193 0 350 -157 350 -350c0 -194 -157 -350 -350 -350c-194 0 -350 156 -350 350c0 193 156 350 350 350zM413 591c-135 0 -241 -104 -241 -248c0 -145 106 -248 241 -248s242 103 242 248c0 144 -107 248 -242 248z" />
    <glyph glyph-name="one" unicode="1" horiz-adv-x="412" 
d="M302 0h-108v492l-80 -96l-70 54l196 235h62v-685z" />
    <glyph glyph-name="two" unicode="2" horiz-adv-x="634" 
d="M579 0h-525v63l298 254c67 57 106 98 106 155c0 76 -63 118 -137 119h-8c-59 0 -116 -25 -175 -86l-70 65c73 82 161 123 254 123h9c146 -2 234 -93 234 -200c0 -97 -62 -168 -180 -264l-146 -128h340v-101z" />
    <glyph glyph-name="three" unicode="3" 
d="M564 623l-229 -211c18 4 38 5 63 5c128 -12 193 -95 193 -197c0 -125 -85 -225 -252 -227h-8c-124 1 -218 56 -277 137l70 65c62 -70 125 -100 207 -100h6c89 1 152 58 152 140c0 75 -46 124 -156 124c-43 0 -82 -15 -107 -27l-53 40l230 212h-287v101h448v-62z" />
    <glyph glyph-name="four" unicode="4" horiz-adv-x="629" 
d="M510 124v-124h-108v124h-358v62l404 499h62v-460h74v-101h-74zM403 506l-230 -281h230v281z" />
    <glyph glyph-name="five" unicode="5" horiz-adv-x="643" 
d="M524 584h-322v-179c28 21 84 43 159 43c147 0 227 -93 227 -224c0 -118 -85 -229 -254 -231h-9c-124 1 -212 56 -271 137l70 65c62 -70 121 -100 203 -100h6c84 1 153 52 153 137c0 88 -58 136 -159 136c-73 0 -140 -35 -169 -58l-52 40v335h418v-101z" />
    <glyph glyph-name="six" unicode="6" horiz-adv-x="622" 
d="M333 693h6c102 -1 166 -43 210 -95l-70 -65c-45 41 -86 58 -141 58h-5c-116 0 -166 -108 -174 -220c30 55 92 94 175 94c129 0 233 -89 233 -231c0 -124 -91 -241 -250 -241c-156 0 -263 120 -263 283v49c0 198 91 368 279 368zM311 373c-86 0 -148 -59 -148 -132
c0 -80 55 -146 148 -146c86 0 148 59 148 139s-62 139 -148 139z" />
    <glyph glyph-name="seven" unicode="7" horiz-adv-x="553" 
d="M508 623l-347 -623h-116l326 584h-327v101h464v-62z" />
    <glyph glyph-name="eight" unicode="8" horiz-adv-x="605" 
d="M420 365c77 -24 130 -85 130 -169c0 -119 -91 -202 -244 -203h-6c-154 0 -246 84 -246 203c0 84 53 145 129 169c-55 23 -105 70 -105 152c0 94 82 176 220 176h10c138 0 217 -83 217 -176c0 -82 -49 -129 -105 -152zM182 498c0 -69 56 -100 121 -100
c64 0 121 31 121 100s-57 100 -121 100c-65 0 -121 -31 -121 -100zM303 93c84 0 145 45 145 121c0 75 -59 119 -145 120c-57 0 -145 -27 -145 -120c0 -76 61 -121 145 -121z" />
    <glyph glyph-name="nine" unicode="9" horiz-adv-x="622" 
d="M288 -7h-6c-102 1 -166 42 -210 95l70 64c45 -40 86 -57 141 -57h5c116 0 166 108 175 220c-31 -55 -93 -94 -176 -94c-129 0 -233 89 -233 231c0 124 91 241 250 241c156 0 263 -120 263 -283v-49c0 -198 -91 -368 -279 -368zM311 312c86 0 148 60 148 133
c0 80 -55 146 -148 146c-86 0 -148 -59 -148 -139s62 -140 148 -140z" />
    <glyph glyph-name="zero.lf" horiz-adv-x="841" 
d="M420 707c197 0 357 -160 357 -357c0 -198 -160 -357 -357 -357c-198 0 -357 159 -357 357c0 197 159 357 357 357zM421 605c-139 0 -249 -107 -249 -255c0 -149 110 -255 249 -255s249 106 249 255c0 148 -110 255 -249 255z" />
    <glyph glyph-name="one.lf" horiz-adv-x="412" 
d="M302 0h-108v507l-80 -96l-70 54l196 235h62v-700z" />
    <glyph glyph-name="two.lf" horiz-adv-x="634" 
d="M579 0h-525v63l298 260c77 69 106 106 106 164c0 75 -63 117 -136 118h-9c-59 0 -116 -25 -175 -85l-70 64c73 82 161 123 254 123h9c146 -1 234 -93 234 -199c0 -98 -54 -165 -180 -273l-147 -134h341v-101z" />
    <glyph glyph-name="three.lf" 
d="M564 637l-230 -225c18 4 38 6 64 5c127 -12 193 -94 193 -197c0 -124 -85 -224 -251 -227h-9c-124 1 -218 56 -277 137l70 65c62 -70 125 -100 207 -100h7c89 1 151 58 151 140c0 74 -47 124 -151 124c-48 0 -87 -15 -112 -27l-53 40l233 227h-290v101h448v-63z" />
    <glyph glyph-name="four.lf" horiz-adv-x="629" 
d="M510 132v-132h-108v132h-358v62l404 506h62v-467h74v-101h-74zM403 521l-230 -288h230v288z" />
    <glyph glyph-name="five.lf" horiz-adv-x="643" 
d="M524 599h-322v-187c28 20 84 43 159 43c147 0 227 -93 227 -224c0 -125 -85 -237 -254 -238h-9c-124 1 -212 56 -271 137l70 65c62 -70 121 -100 203 -100h7c84 1 152 53 152 144c0 86 -59 136 -154 136c-79 0 -144 -34 -174 -58l-52 40v343h418v-101z" />
    <glyph glyph-name="six.lf" horiz-adv-x="622" 
d="M334 465c129 0 233 -89 233 -231c0 -124 -91 -241 -250 -241c-156 0 -263 120 -263 283v56c0 203 89 373 275 375h7c105 0 169 -42 213 -94l-70 -65c-45 40 -85 57 -140 58h-6c-118 0 -170 -111 -176 -237c30 56 93 96 177 96zM311 95c86 0 148 59 148 139
s-62 139 -148 139s-148 -59 -148 -132c0 -80 55 -146 148 -146z" />
    <glyph glyph-name="seven.lf" horiz-adv-x="556" 
d="M511 637l-351 -637h-116l331 599h-328v101h464v-63z" />
    <glyph glyph-name="eight.lf" horiz-adv-x="605" 
d="M420 373c77 -25 130 -86 130 -172c0 -124 -90 -207 -243 -209h-7c-154 0 -246 84 -246 209c0 86 53 147 130 172c-56 23 -106 69 -106 151c0 99 78 181 214 183h14c138 0 219 -82 219 -183c0 -82 -49 -128 -105 -151zM182 505c0 -69 56 -100 121 -100
c64 0 121 31 121 100s-57 100 -121 100c-65 0 -121 -31 -121 -100zM303 95c84 0 145 45 145 123c0 79 -59 123 -145 124c-57 0 -145 -27 -145 -124c0 -78 61 -123 145 -123z" />
    <glyph glyph-name="nine.lf" horiz-adv-x="622" 
d="M287 235c-129 0 -233 89 -233 231c0 124 91 241 250 241c156 0 263 -120 263 -283v-56c0 -203 -89 -373 -275 -375h-7c-104 0 -169 42 -213 95l70 64c45 -39 85 -57 140 -57h6c118 0 170 111 176 236c-30 -56 -93 -96 -177 -96zM311 605c-86 0 -148 -59 -148 -139
s62 -139 148 -139s148 59 148 132c0 80 -55 146 -148 146z" />
    <glyph glyph-name="zero.osf" horiz-adv-x="683" 
d="M340 544c153 0 279 -123 279 -275c0 -153 -126 -276 -279 -276c-152 0 -277 123 -277 276c0 152 125 275 277 275zM341 442c-95 0 -169 -77 -169 -173c0 -98 74 -174 169 -174s170 76 170 174c0 96 -75 173 -170 173z" />
    <glyph glyph-name="one.osf" horiz-adv-x="412" 
d="M302 0h-108v344l-80 -96l-70 54l196 235h62v-537z" />
    <glyph glyph-name="two.osf" horiz-adv-x="634" 
d="M579 0h-525v63l326 193c60 36 78 59 78 101c0 46 -44 85 -118 86h-9c-60 0 -134 -26 -193 -86l-70 65c73 81 171 122 264 122h9c156 -1 224 -92 224 -174s-44 -132 -157 -186l-137 -83h308v-101z" />
    <glyph glyph-name="three.osf" 
d="M564 475l-230 -217c21 3 43 4 71 2c123 -14 186 -94 186 -195c0 -118 -85 -218 -252 -220h-8c-124 1 -218 56 -277 137l70 65c62 -70 125 -100 207 -100h6c90 1 152 58 152 134c0 73 -47 123 -151 123c-48 0 -87 -15 -112 -27l-53 40l231 219h-288v101h448v-62z" />
    <glyph glyph-name="four.osf" horiz-adv-x="629" 
d="M510 -24v-124h-108v124h-358v62l404 499h62v-460h74v-101h-74zM403 358l-230 -281h230v281z" />
    <glyph glyph-name="five.osf" horiz-adv-x="643" 
d="M524 436h-322v-179c28 21 84 43 159 43c147 0 227 -93 227 -224c0 -118 -85 -229 -256 -231h-7c-124 1 -212 56 -271 137l70 65c62 -70 121 -100 203 -100h6c84 1 153 52 153 137c0 87 -59 136 -154 136c-79 0 -144 -34 -174 -58l-52 40v335h418v-101z" />
    <glyph glyph-name="six.osf" horiz-adv-x="622" 
d="M334 465c129 0 233 -89 233 -231c0 -124 -91 -241 -250 -241c-156 0 -263 120 -263 283v49c0 198 91 368 279 368h6c102 -1 166 -43 210 -95l-70 -65c-45 41 -86 58 -141 58h-5c-116 0 -166 -108 -174 -220c30 55 92 94 175 94zM311 95c86 0 148 59 148 139
s-62 139 -148 139s-148 -59 -148 -132c0 -80 55 -146 148 -146z" />
    <glyph glyph-name="seven.osf" horiz-adv-x="553" 
d="M508 475l-347 -623h-116l326 584h-327v101h464v-62z" />
    <glyph glyph-name="eight.osf" horiz-adv-x="605" 
d="M420 365c77 -24 130 -85 130 -169c0 -119 -92 -203 -247 -203h-5c-153 1 -244 84 -244 203c0 84 53 145 129 169c-55 23 -105 70 -105 152c0 93 81 176 218 176h10c138 0 219 -82 219 -176c0 -82 -49 -129 -105 -152zM182 498c0 -69 56 -100 121 -100
c64 0 121 31 121 100s-57 100 -121 100c-65 0 -121 -31 -121 -100zM303 93c84 0 145 45 145 121c0 75 -59 119 -145 120c-57 0 -145 -27 -145 -120c0 -76 61 -121 145 -121z" />
    <glyph glyph-name="nine.osf" horiz-adv-x="622" 
d="M287 72c-129 0 -233 89 -233 231c0 124 91 241 250 241c156 0 263 -119 263 -283v-48c0 -199 -91 -369 -279 -369h-5c-103 1 -167 43 -211 95l70 65c46 -40 86 -58 141 -58h5c116 0 166 108 175 220c-31 -55 -93 -94 -176 -94zM311 442c-86 0 -148 -59 -148 -139
s62 -139 148 -139s148 59 148 133c0 80 -55 145 -148 145z" />
    <glyph glyph-name="zero.tf" horiz-adv-x="832" 
d="M416 707c197 0 357 -160 357 -357c0 -198 -160 -357 -357 -357c-198 0 -357 159 -357 357c0 197 159 357 357 357zM416 605c-139 0 -249 -107 -249 -255c0 -149 110 -255 249 -255s249 106 249 255c0 148 -110 255 -249 255z" />
    <glyph glyph-name="one.tf" horiz-adv-x="376" 
d="M317 0h-108v507l-80 -96l-70 54l196 235h62v-700z" />
    <glyph glyph-name="two.tf" horiz-adv-x="643" 
d="M584 0h-525v63l298 260c77 69 106 106 106 164c0 75 -63 117 -136 118h-9c-59 0 -116 -25 -175 -85l-70 64c73 82 161 123 254 123h9c146 -1 234 -93 234 -199c0 -98 -54 -165 -180 -273l-147 -134h341v-101z" />
    <glyph glyph-name="three.tf" horiz-adv-x="655" 
d="M569 637l-230 -225c18 4 38 6 64 5c127 -12 193 -94 193 -197c0 -124 -85 -224 -251 -227h-9c-124 1 -218 56 -277 137l70 65c62 -70 125 -100 207 -100h7c89 1 151 58 151 140c0 74 -47 124 -151 124c-48 0 -87 -15 -112 -27l-53 40l233 227h-290v101h448v-63z" />
    <glyph glyph-name="four.tf" horiz-adv-x="658" 
d="M525 132v-132h-108v132h-358v62l404 506h62v-467h74v-101h-74zM417 521l-230 -288h230v288z" />
    <glyph glyph-name="five.tf" horiz-adv-x="652" 
d="M529 599h-322v-187c28 20 84 43 159 43c147 0 227 -93 227 -224c0 -125 -85 -237 -254 -238h-9c-124 1 -212 56 -271 137l70 65c62 -70 121 -100 203 -100h7c84 1 152 53 152 144c0 86 -59 136 -154 136c-79 0 -144 -34 -174 -58l-52 40v343h418v-101z" />
    <glyph glyph-name="six.tf" horiz-adv-x="631" 
d="M339 465c129 0 233 -89 233 -231c0 -124 -91 -241 -250 -241c-156 0 -263 120 -263 283v56c0 203 89 373 275 375h7c105 0 169 -42 213 -94l-70 -65c-45 40 -85 57 -140 58h-6c-118 0 -170 -111 -176 -237c30 56 93 96 177 96zM316 95c86 0 148 59 148 139
s-62 139 -148 139s-148 -59 -148 -132c0 -80 55 -146 148 -146z" />
    <glyph glyph-name="seven.tf" horiz-adv-x="585" 
d="M526 637l-351 -637h-116l331 599h-328v101h464v-63z" />
    <glyph glyph-name="eight.tf" horiz-adv-x="614" 
d="M425 373c77 -25 130 -86 130 -172c0 -124 -90 -207 -243 -209h-7c-154 0 -246 84 -246 209c0 86 53 147 130 172c-56 23 -106 69 -106 151c0 99 78 181 214 183h14c138 0 219 -82 219 -183c0 -82 -49 -128 -105 -151zM186 505c0 -69 56 -100 121 -100
c64 0 121 31 121 100s-57 100 -121 100c-65 0 -121 -31 -121 -100zM307 95c84 0 145 45 145 123c0 79 -59 123 -145 124c-57 0 -145 -27 -145 -124c0 -78 61 -123 145 -123z" />
    <glyph glyph-name="nine.tf" horiz-adv-x="631" 
d="M292 235c-129 0 -233 89 -233 231c0 124 91 241 250 241c156 0 263 -120 263 -283v-56c0 -203 -89 -373 -275 -375h-7c-104 0 -169 42 -213 95l70 64c45 -39 85 -57 140 -57h6c118 0 170 111 176 236c-30 -56 -93 -96 -177 -96zM315 605c-86 0 -148 -59 -148 -139
s62 -139 148 -139s148 59 148 132c0 80 -55 146 -148 146z" />
    <glyph glyph-name="zero.tosf" horiz-adv-x="674" 
d="M336 546c153 0 279 -123 279 -276c0 -152 -126 -275 -279 -275c-152 0 -277 123 -277 275c0 153 125 276 277 276zM337 444c-95 0 -169 -77 -169 -174s74 -173 169 -173s170 76 170 173s-75 174 -170 174z" />
    <glyph glyph-name="one.tosf" horiz-adv-x="376" 
d="M317 0h-108v346l-80 -96l-70 54l196 235h62v-539z" />
    <glyph glyph-name="two.tosf" horiz-adv-x="643" 
d="M584 0h-525v63l326 193c60 36 78 59 78 101c0 46 -44 85 -118 86h-9c-60 0 -134 -26 -193 -86l-70 65c73 81 171 122 264 122h9c156 -1 224 -92 224 -174s-44 -132 -157 -186l-137 -83h308v-101z" />
    <glyph glyph-name="three.tosf" horiz-adv-x="655" 
d="M569 475l-230 -217c21 3 43 4 71 2c123 -14 186 -94 186 -195c0 -118 -85 -218 -252 -220h-8c-124 1 -218 56 -277 137l70 65c62 -70 125 -100 207 -100h6c90 1 152 58 152 134c0 73 -47 123 -151 123c-48 0 -87 -15 -112 -27l-53 40l231 219h-288v101h448v-62z" />
    <glyph glyph-name="four.tosf" horiz-adv-x="658" 
d="M525 -24v-124h-108v124h-358v62l404 499h62v-460h74v-101h-74zM417 358l-230 -281h230v281z" />
    <glyph glyph-name="five.tosf" horiz-adv-x="652" 
d="M529 436h-322v-179c28 21 84 43 159 43c147 0 227 -93 227 -224c0 -118 -85 -229 -256 -231h-7c-124 1 -212 56 -271 137l70 65c62 -70 121 -100 203 -100h6c84 1 153 52 153 137c0 87 -59 136 -154 136c-79 0 -144 -34 -174 -58l-52 40v335h418v-101z" />
    <glyph glyph-name="six.tosf" horiz-adv-x="631" 
d="M339 465c129 0 233 -89 233 -231c0 -124 -91 -241 -250 -241c-156 0 -263 120 -263 283v49c0 198 91 368 279 368h6c102 -1 166 -43 210 -95l-70 -65c-45 41 -86 58 -141 58h-5c-116 0 -166 -108 -174 -220c30 55 92 94 175 94zM316 95c86 0 148 59 148 139
s-62 139 -148 139s-148 -59 -148 -132c0 -80 55 -146 148 -146z" />
    <glyph glyph-name="seven.tosf" horiz-adv-x="582" 
d="M523 475l-347 -623h-116l326 584h-327v101h464v-62z" />
    <glyph glyph-name="eight.tosf" horiz-adv-x="614" 
d="M425 365c77 -24 130 -85 130 -169c0 -119 -92 -203 -247 -203h-5c-153 1 -244 84 -244 203c0 84 53 145 129 169c-55 23 -105 70 -105 152c0 93 81 176 218 176h10c138 0 219 -82 219 -176c0 -82 -49 -129 -105 -152zM186 498c0 -69 56 -100 121 -100
c64 0 121 31 121 100s-57 100 -121 100c-65 0 -121 -31 -121 -100zM307 93c84 0 145 45 145 121c0 75 -59 119 -145 120c-57 0 -145 -27 -145 -120c0 -76 61 -121 145 -121z" />
    <glyph glyph-name="nine.tosf" horiz-adv-x="631" 
d="M292 72c-129 0 -233 89 -233 231c0 124 91 241 250 241c156 0 263 -119 263 -283v-48c0 -199 -91 -369 -279 -369h-5c-103 1 -167 43 -211 95l70 65c46 -40 86 -58 141 -58h5c116 0 166 108 175 220c-31 -55 -93 -94 -176 -94zM315 442c-86 0 -148 -59 -148 -139
s62 -139 148 -139s148 59 148 133c0 80 -55 145 -148 145z" />
    <glyph glyph-name="fraction" unicode="&#x2044;" horiz-adv-x="491" 
d="M446 700l-337 -700h-65l337 700h65z" />
    <glyph glyph-name="onehalf" unicode="&#xbd;" horiz-adv-x="763" 
d="M217 382h-73v217l-46 -56l-39 30l106 127h52v-318zM209 0h-65l337 700h65zM703 0h-288v36l161 113c32 22 50 38 50 62c0 25 -23 49 -61 49h-5c-39 0 -73 -22 -92 -41l-45 42c40 37 86 65 150 65h5c73 -1 118 -48 118 -100s-35 -83 -90 -116l-69 -44h166v-66z" />
    <glyph glyph-name="onequarter" unicode="&#xbc;" horiz-adv-x="703" 
d="M144 599l-46 -56l-39 30l106 127h52v-318h-73v217zM209 0h-65l337 700h65zM607 59v-59h-72v59h-174v36l198 223h48v-201h37v-58h-37zM535 226l-99 -109h99v109z" />
    <glyph glyph-name="threequarters" unicode="&#xbe;" horiz-adv-x="785" 
d="M324 654l-110 -85c10 0 23 0 40 -3c60 -10 89 -43 89 -87c0 -54 -46 -104 -131 -104h-5c-69 0 -117 31 -148 64l41 38c16 -14 43 -39 94 -39c46 0 79 23 79 53c0 26 -26 45 -69 44c-25 0 -37 -4 -48 -9l-25 20l113 92h-152v62h232v-46zM292 0h-65l337 700h65zM690 59v-59
h-72v59h-174v36l198 223h48v-201h37v-58h-37zM617 226l-99 -109h99v109z" />
    <glyph glyph-name="oneeighth" unicode="&#x215b;" horiz-adv-x="748" 
d="M144 382v217l-46 -56l-39 30l106 127h52v-318h-73zM209 0h-65l337 700h65zM631 170c35 -13 58 -42 58 -79c0 -57 -45 -98 -131 -98h-3c-87 0 -133 41 -133 98c0 37 23 66 58 79c-25 12 -46 34 -46 70c0 44 39 84 118 85h5c80 0 121 -40 121 -85c0 -36 -22 -58 -47 -70z
M556 188c24 0 60 9 60 43c0 30 -27 44 -60 44s-59 -14 -59 -44c0 -28 25 -43 59 -43zM556 45c41 0 70 21 70 54s-29 54 -70 54c-42 0 -71 -21 -71 -54s29 -54 71 -54z" />
    <glyph glyph-name="threeeighths" unicode="&#x215c;" horiz-adv-x="831" 
d="M324 654l-110 -85c10 0 23 0 40 -3c60 -10 89 -43 89 -87c0 -54 -46 -104 -131 -104h-5c-69 0 -117 31 -148 64l41 38c16 -14 43 -39 94 -39c46 0 79 23 79 53c0 26 -26 45 -69 44c-25 0 -37 -4 -48 -9l-25 20l113 92h-152v62h232v-46zM292 0h-65l337 700h65zM713 170
c35 -13 58 -42 58 -79c0 -57 -45 -98 -131 -98h-3c-87 0 -133 41 -133 98c0 37 23 66 58 79c-25 12 -46 34 -46 70c0 44 39 84 118 85h5c80 0 121 -40 121 -85c0 -36 -22 -58 -47 -70zM638 188c24 0 60 9 60 43c0 30 -27 44 -60 44s-59 -14 -59 -44c0 -28 25 -43 59 -43z
M638 45c41 0 70 21 70 54s-29 54 -70 54c-42 0 -71 -21 -71 -54s29 -54 71 -54z" />
    <glyph glyph-name="fiveeighths" unicode="&#x215d;" horiz-adv-x="818" 
d="M316 638h-166v-71c18 8 44 14 74 14c75 0 119 -42 119 -101c0 -54 -46 -104 -131 -105h-5c-69 0 -117 31 -148 64l41 38c16 -14 43 -39 94 -39c46 0 79 23 79 53s-25 50 -69 50c-29 1 -59 -6 -80 -18l-29 18v159h221v-62zM279 0h-65l337 700h65zM701 170
c35 -13 58 -42 58 -79c0 -57 -45 -98 -131 -98h-3c-87 0 -133 41 -133 98c0 37 23 66 58 79c-25 12 -46 34 -46 70c0 44 39 84 118 85h5c80 0 121 -40 121 -85c0 -36 -22 -58 -47 -70zM625 188c24 0 60 9 60 43c0 30 -27 44 -60 44s-59 -14 -59 -44c0 -28 25 -43 59 -43z
M626 45c41 0 70 21 70 54s-29 54 -70 54c-42 0 -71 -21 -71 -54s29 -54 71 -54z" />
    <glyph glyph-name="seveneighths" unicode="&#x215e;" horiz-adv-x="725" 
d="M59 382l159 256h-154v62h239v-41l-172 -277h-72zM186 0h-65l337 700h65zM608 170c35 -13 58 -42 58 -79c0 -57 -45 -98 -131 -98h-3c-87 0 -133 41 -133 98c0 37 23 66 58 79c-25 12 -46 34 -46 70c0 44 39 84 118 85h5c80 0 121 -40 121 -85c0 -36 -22 -58 -47 -70z
M532 188c24 0 60 9 60 43c0 30 -27 44 -60 44s-59 -14 -59 -44c0 -28 25 -43 59 -43zM533 45c41 0 70 21 70 54s-29 54 -70 54c-42 0 -71 -21 -71 -54s29 -54 71 -54z" />
    <glyph glyph-name="zero.dnom" horiz-adv-x="410" 
d="M205 325c96 0 171 -74 171 -166s-75 -166 -171 -166c-97 0 -172 74 -172 166s75 166 172 166zM205 259c-57 0 -99 -41 -99 -100c0 -60 42 -100 99 -100s99 40 99 100c0 59 -42 100 -99 100z" />
    <glyph glyph-name="one.dnom" horiz-adv-x="247" 
d="M202 0h-73v217l-46 -56l-39 30l106 127h52v-318z" />
    <glyph glyph-name="two.dnom" horiz-adv-x="377" 
d="M332 0h-288v36l161 113c32 22 50 38 50 62c0 25 -23 49 -61 49h-5c-39 0 -73 -22 -92 -41l-45 42c40 37 86 65 150 65h5c73 -1 118 -48 118 -100s-35 -83 -90 -116l-69 -44h166v-66z" />
    <glyph glyph-name="three.dnom" horiz-adv-x="373" 
d="M309 273l-110 -85c10 0 23 -1 40 -3c60 -10 89 -44 89 -87c0 -54 -46 -104 -131 -105h-5c-69 0 -117 31 -148 64l41 38c16 -14 43 -39 94 -38c46 0 79 22 79 52c0 27 -26 45 -69 45c-25 -1 -37 -4 -48 -10l-25 20l113 92h-152v62h232v-45z" />
    <glyph glyph-name="four.dnom" horiz-adv-x="372" 
d="M290 59v-59h-72v59h-174v36l198 223h48v-201h37v-58h-37zM218 226l-99 -109h99v109z" />
    <glyph glyph-name="five.dnom" horiz-adv-x="373" 
d="M301 256h-166v-71c18 8 44 14 74 14c75 0 119 -42 119 -101c0 -54 -46 -104 -131 -105h-5c-69 0 -117 31 -148 64l41 38c16 -14 43 -39 94 -38c46 0 79 22 79 52s-25 50 -69 50c-29 1 -59 -5 -80 -18l-29 18v159h221v-62z" />
    <glyph glyph-name="six.dnom" horiz-adv-x="363" 
d="M197 217c67 0 121 -42 121 -110c0 -58 -49 -114 -134 -114c-89 0 -140 57 -140 134v23c0 94 46 175 150 175h4c54 0 86 -21 107 -45l-36 -34c-19 14 -39 26 -71 26h-4c-53 0 -81 -44 -87 -92c17 22 47 37 90 37zM182 48c41 0 70 26 70 59c0 34 -29 60 -70 60
s-70 -26 -70 -57c0 -34 26 -62 70 -62z" />
    <glyph glyph-name="seven.dnom" horiz-adv-x="333" 
d="M288 277l-172 -277h-72l159 257h-154v61h239v-41z" />
    <glyph glyph-name="eight.dnom" horiz-adv-x="356" 
d="M253 170c35 -13 58 -42 58 -79c0 -57 -45 -98 -131 -98h-3c-87 0 -133 41 -133 98c0 37 23 66 58 79c-25 12 -46 34 -46 70c0 44 39 84 118 85h5c80 0 121 -40 121 -85c0 -36 -22 -58 -47 -70zM178 188c24 0 60 9 60 43c0 30 -27 44 -60 44s-59 -14 -59 -44
c0 -28 25 -43 59 -43zM179 45c41 0 70 21 70 54s-29 54 -70 54c-42 0 -71 -21 -71 -54s29 -54 71 -54z" />
    <glyph glyph-name="nine.dnom" horiz-adv-x="363" 
d="M166 101c-68 0 -122 42 -122 110c0 58 49 114 134 114c90 0 140 -57 140 -134v-23c0 -94 -46 -175 -150 -175h-3c-55 1 -87 21 -108 45l37 34c18 -14 39 -26 71 -26h3c53 0 81 44 87 92c-17 -22 -47 -37 -89 -37zM182 270c-41 0 -70 -26 -70 -59c0 -34 29 -60 70 -60
s70 26 70 57c0 34 -26 62 -70 62z" />
    <glyph glyph-name="zero.numr" horiz-adv-x="410" 
d="M205 707c96 0 171 -74 171 -166s-75 -166 -171 -166c-97 0 -172 74 -172 166s75 166 172 166zM205 641c-57 0 -99 -40 -99 -100c0 -59 42 -100 99 -100s99 41 99 100c0 60 -42 100 -99 100z" />
    <glyph glyph-name="one.numr" horiz-adv-x="247" 
d="M202 382h-73v217l-46 -56l-39 30l106 127h52v-318z" />
    <glyph glyph-name="two.numr" horiz-adv-x="377" 
d="M332 382l-288 -1v37l161 113c32 21 50 38 50 61c0 25 -23 49 -61 50h-5c-39 0 -73 -23 -92 -41l-45 41c40 38 86 65 150 65h5c73 -1 118 -48 118 -100s-35 -82 -90 -116l-69 -43h166v-66z" />
    <glyph glyph-name="three.numr" horiz-adv-x="373" 
d="M309 654l-110 -85c10 0 23 0 40 -3c60 -10 89 -43 89 -87c0 -54 -46 -104 -131 -104h-5c-69 0 -117 31 -148 64l41 38c16 -14 43 -39 94 -39c46 0 79 23 79 53c0 26 -26 45 -69 44c-25 0 -37 -4 -48 -9l-25 20l113 92h-152v62h232v-46z" />
    <glyph glyph-name="four.numr" horiz-adv-x="372" 
d="M290 440v-58h-72v58h-174v36l198 224h48v-201h37v-59h-37zM218 607l-99 -108h99v108z" />
    <glyph glyph-name="five.numr" horiz-adv-x="373" 
d="M301 638h-166v-71c18 8 44 14 74 14c75 0 119 -42 119 -101c0 -54 -46 -104 -131 -105h-5c-69 0 -117 31 -148 64l41 38c16 -14 43 -39 94 -39c46 0 79 23 79 53s-25 50 -69 50c-29 1 -59 -6 -80 -18l-29 18v159h221v-62z" />
    <glyph glyph-name="six.numr" horiz-adv-x="363" 
d="M197 599c67 0 121 -42 121 -110c0 -58 -49 -114 -134 -114c-89 0 -140 57 -140 135v23c0 93 46 174 150 174h4c54 0 86 -21 107 -45l-36 -34c-19 14 -39 26 -71 26h-4c-53 0 -81 -44 -87 -92c17 22 47 37 90 37zM182 431c41 0 70 25 70 58c0 34 -29 60 -70 60
s-70 -26 -70 -57c0 -34 26 -61 70 -61z" />
    <glyph glyph-name="seven.numr" horiz-adv-x="333" 
d="M288 659l-172 -277h-72l159 256h-154v62h239v-41z" />
    <glyph glyph-name="eight.numr" horiz-adv-x="356" 
d="M253 552c35 -13 58 -42 58 -79c0 -57 -45 -98 -131 -98h-3c-87 0 -133 41 -133 98c0 37 23 66 58 79c-25 12 -46 34 -46 70c0 44 39 84 118 85h5c80 0 121 -40 121 -85c0 -36 -22 -58 -47 -70zM178 570c24 0 60 9 60 43c0 29 -27 44 -60 44s-59 -15 -59 -44
c0 -28 25 -43 59 -43zM179 427c41 0 70 21 70 54s-29 54 -70 54c-42 0 -71 -21 -71 -54s29 -54 71 -54z" />
    <glyph glyph-name="nine.numr" horiz-adv-x="363" 
d="M166 483c-68 0 -122 42 -122 110c0 58 49 114 134 114c90 0 140 -57 140 -134v-23c0 -94 -46 -175 -150 -175h-3c-55 1 -87 21 -108 45l37 34c18 -14 39 -26 71 -26h3c53 0 81 44 87 92c-17 -22 -47 -37 -89 -37zM182 652c-41 0 -70 -26 -70 -59c0 -34 29 -60 70 -60
s70 26 70 57c0 34 -26 62 -70 62z" />
    <glyph glyph-name="asterisk" unicode="*" horiz-adv-x="467" 
d="M369 416l-46 -37l-90 126l-90 -126l-46 37l101 115l-139 34l16 56l135 -46l-6 142h58l-6 -143l136 47l16 -56l-140 -34z" />
    <glyph glyph-name="backslash" unicode="\" horiz-adv-x="441" 
d="M382 0h-64l-259 700h65z" />
    <glyph glyph-name="bullet" unicode="&#x2022;" horiz-adv-x="405" 
d="M203 441c79 0 143 -64 143 -143c0 -80 -64 -144 -143 -144c-80 0 -144 64 -144 144c0 79 64 143 144 143z" />
    <glyph glyph-name="colon" unicode=":" horiz-adv-x="241" 
d="M121 418c34 0 61 -24 61 -56c0 -31 -27 -55 -61 -55c-35 0 -62 24 -62 55c0 32 27 56 62 56zM121 104c34 0 61 -24 61 -55s-27 -56 -61 -56c-35 0 -62 25 -62 56s27 55 62 55z" />
    <glyph glyph-name="comma" unicode="," horiz-adv-x="298" 
d="M239 104l-107 -235h-73l72 235h108z" />
    <glyph glyph-name="ellipsis" unicode="&#x2026;" horiz-adv-x="686" 
d="M121 104c34 0 61 -24 61 -56c0 -31 -27 -55 -61 -55c-35 0 -62 24 -62 55c0 32 27 56 62 56zM343 104c34 0 61 -24 61 -56c0 -31 -27 -55 -61 -55c-35 0 -62 24 -62 55c0 32 27 56 62 56zM566 104c34 0 61 -24 61 -56c0 -31 -27 -55 -61 -55c-35 0 -62 24 -62 55
c0 32 27 56 62 56z" />
    <glyph glyph-name="exclam" unicode="!" horiz-adv-x="241" 
d="M175 700v-285l-10 -237h-88l-10 237v285h108zM121 104c34 0 61 -24 61 -56c0 -31 -27 -55 -61 -55c-35 0 -62 24 -62 55c0 32 27 56 62 56z" />
    <glyph glyph-name="exclamdown" unicode="&#xa1;" horiz-adv-x="241" 
d="M121 547c34 0 61 -25 61 -56s-27 -55 -61 -55c-35 0 -62 24 -62 55s27 56 62 56zM67 -160v285l10 236h88l10 -237v-284h-108z" />
    <glyph glyph-name="numbersign" unicode="#" horiz-adv-x="691" 
d="M458 273h131l-12 -58h-131l-46 -215h-65l46 215h-129l-46 -215h-65l46 215h-128l12 58h129l30 144h-128l12 58h129l47 225h65l-48 -225h129l48 225h65l-48 -225h131l-12 -58h-132zM294 417l-30 -144h129l30 144h-129z" />
    <glyph glyph-name="period" unicode="." horiz-adv-x="241" 
d="M121 104c34 0 61 -24 61 -56c0 -31 -27 -55 -61 -55c-35 0 -62 24 -62 55c0 32 27 56 62 56z" />
    <glyph glyph-name="periodcentered" unicode="&#xb7;" horiz-adv-x="241" 
d="M121 362c36 0 61 -29 61 -61c0 -33 -25 -61 -61 -61s-62 28 -62 61c0 32 26 61 62 61z" />
    <glyph glyph-name="question" unicode="?" horiz-adv-x="655" 
d="M336 707h9c166 -3 251 -102 251 -220c0 -125 -93 -198 -222 -211v-85h-108v146c174 -8 228 54 228 135c0 78 -63 132 -152 133h-6c-82 0 -145 -33 -207 -100l-70 65c59 77 153 136 277 137zM320 104c34 0 61 -24 61 -56c0 -31 -27 -55 -61 -55c-35 0 -62 24 -62 55
c0 32 27 56 62 56z" />
    <glyph glyph-name="questiondown" unicode="&#xbf;" horiz-adv-x="655" 
d="M336 441c-35 0 -62 24 -62 56c0 31 27 55 62 55c34 0 61 -24 61 -55c0 -32 -27 -56 -61 -56zM320 -162h-10c-166 3 -251 102 -251 220c0 125 93 198 223 211v85h108v-146c-175 8 -228 -54 -228 -135c0 -77 62 -132 151 -134h7c82 1 144 34 206 101l70 -65
c-59 -77 -153 -136 -276 -137z" />
    <glyph glyph-name="quotedbl" unicode="&#x22;" horiz-adv-x="303" 
d="M121 527h-54l-8 173h70zM236 527h-54l-8 173h70z" />
    <glyph glyph-name="quotesingle" unicode="'" horiz-adv-x="188" 
d="M121 527h-54l-8 173h70z" />
    <glyph glyph-name="semicolon" unicode=";" horiz-adv-x="311" 
d="M191 418c34 0 61 -24 61 -56c0 -31 -27 -55 -61 -55c-35 0 -62 24 -62 55c0 32 27 56 62 56zM239 104l-107 -235h-73l72 235h108z" />
    <glyph glyph-name="slash" unicode="/" horiz-adv-x="441" 
d="M382 700l-258 -700h-65l259 700h64z" />
    <glyph glyph-name="underscore" unicode="_" horiz-adv-x="533" 
d="M474 -108h-415v50h415v-50z" />
    <glyph glyph-name="braceleft" unicode="{" horiz-adv-x="395" 
d="M336 648h-23c-27 0 -51 -23 -51 -56v-144c0 -67 -25 -124 -89 -138c64 -14 89 -65 89 -124v-168c0 -33 24 -56 51 -56h23v-101h-40c-83 0 -141 53 -142 144l-1 155c-2 80 -32 101 -89 103h-5v94h5c58 1 88 22 89 101l1 148c1 91 59 144 142 144h40v-102z" />
    <glyph glyph-name="braceright" unicode="}" horiz-adv-x="395" 
d="M59 750h40c83 0 141 -53 142 -144l1 -148c1 -79 32 -100 89 -101h5v-94h-5c-57 -2 -87 -23 -89 -103l-1 -155c-1 -91 -59 -144 -142 -144h-40v101h23c27 0 52 23 52 56v168c0 59 24 110 88 124c-64 14 -89 71 -89 138v144c0 33 -24 56 -51 56h-23v102z" />
    <glyph glyph-name="bracketleft" unicode="[" horiz-adv-x="291" 
d="M167 -38h65v-102h-173v890h173v-102h-65v-686z" />
    <glyph glyph-name="bracketright" unicode="]" horiz-adv-x="291" 
d="M59 648v102h173v-890h-173v102h65v686h-65z" />
    <glyph glyph-name="parenleft" unicode="(" horiz-adv-x="381" 
d="M322 744v-102c-92 -77 -153 -208 -155 -331v-14c0 -124 62 -255 155 -335v-102c-159 88 -263 263 -263 437v14c1 172 104 348 263 433z" />
    <glyph glyph-name="parenright" unicode=")" horiz-adv-x="381" 
d="M59 642v102c159 -85 261 -261 263 -433v-14c0 -174 -104 -349 -263 -437v102c93 80 154 211 154 335v14c-1 123 -62 254 -154 331z" />
    <glyph glyph-name="emdash" unicode="&#x2014;" horiz-adv-x="658" 
d="M599 256h-540v64h540v-64z" />
    <glyph glyph-name="endash" unicode="&#x2013;" horiz-adv-x="490" 
d="M431 256h-372v64h372v-64z" />
    <glyph glyph-name="hyphen" unicode="-" horiz-adv-x="366" 
d="M307 256h-248v64h248v-64z" />
    <glyph glyph-name="guillemotleft" unicode="&#xab;" horiz-adv-x="462" 
d="M240 337l-86 -74l86 -73v-91l-181 164l181 165v-91zM403 337l-86 -74l86 -73v-91l-181 164l181 165v-91z" />
    <glyph glyph-name="guillemotright" unicode="&#xbb;" horiz-adv-x="462" 
d="M240 263l-181 -164v91l86 73l-86 74v91zM403 263l-181 -164v91l86 73l-86 74v91z" />
    <glyph glyph-name="guilsinglleft" unicode="&#x2039;" horiz-adv-x="299" 
d="M240 337l-86 -74l86 -73v-91l-181 164l181 165v-91z" />
    <glyph glyph-name="guilsinglright" unicode="&#x203a;" horiz-adv-x="299" 
d="M240 263l-181 -164v91l86 73l-86 74v91z" />
    <glyph glyph-name="quotedblbase" unicode="&#x201e;" horiz-adv-x="444" 
d="M239 104l-107 -235h-73l72 235h108zM385 104l-107 -235h-73l72 235h108z" />
    <glyph glyph-name="quotedblleft" unicode="&#x201c;" horiz-adv-x="444" 
d="M59 465l107 235h73l-72 -235h-108zM205 465l107 235h73l-72 -235h-108z" />
    <glyph glyph-name="quotedblright" unicode="&#x201d;" horiz-adv-x="444" 
d="M239 700l-107 -235h-73l72 235h108zM385 700l-107 -235h-73l72 235h108z" />
    <glyph glyph-name="quoteleft" unicode="&#x2018;" horiz-adv-x="298" 
d="M59 465l107 235h73l-72 -235h-108z" />
    <glyph glyph-name="quoteright" unicode="&#x2019;" horiz-adv-x="298" 
d="M239 700l-107 -235h-73l72 235h108z" />
    <glyph glyph-name="quotesinglbase" unicode="&#x201a;" horiz-adv-x="298" 
d="M239 104l-107 -235h-73l72 235h108z" />
    <glyph glyph-name="space" unicode=" " horiz-adv-x="328" 
 />
    <glyph glyph-name="cent" unicode="&#xa2;" horiz-adv-x="571" 
d="M343 408v-316c40 6 76 25 109 59l60 -65c-41 -49 -101 -83 -169 -90v-94h-64v94c-125 18 -220 124 -220 254s95 236 220 254v97h64v-97c68 -7 128 -41 169 -90l-60 -65c-33 35 -69 54 -109 59zM159 250c0 -81 53 -140 120 -156v312c-67 -16 -120 -75 -120 -156z" />
    <glyph glyph-name="currency" unicode="&#xa4;" horiz-adv-x="615" 
d="M555 473l-61 -60c64 -83 64 -199 0 -282l60 -60l-45 -45l-60 60c-83 -64 -199 -64 -282 0l-60 -61l-46 46l61 60c-64 83 -64 199 0 282l-61 60l45 46l61 -61c83 64 199 64 282 0l60 60zM248 159c56 -32 135 -15 168 53s6 139 -50 172c-57 32 -136 14 -168 -54
c-33 -67 -7 -138 50 -171z" />
    <glyph glyph-name="dollar" unicode="$" horiz-adv-x="678" 
d="M619 204c0 -126 -110 -205 -252 -211v-45h-64v47c-116 13 -201 72 -244 145l70 65c27 -50 87 -96 174 -108v222c-137 16 -227 69 -227 183c0 119 101 195 227 204v44h64v-45c88 -8 171 -52 229 -114l-70 -65c-42 41 -104 69 -159 78v-191l16 -2c141 -17 236 -71 236 -207
zM184 505c0 -51 45 -72 119 -84v184c-57 -7 -119 -37 -119 -100zM367 311v-217c84 5 144 45 144 110c0 70 -56 96 -142 107h-2z" />
    <glyph glyph-name="Euro" unicode="&#x20ac;" horiz-adv-x="815" 
d="M492 95c76 0 144 28 194 79l70 -65c-66 -71 -160 -116 -264 -116c-163 0 -301 110 -343 260h-90v63h79c-1 11 -2 23 -2 34c0 12 1 25 2 37h-79v63h91c43 148 180 257 342 257c104 0 198 -45 264 -116l-70 -65c-50 50 -118 79 -194 79c-105 0 -193 -61 -230 -155h287
l-20 -63h-283c-1 -12 -2 -24 -2 -37c0 -12 1 -23 2 -34h225l-20 -63h-190c36 -96 125 -158 231 -158z" />
    <glyph glyph-name="sterling" unicode="&#xa3;" horiz-adv-x="682" 
d="M430 283h-182c18 -97 23 -145 -35 -181h361v-102h-514v69c101 53 101 105 81 214h-82v101h63c-5 31 -10 65 -15 103c-13 155 112 220 248 220h9c98 -1 194 -47 258 -116l-70 -65c-51 49 -129 80 -192 80l-9 -1c-58 0 -148 -21 -135 -135c4 -31 8 -60 13 -86h201v-101z
" />
    <glyph glyph-name="yen" unicode="&#xa5;" horiz-adv-x="742" 
d="M456 292h163v-94h-194v-198h-108v198h-195v94h164l-227 408h123l189 -331l189 331h123z" />
    <glyph glyph-name="approxequal" unicode="&#x2248;" horiz-adv-x="542" 
d="M59 276l41 65c40 66 105 62 151 35l61 -35c34 -20 75 -24 96 8l24 37h51l-41 -65c-40 -66 -105 -62 -151 -35l-61 36c-34 19 -75 23 -96 -9l-24 -37h-51zM483 250l-41 -65c-40 -66 -105 -62 -151 -35l-61 36c-34 19 -75 23 -96 -9l-24 -37h-51l41 65c40 66 105 62 151 35
l61 -35c34 -20 75 -24 96 8l24 37h51z" />
    <glyph glyph-name="asciitilde" unicode="~" horiz-adv-x="545" 
d="M486 329l-43 -79c-36 -67 -105 -61 -150 -35l-61 36c-34 20 -76 24 -97 -9l-20 -31h-56l43 79c36 67 105 61 150 35l61 -36c34 -20 76 -24 96 9l21 31h56z" />
    <glyph glyph-name="divide" unicode="&#xf7;" horiz-adv-x="532" 
d="M267 480c34 0 61 -25 61 -56s-27 -55 -61 -55c-35 0 -62 24 -62 55s27 56 62 56zM473 226h-414v63h414v-63zM267 145c34 0 61 -25 61 -56s-27 -55 -61 -55c-35 0 -62 24 -62 55s27 56 62 56z" />
    <glyph glyph-name="emptyset" unicode="&#x2205;" horiz-adv-x="659" 
d="M596 473l-64 -65c34 -43 54 -98 54 -158c0 -142 -115 -256 -257 -256c-59 0 -114 20 -157 53l-65 -65l-45 46l65 65c-34 43 -54 98 -54 157c0 142 114 257 256 257c59 0 114 -20 157 -54l65 65zM173 250c0 -33 9 -63 24 -87l220 221c-25 17 -56 27 -88 27
c-83 0 -156 -66 -156 -161zM486 250c0 33 -9 63 -25 88l-220 -221c26 -17 56 -27 88 -27c83 0 157 65 157 160z" />
    <glyph glyph-name="equal" unicode="=" horiz-adv-x="532" 
d="M473 311h-414v64h414v-64zM473 168h-414v64h414v-64z" />
    <glyph glyph-name="greater" unicode="&#x3e;" horiz-adv-x="471" 
d="M412 342l-353 -203v90l193 112l-193 113v90z" />
    <glyph glyph-name="greaterequal" unicode="&#x2265;" horiz-adv-x="471" 
d="M412 318l-353 -203v91l193 111l-193 113v90zM412 0h-353v64h353v-64z" />
    <glyph glyph-name="infinity" unicode="&#x221e;" horiz-adv-x="656" 
d="M179 330h6c43 0 97 -26 143 -87c46 61 100 87 143 87h6c71 0 120 -58 120 -138v-11c0 -79 -49 -137 -120 -137h-6c-43 0 -97 26 -143 86c-46 -60 -100 -86 -143 -86h-6c-71 0 -120 54 -120 137v11c0 79 49 138 120 138zM194 265h-4c-40 0 -66 -33 -66 -75v-6
c0 -47 26 -75 66 -75h4c32 0 65 26 97 80c-31 52 -67 76 -97 76zM465 265h-4c-30 0 -66 -26 -97 -79c31 -55 67 -78 97 -78h4c40 0 66 34 66 76v6c0 42 -26 75 -66 75z" />
    <glyph glyph-name="integral" unicode="&#x222b;" horiz-adv-x="352" 
d="M293 648h-14c-45 0 -71 -37 -68 -79l38 -541c8 -99 -58 -167 -159 -167h-31v101h14c44 0 71 38 68 80l-38 541c-9 100 58 167 159 167h31v-102z" />
    <glyph glyph-name="less" unicode="&#x3c;" horiz-adv-x="471" 
d="M412 454l-193 -113l193 -112v-90l-353 203l353 202v-90z" />
    <glyph glyph-name="lessequal" unicode="&#x2264;" horiz-adv-x="471" 
d="M412 430l-193 -113l193 -111v-91l-353 203l353 202v-90zM412 0h-353v64h353v-64z" />
    <glyph glyph-name="logicalnot" unicode="&#xac;" horiz-adv-x="532" 
d="M404 250h-345v64h414v-173h-69v109z" />
    <glyph glyph-name="minus" unicode="&#x2212;" horiz-adv-x="532" 
d="M473 250h-414v64h414v-64z" />
    <glyph glyph-name="multiply" unicode="&#xd7;" horiz-adv-x="456" 
d="M397 405l-124 -123l124 -124l-46 -45l-123 123l-124 -123l-45 45l123 124l-123 123l45 46l124 -124l123 124z" />
    <glyph glyph-name="notequal" unicode="&#x2260;" horiz-adv-x="532" 
d="M309 311l-29 -79h193v-64h-216l-46 -127h-65l46 127h-133v64h156l29 79h-185v64h208l45 125h65l-45 -125h141v-64h-164z" />
    <glyph glyph-name="partialdiff" unicode="&#x2202;" horiz-adv-x="662" 
d="M365 707h7c187 0 258 -170 221 -375l-10 -56c-29 -163 -156 -283 -312 -283c-160 0 -230 117 -208 241c25 142 144 231 273 231c84 0 141 -40 160 -96c18 124 -22 235 -140 236h-6c-47 0 -88 -17 -134 -50l-59 65c46 45 114 86 208 87zM344 373c-86 0 -159 -59 -173 -139
s38 -139 124 -139c93 0 160 66 174 146c13 73 -39 132 -125 132z" />
    <glyph glyph-name="percent" unicode="%" horiz-adv-x="823" 
d="M231 707c96 0 171 -74 171 -166s-75 -166 -171 -166c-97 0 -172 74 -172 166s75 166 172 166zM640 700l-392 -700h-66l391 700h67zM231 641c-57 0 -99 -40 -99 -100c0 -59 42 -100 99 -100s99 41 99 100c0 60 -42 100 -99 100zM593 325c96 0 171 -74 171 -166
s-75 -166 -171 -166c-97 0 -172 74 -172 166s75 166 172 166zM593 259c-57 0 -99 -41 -99 -100c0 -60 42 -100 99 -100s99 40 99 100c0 59 -42 100 -99 100z" />
    <glyph glyph-name="perthousand" unicode="&#x2030;" horiz-adv-x="1207" 
d="M231 707c96 0 171 -74 171 -166s-75 -166 -171 -166c-97 0 -172 74 -172 166s75 166 172 166zM248 0h-66l391 700h67zM231 641c-57 0 -99 -40 -99 -100c0 -59 42 -100 99 -100s99 41 99 100c0 60 -42 100 -99 100zM593 325c96 0 171 -74 171 -166s-75 -166 -171 -166
c-97 0 -172 74 -172 166s75 166 172 166zM977 325c96 0 171 -74 171 -166s-75 -166 -171 -166c-97 0 -172 74 -172 166s75 166 172 166zM593 259c-57 0 -99 -41 -99 -100c0 -60 42 -100 99 -100s99 40 99 100c0 59 -42 100 -99 100zM976 259c-57 0 -99 -41 -99 -100
c0 -60 42 -100 99 -100s99 40 99 100c0 59 -42 100 -99 100z" />
    <glyph glyph-name="plus" unicode="+" horiz-adv-x="532" 
d="M301 314h172v-64h-172v-175h-70v175h-172v64h172v175h70v-175z" />
    <glyph glyph-name="plusminus" unicode="&#xb1;" horiz-adv-x="532" 
d="M301 388h172v-64h-172v-114h-70v114h-172v64h172v114h70v-114zM473 105h-414v64h414v-64z" />
    <glyph glyph-name="product" unicode="&#x220f;" horiz-adv-x="757" 
d="M625 598v-671h-108v671h-278v-671h-108v671h-72v102h639v-102h-73z" />
    <glyph glyph-name="radical" unicode="&#x221a;" horiz-adv-x="653" 
d="M348 0h-70l-136 386l-83 -25v85l173 54l109 -350l192 550h61z" />
    <glyph glyph-name="summation" unicode="&#x2211;" horiz-adv-x="582" 
d="M523 599h-298l200 -316l-200 -316h298v-102h-464l255 418l-254 417h463v-101z" />
    <glyph glyph-name="lozenge" unicode="&#x25ca;" horiz-adv-x="513" 
d="M257 -20l-198 260l198 260l197 -260zM257 397l-121 -157l121 -157l120 157z" />
    <glyph glyph-name="ampersand" unicode="&#x26;" horiz-adv-x="688" 
d="M523 0l-50 52c-39 -36 -97 -55 -168 -55h-6c-153 1 -240 84 -240 202c0 83 48 142 118 169l-32 33c-31 34 -54 74 -54 128c0 94 77 170 205 170h10c120 0 208 -78 208 -186v-12h-103c0 69 -52 100 -112 100c-53 0 -108 -28 -108 -93c0 -30 10 -52 31 -74l242 -254
c10 19 15 41 15 66h76c0 -48 -10 -94 -31 -133l105 -113h-106zM307 96c41 0 75 11 97 33l-178 185c-39 -16 -64 -48 -64 -94c0 -79 61 -124 145 -124z" />
    <glyph glyph-name="asciicircum" unicode="^" horiz-adv-x="520" 
d="M461 384h-67l-134 206l-134 -206h-67l201 308z" />
    <glyph glyph-name="at" unicode="@" horiz-adv-x="929" 
d="M464 662c239 0 406 -178 406 -398v-87c0 -97 -52 -153 -132 -154c-50 1 -89 20 -103 65l-3 34c-35 -61 -101 -101 -179 -101c-128 0 -222 102 -222 229s94 230 222 230c73 0 135 -37 169 -92l4 86h58v-321c0 -48 24 -65 55 -65c30 0 57 13 57 88v85
c0 202 -146 334 -332 334c-171 0 -331 -134 -331 -340c0 -207 160 -338 331 -338c60 0 122 17 174 50l49 -49c-64 -43 -141 -68 -223 -68c-224 0 -405 181 -405 405c0 225 181 407 405 407zM460 401c-79 0 -147 -63 -147 -151s68 -150 147 -150c78 0 147 62 147 150
s-69 151 -147 151z" />
    <glyph glyph-name="bar" unicode="|" horiz-adv-x="188" 
d="M129 -60h-70v760h70v-760z" />
    <glyph glyph-name="brokenbar" unicode="&#xa6;" horiz-adv-x="188" 
d="M129 371h-70v329h70v-329zM129 -60h-70v328h70v-328z" />
    <glyph glyph-name="copyright" unicode="&#xa9;" horiz-adv-x="654" 
d="M327 700c151 0 268 -123 268 -270s-117 -270 -268 -270s-268 123 -268 270s117 270 268 270zM327 657c-127 0 -224 -102 -224 -227s97 -228 224 -228c128 0 225 103 225 228s-97 227 -225 227zM327 592c50 0 95 -22 125 -58l-37 -40c-26 25 -54 39 -88 39
c-52 0 -100 -43 -100 -103c0 -59 48 -102 100 -102c34 0 61 14 87 39l38 -41c-30 -35 -75 -58 -125 -58c-90 0 -162 72 -162 162s72 162 162 162z" />
    <glyph glyph-name="dagger" unicode="&#x2020;" horiz-adv-x="401" 
d="M235 500h107v-64h-107v-496h-70v496h-106v64h106v200h70v-200z" />
    <glyph glyph-name="daggerdbl" unicode="&#x2021;" horiz-adv-x="401" 
d="M235 500h107v-64h-107v-231h107v-63h-107v-202h-70v202h-106v63h106v231h-106v64h106v200h70v-200z" />
    <glyph glyph-name="degree" unicode="&#xb0;" horiz-adv-x="365" 
d="M183 731c68 0 123 -56 123 -124s-55 -124 -123 -124c-69 0 -124 56 -124 124s55 124 124 124zM183 673c-36 0 -65 -29 -65 -66s29 -66 65 -66s64 29 64 66s-28 66 -64 66z" />
    <glyph glyph-name="uni2116" unicode="&#x2116;" horiz-adv-x="1320" 
d="M974 707c142 0 257 -115 257 -257s-115 -256 -257 -256s-256 114 -256 256s114 257 256 257zM650 0h-63l-370 494v-494h-108v700h63l370 -494v494h108v-700zM974 611c-83 0 -156 -66 -156 -161s73 -160 156 -160s157 65 157 160s-74 161 -157 161zM738 91h473v-91h-473
v91z" />
    <glyph glyph-name="paragraph" unicode="&#xb6;" horiz-adv-x="640" 
d="M581 635h-54v-798h-70v798h-86v-798h-70v471c-132 0 -242 51 -242 192s109 200 244 200h278v-65z" />
    <glyph glyph-name="registered" unicode="&#xae;" horiz-adv-x="654" 
d="M327 700c151 0 268 -123 268 -270s-117 -270 -268 -270s-268 123 -268 270s117 270 268 270zM327 657c-127 0 -224 -102 -224 -227s97 -228 224 -228c128 0 225 103 225 228s-97 227 -225 227zM191 584h156c95 0 122 -54 122 -105c0 -43 -25 -81 -78 -89l84 -113h-65
l-79 102h-80v-102h-60v307zM252 527v-96h101c41 0 57 21 57 48s-16 48 -57 48h-101z" />
    <glyph glyph-name="section" unicode="&#xa7;" horiz-adv-x="550" 
d="M266 624h13c78 0 159 -36 202 -93l-57 -53c-33 41 -98 66 -144 66h-10c-56 -1 -97 -24 -97 -65c0 -27 11 -51 71 -57l44 -4c109 -3 203 -45 203 -155c0 -40 -17 -74 -45 -99c22 -22 31 -50 31 -82c0 -95 -86 -149 -192 -151h-13c-79 0 -160 36 -202 93l57 53
c32 -41 97 -66 143 -66h8c57 1 99 24 99 65c0 27 -11 51 -70 57l-45 4c-93 3 -203 37 -203 155c0 40 17 74 45 99c-22 22 -31 50 -31 82c0 95 87 149 193 151zM190 347c-19 -11 -31 -28 -31 -51c0 -48 41 -65 96 -71l44 -5c25 -2 45 -6 61 -12c19 11 31 28 31 51
c0 48 -41 65 -97 71l-43 5c-24 2 -44 6 -61 12z" />
    <glyph glyph-name="trademark" unicode="&#x2122;" horiz-adv-x="755" 
d="M230 637v-247h-66v247h-105v63h276v-63h-105zM696 390h-65v202l-101 -113l-101 113v-202h-65v310h40l126 -141l126 141h40v-310z" />
    <glyph glyph-name="acute" unicode="&#xb4;" horiz-adv-x="309" 
d="M136 596h-77l79 132h112z" />
    <glyph glyph-name="breve" unicode="&#x2d8;" horiz-adv-x="418" 
d="M289 728h70c0 -82 -67 -141 -150 -141s-150 59 -150 141h70c0 -40 35 -71 80 -71s80 31 80 71z" />
    <glyph glyph-name="caron" unicode="&#x2c7;" horiz-adv-x="409" 
d="M253 593h-97l-97 133h79l67 -57l66 58h79z" />
    <glyph glyph-name="cedilla" unicode="&#xb8;" horiz-adv-x="254" 
d="M124 0l-11 -38c36 11 82 -4 82 -60s-61 -88 -136 -45v30c36 -22 72 -11 72 18c0 25 -21 39 -64 20l24 75h33z" />
    <glyph glyph-name="circumflex" unicode="&#x2c6;" horiz-adv-x="409" 
d="M271 594l-66 58l-67 -58h-79l97 134l97 -1l97 -133h-79z" />
    <glyph glyph-name="dieresis" unicode="&#xa8;" horiz-adv-x="449" 
d="M119 624c-34 0 -60 23 -60 53s26 54 60 54c33 0 59 -24 59 -54s-26 -53 -59 -53zM331 624c-34 0 -60 23 -60 53s26 54 60 54c33 0 59 -24 59 -54s-26 -53 -59 -53z" />
    <glyph glyph-name="dotaccent" unicode="&#x2d9;" horiz-adv-x="237" 
d="M119 624c-34 0 -60 23 -60 53s26 54 60 54c33 0 59 -24 59 -54s-26 -53 -59 -53z" />
    <glyph glyph-name="grave" unicode="`" horiz-adv-x="309" 
d="M171 728l79 -132h-77l-114 132h112z" />
    <glyph glyph-name="hungarumlaut" unicode="&#x2dd;" horiz-adv-x="465" 
d="M136 596h-77l79 132h112zM292 596h-77l79 132h112z" />
    <glyph glyph-name="macron" unicode="&#xaf;" horiz-adv-x="376" 
d="M317 653h-258v75h258v-75z" />
    <glyph glyph-name="ogonek" unicode="&#x2db;" horiz-adv-x="228" 
d="M137 0h32c-50 -19 -65 -38 -65 -61c0 -26 22 -40 52 -40h12v-63h-7c-53 0 -102 23 -102 78c0 37 24 64 78 86z" />
    <glyph glyph-name="ring" unicode="&#x2da;" horiz-adv-x="295" 
d="M147 731c49 0 89 -40 89 -88c0 -50 -40 -89 -89 -89s-88 39 -88 89c0 48 39 88 88 88zM148 680c-22 0 -37 -18 -37 -38s15 -38 37 -38c21 0 36 18 36 38s-15 38 -36 38z" />
    <glyph glyph-name="tilde" unicode="&#x2dc;" horiz-adv-x="423" 
d="M364 700l-23 -60c-13 -36 -35 -54 -63 -56c-22 -2 -41 6 -54 17l-41 33c-12 8 -25 14 -38 12c-16 -1 -24 -11 -31 -31l-7 -21h-48l23 61c13 36 34 54 62 56c22 2 41 -6 55 -17l40 -33c11 -8 23 -14 36 -13c17 0 26 11 34 31l7 21h48z" />
    <glyph glyph-name="commaaccentcomb" unicode="&#x326;" horiz-adv-x="0" 
d="M136 -250h-77l79 131h112z" />
    </font>
</defs>
</svg>
