<?xml version="1.0" standalone="no"?>
<!DOCTYPE svg PUBLIC "-//W3C//DTD SVG 1.1//EN" "http://www.w3.org/Graphics/SVG/1.1/DTD/svg11.dtd" >
<svg xmlns="http://www.w3.org/2000/svg" xmlns:xlink="http://www.w3.org/1999/xlink" version="1.1">
<metadata>
Created by FontForge 20160407 at Mon May  9 10:35:45 2016
 By Jimmy Wärting
Copyright (c) 2013 by Mariya Pigoulevskaya. All rights reserved.
</metadata>
<defs>
<font id="Acrom-Light" horiz-adv-x="650" >
  <font-face 
    font-family="Acrom Light"
    font-weight="300"
    font-stretch="normal"
    units-per-em="1000"
    panose-1="0 0 4 0 0 0 0 0 0 0"
    ascent="750"
    descent="-250"
    x-height="500"
    cap-height="700"
    bbox="0 -352 1240 949"
    underline-thickness="50"
    underline-position="-100"
    stemh="46"
    stemv="46"
    unicode-range="U+0020-25CA"
  />
<missing-glyph horiz-adv-x="500" 
d="M0 0v700h500v-700h-500zM250 395l170 255h-340zM280 350l170 -255v510zM80 50h340l-170 255zM50 605v-510l170 255z" />
    <glyph glyph-name=".notdef" horiz-adv-x="500" 
d="M0 0v700h500v-700h-500zM250 395l170 255h-340zM280 350l170 -255v510zM80 50h340l-170 255zM50 605v-510l170 255z" />
    <glyph glyph-name="A" unicode="A" horiz-adv-x="704" 
d="M189 215l-89 -215h-52l292 700h24l291 -700h-52l-89 215h-325zM352 609l-145 -349h290z" />
    <glyph glyph-name="Aacute" unicode="&#xc1;" horiz-adv-x="704" 
d="M361 750h-40l66 102h64zM655 0h-52l-89 215h-325l-89 -215h-52l292 700h24zM207 260h290l-145 349z" />
    <glyph glyph-name="Abreve" unicode="&#x102;" horiz-adv-x="704" 
d="M453 869h35c0 -68 -60 -119 -136 -119s-136 51 -136 119h35c0 -48 44 -84 101 -84s101 36 101 84zM655 0h-52l-89 215h-325l-89 -215h-52l292 700h24zM207 260h290l-145 349z" />
    <glyph glyph-name="Acaron" unicode="&#x1cd;" horiz-adv-x="704" 
d="M371 750h-38l-115 107h46l88 -70l87 70h46zM655 0h-52l-89 215h-325l-89 -215h-52l292 700h24zM207 260h290l-145 349z" />
    <glyph glyph-name="Acircumflex" unicode="&#xc2;" horiz-adv-x="704" 
d="M485 750h-46l-87 70l-88 -70h-46l115 107h38zM655 0h-52l-89 215h-325l-89 -215h-52l292 700h24zM207 260h290l-145 349z" />
    <glyph glyph-name="Adieresis" unicode="&#xc4;" horiz-adv-x="704" 
d="M251 750c-17 0 -30 12 -30 28s13 28 30 28s30 -12 30 -28s-13 -28 -30 -28zM455 750c-17 0 -30 12 -30 28s13 28 30 28s30 -12 30 -28s-13 -28 -30 -28zM189 215l-89 -215h-52l292 700h24l291 -700h-52l-89 215h-325zM352 609l-145 -349h290z" />
    <glyph glyph-name="Agrave" unicode="&#xc0;" horiz-adv-x="704" 
d="M384 750h-39l-91 102h64zM655 0h-52l-89 215h-325l-89 -215h-52l292 700h24zM207 260h290l-145 349z" />
    <glyph glyph-name="Amacron" unicode="&#x100;" horiz-adv-x="704" 
d="M476 750h-250v36h250v-36zM189 215l-89 -215h-52l292 700h24l291 -700h-52l-89 215h-325zM352 609l-145 -349h290z" />
    <glyph glyph-name="Aogonek" unicode="&#x104;" horiz-adv-x="704" 
d="M581 -75c0 -39 33 -57 67 -57h6v-33h-5c-48 0 -96 25 -96 82c0 39 28 67 79 83h-29l-89 215h-325l-89 -215h-52l292 700h24l291 -700h1c-56 -19 -75 -46 -75 -75zM497 260l-145 349l-145 -349h290z" />
    <glyph glyph-name="Aring" unicode="&#xc5;" horiz-adv-x="704" 
d="M351 904c43 0 77 -35 77 -76c0 -43 -34 -78 -77 -78s-76 35 -76 78c0 41 33 76 76 76zM352 875c-28 0 -46 -23 -46 -47c0 -27 18 -49 46 -49c27 0 46 22 46 49c0 24 -19 47 -46 47zM189 215l-89 -215h-52l292 700h24l291 -700h-52l-89 215h-325zM352 609l-145 -349h290z
" />
    <glyph glyph-name="Atilde" unicode="&#xc3;" horiz-adv-x="704" 
d="M495 845l-15 -42c-13 -39 -32 -60 -63 -61c-21 -1 -37 9 -50 22l-39 39c-10 10 -21 16 -35 16c-23 -1 -33 -15 -42 -44l-7 -25h-29l14 42c13 39 32 60 63 61c22 1 38 -9 50 -22l39 -39c10 -10 21 -16 35 -16c23 0 33 15 42 44l7 25h30zM189 215l-89 -215h-52l292 700h24
l291 -700h-52l-89 215h-325zM352 609l-145 -349h290z" />
    <glyph glyph-name="AE" unicode="&#xc6;" horiz-adv-x="839" 
d="M397 377h363v-44h-363v-288h383v-45h-431v215h-160l-89 -215h-52l292 700h440v-45h-383v-278zM349 602l-142 -342h142v342z" />
    <glyph glyph-name="B" unicode="B" horiz-adv-x="692" 
d="M116 700h246c193 0 230 -90 230 -176c0 -71 -31 -130 -113 -156c101 -18 154 -85 154 -178c0 -112 -63 -190 -236 -190h-281v700zM164 655v-270h202c145 0 180 63 180 134s-25 136 -180 136h-202zM164 343v-298h240c137 0 183 58 183 149c0 90 -57 149 -183 149h-240z
" />
    <glyph glyph-name="C" unicode="C" horiz-adv-x="753" 
d="M431 707c105 0 199 -45 264 -117l-31 -29c-58 63 -141 101 -233 101c-172 0 -308 -136 -308 -312c0 -177 136 -312 308 -312c92 0 175 37 233 101l31 -31c-65 -71 -159 -115 -264 -115c-197 0 -356 159 -356 357c0 197 159 357 356 357z" />
    <glyph glyph-name="Cacute" unicode="&#x106;" horiz-adv-x="753" 
d="M431 750h-40l66 102h64zM431 707c105 0 199 -45 264 -117l-31 -29c-58 63 -141 101 -233 101c-172 0 -308 -136 -308 -312c0 -177 136 -312 308 -312c92 0 175 37 233 101l31 -31c-65 -71 -159 -115 -264 -115c-197 0 -356 159 -356 357c0 197 159 357 356 357z" />
    <glyph glyph-name="Ccaron" unicode="&#x10c;" horiz-adv-x="753" 
d="M450 750h-38l-115 107h46l88 -70l87 70h46zM431 707c105 0 199 -45 264 -117l-31 -29c-58 63 -141 101 -233 101c-172 0 -308 -136 -308 -312c0 -177 136 -312 308 -312c92 0 175 37 233 101l31 -31c-65 -71 -159 -115 -264 -115c-197 0 -356 159 -356 357
c0 197 159 357 356 357z" />
    <glyph glyph-name="Ccedilla" unicode="&#xc7;" horiz-adv-x="753" 
d="M431 38c92 0 175 37 233 101l31 -31c-65 -71 -159 -115 -264 -115h-5l-9 -40c39 11 77 -9 77 -58c0 -51 -59 -78 -118 -42v23c39 -29 84 -14 84 20c0 33 -28 48 -74 29l17 69c-184 14 -328 167 -328 356c0 197 159 357 356 357c105 0 199 -45 264 -117l-31 -29
c-58 63 -141 101 -233 101c-172 0 -308 -136 -308 -312c0 -177 136 -312 308 -312z" />
    <glyph glyph-name="Cdotaccent" unicode="&#x10a;" horiz-adv-x="753" 
d="M431 806c17 0 30 -12 30 -28s-13 -28 -30 -28s-30 12 -30 28s13 28 30 28zM431 707c105 0 199 -45 264 -117l-31 -29c-58 63 -141 101 -233 101c-172 0 -308 -136 -308 -312c0 -177 136 -312 308 -312c92 0 175 37 233 101l31 -31c-65 -71 -159 -115 -264 -115
c-197 0 -356 159 -356 357c0 197 159 357 356 357z" />
    <glyph glyph-name="D" unicode="D" horiz-adv-x="756" 
d="M116 700h209c197 0 356 -139 356 -350s-159 -350 -356 -350h-209v700zM164 45h161c171 0 308 115 308 305s-137 305 -308 305h-161v-610z" />
    <glyph glyph-name="Eth" unicode="&#xd0;" horiz-adv-x="833" 
d="M193 700h209c197 0 356 -139 356 -350s-159 -350 -356 -350h-209v335h-77v33h77v332zM241 45h161c171 0 308 115 308 305s-137 305 -308 305h-161v-287h124v-33h-124v-290z" />
    <glyph glyph-name="Dcaron" unicode="&#x10e;" horiz-adv-x="756" 
d="M369 750h-38l-115 107h46l88 -70l87 70h46zM116 700h209c197 0 356 -139 356 -350s-159 -350 -356 -350h-209v700zM164 655v-610h161c171 0 308 115 308 305s-137 305 -308 305h-161z" />
    <glyph glyph-name="Dcroat" unicode="&#x110;" horiz-adv-x="833" 
d="M193 700h209c197 0 356 -139 356 -350s-159 -350 -356 -350h-209v335h-77v33h77v332zM241 45h161c171 0 308 115 308 305s-137 305 -308 305h-161v-287h124v-33h-124v-290z" />
    <glyph glyph-name="E" unicode="E" horiz-adv-x="606" 
d="M164 377h364v-44h-364v-288h383v-45h-431v700h431v-45h-383v-278z" />
    <glyph glyph-name="Eacute" unicode="&#xc9;" horiz-adv-x="606" 
d="M326 750h-40l66 102h64zM547 655h-383v-278h364v-44h-364v-288h383v-45h-431v700h431v-45z" />
    <glyph glyph-name="Ecaron" unicode="&#x11a;" horiz-adv-x="606" 
d="M353 750h-38l-115 107h46l88 -70l87 70h46zM547 655h-383v-278h364v-44h-364v-288h383v-45h-431v700h431v-45z" />
    <glyph glyph-name="Ecircumflex" unicode="&#xca;" horiz-adv-x="606" 
d="M465 750h-46l-87 70l-88 -70h-46l115 107h38zM547 655h-383v-278h364v-44h-364v-288h383v-45h-431v700h431v-45z" />
    <glyph glyph-name="Edieresis" unicode="&#xcb;" horiz-adv-x="606" 
d="M226 806c17 0 30 -12 30 -28c0 -15 -13 -28 -30 -28s-30 13 -30 28c0 16 13 28 30 28zM430 806c17 0 30 -12 30 -28c0 -15 -13 -28 -30 -28s-30 13 -30 28c0 16 13 28 30 28zM547 655h-383v-278h364v-44h-364v-288h383v-45h-431v700h431v-45z" />
    <glyph glyph-name="Edotaccent" unicode="&#x116;" horiz-adv-x="606" 
d="M325 806c17 0 30 -12 30 -28s-13 -28 -30 -28s-30 12 -30 28s13 28 30 28zM547 655h-383v-278h364v-44h-364v-288h383v-45h-431v700h431v-45z" />
    <glyph glyph-name="Egrave" unicode="&#xc8;" horiz-adv-x="606" 
d="M371 750h-39l-91 102h64zM547 655h-383v-278h364v-44h-364v-288h383v-45h-431v700h431v-45z" />
    <glyph glyph-name="Emacron" unicode="&#x112;" horiz-adv-x="606" 
d="M451 750h-250v36h250v-36zM547 655h-383v-278h364v-44h-364v-288h383v-45h-431v700h431v-45z" />
    <glyph glyph-name="Eogonek" unicode="&#x118;" horiz-adv-x="606" 
d="M473 -75c0 -39 33 -57 67 -57h6v-33h-5c-48 0 -96 25 -96 82c0 39 28 67 79 83h-408v700h431v-45h-383v-278h364v-44h-364v-288h383v-45h1c-56 -19 -75 -46 -75 -75z" />
    <glyph glyph-name="F" unicode="F" horiz-adv-x="606" 
d="M164 377h364v-44h-364v-333h-48v700h431v-45h-383v-278z" />
    <glyph glyph-name="G" unicode="G" horiz-adv-x="801" 
d="M431 707c105 0 199 -45 264 -117l-31 -29c-58 63 -141 101 -233 101c-172 0 -308 -136 -308 -312c0 -177 136 -313 308 -313c85 0 161 33 216 88v194h-224v38h272v-249c-65 -71 -159 -115 -264 -115c-197 0 -356 159 -356 357c0 197 159 357 356 357z" />
    <glyph glyph-name="Gbreve" unicode="&#x11e;" horiz-adv-x="801" 
d="M532 869h35c0 -68 -60 -119 -136 -119s-136 51 -136 119h35c0 -48 44 -84 101 -84s101 36 101 84zM431 707c105 0 199 -45 264 -117l-31 -29c-58 63 -141 101 -233 101c-172 0 -308 -136 -308 -312c0 -177 136 -313 308 -313c85 0 161 33 216 88v194h-224v38h272v-249
c-65 -71 -159 -115 -264 -115c-197 0 -356 159 -356 357c0 197 159 357 356 357z" />
    <glyph glyph-name="Gcommaaccent" unicode="&#x122;" horiz-adv-x="801" 
d="M431 707c105 0 199 -45 264 -117l-31 -29c-58 63 -141 101 -233 101c-172 0 -308 -136 -308 -312c0 -177 136 -313 308 -313c85 0 161 33 216 88v194h-224v38h272v-249c-65 -71 -159 -115 -264 -115c-197 0 -356 159 -356 357c0 197 159 357 356 357zM392 -171h-40
l66 102h64z" />
    <glyph glyph-name="Gdotaccent" unicode="&#x120;" horiz-adv-x="801" 
d="M431 806c17 0 30 -12 30 -28s-13 -28 -30 -28s-30 12 -30 28s13 28 30 28zM431 707c105 0 199 -45 264 -117l-31 -29c-58 63 -141 101 -233 101c-172 0 -308 -136 -308 -312c0 -177 136 -313 308 -313c85 0 161 33 216 88v194h-224v38h272v-249
c-65 -71 -159 -115 -264 -115c-197 0 -356 159 -356 357c0 197 159 357 356 357z" />
    <glyph glyph-name="H" unicode="H" horiz-adv-x="752" 
d="M635 0h-48v333h-423v-333h-48v700h48v-322h423v322h48v-700z" />
    <glyph glyph-name="Hbar" unicode="&#x126;" horiz-adv-x="939" 
d="M822 500h-94v-500h-48v333h-423v-333h-48v500h-93v32h93v168h48v-168h423v168h48v-168h94v-32zM680 500h-423v-122h423v122z" />
    <glyph glyph-name="I" unicode="I" horiz-adv-x="443" 
d="M245 45h81v-45h-210v45h81v610h-81v45h210v-45h-81v-610z" />
    <glyph glyph-name="IJ" unicode="&#x132;" horiz-adv-x="873" 
d="M326 655h-81v-610h81v-45h-210v45h81v610h-81v45h210v-45zM799 700v-471c0 -142 -79 -236 -221 -236s-221 94 -221 236v23h48v-27c0 -109 56 -187 173 -187s173 78 173 187v430h-257v45h305z" />
    <glyph glyph-name="Iacute" unicode="&#xcd;" horiz-adv-x="443" 
d="M217 750h-40l66 102h64zM326 655h-81v-610h81v-45h-210v45h81v610h-81v45h210v-45z" />
    <glyph glyph-name="Icaron" unicode="&#x1cf;" horiz-adv-x="506" 
d="M273 750h-38l-115 107h46l88 -70l87 70h46zM358 655h-81v-610h81v-45h-210v45h81v610h-81v45h210v-45z" />
    <glyph glyph-name="Icircumflex" unicode="&#xce;" horiz-adv-x="506" 
d="M387 750h-46l-87 70l-88 -70h-46l115 107h38zM358 655h-81v-610h81v-45h-210v45h81v610h-81v45h210v-45z" />
    <glyph glyph-name="Idieresis" unicode="&#xcf;" horiz-adv-x="497" 
d="M146 806c17 0 30 -12 30 -28s-13 -28 -30 -28s-30 12 -30 28s13 28 30 28zM350 806c17 0 30 -12 30 -28s-13 -28 -30 -28s-30 12 -30 28s13 28 30 28zM353 655h-81v-610h81v-45h-210v45h81v610h-81v45h210v-45z" />
    <glyph glyph-name="Idotaccent" unicode="&#x130;" horiz-adv-x="443" 
d="M223 750c-17 0 -30 12 -30 28s13 28 30 28s30 -12 30 -28s-13 -28 -30 -28zM245 45h81v-45h-210v45h81v610h-81v45h210v-45h-81v-610z" />
    <glyph glyph-name="Igrave" unicode="&#xcc;" horiz-adv-x="443" 
d="M199 852l66 -102h-39l-91 102h64zM245 45h81v-45h-210v45h81v610h-81v45h210v-45h-81v-610z" />
    <glyph glyph-name="Imacron" unicode="&#x12a;" horiz-adv-x="497" 
d="M373 750h-250v36h250v-36zM274 45h81v-45h-210v45h81v610h-81v45h210v-45h-81v-610z" />
    <glyph glyph-name="Iogonek" unicode="&#x12e;" horiz-adv-x="443" 
d="M252 -75c0 -39 33 -57 67 -57h6v-33h-5c-48 0 -96 25 -96 82c0 39 28 67 79 83h-187v45h81v610h-81v45h210v-45h-81v-610h81v-45h1c-56 -19 -75 -46 -75 -75z" />
    <glyph glyph-name="J" unicode="J" horiz-adv-x="591" 
d="M517 700v-471c0 -142 -79 -236 -221 -236s-221 94 -221 236v23h48v-27c0 -109 56 -187 173 -187s173 78 173 187v430h-257v45h305z" />
    <glyph glyph-name="K" unicode="K" horiz-adv-x="705" 
d="M601 0l-142 220c-55 84 -73 114 -157 114h-138v-334h-48v700h48v-321h124c84 0 102 30 157 114l133 207h56l-148 -227c-42 -63 -65 -97 -100 -113c44 -14 68 -48 114 -120l156 -240h-55z" />
    <glyph glyph-name="Kcommaaccent" unicode="&#x136;" horiz-adv-x="705" 
d="M634 700l-148 -227c-42 -63 -65 -97 -100 -113c44 -14 68 -48 114 -120l156 -240h-55l-142 220c-55 84 -73 114 -157 114h-138v-334h-48v700h48v-321h124c84 0 102 30 157 114l133 207h56zM313 -171h-40l66 102h64z" />
    <glyph glyph-name="L" unicode="L" horiz-adv-x="593" 
d="M544 0h-428v700h48v-655h380v-45z" />
    <glyph glyph-name="Lacute" unicode="&#x139;" horiz-adv-x="593" 
d="M330 750h-40l66 102h64zM544 0h-428v700h48v-655h380v-45z" />
    <glyph glyph-name="Lcaron" unicode="&#x13d;" horiz-adv-x="593" 
d="M544 0h-428v700h48v-655h380v-45zM454 598h-40l66 102h64z" />
    <glyph glyph-name="Lcommaaccent" unicode="&#x13b;" horiz-adv-x="593" 
d="M544 0h-428v700h48v-655h380v-45zM283 -171h-40l66 102h64z" />
    <glyph glyph-name="Ldot" unicode="&#x13f;" horiz-adv-x="593" 
d="M544 0h-428v700h48v-655h380v-45zM511 282c-19 0 -34 16 -34 34s15 34 34 34s34 -16 34 -34s-15 -34 -34 -34z" />
    <glyph glyph-name="Lslash" unicode="&#x141;" horiz-adv-x="651" 
d="M603 45v-45h-428v418l-59 -26v35l59 26v247h48v-226l58 26v-35l-58 -26v-394h380z" />
    <glyph glyph-name="M" unicode="M" horiz-adv-x="891" 
d="M774 0h-48v601l-286 -366l-286 366v-601h-48v700h25l309 -397l310 397h24v-700z" />
    <glyph glyph-name="N" unicode="N" horiz-adv-x="733" 
d="M626 0h-24l-448 600v-600h-48v700h25l447 -600v600h48v-700z" />
    <glyph glyph-name="Nacute" unicode="&#x143;" horiz-adv-x="733" 
d="M366 750h-40l66 102h64zM626 0h-24l-448 600v-600h-48v700h25l447 -600v600h48v-700z" />
    <glyph glyph-name="Ncaron" unicode="&#x147;" horiz-adv-x="733" 
d="M358 787l87 70h46l-114 -107h-38l-115 107h46zM626 0h-24l-448 600v-600h-48v700h25l447 -600v600h48v-700z" />
    <glyph glyph-name="Ncommaaccent" unicode="&#x145;" horiz-adv-x="733" 
d="M626 0h-24l-448 600v-600h-48v700h25l447 -600v600h48v-700zM323 -171h-40l66 102h64z" />
    <glyph glyph-name="Eng" unicode="&#x14a;" horiz-adv-x="733" 
d="M626 700v-699c0 -140 -90 -197 -189 -191l-13 1l1 40h10c73 0 146 30 146 148v29l-427 572v-600h-48v700h25l447 -600v600h48z" />
    <glyph glyph-name="Ntilde" unicode="&#xd1;" horiz-adv-x="733" 
d="M304 853c22 1 38 -9 50 -22l39 -39c10 -10 21 -16 35 -16c23 0 33 15 42 44l7 25h30l-15 -42c-13 -39 -32 -60 -63 -61c-21 -1 -37 9 -50 22l-39 39c-10 10 -21 16 -35 16c-23 -1 -33 -15 -42 -44l-7 -25h-29l14 42c13 39 32 60 63 61zM626 0h-24l-448 600v-600h-48v700
h25l447 -600v600h48v-700z" />
    <glyph glyph-name="O" unicode="O" horiz-adv-x="863" 
d="M431 707c197 0 357 -160 357 -357c0 -198 -160 -357 -357 -357s-356 159 -356 357c0 197 159 357 356 357zM431 662c-172 0 -308 -136 -308 -312c0 -177 136 -312 308 -312s309 135 309 312c0 176 -137 312 -309 312z" />
    <glyph glyph-name="Oacute" unicode="&#xd3;" horiz-adv-x="863" 
d="M435 750h-40l66 102h64zM431 707c197 0 357 -160 357 -357c0 -198 -160 -357 -357 -357s-356 159 -356 357c0 197 159 357 356 357zM431 662c-172 0 -308 -136 -308 -312c0 -177 136 -312 308 -312s309 135 309 312c0 176 -137 312 -309 312z" />
    <glyph glyph-name="Ocaron" unicode="&#x1d1;" horiz-adv-x="863" 
d="M450 750h-38l-115 107h46l88 -70l87 70h46zM431 707c197 0 357 -160 357 -357c0 -198 -160 -357 -357 -357s-356 159 -356 357c0 197 159 357 356 357zM431 662c-172 0 -308 -136 -308 -312c0 -177 136 -312 308 -312s309 135 309 312c0 176 -137 312 -309 312z" />
    <glyph glyph-name="Ocircumflex" unicode="&#xd4;" horiz-adv-x="863" 
d="M564 750h-46l-87 70l-88 -70h-46l115 107h38zM431 707c197 0 357 -160 357 -357c0 -198 -160 -357 -357 -357s-356 159 -356 357c0 197 159 357 356 357zM431 662c-172 0 -308 -136 -308 -312c0 -177 136 -312 308 -312s309 135 309 312c0 176 -137 312 -309 312z" />
    <glyph glyph-name="Odieresis" unicode="&#xd6;" horiz-adv-x="863" 
d="M330 750c-17 0 -30 12 -30 28s13 28 30 28s30 -12 30 -28s-13 -28 -30 -28zM534 750c-17 0 -30 12 -30 28s13 28 30 28s30 -12 30 -28s-13 -28 -30 -28zM431 707c197 0 357 -160 357 -357c0 -198 -160 -357 -357 -357s-356 159 -356 357c0 197 159 357 356 357zM431 662
c-172 0 -308 -136 -308 -312c0 -177 136 -312 308 -312s309 135 309 312c0 176 -137 312 -309 312z" />
    <glyph glyph-name="Ograve" unicode="&#xd2;" horiz-adv-x="863" 
d="M399 852l66 -102h-39l-91 102h64zM431 707c197 0 357 -160 357 -357c0 -198 -160 -357 -357 -357s-356 159 -356 357c0 197 159 357 356 357zM431 662c-172 0 -308 -136 -308 -312c0 -177 136 -312 308 -312s309 135 309 312c0 176 -137 312 -309 312z" />
    <glyph glyph-name="Ohungarumlaut" unicode="&#x150;" horiz-adv-x="863" 
d="M383 750h-40l66 102h64zM503 750h-40l66 102h64zM431 707c197 0 357 -160 357 -357c0 -198 -160 -357 -357 -357s-356 159 -356 357c0 197 159 357 356 357zM431 662c-172 0 -308 -136 -308 -312c0 -177 136 -312 308 -312s309 135 309 312c0 176 -137 312 -309 312z" />
    <glyph glyph-name="Omacron" unicode="&#x14c;" horiz-adv-x="863" 
d="M557 750h-250v36h250v-36zM431 707c197 0 357 -160 357 -357c0 -198 -160 -357 -357 -357s-356 159 -356 357c0 197 159 357 356 357zM431 662c-172 0 -308 -136 -308 -312c0 -177 136 -312 308 -312s309 135 309 312c0 176 -137 312 -309 312z" />
    <glyph glyph-name="Oslash" unicode="&#xd8;" horiz-adv-x="863" 
d="M788 700l-99 -103c61 -64 99 -151 99 -247c0 -198 -160 -357 -357 -357c-91 0 -174 34 -237 90l-80 -83h-39l99 103c-61 64 -99 151 -99 247c0 197 159 357 356 357c91 0 174 -34 238 -91l80 84h39zM123 350c0 -85 31 -160 82 -215l432 449c-54 49 -126 78 -206 78
c-172 0 -308 -136 -308 -312zM740 350c0 84 -31 159 -83 214l-432 -448c55 -49 126 -78 206 -78c172 0 309 135 309 312z" />
    <glyph glyph-name="Otilde" unicode="&#xd5;" horiz-adv-x="863" 
d="M570 845l-15 -42c-13 -39 -32 -60 -63 -61c-21 -1 -37 9 -50 22l-39 39c-10 10 -21 16 -35 16c-23 -1 -33 -15 -42 -44l-7 -25h-29l14 42c13 39 32 60 63 61c22 1 38 -9 50 -22l39 -39c10 -10 21 -16 35 -16c23 0 33 15 42 44l7 25h30zM431 707c197 0 357 -160 357 -357
c0 -198 -160 -357 -357 -357s-356 159 -356 357c0 197 159 357 356 357zM431 662c-172 0 -308 -136 -308 -312c0 -177 136 -312 308 -312s309 135 309 312c0 176 -137 312 -309 312z" />
    <glyph glyph-name="OE" unicode="&#x152;" horiz-adv-x="1229" 
d="M788 377h364v-44h-364v-288h383v-45h-431v198c-49 -120 -169 -205 -309 -205c-197 0 -356 159 -356 357c0 197 159 357 356 357c140 0 260 -85 309 -205v198h431v-45h-383v-278zM431 38c172 0 309 135 309 312c0 176 -137 312 -309 312s-308 -136 -308 -312
c0 -177 136 -312 308 -312z" />
    <glyph glyph-name="P" unicode="P" horiz-adv-x="711" 
d="M116 700h216c169 0 304 -85 304 -251c0 -165 -135 -251 -304 -251h-168v-198h-48v700zM164 243h170c137 0 255 60 255 206c0 145 -118 206 -255 206h-170v-412z" />
    <glyph glyph-name="Thorn" unicode="&#xde;" horiz-adv-x="711" 
d="M164 611h168c169 0 304 -85 304 -251c0 -165 -135 -250 -304 -250h-168v-110h-48v700h48v-89zM164 154h170c137 0 255 60 255 206s-118 207 -255 207h-170v-413z" />
    <glyph glyph-name="Q" unicode="Q" horiz-adv-x="871" 
d="M431 707c197 0 357 -160 357 -357c0 -143 -88 -264 -211 -312h220v-45h-366c-197 0 -356 159 -356 357c0 197 159 357 356 357zM431 662c-172 0 -308 -136 -308 -312c0 -177 136 -312 308 -312s309 135 309 312c0 176 -137 312 -309 312z" />
    <glyph glyph-name="R" unicode="R" horiz-adv-x="688" 
d="M116 700h218c169 0 302 -85 302 -246c0 -124 -81 -199 -193 -228c41 -14 78 -45 121 -112l75 -114h-55l-64 99c-61 95 -102 109 -180 109h-176v-208h-48v700zM164 655v-402h173c137 0 252 60 252 201c0 140 -115 201 -252 201h-173z" />
    <glyph glyph-name="Racute" unicode="&#x154;" horiz-adv-x="688" 
d="M336 750h-40l66 102h64zM116 700h218c169 0 302 -85 302 -246c0 -124 -81 -199 -193 -228c41 -14 78 -45 121 -112l75 -114h-55l-64 99c-61 95 -102 109 -180 109h-176v-208h-48v700zM164 655v-402h173c137 0 252 60 252 201c0 140 -115 201 -252 201h-173z" />
    <glyph glyph-name="Rcaron" unicode="&#x158;" horiz-adv-x="688" 
d="M373 750h-38l-115 107h46l88 -70l87 70h46zM116 700h218c169 0 302 -85 302 -246c0 -124 -81 -199 -193 -228c41 -14 78 -45 121 -112l75 -114h-55l-64 99c-61 95 -102 109 -180 109h-176v-208h-48v700zM164 655v-402h173c137 0 252 60 252 201c0 140 -115 201 -252 201
h-173z" />
    <glyph glyph-name="Rcommaaccent" unicode="&#x156;" horiz-adv-x="688" 
d="M116 700h218c169 0 302 -85 302 -246c0 -124 -81 -199 -193 -228c41 -14 78 -45 121 -112l75 -114h-55l-64 99c-61 95 -102 109 -180 109h-176v-208h-48v700zM164 655v-402h173c137 0 252 60 252 201c0 140 -115 201 -252 201h-173zM300 -171h-40l66 102h64z" />
    <glyph glyph-name="S" unicode="S" horiz-adv-x="648" 
d="M308 707h12c100 0 192 -42 244 -117l-31 -29c-47 66 -128 101 -213 101h-12c-89 0 -184 -50 -184 -143c0 -69 46 -106 166 -122l86 -12c140 -18 213 -73 213 -192c0 -122 -117 -200 -250 -200h-6c-139 0 -236 63 -275 158l31 29c33 -85 117 -142 244 -142h6
c108 0 202 58 202 155c0 89 -55 132 -169 147l-86 12c-144 19 -210 70 -210 166c0 116 112 189 232 189z" />
    <glyph glyph-name="Sacute" unicode="&#x15a;" horiz-adv-x="648" 
d="M313 750h-40l66 102h64zM308 707h12c100 0 192 -42 244 -117l-31 -29c-47 66 -128 101 -213 101h-12c-89 0 -184 -50 -184 -143c0 -69 46 -106 166 -122l86 -12c140 -18 213 -73 213 -192c0 -122 -117 -200 -250 -200h-6c-139 0 -236 63 -275 158l31 29
c33 -85 117 -142 244 -142h6c108 0 202 58 202 155c0 89 -55 132 -169 147l-86 12c-144 19 -210 70 -210 166c0 116 112 189 232 189z" />
    <glyph glyph-name="Scaron" unicode="&#x160;" horiz-adv-x="648" 
d="M334 750h-38l-115 107h46l88 -70l87 70h46zM308 707h12c100 0 192 -42 244 -117l-31 -29c-47 66 -128 101 -213 101h-12c-89 0 -184 -50 -184 -143c0 -69 46 -106 166 -122l86 -12c140 -18 213 -73 213 -192c0 -122 -117 -200 -250 -200h-6c-139 0 -236 63 -275 158
l31 29c33 -85 117 -142 244 -142h6c108 0 202 58 202 155c0 89 -55 132 -169 147l-86 12c-144 19 -210 70 -210 166c0 116 112 189 232 189z" />
    <glyph glyph-name="Scedilla" unicode="&#x15e;" horiz-adv-x="648" 
d="M334 -7l-9 -40c39 11 77 -9 77 -58c0 -51 -59 -78 -118 -42v23c39 -29 84 -14 84 20c0 33 -28 48 -74 29l17 69c-127 6 -216 67 -253 157l31 29c33 -85 117 -142 244 -142h6c108 0 202 58 202 155c0 89 -55 132 -169 147l-86 12c-144 19 -210 70 -210 166
c0 116 112 189 232 189h12c100 0 192 -42 244 -117l-31 -29c-47 66 -128 101 -213 101h-12c-89 0 -184 -50 -184 -143c0 -69 46 -106 166 -122l86 -12c140 -18 213 -73 213 -192c0 -122 -117 -200 -250 -200h-5z" />
    <glyph glyph-name="Scommaaccent" unicode="&#x218;" horiz-adv-x="648" 
d="M308 707h12c100 0 192 -42 244 -117l-31 -29c-47 66 -128 101 -213 101h-12c-89 0 -184 -50 -184 -143c0 -69 46 -106 166 -122l86 -12c140 -18 213 -73 213 -192c0 -122 -117 -200 -250 -200h-6c-139 0 -236 63 -275 158l31 29c33 -85 117 -142 244 -142h6
c108 0 202 58 202 155c0 89 -55 132 -169 147l-86 12c-144 19 -210 70 -210 166c0 116 112 189 232 189zM296 -171h-40l66 102h64z" />
    <glyph glyph-name="T" unicode="T" horiz-adv-x="602" 
d="M325 655v-655h-48v655h-229v45h506v-45h-229z" />
    <glyph glyph-name="Tbar" unicode="&#x166;" horiz-adv-x="602" 
d="M325 655v-267h101v-36h-101v-352h-48v352h-101v36h101v267h-229v45h506v-45h-229z" />
    <glyph glyph-name="Tcaron" unicode="&#x164;" horiz-adv-x="602" 
d="M321 750h-38l-115 107h46l88 -70l87 70h46zM325 655v-655h-48v655h-229v45h506v-45h-229z" />
    <glyph glyph-name="Tcedilla" unicode="&#x162;" horiz-adv-x="602" 
d="M311 0l-11 -47c39 11 77 -9 77 -58c0 -51 -59 -78 -118 -42v23c39 -29 84 -14 84 20c0 33 -28 48 -74 29l19 75h-11v655h-229v45h506v-45h-229v-655h-14z" />
    <glyph glyph-name="uni021A" unicode="&#x21a;" horiz-adv-x="602" 
d="M325 655v-655h-48v655h-229v45h506v-45h-229zM273 -171h-40l66 102h64z" />
    <glyph glyph-name="U" unicode="U" horiz-adv-x="795" 
d="M688 700v-395c0 -186 -109 -312 -287 -312c-177 0 -285 126 -285 312v395h48v-394c0 -164 85 -268 237 -268c153 0 239 104 239 268v394h48z" />
    <glyph glyph-name="Uacute" unicode="&#xda;" horiz-adv-x="795" 
d="M405 750h-40l66 102h64zM688 700v-395c0 -186 -109 -312 -287 -312c-177 0 -285 126 -285 312v395h48v-394c0 -164 85 -268 237 -268c153 0 239 104 239 268v394h48z" />
    <glyph glyph-name="Ucaron" unicode="&#x1d3;" horiz-adv-x="795" 
d="M421 750h-38l-115 107h46l88 -70l87 70h46zM688 700v-395c0 -186 -109 -312 -287 -312c-177 0 -285 126 -285 312v395h48v-394c0 -164 85 -268 237 -268c153 0 239 104 239 268v394h48z" />
    <glyph glyph-name="Ucircumflex" unicode="&#xdb;" horiz-adv-x="795" 
d="M489 750l-87 70l-88 -70h-46l115 107h38l114 -107h-46zM688 700v-395c0 -186 -109 -312 -287 -312c-177 0 -285 126 -285 312v395h48v-394c0 -164 85 -268 237 -268c153 0 239 104 239 268v394h48z" />
    <glyph glyph-name="Udieresis" unicode="&#xdc;" horiz-adv-x="795" 
d="M302 750c-17 0 -30 12 -30 28s13 28 30 28s30 -12 30 -28s-13 -28 -30 -28zM505 750c-17 0 -30 12 -30 28s13 28 30 28s30 -12 30 -28s-13 -28 -30 -28zM688 700v-395c0 -186 -109 -312 -287 -312c-177 0 -285 126 -285 312v395h48v-394c0 -164 85 -268 237 -268
c153 0 239 104 239 268v394h48z" />
    <glyph glyph-name="Udieresisacute" unicode="&#x1d7;" horiz-adv-x="795" 
d="M405 841h-40l66 102h64zM302 750c-17 0 -30 12 -30 28s13 28 30 28s30 -12 30 -28s-13 -28 -30 -28zM505 750c-17 0 -30 12 -30 28s13 28 30 28s30 -12 30 -28s-13 -28 -30 -28zM688 700v-395c0 -186 -109 -312 -287 -312c-177 0 -285 126 -285 312v395h48v-394
c0 -164 85 -268 237 -268c153 0 239 104 239 268v394h48z" />
    <glyph glyph-name="Udieresiscaron" unicode="&#x1d9;" horiz-adv-x="795" 
d="M402 879l87 69h46l-114 -107h-38l-115 108h46zM302 806c17 0 30 -12 30 -28s-13 -28 -30 -28s-30 12 -30 28s13 28 30 28zM505 806c17 0 30 -12 30 -28s-13 -28 -30 -28s-30 12 -30 28s13 28 30 28zM688 700v-395c0 -186 -109 -312 -287 -312c-177 0 -285 126 -285 312
v395h48v-394c0 -164 85 -268 237 -268c153 0 239 104 239 268v394h48z" />
    <glyph glyph-name="Udieresisgrave" unicode="&#x1db;" horiz-adv-x="795" 
d="M372 943l66 -102h-39l-91 102h64zM302 750c-17 0 -30 12 -30 28s13 28 30 28s30 -12 30 -28s-13 -28 -30 -28zM505 750c-17 0 -30 12 -30 28s13 28 30 28s30 -12 30 -28s-13 -28 -30 -28zM688 700v-395c0 -186 -109 -312 -287 -312c-177 0 -285 126 -285 312v395h48v-394
c0 -164 85 -268 237 -268c153 0 239 104 239 268v394h48z" />
    <glyph glyph-name="Udieresismacron" unicode="&#x1d5;" horiz-adv-x="795" 
d="M528 841h-250v36h250v-36zM302 750c-17 0 -30 12 -30 28s13 28 30 28s30 -12 30 -28s-13 -28 -30 -28zM505 750c-17 0 -30 12 -30 28s13 28 30 28s30 -12 30 -28s-13 -28 -30 -28zM688 700v-395c0 -186 -109 -312 -287 -312c-177 0 -285 126 -285 312v395h48v-394
c0 -164 85 -268 237 -268c153 0 239 104 239 268v394h48z" />
    <glyph glyph-name="Ugrave" unicode="&#xd9;" horiz-adv-x="795" 
d="M372 852l66 -102h-39l-91 102h64zM688 700v-395c0 -186 -109 -312 -287 -312c-177 0 -285 126 -285 312v395h48v-394c0 -164 85 -268 237 -268c153 0 239 104 239 268v394h48z" />
    <glyph glyph-name="Uhungarumlaut" unicode="&#x170;" horiz-adv-x="795" 
d="M321 750h-40l66 102h64zM441 750h-40l66 102h64zM688 700v-395c0 -186 -109 -312 -287 -312c-177 0 -285 126 -285 312v395h48v-394c0 -164 85 -268 237 -268c153 0 239 104 239 268v394h48z" />
    <glyph glyph-name="Umacron" unicode="&#x16a;" horiz-adv-x="795" 
d="M527 750h-250v36h250v-36zM688 700v-395c0 -186 -109 -312 -287 -312c-177 0 -285 126 -285 312v395h48v-394c0 -164 85 -268 237 -268c153 0 239 104 239 268v394h48z" />
    <glyph glyph-name="Uogonek" unicode="&#x172;" horiz-adv-x="795" 
d="M688 700v-395c0 -164 -85 -282 -228 -307c-51 -19 -69 -45 -69 -73c0 -39 33 -57 67 -57h6v-33h-5c-48 0 -96 25 -96 82c0 34 22 60 62 77l-24 -1c-177 0 -285 126 -285 312v395h48v-394c0 -164 85 -268 237 -268c153 0 239 104 239 268v394h48z" />
    <glyph glyph-name="Uring" unicode="&#x16e;" horiz-adv-x="795" 
d="M402 904c43 0 77 -35 77 -76c0 -43 -34 -78 -77 -78s-76 35 -76 78c0 41 33 76 76 76zM402 875c-28 0 -46 -23 -46 -47c0 -27 18 -49 46 -49c27 0 46 22 46 49c0 24 -19 47 -46 47zM688 700v-395c0 -186 -109 -312 -287 -312c-177 0 -285 126 -285 312v395h48v-394
c0 -164 85 -268 237 -268c153 0 239 104 239 268v394h48z" />
    <glyph glyph-name="V" unicode="V" horiz-adv-x="712" 
d="M369 0h-25l-296 700h52l256 -608l255 608h53z" />
    <glyph glyph-name="W" unicode="W" horiz-adv-x="1190" 
d="M866 0h-24l-247 601l-247 -601h-25l-275 700h52l235 -608l247 608h25l247 -608l235 608h52z" />
    <glyph glyph-name="Wacute" unicode="&#x1e82;" horiz-adv-x="1190" 
d="M597 750h-40l66 102h64zM866 0h-24l-247 601l-247 -601h-25l-275 700h52l235 -608l247 608h25l247 -608l235 608h52z" />
    <glyph glyph-name="Wcircumflex" unicode="&#x174;" horiz-adv-x="1190" 
d="M682 750l-87 70l-88 -70h-46l115 107h38l114 -107h-46zM866 0h-24l-247 601l-247 -601h-25l-275 700h52l235 -608l247 608h25l247 -608l235 608h52z" />
    <glyph glyph-name="Wdieresis" unicode="&#x1e84;" horiz-adv-x="1190" 
d="M492 750c-17 0 -30 12 -30 28s13 28 30 28s30 -12 30 -28s-13 -28 -30 -28zM696 750c-17 0 -30 12 -30 28s13 28 30 28s30 -12 30 -28s-13 -28 -30 -28zM866 0h-24l-247 601l-247 -601h-25l-275 700h52l235 -608l247 608h25l247 -608l235 608h52z" />
    <glyph glyph-name="Wgrave" unicode="&#x1e80;" horiz-adv-x="1190" 
d="M566 852l66 -102h-39l-91 102h64zM866 0h-24l-247 601l-247 -601h-25l-275 700h52l235 -608l247 608h25l247 -608l235 608h52z" />
    <glyph glyph-name="X" unicode="X" horiz-adv-x="669" 
d="M333 317l-229 -317h-56l258 359l-247 341h57l219 -300l218 300h56l-246 -343l258 -357h-57z" />
    <glyph glyph-name="Y" unicode="Y" horiz-adv-x="694" 
d="M371 0h-48v242l-275 458h55l244 -401l244 401h55l-275 -457v-243z" />
    <glyph glyph-name="Yacute" unicode="&#xdd;" horiz-adv-x="694" 
d="M350 750h-40l66 102h64zM371 0h-48v242l-275 458h55l244 -401l244 401h55l-275 -457v-243z" />
    <glyph glyph-name="Ycircumflex" unicode="&#x176;" horiz-adv-x="694" 
d="M435 750l-87 70l-88 -70h-46l115 107h38l114 -107h-46zM371 0h-48v242l-275 458h55l244 -401l244 401h55l-275 -457v-243z" />
    <glyph glyph-name="Ydieresis" unicode="&#x178;" horiz-adv-x="694" 
d="M245 750c-17 0 -30 12 -30 28s13 28 30 28s30 -12 30 -28s-13 -28 -30 -28zM449 750c-17 0 -30 12 -30 28s13 28 30 28s30 -12 30 -28s-13 -28 -30 -28zM371 0h-48v242l-275 458h55l244 -401l244 401h55l-275 -457v-243z" />
    <glyph glyph-name="Ygrave" unicode="&#x1ef2;" horiz-adv-x="694" 
d="M315 852l66 -102h-39l-91 102h64zM371 0h-48v242l-275 458h55l244 -401l244 401h55l-275 -457v-243z" />
    <glyph glyph-name="Z" unicode="Z" horiz-adv-x="629" 
d="M571 0h-513v23l435 632h-399v45h470v-23l-435 -632h442v-45z" />
    <glyph glyph-name="Zacute" unicode="&#x179;" horiz-adv-x="629" 
d="M304 750h-40l66 102h64zM571 0h-513v23l435 632h-399v45h470v-23l-435 -632h442v-45z" />
    <glyph glyph-name="Zcaron" unicode="&#x17d;" horiz-adv-x="629" 
d="M338 750h-38l-115 107h46l88 -70l87 70h46zM571 0h-513v23l435 632h-399v45h470v-23l-435 -632h442v-45z" />
    <glyph glyph-name="Zdotaccent" unicode="&#x17b;" horiz-adv-x="629" 
d="M311 750c-17 0 -30 12 -30 28s13 28 30 28s30 -12 30 -28s-13 -28 -30 -28zM571 0h-513v23l435 632h-399v45h470v-23l-435 -632h442v-45z" />
    <glyph glyph-name="K.ss01" horiz-adv-x="691" 
d="M164 334v-334h-48v700h48v-321h183l230 321h57l-247 -344l256 -356h-56l-242 334h-181z" />
    <glyph glyph-name="Kcommaaccent.ss01" horiz-adv-x="691" 
d="M164 334v-334h-48v700h48v-321h183l230 321h57l-247 -344l256 -356h-56l-242 334h-181zM314 -171h-40l66 102h64z" />
    <glyph glyph-name="R.ss01" horiz-adv-x="687" 
d="M116 700h218c171 0 302 -85 302 -246c0 -125 -81 -202 -194 -231l191 -223h-56l-184 213c-16 -3 -33 -4 -49 -5h-180v-208h-48v700zM164 655v-402h173c137 0 252 60 252 201c0 140 -115 201 -252 201h-173z" />
    <glyph glyph-name="Racute.ss01" horiz-adv-x="687" 
d="M336 750h-40l66 102h64zM116 700h218c171 0 302 -85 302 -246c0 -125 -81 -202 -194 -231l191 -223h-56l-184 213c-16 -3 -33 -4 -49 -5h-180v-208h-48v700zM164 655v-402h173c137 0 252 60 252 201c0 140 -115 201 -252 201h-173z" />
    <glyph glyph-name="Rcaron.ss01" horiz-adv-x="687" 
d="M342 750h-38l-115 107h46l88 -70l87 70h46zM116 700h218c171 0 302 -85 302 -246c0 -125 -81 -202 -194 -231l191 -223h-56l-184 213c-16 -3 -33 -4 -49 -5h-180v-208h-48v700zM164 655v-402h173c137 0 252 60 252 201c0 140 -115 201 -252 201h-173z" />
    <glyph glyph-name="Rcommaaccent.ss01" horiz-adv-x="687" 
d="M116 700h218c171 0 302 -85 302 -246c0 -125 -81 -202 -194 -231l191 -223h-56l-184 213c-16 -3 -33 -4 -49 -5h-180v-208h-48v700zM164 655v-402h173c137 0 252 60 252 201c0 140 -115 201 -252 201h-173zM302 -171h-40l66 102h64z" />
    <glyph glyph-name="a" unicode="a" horiz-adv-x="674" 
d="M577 0h-35l-2 133c-38 -82 -123 -139 -221 -139c-142 0 -253 114 -253 256s111 257 253 257c98 0 183 -57 221 -140l2 133h35v-500zM323 37c115 0 211 92 211 213s-96 214 -211 214c-116 0 -211 -93 -211 -214s95 -213 211 -213z" />
    <glyph glyph-name="aacute" unicode="&#xe1;" horiz-adv-x="674" 
d="M330 571h-40l66 102h64zM577 0h-35l-2 133c-38 -82 -123 -139 -221 -139c-142 0 -253 114 -253 256s111 257 253 257c98 0 183 -57 221 -140l2 133h35v-500zM323 37c115 0 211 92 211 213s-96 214 -211 214c-116 0 -211 -93 -211 -214s95 -213 211 -213z" />
    <glyph glyph-name="abreve" unicode="&#x103;" horiz-adv-x="674" 
d="M424 690h35c0 -68 -60 -119 -136 -119s-136 51 -136 119h35c0 -48 44 -84 101 -84s101 36 101 84zM319 507c98 0 183 -57 221 -140l2 133h35v-500h-35l-2 133c-38 -82 -123 -139 -221 -139c-142 0 -253 114 -253 256s111 257 253 257zM323 464c-116 0 -211 -93 -211 -214
s95 -213 211 -213c115 0 211 92 211 213s-96 214 -211 214z" />
    <glyph glyph-name="acaron" unicode="&#x1ce;" horiz-adv-x="674" 
d="M342 571h-38l-115 108h46l88 -70l87 70h46zM577 0h-35l-2 133c-38 -82 -123 -139 -221 -139c-142 0 -253 114 -253 256s111 257 253 257c98 0 183 -57 221 -140l2 133h35v-500zM323 37c115 0 211 92 211 213s-96 214 -211 214c-116 0 -211 -93 -211 -214
s95 -213 211 -213z" />
    <glyph glyph-name="acircumflex" unicode="&#xe2;" horiz-adv-x="674" 
d="M410 571l-87 70l-88 -70h-46l115 108h38l114 -108h-46zM577 0h-35l-2 133c-38 -82 -123 -139 -221 -139c-142 0 -253 114 -253 256s111 257 253 257c98 0 183 -57 221 -140l2 133h35v-500zM323 37c115 0 211 92 211 213s-96 214 -211 214c-116 0 -211 -93 -211 -214
s95 -213 211 -213z" />
    <glyph glyph-name="adieresis" unicode="&#xe4;" horiz-adv-x="674" 
d="M221 571c-17 0 -30 13 -30 28c0 16 13 29 30 29s30 -13 30 -29c0 -15 -13 -28 -30 -28zM425 571c-17 0 -30 13 -30 28c0 16 13 29 30 29s30 -13 30 -29c0 -15 -13 -28 -30 -28zM577 0h-35l-2 133c-38 -82 -123 -139 -221 -139c-142 0 -253 114 -253 256s111 257 253 257
c98 0 183 -57 221 -140l2 133h35v-500zM323 37c115 0 211 92 211 213s-96 214 -211 214c-116 0 -211 -93 -211 -214s95 -213 211 -213z" />
    <glyph glyph-name="agrave" unicode="&#xe0;" horiz-adv-x="674" 
d="M297 673l66 -102h-39l-91 102h64zM577 0h-35l-2 133c-38 -82 -123 -139 -221 -139c-142 0 -253 114 -253 256s111 257 253 257c98 0 183 -57 221 -140l2 133h35v-500zM323 37c115 0 211 92 211 213s-96 214 -211 214c-116 0 -211 -93 -211 -214s95 -213 211 -213z" />
    <glyph glyph-name="amacron" unicode="&#x101;" horiz-adv-x="674" 
d="M450 571h-250v36h250v-36zM577 0h-35l-2 133c-38 -82 -123 -139 -221 -139c-142 0 -253 114 -253 256s111 257 253 257c98 0 183 -57 221 -140l2 133h35v-500zM323 37c115 0 211 92 211 213s-96 214 -211 214c-116 0 -211 -93 -211 -214s95 -213 211 -213z" />
    <glyph glyph-name="aogonek" unicode="&#x105;" horiz-adv-x="674" 
d="M503 -75c0 -39 33 -57 67 -57h6v-33h-5c-48 0 -96 25 -96 82c0 39 28 67 79 83h-12l-2 133c-38 -82 -123 -139 -221 -139c-142 0 -253 114 -253 256s111 257 253 257c98 0 183 -57 221 -140l2 133h35v-500h1c-56 -19 -75 -46 -75 -75zM323 37c115 0 211 92 211 213
s-96 214 -211 214c-116 0 -211 -93 -211 -214s95 -213 211 -213z" />
    <glyph glyph-name="aring" unicode="&#xe5;" horiz-adv-x="674" 
d="M322 725c43 0 77 -35 77 -76c0 -43 -34 -78 -77 -78s-76 35 -76 78c0 41 33 76 76 76zM323 696c-28 0 -46 -23 -46 -47c0 -26 18 -49 46 -49c27 0 46 23 46 49c0 24 -19 47 -46 47zM577 0h-35l-2 133c-38 -82 -123 -139 -221 -139c-142 0 -253 114 -253 256
s111 257 253 257c98 0 183 -57 221 -140l2 133h35v-500zM323 37c115 0 211 92 211 213s-96 214 -211 214c-116 0 -211 -93 -211 -214s95 -213 211 -213z" />
    <glyph glyph-name="atilde" unicode="&#xe3;" horiz-adv-x="674" 
d="M461 666l-15 -42c-13 -39 -32 -60 -63 -61c-21 0 -37 9 -50 22l-39 40c-10 9 -21 15 -35 15c-23 0 -33 -15 -42 -44l-7 -25h-29l14 43c13 38 32 60 63 60c22 1 38 -9 50 -21l39 -40c10 -9 21 -16 35 -15c23 0 33 14 42 44l7 24h30zM577 0h-35l-2 133
c-38 -82 -123 -139 -221 -139c-142 0 -253 114 -253 256s111 257 253 257c98 0 183 -57 221 -140l2 133h35v-500zM323 37c115 0 211 92 211 213s-96 214 -211 214c-116 0 -211 -93 -211 -214s95 -213 211 -213z" />
    <glyph glyph-name="ae" unicode="&#xe6;" horiz-adv-x="1092" 
d="M319 507c98 0 183 -57 221 -140l2 133h35v-123c36 77 114 130 212 130c111 0 192 -62 227 -152c14 -34 17 -86 10 -113h-446c0 -129 90 -206 219 -207c73 0 134 24 184 63l26 -28c-55 -45 -125 -76 -210 -76c-104 1 -185 48 -222 127v-121h-35l-2 133
c-38 -82 -123 -139 -221 -139c-142 0 -253 114 -253 256s111 257 253 257zM790 465c-118 0 -200 -84 -207 -190h403c1 20 -3 47 -11 67c-28 73 -94 123 -185 123zM323 464c-116 0 -211 -93 -211 -214s95 -213 211 -213c115 0 211 92 211 213s-96 214 -211 214z" />
    <glyph glyph-name="b" unicode="b" horiz-adv-x="674" 
d="M141 700v-328c37 79 118 135 213 135c142 0 253 -115 253 -257s-111 -256 -253 -256c-98 0 -183 57 -221 139l-2 -133h-35v700h45zM351 464c-116 0 -211 -93 -211 -214s95 -213 211 -213s211 92 211 213s-95 214 -211 214z" />
    <glyph glyph-name="c" unicode="c" horiz-adv-x="581" 
d="M322 507c79 0 150 -36 197 -93l-28 -29c-43 50 -102 78 -169 78c-116 0 -211 -92 -211 -213s95 -213 211 -213c67 0 126 29 169 79l28 -30c-47 -56 -118 -92 -197 -92c-142 0 -256 114 -256 256s114 257 256 257z" />
    <glyph glyph-name="cacute" unicode="&#x107;" horiz-adv-x="581" 
d="M301 571h-40l66 102h64zM322 507c79 0 150 -36 197 -93l-28 -29c-43 50 -102 78 -169 78c-116 0 -211 -92 -211 -213s95 -213 211 -213c67 0 126 29 169 79l28 -30c-47 -56 -118 -92 -197 -92c-142 0 -256 114 -256 256s114 257 256 257z" />
    <glyph glyph-name="ccaron" unicode="&#x10d;" horiz-adv-x="581" 
d="M342 571h-38l-115 108h46l88 -70l87 70h46zM322 507c79 0 150 -36 197 -93l-28 -29c-43 50 -102 78 -169 78c-116 0 -211 -92 -211 -213s95 -213 211 -213c67 0 126 29 169 79l28 -30c-47 -56 -118 -92 -197 -92c-142 0 -256 114 -256 256s114 257 256 257z" />
    <glyph glyph-name="ccedilla" unicode="&#xe7;" horiz-adv-x="581" 
d="M322 37c67 0 126 29 169 79l28 -30c-47 -56 -118 -92 -197 -92l-10 -41c39 11 77 -9 77 -58c0 -51 -59 -78 -118 -42v23c39 -29 84 -14 84 20c0 33 -28 48 -74 29l18 70c-131 12 -233 121 -233 255c0 142 114 257 256 257c79 0 150 -36 197 -93l-28 -29
c-43 50 -102 78 -169 78c-116 0 -211 -92 -211 -213s95 -213 211 -213z" />
    <glyph glyph-name="cdotaccent" unicode="&#x10b;" horiz-adv-x="581" 
d="M322 628c17 0 30 -13 30 -29c0 -15 -13 -28 -30 -28s-30 13 -30 28c0 16 13 29 30 29zM322 507c79 0 150 -36 197 -93l-28 -29c-43 50 -102 78 -169 78c-116 0 -211 -92 -211 -213s95 -213 211 -213c67 0 126 29 169 79l28 -30c-47 -56 -118 -92 -197 -92
c-142 0 -256 114 -256 256s114 257 256 257z" />
    <glyph glyph-name="d" unicode="d" horiz-adv-x="674" 
d="M577 0h-35l-2 133c-38 -82 -123 -139 -221 -139c-142 0 -253 114 -253 256s111 257 253 257c95 0 176 -56 213 -135v328h45v-700zM323 37c115 0 211 92 211 213s-96 214 -211 214c-116 0 -211 -93 -211 -214s95 -213 211 -213z" />
    <glyph glyph-name="eth" unicode="&#xf0;" horiz-adv-x="676" 
d="M570 678l-48 -43c38 -43 57 -105 57 -179v-204c0 -147 -109 -259 -257 -259c-149 0 -256 115 -256 255s109 253 251 253c97 0 180 -57 217 -139l-1 94c0 64 -14 115 -43 150l-80 -72l-21 22l80 72c-31 26 -74 39 -129 39c-74 1 -133 -24 -184 -63l-27 29
c55 46 125 76 211 76c68 0 122 -19 161 -53l49 44zM323 36c121 0 211 93 211 212s-95 211 -211 211s-211 -92 -211 -211s91 -212 211 -212z" />
    <glyph glyph-name="dcaron" unicode="&#x10f;" horiz-adv-x="836" 
d="M577 0h-35l-2 133c-38 -82 -123 -139 -221 -139c-142 0 -253 114 -253 256s111 257 253 257c95 0 176 -56 213 -135v328h45v-700zM649 598h-40l66 102h64zM323 37c115 0 211 92 211 213s-96 214 -211 214c-116 0 -211 -93 -211 -214s95 -213 211 -213z" />
    <glyph glyph-name="dcroat" unicode="&#x111;" horiz-adv-x="757" 
d="M661 565h-84v-565h-35l-2 133c-38 -82 -123 -139 -221 -139c-142 0 -253 114 -253 256s111 257 253 257c95 0 176 -56 213 -135v193h-84v36h84v99h45v-99h84v-36zM323 37c115 0 211 92 211 213s-96 214 -211 214c-116 0 -211 -93 -211 -214s95 -213 211 -213z" />
    <glyph glyph-name="e" unicode="e" horiz-adv-x="624" 
d="M321 507c111 0 192 -62 227 -152c14 -34 17 -86 10 -113h-446c0 -129 90 -206 219 -207c73 0 134 24 184 63l26 -28c-55 -45 -125 -76 -210 -76c-157 1 -265 102 -265 256c0 142 104 257 255 257zM322 465c-118 0 -200 -84 -207 -190h403c1 20 -3 47 -11 67
c-28 73 -94 123 -185 123z" />
    <glyph glyph-name="eacute" unicode="&#xe9;" horiz-adv-x="624" 
d="M326 571h-40l66 102h64zM321 507c111 0 192 -62 227 -152c14 -34 17 -86 10 -113h-446c0 -129 90 -206 219 -207c73 0 134 24 184 63l26 -28c-55 -45 -125 -76 -210 -76c-157 1 -265 102 -265 256c0 142 104 257 255 257zM322 465c-118 0 -200 -84 -207 -190h403
c1 20 -3 47 -11 67c-28 73 -94 123 -185 123z" />
    <glyph glyph-name="ecaron" unicode="&#x11b;" horiz-adv-x="624" 
d="M341 571h-38l-115 108h46l88 -70l87 70h46zM321 507c111 0 192 -62 227 -152c14 -34 17 -86 10 -113h-446c0 -129 90 -206 219 -207c73 0 134 24 184 63l26 -28c-55 -45 -125 -76 -210 -76c-157 1 -265 102 -265 256c0 142 104 257 255 257zM322 465
c-118 0 -200 -84 -207 -190h403c1 20 -3 47 -11 67c-28 73 -94 123 -185 123z" />
    <glyph glyph-name="ecircumflex" unicode="&#xea;" horiz-adv-x="624" 
d="M455 571h-46l-87 70l-88 -70h-46l115 108h38zM321 507c111 0 192 -62 227 -152c14 -34 17 -86 10 -113h-446c0 -129 90 -206 219 -207c73 0 134 24 184 63l26 -28c-55 -45 -125 -76 -210 -76c-157 1 -265 102 -265 256c0 142 104 257 255 257zM322 465
c-118 0 -200 -84 -207 -190h403c1 20 -3 47 -11 67c-28 73 -94 123 -185 123z" />
    <glyph glyph-name="edieresis" unicode="&#xeb;" horiz-adv-x="624" 
d="M222 628c17 0 30 -13 30 -28c0 -16 -13 -29 -30 -29s-30 13 -30 29c0 15 13 28 30 28zM426 628c17 0 30 -13 30 -28c0 -16 -13 -29 -30 -29s-30 13 -30 29c0 15 13 28 30 28zM321 507c111 0 192 -62 227 -152c14 -34 17 -86 10 -113h-446c0 -129 90 -206 219 -207
c73 0 134 24 184 63l26 -28c-55 -45 -125 -76 -210 -76c-157 1 -265 102 -265 256c0 142 104 257 255 257zM322 465c-118 0 -200 -84 -207 -190h403c1 20 -3 47 -11 67c-28 73 -94 123 -185 123z" />
    <glyph glyph-name="edotaccent" unicode="&#x117;" horiz-adv-x="624" 
d="M322 628c17 0 30 -13 30 -29c0 -15 -13 -28 -30 -28s-30 13 -30 28c0 16 13 29 30 29zM321 507c111 0 192 -62 227 -152c14 -34 17 -86 10 -113h-446c0 -129 90 -206 219 -207c73 0 134 24 184 63l26 -28c-55 -45 -125 -76 -210 -76c-157 1 -265 102 -265 256
c0 142 104 257 255 257zM322 465c-118 0 -200 -84 -207 -190h403c1 20 -3 47 -11 67c-28 73 -94 123 -185 123z" />
    <glyph glyph-name="egrave" unicode="&#xe8;" horiz-adv-x="624" 
d="M358 571h-39l-91 102h64zM321 507c111 0 192 -62 227 -152c14 -34 17 -86 10 -113h-446c0 -129 90 -206 219 -207c73 0 134 24 184 63l26 -28c-55 -45 -125 -76 -210 -76c-157 1 -265 102 -265 256c0 142 104 257 255 257zM322 465c-118 0 -200 -84 -207 -190h403
c1 20 -3 47 -11 67c-28 73 -94 123 -185 123z" />
    <glyph glyph-name="emacron" unicode="&#x113;" horiz-adv-x="624" 
d="M445 571h-250v36h250v-36zM321 507c111 0 192 -62 227 -152c14 -34 17 -86 10 -113h-446c0 -129 90 -206 219 -207c73 0 134 24 184 63l26 -28c-55 -45 -125 -76 -210 -76c-157 1 -265 102 -265 256c0 142 104 257 255 257zM322 465c-118 0 -200 -84 -207 -190h403
c1 20 -3 47 -11 67c-28 73 -94 123 -185 123z" />
    <glyph glyph-name="eogonek" unicode="&#x119;" horiz-adv-x="624" 
d="M548 355c14 -34 17 -86 10 -113h-446c0 -129 90 -206 219 -207c73 0 134 24 184 63l26 -28c-42 -34 -92 -60 -152 -71c-54 -19 -72 -45 -72 -74c0 -39 33 -57 67 -57h6v-33h-5c-48 0 -96 25 -96 82c0 35 23 61 64 78l-22 -1c-157 1 -265 102 -265 256
c0 142 104 257 255 257c111 0 192 -62 227 -152zM115 275h403c1 20 -3 47 -11 67c-28 73 -94 123 -185 123c-118 0 -200 -84 -207 -190z" />
    <glyph glyph-name="f" unicode="f" horiz-adv-x="395" 
d="M345 705l-1 -40h-10c-71 0 -146 -30 -146 -140v-25h156v-43h-156v-457h-45v457h-77v43h77v26c0 133 93 186 189 180z" />
    <glyph glyph-name="g" unicode="g" horiz-adv-x="668" 
d="M314 507c98 0 182 -57 220 -138l2 131h35v-438c0 -154 -81 -252 -239 -253c-85 0 -155 30 -211 76l27 29c51 -39 110 -64 184 -63c130 0 193 74 193 204v75c-36 -78 -117 -132 -211 -132c-142 0 -253 113 -253 254c0 140 111 255 253 255zM318 464
c-116 0 -211 -93 -211 -212s95 -211 211 -211c115 0 211 92 211 211s-96 212 -211 212z" />
    <glyph glyph-name="gbreve" unicode="&#x11f;" horiz-adv-x="668" 
d="M419 690h35c0 -68 -60 -119 -136 -119s-136 51 -136 119h35c0 -48 44 -84 101 -84s101 36 101 84zM314 507c98 0 182 -57 220 -138l2 131h35v-438c0 -154 -81 -252 -239 -253c-85 0 -155 30 -211 76l27 29c51 -39 110 -64 184 -63c130 0 193 74 193 204v75
c-36 -78 -117 -132 -211 -132c-142 0 -253 113 -253 254c0 140 111 255 253 255zM318 464c-116 0 -211 -93 -211 -212s95 -211 211 -211c115 0 211 92 211 211s-96 212 -211 212z" />
    <glyph glyph-name="gcommaaccent" unicode="&#x123;" horiz-adv-x="668" 
d="M314 507c98 0 182 -57 220 -138l2 131h35v-438c0 -154 -81 -252 -239 -253c-85 0 -155 30 -211 76l27 29c51 -39 110 -64 184 -63c130 0 193 74 193 204v75c-36 -78 -117 -132 -211 -132c-142 0 -253 113 -253 254c0 140 111 255 253 255zM318 464
c-116 0 -211 -93 -211 -212s95 -211 211 -211c115 0 211 92 211 211s-96 212 -211 212zM280 -352h-40l66 102h64z" />
    <glyph glyph-name="gdotaccent" unicode="&#x121;" horiz-adv-x="668" 
d="M317 628c17 0 30 -13 30 -29c0 -15 -13 -28 -30 -28s-30 13 -30 28c0 16 13 29 30 29zM314 507c98 0 182 -57 220 -138l2 131h35v-438c0 -154 -81 -252 -239 -253c-85 0 -155 30 -211 76l27 29c51 -39 110 -64 184 -63c130 0 193 74 193 204v75
c-36 -78 -117 -132 -211 -132c-142 0 -253 113 -253 254c0 140 111 255 253 255zM318 464c-116 0 -211 -93 -211 -212s95 -211 211 -211c115 0 211 92 211 211s-96 212 -211 212z" />
    <glyph glyph-name="h" unicode="h" horiz-adv-x="660" 
d="M350 507c133 0 218 -84 218 -235v-272h-46v270c0 132 -70 194 -177 194c-120 0 -199 -86 -199 -229v-235h-45v700h45v-325c41 96 132 132 204 132z" />
    <glyph glyph-name="hbar" unicode="&#x127;" horiz-adv-x="745" 
d="M436 507c133 0 218 -84 218 -235v-272h-46v270c0 132 -70 194 -177 194c-120 0 -199 -86 -199 -229v-235h-45v564h-86v34h86v102h45v-102h85v-34h-85v-189c41 96 132 132 204 132z" />
    <glyph glyph-name="i" unicode="i" horiz-adv-x="258" 
d="M131 571c-17 0 -30 13 -30 28c0 16 13 29 30 29s30 -13 30 -29c0 -15 -13 -28 -30 -28zM109 0v500h45v-500h-45z" />
    <glyph glyph-name="dotlessi" unicode="&#x131;" horiz-adv-x="243" 
d="M101 0v500h45v-500h-45z" />
    <glyph glyph-name="iacute" unicode="&#xed;" horiz-adv-x="328" 
d="M141 571h-40l66 102h64zM122 0v500h45v-500h-45z" />
    <glyph glyph-name="icaron" unicode="&#x1d0;" horiz-adv-x="465" 
d="M254 571h-38l-115 108h46l88 -70l87 70h46zM257 0h-45v500h45v-500z" />
    <glyph glyph-name="icircumflex" unicode="&#xee;" horiz-adv-x="465" 
d="M254 679l114 -108h-46l-87 70l-88 -70h-46l115 108h38zM257 0h-45v500h45v-500z" />
    <glyph glyph-name="idieresis" unicode="&#xef;" horiz-adv-x="462" 
d="M131 571c-17 0 -30 13 -30 28c0 16 13 29 30 29s30 -13 30 -29c0 -15 -13 -28 -30 -28zM335 571c-17 0 -30 13 -30 28c0 16 13 29 30 29s30 -13 30 -29c0 -15 -13 -28 -30 -28zM213 0v500h45v-500h-45z" />
    <glyph glyph-name="i.loclTRK" horiz-adv-x="258" 
d="M131 571c-17 0 -30 13 -30 28c0 16 13 29 30 29s30 -13 30 -29c0 -15 -13 -28 -30 -28zM109 0v500h45v-500h-45z" />
    <glyph glyph-name="igrave" unicode="&#xec;" horiz-adv-x="329" 
d="M166 673l66 -102h-40l-91 102h65zM184 0v500h45v-500h-45z" />
    <glyph glyph-name="ij" unicode="&#x133;" horiz-adv-x="411" 
d="M131 628c17 0 30 -13 30 -29c0 -15 -13 -28 -30 -28s-30 13 -30 28c0 16 13 29 30 29zM284 628c17 0 30 -13 30 -29c0 -15 -13 -28 -30 -28s-30 13 -30 28c0 16 13 29 30 29zM154 0h-45v500h45v-500zM308 -184h-46v684h46v-684z" />
    <glyph glyph-name="imacron" unicode="&#x12b;" horiz-adv-x="448" 
d="M351 571h-250v36h250v-36zM205 0v500h45v-500h-45z" />
    <glyph glyph-name="iogonek" unicode="&#x12f;" horiz-adv-x="318" 
d="M192 571c-17 0 -30 13 -30 28c0 16 13 29 30 29s30 -13 30 -29c0 -15 -13 -28 -30 -28zM214 0h1c-56 -19 -75 -46 -75 -75c0 -39 33 -57 67 -57h6v-33h-4c-49 0 -97 25 -97 82c0 39 28 67 79 83h-22v500h45v-500z" />
    <glyph glyph-name="j" unicode="j" horiz-adv-x="258" 
d="M131 628c17 0 30 -13 30 -29c0 -15 -13 -28 -30 -28s-30 13 -30 28c0 16 13 29 30 29zM155 -184h-46v684h46v-684z" />
    <glyph glyph-name="k" unicode="k" horiz-adv-x="570" 
d="M479 0l-79 123c-54 85 -73 114 -156 114h-98v-237h-45v700h45v-420h84c83 0 102 30 156 114l69 106h52l-85 -128c-38 -58 -62 -95 -98 -111c45 -13 70 -51 112 -116l95 -145h-52z" />
    <glyph glyph-name="kcommaaccent" unicode="&#x137;" horiz-adv-x="570" 
d="M479 0l-79 123c-54 85 -73 114 -156 114h-98v-237h-45v700h45v-420h84c83 0 102 30 156 114l69 106h52l-85 -128c-38 -58 -62 -95 -98 -111c45 -13 70 -51 112 -116l95 -145h-52zM250 -171h-40l66 102h64z" />
    <glyph glyph-name="l" unicode="l" horiz-adv-x="243" 
d="M101 0v700h46v-700h-46z" />
    <glyph glyph-name="lacute" unicode="&#x13a;" horiz-adv-x="327" 
d="M141 750h-40l66 102h64zM122 700h46v-700h-46v700z" />
    <glyph glyph-name="lcaron" unicode="&#x13e;" horiz-adv-x="403" 
d="M101 700h46v-700h-46v700zM217 598h-40l66 102h64z" />
    <glyph glyph-name="lcommaaccent" unicode="&#x13c;" horiz-adv-x="327" 
d="M162 700h46v-700h-46v700zM141 -169h-40l66 102h64z" />
    <glyph glyph-name="ldot" unicode="&#x140;" horiz-adv-x="347" 
d="M101 700h46v-700h-46v700zM217 332c19 0 34 -15 34 -34c0 -18 -15 -34 -34 -34s-34 16 -34 34c0 19 15 34 34 34z" />
    <glyph glyph-name="lslash" unicode="&#x142;" horiz-adv-x="362" 
d="M266 465l-58 -26v-439h-46v419l-61 -27v35l61 27v246h46v-226l58 26v-35z" />
    <glyph glyph-name="m" unicode="m" horiz-adv-x="1076" 
d="M766 507c133 0 218 -84 218 -235v-272h-46v270c0 132 -70 194 -176 194c-121 0 -199 -86 -199 -229v-235h-46v270c0 132 -70 194 -177 194c-120 0 -199 -86 -199 -229v-235h-45v500h35l3 -131c40 100 134 138 211 138c104 0 180 -52 204 -153c37 111 136 153 217 153z
" />
    <glyph glyph-name="n" unicode="n" horiz-adv-x="655" 
d="M345 507c133 0 218 -84 218 -235v-272h-46v270c0 132 -70 194 -177 194c-120 0 -199 -86 -199 -229v-235h-45v500h35l3 -131c40 100 134 138 211 138z" />
    <glyph glyph-name="nacute" unicode="&#x144;" horiz-adv-x="655" 
d="M344 571h-40l66 102h64zM345 507c133 0 218 -84 218 -235v-272h-46v270c0 132 -70 194 -177 194c-120 0 -199 -86 -199 -229v-235h-45v500h35l3 -131c40 100 134 138 211 138z" />
    <glyph glyph-name="ncaron" unicode="&#x148;" horiz-adv-x="655" 
d="M362 571h-38l-115 108h46l88 -70l87 70h46zM345 507c133 0 218 -84 218 -235v-272h-46v270c0 132 -70 194 -177 194c-120 0 -199 -86 -199 -229v-235h-45v500h35l3 -131c40 100 134 138 211 138z" />
    <glyph glyph-name="ncommaaccent" unicode="&#x146;" horiz-adv-x="655" 
d="M345 507c133 0 218 -84 218 -235v-272h-46v270c0 132 -70 194 -177 194c-120 0 -199 -86 -199 -229v-235h-45v500h35l3 -131c40 100 134 138 211 138zM308 -171h-40l66 102h64z" />
    <glyph glyph-name="eng" unicode="&#x14b;" horiz-adv-x="655" 
d="M345 507c133 0 218 -84 218 -235v-271c0 -139 -91 -197 -189 -191l-13 1l1 40h9c73 0 146 30 146 148v271c0 132 -70 194 -177 194c-120 0 -199 -86 -199 -229v-235h-45v500h35l3 -131c40 100 134 138 211 138z" />
    <glyph glyph-name="ntilde" unicode="&#xf1;" horiz-adv-x="655" 
d="M468 666l-15 -42c-13 -39 -32 -60 -63 -61c-21 0 -37 9 -50 22l-39 40c-10 9 -21 15 -35 15c-23 0 -33 -15 -42 -44l-7 -25h-29l14 43c13 38 32 60 63 60c22 1 38 -9 50 -21l39 -40c10 -9 21 -16 35 -15c23 0 33 14 42 44l7 24h30zM345 507c133 0 218 -84 218 -235v-272
h-46v270c0 132 -70 194 -177 194c-120 0 -199 -86 -199 -229v-235h-45v500h35l3 -131c40 100 134 138 211 138z" />
    <glyph glyph-name="o" unicode="o" horiz-adv-x="646" 
d="M322 507c142 0 257 -115 257 -257s-115 -256 -257 -256s-256 114 -256 256s114 257 256 257zM323 464c-116 0 -211 -93 -211 -214s95 -213 211 -213c115 0 211 92 211 213s-96 214 -211 214z" />
    <glyph glyph-name="oacute" unicode="&#xf3;" horiz-adv-x="646" 
d="M325 571h-40l66 102h64zM322 507c142 0 257 -115 257 -257s-115 -256 -257 -256s-256 114 -256 256s114 257 256 257zM323 464c-116 0 -211 -93 -211 -214s95 -213 211 -213c115 0 211 92 211 213s-96 214 -211 214z" />
    <glyph glyph-name="ocaron" unicode="&#x1d2;" horiz-adv-x="646" 
d="M342 571h-38l-115 108h46l88 -70l87 70h46zM322 507c142 0 257 -115 257 -257s-115 -256 -257 -256s-256 114 -256 256s114 257 256 257zM323 464c-116 0 -211 -93 -211 -214s95 -213 211 -213c115 0 211 92 211 213s-96 214 -211 214z" />
    <glyph glyph-name="ocircumflex" unicode="&#xf4;" horiz-adv-x="646" 
d="M410 571l-87 70l-88 -70h-46l115 108h38l114 -108h-46zM322 507c142 0 257 -115 257 -257s-115 -256 -257 -256s-256 114 -256 256s114 257 256 257zM323 464c-116 0 -211 -93 -211 -214s95 -213 211 -213c115 0 211 92 211 213s-96 214 -211 214z" />
    <glyph glyph-name="odieresis" unicode="&#xf6;" horiz-adv-x="646" 
d="M223 571c-17 0 -30 13 -30 28c0 16 13 29 30 29s30 -13 30 -29c0 -15 -13 -28 -30 -28zM427 571c-17 0 -30 13 -30 28c0 16 13 29 30 29s30 -13 30 -29c0 -15 -13 -28 -30 -28zM322 507c142 0 257 -115 257 -257s-115 -256 -257 -256s-256 114 -256 256s114 257 256 257z
M323 464c-116 0 -211 -93 -211 -214s95 -213 211 -213c115 0 211 92 211 213s-96 214 -211 214z" />
    <glyph glyph-name="ograve" unicode="&#xf2;" horiz-adv-x="646" 
d="M291 673l66 -102h-39l-91 102h64zM322 507c142 0 257 -115 257 -257s-115 -256 -257 -256s-256 114 -256 256s114 257 256 257zM323 464c-116 0 -211 -93 -211 -214s95 -213 211 -213c115 0 211 92 211 213s-96 214 -211 214z" />
    <glyph glyph-name="ohungarumlaut" unicode="&#x151;" horiz-adv-x="647" 
d="M268 571h-40l66 102h64zM387 571h-40l66 102h64zM322 507c142 0 257 -115 257 -257s-115 -256 -257 -256s-256 114 -256 256s114 257 256 257zM323 464c-116 0 -211 -93 -211 -214s95 -213 211 -213c115 0 211 92 211 213s-96 214 -211 214z" />
    <glyph glyph-name="omacron" unicode="&#x14d;" horiz-adv-x="646" 
d="M447 571h-250v36h250v-36zM322 507c142 0 257 -115 257 -257s-115 -256 -257 -256s-256 114 -256 256s114 257 256 257zM323 464c-116 0 -211 -93 -211 -214s95 -213 211 -213c115 0 211 92 211 213s-96 214 -211 214z" />
    <glyph glyph-name="oslash" unicode="&#xf8;" horiz-adv-x="646" 
d="M579 500l-70 -74c43 -46 70 -108 70 -176c0 -142 -115 -256 -257 -256c-63 0 -121 23 -166 60l-51 -54h-39l70 74c-43 46 -70 108 -70 176c0 142 114 257 256 257c64 0 122 -23 167 -61l51 54h39zM112 250c0 -56 21 -107 54 -144l293 308c-37 31 -85 50 -136 50
c-116 0 -211 -93 -211 -214zM534 250c0 56 -21 107 -55 145l-292 -309c37 -31 84 -49 136 -49c115 0 211 92 211 213z" />
    <glyph glyph-name="otilde" unicode="&#xf5;" horiz-adv-x="646" 
d="M463 666l-15 -42c-13 -39 -32 -60 -63 -61c-21 0 -37 9 -50 22l-39 40c-10 9 -21 15 -35 15c-23 0 -33 -15 -42 -44l-7 -25h-29l14 43c13 38 32 60 63 60c22 1 38 -9 50 -21l39 -40c10 -9 21 -16 35 -15c23 0 33 14 42 44l7 24h30zM322 507c142 0 257 -115 257 -257
s-115 -256 -257 -256s-256 114 -256 256s114 257 256 257zM323 464c-116 0 -211 -93 -211 -214s95 -213 211 -213c115 0 211 92 211 213s-96 214 -211 214z" />
    <glyph glyph-name="oe" unicode="&#x153;" horiz-adv-x="1091" 
d="M788 507c111 0 192 -62 227 -152c14 -34 17 -86 10 -113h-445c0 -129 89 -206 218 -207c73 0 134 24 184 63l26 -28c-55 -45 -125 -76 -210 -76c-120 1 -211 61 -243 161c-35 -94 -126 -161 -233 -161c-142 0 -256 114 -256 256s114 257 256 257c107 0 199 -68 233 -163
c32 95 119 163 233 163zM789 465c-118 0 -200 -84 -207 -190h403c1 20 -3 47 -11 67c-28 73 -94 123 -185 123zM323 464c-116 0 -211 -93 -211 -214s95 -213 211 -213c115 0 211 92 211 213s-96 214 -211 214z" />
    <glyph glyph-name="p" unicode="p" horiz-adv-x="642" 
d="M322 507c142 0 253 -115 253 -257s-111 -256 -253 -256c-95 0 -176 55 -213 134v-312h-45v684h35l2 -133c38 82 123 140 221 140zM319 463c-116 0 -211 -92 -211 -213s95 -213 211 -213s211 92 211 213s-95 213 -211 213z" />
    <glyph glyph-name="thorn" unicode="&#xfe;" horiz-adv-x="678" 
d="M146 700v-328c37 79 118 135 213 135c142 0 253 -115 253 -257s-111 -256 -253 -256c-95 0 -176 55 -213 134v-312h-45v884h45zM355 463c-116 0 -211 -92 -211 -213s95 -213 211 -213s211 92 211 213s-95 213 -211 213z" />
    <glyph glyph-name="q" unicode="q" horiz-adv-x="674" 
d="M577 -184h-45v312c-37 -79 -118 -134 -213 -134c-142 0 -253 114 -253 256s111 257 253 257c98 0 183 -58 221 -140l2 133h35v-684zM323 37c115 0 211 92 211 213s-96 213 -211 213c-116 0 -211 -92 -211 -213s95 -213 211 -213z" />
    <glyph glyph-name="r" unicode="r" horiz-adv-x="424" 
d="M386 464h-18c-166 0 -227 -115 -227 -255v-209h-45v500h35l4 -148c39 106 128 155 242 155h9v-43z" />
    <glyph glyph-name="racute" unicode="&#x155;" horiz-adv-x="424" 
d="M237 571h-40l66 102h64zM386 464h-18c-166 0 -227 -115 -227 -255v-209h-45v500h35l4 -148c39 106 128 155 242 155h9v-43z" />
    <glyph glyph-name="rcaron" unicode="&#x159;" horiz-adv-x="424" 
d="M257 571h-38l-115 108h46l88 -70l87 70h46zM386 464h-18c-166 0 -227 -115 -227 -255v-209h-45v500h35l4 -148c39 106 128 155 242 155h9v-43z" />
    <glyph glyph-name="rcommaaccent" unicode="&#x157;" horiz-adv-x="424" 
d="M386 464h-18c-166 0 -227 -115 -227 -255v-209h-45v500h35l4 -148c39 106 128 155 242 155h9v-43zM195 -171h-40l66 102h64z" />
    <glyph glyph-name="s" unicode="s" horiz-adv-x="547" 
d="M266 507h13c70 0 151 -36 190 -93l-28 -26c-33 50 -105 81 -161 81h-9c-79 0 -142 -36 -142 -95c0 -41 17 -77 120 -88l72 -8c75 -7 159 -30 159 -140c0 -93 -87 -145 -192 -145h-9c-93 0 -181 43 -213 103l28 26c26 -52 105 -90 185 -90h4c81 0 152 33 152 104
c0 86 -63 96 -121 102l-70 8c-122 13 -160 62 -160 126c0 84 82 135 182 135z" />
    <glyph glyph-name="sacute" unicode="&#x15b;" horiz-adv-x="547" 
d="M279 571h-40l66 102h64zM266 507h13c70 0 151 -36 190 -93l-28 -26c-33 50 -105 81 -161 81h-9c-79 0 -142 -36 -142 -95c0 -41 17 -77 120 -88l72 -8c75 -7 159 -30 159 -140c0 -93 -87 -145 -192 -145h-9c-93 0 -181 43 -213 103l28 26c26 -52 105 -90 185 -90h4
c81 0 152 33 152 104c0 86 -63 96 -121 102l-70 8c-122 13 -160 62 -160 126c0 84 82 135 182 135z" />
    <glyph glyph-name="scaron" unicode="&#x161;" horiz-adv-x="547" 
d="M292 571h-38l-115 108h46l88 -70l87 70h46zM266 507h13c70 0 151 -36 190 -93l-28 -26c-33 50 -105 81 -161 81h-9c-79 0 -142 -36 -142 -95c0 -41 17 -77 120 -88l72 -8c75 -7 159 -30 159 -140c0 -93 -87 -145 -192 -145h-9c-93 0 -181 43 -213 103l28 26
c26 -52 105 -90 185 -90h4c81 0 152 33 152 104c0 86 -63 96 -121 102l-70 8c-122 13 -160 62 -160 126c0 84 82 135 182 135z" />
    <glyph glyph-name="scedilla" unicode="&#x15f;" horiz-adv-x="547" 
d="M287 -7l-9 -40c39 11 77 -9 77 -58c0 -51 -59 -78 -118 -42v23c39 -29 84 -14 84 20c0 33 -28 48 -74 29l17 68c-87 5 -168 46 -198 103l28 26c26 -52 105 -90 185 -90h4c81 0 152 33 152 104c0 86 -63 96 -121 102l-70 8c-122 13 -160 62 -160 126c0 84 82 135 182 135
h13c70 0 151 -36 190 -93l-28 -26c-33 50 -105 81 -161 81h-9c-79 0 -142 -36 -142 -95c0 -41 17 -77 120 -88l72 -8c75 -7 159 -30 159 -140c0 -93 -87 -145 -193 -145z" />
    <glyph glyph-name="scommaaccent" unicode="&#x219;" horiz-adv-x="547" 
d="M266 507h13c70 0 151 -36 190 -93l-28 -26c-33 50 -105 81 -161 81h-9c-79 0 -142 -36 -142 -95c0 -41 17 -77 120 -88l72 -8c75 -7 159 -30 159 -140c0 -93 -87 -145 -192 -145h-9c-93 0 -181 43 -213 103l28 26c26 -52 105 -90 185 -90h4c81 0 152 33 152 104
c0 86 -63 96 -121 102l-70 8c-122 13 -160 62 -160 126c0 84 82 135 182 135zM239 -171h-40l66 102h64z" />
    <glyph glyph-name="germandbls" unicode="&#xdf;" horiz-adv-x="662" 
d="M321 707h32c164 0 225 -90 225 -182c0 -72 -33 -136 -120 -160c95 -20 145 -86 145 -176c0 -118 -90 -196 -250 -196h-139v45h139c125 0 204 54 204 155c0 90 -57 149 -183 149h-92v44h70c145 0 180 64 180 135c0 80 -51 141 -178 141h-34c-128 0 -178 -63 -178 -143
v-519h-46v523c0 92 60 184 225 184z" />
    <glyph glyph-name="t" unicode="t" horiz-adv-x="322" 
d="M188 457v-457h-45v457h-77v43h77v168h45v-168h77v-43h-77z" />
    <glyph glyph-name="tbar" unicode="&#x167;" horiz-adv-x="322" 
d="M188 457v-116h77v-43h-77v-298h-45v298h-77v43h77v116h-77v43h77v168h45v-168h77v-43h-77z" />
    <glyph glyph-name="tcaron" unicode="&#x165;" horiz-adv-x="427" 
d="M281 598h-40l66 102h64zM188 457v-457h-45v457h-77v43h77v168h45v-168h77v-43h-77z" />
    <glyph glyph-name="tcedilla" unicode="&#x163;" horiz-adv-x="322" 
d="M174 0l-11 -47c39 11 77 -9 77 -58c0 -51 -59 -78 -118 -42v23c39 -29 84 -14 84 20c0 33 -28 48 -74 29l19 75h-8v457h-77v43h77v168h45v-168h77v-43h-77v-457h-14z" />
    <glyph glyph-name="uni021B" unicode="&#x21b;" horiz-adv-x="322" 
d="M189 457v-457h-45v457h-77v43h77v168h45v-168h77v-43h-77zM123 -171h-40l66 102h64z" />
    <glyph glyph-name="u" unicode="u" 
d="M558 0h-36l-2 131c-41 -100 -134 -138 -212 -138c-132 0 -217 84 -217 235v272h45v-270c0 -132 71 -194 177 -194c120 0 199 86 199 229v235h46v-500z" />
    <glyph glyph-name="uacute" unicode="&#xfa;" 
d="M403 673l-90 -102h-40l66 102h64zM558 0h-36l-2 131c-41 -100 -134 -138 -212 -138c-132 0 -217 84 -217 235v272h45v-270c0 -132 71 -194 177 -194c120 0 199 86 199 229v235h46v-500z" />
    <glyph glyph-name="ucaron" unicode="&#x1d4;" 
d="M333 571h-38l-115 108h46l88 -70l87 70h46zM558 0h-36l-2 131c-41 -100 -134 -138 -212 -138c-132 0 -217 84 -217 235v272h45v-270c0 -132 71 -194 177 -194c120 0 199 86 199 229v235h46v-500z" />
    <glyph glyph-name="ucircumflex" unicode="&#xfb;" 
d="M401 571l-87 70l-88 -70h-46l115 108h38l114 -108h-46zM558 0h-36l-2 131c-41 -100 -134 -138 -212 -138c-132 0 -217 84 -217 235v272h45v-270c0 -132 71 -194 177 -194c120 0 199 86 199 229v235h46v-500z" />
    <glyph glyph-name="udieresis" unicode="&#xfc;" 
d="M219 628c17 0 30 -13 30 -29c0 -15 -13 -28 -30 -28s-30 13 -30 28c0 16 13 29 30 29zM422 628c17 0 30 -13 30 -29c0 -15 -13 -28 -30 -28s-30 13 -30 28c0 16 13 29 30 29zM558 0h-36l-2 131c-41 -100 -134 -138 -212 -138c-132 0 -217 84 -217 235v272h45v-270
c0 -132 71 -194 177 -194c120 0 199 86 199 229v235h46v-500z" />
    <glyph glyph-name="udieresisacute" unicode="&#x1d8;" 
d="M322 657h-40l66 102h64zM219 627c17 0 30 -12 30 -28c0 -15 -13 -28 -30 -28s-30 13 -30 28c0 16 13 28 30 28zM422 627c17 0 30 -12 30 -28c0 -15 -13 -28 -30 -28s-30 13 -30 28c0 16 13 28 30 28zM558 0h-36l-2 131c-41 -100 -134 -138 -212 -138
c-132 0 -217 84 -217 235v272h45v-270c0 -132 71 -194 177 -194c120 0 199 86 199 229v235h46v-500z" />
    <glyph glyph-name="udieresiscaron" unicode="&#x1da;" 
d="M333 657h-38l-115 107h46l88 -70l87 70h46zM219 628c17 0 30 -13 30 -29c0 -15 -13 -28 -30 -28s-30 13 -30 28c0 16 13 29 30 29zM422 628c17 0 30 -13 30 -29c0 -15 -13 -28 -30 -28s-30 13 -30 28c0 16 13 29 30 29zM558 0h-36l-2 131c-41 -100 -134 -138 -212 -138
c-132 0 -217 84 -217 235v272h45v-270c0 -132 71 -194 177 -194c120 0 199 86 199 229v235h46v-500z" />
    <glyph glyph-name="udieresisgrave" unicode="&#x1dc;" 
d="M348 657h-39l-91 102h64zM219 628c17 0 30 -13 30 -29c0 -15 -13 -28 -30 -28s-30 13 -30 28c0 16 13 29 30 29zM422 628c17 0 30 -13 30 -29c0 -15 -13 -28 -30 -28s-30 13 -30 28c0 16 13 29 30 29zM558 0h-36l-2 131c-41 -100 -134 -138 -212 -138
c-132 0 -217 84 -217 235v272h45v-270c0 -132 71 -194 177 -194c120 0 199 86 199 229v235h46v-500z" />
    <glyph glyph-name="udieresismacron" unicode="&#x1d6;" 
d="M447 657h-250v36h250v-36zM219 628c17 0 30 -13 30 -29c0 -15 -13 -28 -30 -28s-30 13 -30 28c0 16 13 29 30 29zM422 628c17 0 30 -13 30 -29c0 -15 -13 -28 -30 -28s-30 13 -30 28c0 16 13 29 30 29zM558 0h-36l-2 131c-41 -100 -134 -138 -212 -138
c-132 0 -217 84 -217 235v272h45v-270c0 -132 71 -194 177 -194c120 0 199 86 199 229v235h46v-500z" />
    <glyph glyph-name="ugrave" unicode="&#xf9;" 
d="M347 571h-39l-91 102h64zM558 0h-36l-2 131c-41 -100 -134 -138 -212 -138c-132 0 -217 84 -217 235v272h45v-270c0 -132 71 -194 177 -194c120 0 199 86 199 229v235h46v-500z" />
    <glyph glyph-name="uhungarumlaut" unicode="&#x171;" 
d="M249 571h-40l66 102h64zM368 571h-40l66 102h64zM558 0h-36l-2 131c-41 -100 -134 -138 -212 -138c-132 0 -217 84 -217 235v272h45v-270c0 -132 71 -194 177 -194c120 0 199 86 199 229v235h46v-500z" />
    <glyph glyph-name="umacron" unicode="&#x16b;" 
d="M440 571h-250v36h250v-36zM558 0h-36l-2 131c-41 -100 -134 -138 -212 -138c-132 0 -217 84 -217 235v272h45v-270c0 -132 71 -194 177 -194c120 0 199 86 199 229v235h46v-500z" />
    <glyph glyph-name="uogonek" unicode="&#x173;" 
d="M484 -75c0 -39 33 -57 67 -57h6v-33h-5c-48 0 -96 25 -96 82c0 39 28 67 79 83h-13l-2 131c-41 -100 -134 -138 -212 -138c-132 0 -217 84 -217 235v272h45v-270c0 -132 71 -194 177 -194c120 0 199 86 199 229v235h46v-500h1c-56 -19 -75 -46 -75 -75z" />
    <glyph glyph-name="uring" unicode="&#x16f;" 
d="M313 725c43 0 77 -35 77 -76c0 -43 -34 -78 -77 -78s-76 35 -76 78c0 41 33 76 76 76zM314 696c-28 0 -46 -23 -46 -47c0 -26 18 -49 46 -49c27 0 46 23 46 49c0 24 -19 47 -46 47zM558 0h-36l-2 131c-41 -100 -134 -138 -212 -138c-132 0 -217 84 -217 235v272h45v-270
c0 -132 71 -194 177 -194c120 0 199 86 199 229v235h46v-500z" />
    <glyph glyph-name="v" unicode="v" horiz-adv-x="561" 
d="M293 0h-25l-230 500h48l194 -425l195 425h48z" />
    <glyph glyph-name="w" unicode="w" horiz-adv-x="940" 
d="M684 0h-25l-189 421l-190 -421h-25l-217 500h48l182 -425l190 425h23l190 -425l183 425h48z" />
    <glyph glyph-name="wacute" unicode="&#x1e83;" horiz-adv-x="940" 
d="M475 571h-40l66 102h64zM684 0h-25l-189 421l-190 -421h-25l-217 500h48l182 -425l190 425h23l190 -425l183 425h48z" />
    <glyph glyph-name="wcircumflex" unicode="&#x175;" horiz-adv-x="940" 
d="M557 571l-87 70l-88 -70h-46l115 108h38l114 -108h-46zM684 0h-25l-189 421l-190 -421h-25l-217 500h48l182 -425l190 425h23l190 -425l183 425h48z" />
    <glyph glyph-name="wdieresis" unicode="&#x1e85;" horiz-adv-x="940" 
d="M370 571c-17 0 -30 13 -30 28c0 16 13 29 30 29s30 -13 30 -29c0 -15 -13 -28 -30 -28zM574 571c-17 0 -30 13 -30 28c0 16 13 29 30 29s30 -13 30 -29c0 -15 -13 -28 -30 -28zM684 0h-25l-189 421l-190 -421h-25l-217 500h48l182 -425l190 425h23l190 -425l183 425h48z
" />
    <glyph glyph-name="wgrave" unicode="&#x1e81;" horiz-adv-x="940" 
d="M439 673l66 -102h-39l-91 102h64zM684 0h-25l-189 421l-190 -421h-25l-217 500h48l182 -425l190 425h23l190 -425l183 425h48z" />
    <glyph glyph-name="x" unicode="x" horiz-adv-x="564" 
d="M281 221l-189 -221h-54l216 258l-206 242h54l181 -209l178 209h54l-206 -245l216 -255h-54z" />
    <glyph glyph-name="y" unicode="y" horiz-adv-x="655" 
d="M563 500v-438c0 -154 -82 -252 -239 -253c-86 0 -156 30 -211 76l27 29c51 -39 110 -64 184 -63c129 0 193 74 193 204v74c-40 -97 -131 -132 -204 -132c-132 0 -217 84 -217 235v268h45v-266c0 -132 71 -194 177 -194c120 0 199 86 199 229v231h46z" />
    <glyph glyph-name="yacute" unicode="&#xfd;" horiz-adv-x="655" 
d="M318 571h-40l66 102h64zM563 500v-438c0 -154 -82 -252 -239 -253c-86 0 -156 30 -211 76l27 29c51 -39 110 -64 184 -63c129 0 193 74 193 204v74c-40 -97 -131 -132 -204 -132c-132 0 -217 84 -217 235v268h45v-266c0 -132 71 -194 177 -194c120 0 199 86 199 229v231
h46z" />
    <glyph glyph-name="ycircumflex" unicode="&#x177;" horiz-adv-x="655" 
d="M338 679l114 -108h-46l-87 70l-88 -70h-46l115 108h38zM141 500v-266c0 -132 71 -194 177 -194c120 0 199 86 199 229v231h46v-438c0 -154 -82 -252 -239 -253c-86 0 -156 30 -211 76l27 29c51 -39 110 -64 184 -63c129 0 193 74 193 204v74c-40 -97 -131 -132 -204 -132
c-132 0 -217 84 -217 235v268h45z" />
    <glyph glyph-name="ydieresis" unicode="&#xff;" horiz-adv-x="655" 
d="M218 628c17 0 30 -13 30 -29c0 -15 -13 -28 -30 -28s-30 13 -30 28c0 16 13 29 30 29zM422 628c17 0 30 -13 30 -29c0 -15 -13 -28 -30 -28s-30 13 -30 28c0 16 13 29 30 29zM141 500v-266c0 -132 71 -194 177 -194c120 0 199 86 199 229v231h46v-438
c0 -154 -82 -252 -239 -253c-86 0 -156 30 -211 76l27 29c51 -39 110 -64 184 -63c129 0 193 74 193 204v74c-40 -97 -131 -132 -204 -132c-132 0 -217 84 -217 235v268h45z" />
    <glyph glyph-name="ygrave" unicode="&#x1ef3;" horiz-adv-x="655" 
d="M357 571h-39l-91 102h64zM141 500v-266c0 -132 71 -194 177 -194c120 0 199 86 199 229v231h46v-438c0 -154 -82 -252 -239 -253c-86 0 -156 30 -211 76l27 29c51 -39 110 -64 184 -63c129 0 193 74 193 204v74c-40 -97 -131 -132 -204 -132c-132 0 -217 84 -217 235v268
h45z" />
    <glyph glyph-name="z" unicode="z" horiz-adv-x="570" 
d="M503 0h-437v27l355 430h-324v43h394v-27l-355 -430h367v-43z" />
    <glyph glyph-name="zacute" unicode="&#x17a;" horiz-adv-x="570" 
d="M273 571h-40l66 102h64zM503 0h-437v27l355 430h-324v43h394v-27l-355 -430h367v-43z" />
    <glyph glyph-name="zcaron" unicode="&#x17e;" horiz-adv-x="570" 
d="M308 571h-38l-115 108h46l88 -70l87 70h46zM491 473l-355 -430h367v-43h-437v27l355 430h-324v43h394v-27z" />
    <glyph glyph-name="zdotaccent" unicode="&#x17c;" horiz-adv-x="570" 
d="M278 571c-17 0 -30 13 -30 28c0 16 13 29 30 29s30 -13 30 -29c0 -15 -13 -28 -30 -28zM503 0h-437v27l355 430h-324v43h394v-27l-355 -430h367v-43z" />
    <glyph glyph-name="k.ss01" horiz-adv-x="570" 
d="M146 233v-233h-45v700h45v-423h135l188 223h53l-204 -245l213 -255h-52l-198 233h-135z" />
    <glyph glyph-name="kcommaaccent.ss01" horiz-adv-x="570" 
d="M146 233v-233h-45v700h45v-423h135l188 223h53l-204 -245l213 -255h-52l-198 233h-135zM335 -69l-90 -102h-40l66 102h64z" />
    <glyph glyph-name="uni0410" unicode="&#x410;" horiz-adv-x="704" 
d="M189 215l-89 -215h-52l292 700h24l291 -700h-52l-89 215h-325zM352 609l-145 -349h290z" />
    <glyph glyph-name="uni0411" unicode="&#x411;" horiz-adv-x="694" 
d="M164 413h240c155 0 231 -78 231 -206c0 -129 -66 -207 -231 -207h-288v700h431v-45h-383v-242zM164 45h240c137 0 185 57 185 162s-58 162 -185 162h-240v-324z" />
    <glyph glyph-name="uni0412" unicode="&#x412;" horiz-adv-x="692" 
d="M116 700h246c193 0 230 -90 230 -176c0 -71 -31 -130 -113 -156c101 -18 154 -85 154 -178c0 -112 -63 -190 -236 -190h-281v700zM164 655v-270h202c145 0 180 63 180 134s-25 136 -180 136h-202zM164 343v-298h240c137 0 183 58 183 149c0 90 -57 149 -183 149h-240z
" />
    <glyph glyph-name="uni0413" unicode="&#x413;" horiz-adv-x="593" 
d="M164 655v-655h-48v700h428v-45h-380z" />
    <glyph glyph-name="uni0414" unicode="&#x414;" horiz-adv-x="814" 
d="M782 -129h-48v129h-654v-129h-48v174h90l273 655h25l273 -655h89v-174zM407 608l-234 -563h468z" />
    <glyph glyph-name="uni0415" unicode="&#x415;" horiz-adv-x="609" 
d="M164 377h364v-44h-364v-288h383v-45h-431v700h431v-45h-383v-278z" />
    <glyph glyph-name="uni0401" unicode="&#x401;" horiz-adv-x="606" 
d="M225 750c-17 0 -30 12 -30 28s13 28 30 28s30 -12 30 -28s-13 -28 -30 -28zM429 750c-17 0 -30 12 -30 28s13 28 30 28s30 -12 30 -28s-13 -28 -30 -28zM164 377h364v-44h-364v-288h383v-45h-431v700h431v-45h-383v-278z" />
    <glyph glyph-name="uni0416" unicode="&#x416;" horiz-adv-x="1056" 
d="M952 0l-141 220c-55 84 -73 114 -157 114h-102v-334h-48v334h-102c-84 0 -102 -30 -157 -114l-142 -220h-55l156 240c46 72 70 106 114 120c-35 16 -58 50 -100 113l-148 227h56l133 -207c55 -84 73 -114 157 -114h88v321h48v-321h88c84 0 102 30 157 114l133 207h55
l-147 -227c-42 -63 -66 -97 -101 -113c45 -14 69 -48 115 -120l156 -240h-56z" />
    <glyph glyph-name="uni0417" unicode="&#x417;" horiz-adv-x="632" 
d="M224 386h99c145 0 180 64 180 135c0 79 -51 141 -177 141h-8c-86 0 -167 -35 -214 -101l-31 29c52 75 144 117 244 117h8c163 0 224 -90 224 -182c0 -72 -33 -136 -120 -160c95 -20 145 -86 145 -176c0 -118 -90 -196 -250 -196h-5c-132 0 -229 60 -271 155l31 29
c38 -86 123 -139 241 -139h5c125 0 203 54 203 155c0 90 -57 149 -183 149h-121v44z" />
    <glyph glyph-name="uni0418" unicode="&#x418;" horiz-adv-x="733" 
d="M626 0h-48v600l-447 -600h-25v700h48v-600l448 600h24v-700z" />
    <glyph glyph-name="uni0419" unicode="&#x419;" horiz-adv-x="733" 
d="M367 750c-76 0 -136 51 -136 119h35c0 -48 44 -84 101 -84s101 36 101 84h35c0 -68 -60 -119 -136 -119zM626 0h-48v600l-447 -600h-25v700h48v-600l448 600h24v-700z" />
    <glyph glyph-name="uni041A" unicode="&#x41a;" horiz-adv-x="705" 
d="M601 0l-142 220c-55 84 -73 114 -157 114h-138v-334h-48v700h48v-321h124c84 0 102 30 157 114l133 207h56l-148 -227c-42 -63 -65 -97 -100 -113c44 -14 68 -48 114 -120l156 -240h-55z" />
    <glyph glyph-name="uni041B" unicode="&#x41b;" horiz-adv-x="704" 
d="M352 608l-252 -608h-52l292 700h24l291 -700h-52z" />
    <glyph glyph-name="uni041C" unicode="&#x41c;" horiz-adv-x="891" 
d="M774 0h-48v601l-286 -366l-286 366v-601h-48v700h25l309 -397l310 397h24v-700z" />
    <glyph glyph-name="uni041D" unicode="&#x41d;" horiz-adv-x="732" 
d="M625 0h-48v333h-423v-333h-48v700h48v-322h423v322h48v-700z" />
    <glyph glyph-name="uni041E" unicode="&#x41e;" horiz-adv-x="863" 
d="M431 707c197 0 357 -160 357 -357c0 -198 -160 -357 -357 -357s-356 159 -356 357c0 197 159 357 356 357zM431 662c-172 0 -308 -136 -308 -312c0 -177 136 -312 308 -312s309 135 309 312c0 176 -137 312 -309 312z" />
    <glyph glyph-name="uni041F" unicode="&#x41f;" horiz-adv-x="731" 
d="M624 0h-48v655h-422v-655h-48v700h518v-700z" />
    <glyph glyph-name="uni0420" unicode="&#x420;" horiz-adv-x="711" 
d="M116 700h216c169 0 304 -85 304 -251c0 -165 -135 -251 -304 -251h-168v-198h-48v700zM164 243h170c137 0 255 60 255 206c0 145 -118 206 -255 206h-170v-412z" />
    <glyph glyph-name="uni0421" unicode="&#x421;" horiz-adv-x="753" 
d="M431 707c105 0 199 -45 264 -117l-31 -29c-58 63 -141 101 -233 101c-172 0 -308 -136 -308 -312c0 -177 136 -312 308 -312c92 0 175 37 233 101l31 -31c-65 -71 -159 -115 -264 -115c-197 0 -356 159 -356 357c0 197 159 357 356 357z" />
    <glyph glyph-name="uni0422" unicode="&#x422;" horiz-adv-x="602" 
d="M325 655v-655h-48v655h-229v45h506v-45h-229z" />
    <glyph glyph-name="uni0423" unicode="&#x423;" horiz-adv-x="701" 
d="M225 0h-54l152 249l-275 451h55l248 -403l247 403h54z" />
    <glyph glyph-name="uni0424" unicode="&#x424;" horiz-adv-x="1276" 
d="M912 697c164 0 289 -131 289 -293c0 -163 -125 -293 -289 -293c-112 0 -208 66 -250 161v-272h-48v272c-41 -95 -138 -161 -249 -161c-164 0 -290 130 -290 293c0 162 126 293 290 293c111 0 208 -67 249 -162v165h48v-165c42 95 138 162 250 162zM368 156
c136 0 245 107 245 248c0 139 -109 247 -245 247c-137 0 -245 -108 -245 -247c0 -141 108 -248 245 -248zM908 156c137 0 245 107 245 248c0 139 -108 247 -245 247c-136 0 -245 -108 -245 -247c0 -141 109 -248 245 -248z" />
    <glyph glyph-name="uni0425" unicode="&#x425;" horiz-adv-x="669" 
d="M333 317l-229 -317h-56l258 359l-247 341h57l219 -300l218 300h56l-246 -343l258 -357h-57z" />
    <glyph glyph-name="uni0427" unicode="&#x427;" horiz-adv-x="704" 
d="M587 0h-48v311c-39 -99 -129 -146 -223 -146c-142 0 -258 77 -258 288v247h48v-249c0 -180 94 -241 216 -241c107 0 217 70 217 244v246h48v-700z" />
    <glyph glyph-name="uni0426" unicode="&#x426;" horiz-adv-x="771" 
d="M722 -129h-48v129h-568v700h48v-655h423v655h48v-655h97v-174z" />
    <glyph glyph-name="uni0428" unicode="&#x428;" horiz-adv-x="1050" 
d="M941 0h-835v700h48v-655h345v655h48v-655h346v655h48v-700z" />
    <glyph glyph-name="uni0429" unicode="&#x429;" horiz-adv-x="1097" 
d="M1038 -129h-48v129h-884v700h48v-655h345v655h48v-655h346v655h48v-655h97v-174z" />
    <glyph glyph-name="uni042F" unicode="&#x42f;" horiz-adv-x="688" 
d="M571 0h-48v208h-176c-78 0 -119 -14 -180 -109l-64 -99h-55l75 114c43 67 79 98 121 112c-112 29 -193 104 -193 228c0 161 132 246 302 246h218v-700zM523 655h-172c-137 0 -253 -61 -253 -201c0 -141 116 -201 253 -201h172v402z" />
    <glyph glyph-name="uni042C" unicode="&#x42c;" horiz-adv-x="682" 
d="M163 413h238c155 0 231 -78 231 -206c0 -129 -66 -207 -231 -207h-286v700h48v-287zM163 45h239c137 0 184 57 184 162s-58 162 -184 162h-239v-324z" />
    <glyph glyph-name="uni042A" unicode="&#x42a;" horiz-adv-x="713" 
d="M194 413h238c155 0 231 -78 231 -206c0 -129 -66 -207 -231 -207h-286v655h-98v45h146v-287zM194 45h239c137 0 184 57 184 162s-58 162 -184 162h-239v-324z" />
    <glyph glyph-name="uni042B" unicode="&#x42b;" horiz-adv-x="904" 
d="M163 413h238c155 0 231 -78 231 -206c0 -129 -66 -207 -231 -207h-286v700h48v-287zM788 0h-48v700h48v-700zM163 45h239c137 0 184 57 184 162s-58 162 -184 162h-239v-324z" />
    <glyph glyph-name="uni042D" unicode="&#x42d;" horiz-adv-x="753" 
d="M322 707c197 0 356 -160 356 -357c0 -198 -159 -357 -356 -357c-105 0 -199 44 -264 115l31 31c58 -64 141 -101 233 -101c165 0 297 126 305 291h-363v44h363c-9 163 -141 289 -305 289c-92 0 -175 -38 -233 -101l-31 29c65 72 159 117 264 117z" />
    <glyph glyph-name="uni042E" unicode="&#x42e;" horiz-adv-x="1090" 
d="M658 707c197 0 357 -160 357 -357c0 -198 -160 -357 -357 -357c-190 0 -344 148 -354 336h-141v-329h-48v700h48v-327h141c11 186 165 334 354 334zM658 38c172 0 309 135 309 312c0 176 -137 312 -309 312s-308 -136 -308 -312c0 -177 136 -312 308 -312z" />
    <glyph glyph-name="uni0416.ss01" horiz-adv-x="1056" 
d="M999 700l-247 -344l256 -356h-56l-242 334h-158v-334h-48v334h-158l-242 -334h-56l256 356l-247 344h56l231 -321h160v321h48v-321h160l230 321h57z" />
    <glyph glyph-name="uni041A.ss01" horiz-adv-x="691" 
d="M164 334v-334h-48v700h48v-321h183l230 321h57l-247 -344l256 -356h-56l-242 334h-181z" />
    <glyph glyph-name="uni042F.ss01" horiz-adv-x="687" 
d="M571 0h-48v208h-180c-17 1 -33 2 -49 5l-184 -213h-56l191 223c-113 29 -194 106 -194 231c0 161 131 246 301 246h219v-700zM522 655h-173c-136 0 -252 -61 -252 -201c0 -141 116 -201 252 -201h173v402z" />
    <glyph glyph-name="uni0430" unicode="&#x430;" horiz-adv-x="674" 
d="M577 0h-35l-2 133c-38 -82 -123 -139 -221 -139c-142 0 -253 114 -253 256s111 257 253 257c98 0 183 -57 221 -140l2 133h35v-500zM323 37c115 0 211 92 211 213s-96 214 -211 214c-116 0 -211 -93 -211 -214s95 -213 211 -213z" />
    <glyph glyph-name="uni0431" unicode="&#x431;" horiz-adv-x="646" 
d="M493 700h45c0 -68 -49 -92 -163 -92h-14c-155 0 -249 -62 -249 -206l-1 -40c37 82 120 139 217 139c142 0 251 -111 251 -251c0 -142 -107 -257 -256 -257c-148 0 -257 112 -257 259v139c0 173 112 257 297 257c103 0 130 12 130 52zM323 459c-116 0 -211 -92 -211 -211
s89 -212 211 -212c120 0 211 93 211 212s-95 211 -211 211z" />
    <glyph glyph-name="uni0432" unicode="&#x432;" horiz-adv-x="607" 
d="M96 500h262c112 0 155 -57 155 -126c0 -49 -22 -93 -76 -112c68 -16 99 -62 99 -123c0 -88 -52 -139 -176 -139h-264v500zM142 460v-182h215c84 1 111 42 111 92c0 49 -27 90 -111 90h-215zM142 40h219c96 0 130 39 130 101c0 61 -34 101 -129 101l-220 1v-203z" />
    <glyph glyph-name="uni0433" unicode="&#x433;" horiz-adv-x="518" 
d="M141 457v-457h-45v500h390v-43h-345z" />
    <glyph glyph-name="uni0434" unicode="&#x434;" 
d="M611 -120h-45v120h-483v-120h-45v163h64l210 457h25l210 -457h64v-163zM324 425l-175 -382h351z" />
    <glyph glyph-name="uni0435" unicode="&#x435;" horiz-adv-x="627" 
d="M321 507c111 0 192 -62 227 -152c14 -34 17 -86 10 -113h-446c0 -129 90 -206 219 -207c73 0 134 24 184 63l26 -28c-55 -45 -125 -76 -210 -76c-157 1 -265 102 -265 256c0 142 104 257 255 257zM322 465c-118 0 -200 -84 -207 -190h403c1 20 -3 47 -11 67
c-28 73 -94 123 -185 123z" />
    <glyph glyph-name="uni0451" unicode="&#x451;" horiz-adv-x="624" 
d="M221 628c17 0 30 -13 30 -29c0 -15 -13 -28 -30 -28s-30 13 -30 28c0 16 13 29 30 29zM424 628c17 0 30 -13 30 -29c0 -15 -13 -28 -30 -28s-30 13 -30 28c0 16 13 29 30 29zM321 507c111 0 192 -62 227 -152c14 -34 17 -86 10 -113h-446c0 -129 90 -206 219 -207
c73 0 134 24 184 63l26 -28c-55 -45 -125 -76 -210 -76c-157 1 -265 102 -265 256c0 142 104 257 255 257zM322 465c-118 0 -200 -84 -207 -190h403c1 20 -3 47 -11 67c-28 73 -94 123 -185 123z" />
    <glyph glyph-name="uni0436" unicode="&#x436;" horiz-adv-x="859" 
d="M768 0l-79 123c-54 85 -73 114 -157 114h-80v-237h-46v237h-80c-84 0 -103 -29 -157 -114l-79 -123h-52l95 145c42 65 67 103 112 116c-36 16 -60 53 -98 111l-85 128h52l69 -106c54 -84 73 -114 157 -114h66v220h46v-220h66c84 0 103 30 157 114l69 106h52l-85 -128
c-38 -58 -62 -95 -98 -111c45 -13 70 -51 112 -116l95 -145h-52z" />
    <glyph glyph-name="uni0437" unicode="&#x437;" horiz-adv-x="569" 
d="M394 262c69 -16 100 -62 100 -123c0 -98 -89 -146 -201 -146h-22c-94 0 -181 46 -210 102l27 28c28 -51 103 -88 183 -89h21c87 1 156 33 156 109c0 60 -34 99 -129 100l-92 1v33h88c83 0 110 41 110 91c0 64 -60 98 -137 98h-14c-67 0 -134 -31 -169 -78l-26 27
c38 54 118 92 197 92h15c99 0 180 -49 180 -132c0 -49 -22 -93 -77 -113z" />
    <glyph glyph-name="uni0438" unicode="&#x438;" horiz-adv-x="635" 
d="M538 0h-46v419l-371 -419h-25v500h45v-419l372 419h25v-500z" />
    <glyph glyph-name="uni0439" unicode="&#x439;" horiz-adv-x="635" 
d="M316 566c-76 0 -136 51 -136 119h35c0 -48 44 -84 101 -84s101 36 101 84h35c0 -68 -60 -119 -136 -119zM538 0h-46v419l-371 -419h-25v500h45v-419l372 419h25v-500z" />
    <glyph glyph-name="uni043A" unicode="&#x43a;" horiz-adv-x="568" 
d="M479 0l-79 123c-54 85 -73 114 -156 114h-98v-237h-45v500h45v-220h84c83 0 102 30 156 114l69 106h52l-85 -128c-38 -58 -62 -95 -98 -111c45 -13 70 -51 112 -116l95 -145h-52z" />
    <glyph glyph-name="uni043B" unicode="&#x43b;" horiz-adv-x="561" 
d="M280 425l-194 -425h-48l230 500h25l230 -500h-48z" />
    <glyph glyph-name="uni043C" unicode="&#x43c;" horiz-adv-x="697" 
d="M600 0h-46v419l-206 -233l-207 233v-419h-45v500h25l227 -256l227 256h25v-500z" />
    <glyph glyph-name="uni043D" unicode="&#x43d;" horiz-adv-x="636" 
d="M539 0h-45v230h-353v-230h-45v500h45v-227h353v227h45v-500z" />
    <glyph glyph-name="uni043E" unicode="&#x43e;" horiz-adv-x="646" 
d="M322 507c142 0 257 -115 257 -257s-115 -256 -257 -256s-256 114 -256 256s114 257 256 257zM323 464c-116 0 -211 -93 -211 -214s95 -213 211 -213c115 0 211 92 211 213s-96 214 -211 214z" />
    <glyph glyph-name="uni043F" unicode="&#x43f;" horiz-adv-x="636" 
d="M539 0h-45v457h-353v-457h-45v500h443v-500z" />
    <glyph glyph-name="uni0440" unicode="&#x440;" horiz-adv-x="679" 
d="M359 507c142 0 253 -115 253 -257s-111 -256 -253 -256c-95 0 -176 55 -213 134v-312h-45v684h35l2 -133c38 82 123 140 221 140zM356 463c-116 0 -211 -92 -211 -213s95 -213 211 -213s211 92 211 213s-95 213 -211 213z" />
    <glyph glyph-name="uni0441" unicode="&#x441;" horiz-adv-x="581" 
d="M322 507c79 0 150 -36 197 -93l-28 -29c-43 50 -102 78 -169 78c-116 0 -211 -92 -211 -213s95 -213 211 -213c67 0 126 29 169 79l28 -30c-47 -56 -118 -92 -197 -92c-142 0 -256 114 -256 256s114 257 256 257z" />
    <glyph glyph-name="uni0442" unicode="&#x442;" horiz-adv-x="517" 
d="M280 457v-457h-45v457h-197v43h440v-43h-198z" />
    <glyph glyph-name="uni0443" unicode="&#x443;" horiz-adv-x="655" 
d="M563 500v-438c0 -154 -82 -252 -239 -253c-86 0 -156 30 -211 76l27 29c51 -39 110 -64 184 -63c129 0 193 74 193 204v74c-40 -97 -131 -132 -204 -132c-132 0 -217 84 -217 235v268h45v-266c0 -132 71 -194 177 -194c120 0 199 86 199 229v231h46z" />
    <glyph glyph-name="uni0444" unicode="&#x444;" horiz-adv-x="1108" 
d="M788 507c142 0 253 -115 253 -257s-111 -256 -253 -256c-94 0 -175 54 -212 132v-293h-45v293c-37 -78 -118 -132 -212 -132c-142 0 -253 114 -253 256s111 257 253 257c97 0 181 -56 219 -137l1 130h29l1 -131c38 81 122 138 219 138zM323 37c115 0 211 92 211 213
s-96 213 -211 213c-116 0 -211 -92 -211 -213s95 -213 211 -213zM785 37c116 0 211 92 211 213s-95 213 -211 213s-211 -92 -211 -213s95 -213 211 -213z" />
    <glyph glyph-name="uni0445" unicode="&#x445;" horiz-adv-x="564" 
d="M281 221l-189 -221h-54l216 258l-206 242h54l181 -209l178 209h54l-206 -245l216 -255h-54z" />
    <glyph glyph-name="uni0447" unicode="&#x447;" 
d="M553 0h-45v216c-33 -68 -102 -105 -189 -105c-173 0 -228 101 -228 254v135h45v-134c0 -133 41 -211 188 -211c145 0 184 96 184 188v157h45v-500z" />
    <glyph glyph-name="uni0446" unicode="&#x446;" horiz-adv-x="672" 
d="M633 -120h-45v120h-492v500h45v-457h351v457h46v-457h95v-163z" />
    <glyph glyph-name="uni0448" unicode="&#x448;" horiz-adv-x="916" 
d="M819 0h-723v500h45v-457h294v457h45v-457h294v457h45v-500z" />
    <glyph glyph-name="uni0449" unicode="&#x449;" horiz-adv-x="953" 
d="M915 -120h-46v120h-773v500h45v-457h294v457h45v-457h294v457h45v-457h96v-163z" />
    <glyph glyph-name="uni044C" unicode="&#x44c;" horiz-adv-x="593" 
d="M141 329h201c146 0 193 -82 193 -164c0 -83 -47 -165 -193 -165h-246v500h45v-171zM142 42h204c109 0 144 57 144 123c0 65 -35 122 -144 122h-204v-245z" />
    <glyph glyph-name="uni044A" unicode="&#x44a;" horiz-adv-x="665" 
d="M180 329h201c146 0 192 -82 192 -164c0 -83 -46 -165 -192 -165h-246v457h-97v43h142v-171zM180 42h204c109 0 144 57 144 123c0 65 -35 122 -144 122h-204v-245z" />
    <glyph glyph-name="uni044B" unicode="&#x44b;" horiz-adv-x="746" 
d="M141 329h201c146 0 193 -82 193 -164c0 -83 -47 -165 -193 -165h-246v500h45v-171zM649 0h-45v500h45v-500zM142 42h204c109 0 144 57 144 123c0 65 -35 122 -144 122h-204v-245z" />
    <glyph glyph-name="uni044D" unicode="&#x44d;" horiz-adv-x="581" 
d="M258 507c142 0 256 -115 256 -257s-114 -256 -256 -256c-79 0 -149 36 -196 92l27 30c43 -50 102 -79 169 -79c112 0 202 85 209 197h-244v33h244c-7 111 -98 196 -209 196c-67 0 -126 -28 -168 -78l-29 29c47 57 118 93 197 93z" />
    <glyph glyph-name="uni044E" unicode="&#x44e;" horiz-adv-x="825" 
d="M502 507c141 0 256 -115 256 -257s-115 -256 -256 -256c-135 0 -245 103 -254 236h-107v-230h-45v500h45v-227h107c10 131 120 234 254 234zM503 37c115 0 211 92 211 213s-96 214 -211 214c-116 0 -211 -93 -211 -214s95 -213 211 -213z" />
    <glyph glyph-name="uni044F" unicode="&#x44f;" horiz-adv-x="589" 
d="M498 0h-46v172h-157c-78 -2 -96 -33 -150 -115l-38 -57h-51l47 71c37 53 58 89 92 108c-85 17 -136 78 -136 155c0 93 68 166 201 166h238v-500zM453 457h-196c-96 0 -152 -48 -152 -123s56 -123 152 -123h196v246z" />
    <glyph glyph-name="uni0436.ss01" horiz-adv-x="848" 
d="M446 233v-233h-45v233h-113l-197 -233h-53l213 255l-203 245h52l188 -223h113v223h45v-223h113l188 223h52l-203 -245l213 -255h-53l-197 233h-113z" />
    <glyph glyph-name="uni043A.ss01" horiz-adv-x="570" 
d="M146 233v-233h-45v500h45v-223h135l188 223h53l-204 -245l213 -255h-52l-198 233h-135z" />
    <glyph glyph-name="uni044F.ss01" horiz-adv-x="581" 
d="M490 0h-46v172h-198l-146 -172h-52l149 178c-91 14 -146 76 -146 156c0 93 69 166 201 166h238v-500zM445 457h-196c-96 0 -152 -48 -152 -123s56 -123 152 -123h196v246z" />
    <glyph glyph-name="zero" unicode="0" horiz-adv-x="849" 
d="M424 693c193 0 350 -157 350 -350c0 -194 -157 -350 -350 -350s-349 156 -349 350c0 193 156 350 349 350zM424 648c-168 0 -301 -134 -301 -305c0 -172 133 -305 301 -305c167 0 301 133 301 305c0 171 -134 305 -301 305z" />
    <glyph glyph-name="one" unicode="1" horiz-adv-x="342" 
d="M226 0h-48v592l-96 -115l-34 25l153 183h25v-685z" />
    <glyph glyph-name="two" unicode="2" horiz-adv-x="630" 
d="M572 0h-514v25l317 278c97 85 131 129 131 196c0 94 -89 149 -182 149h-12c-84 0 -158 -34 -207 -103l-31 29c54 78 143 118 241 118h12c123 0 227 -77 227 -187c0 -87 -50 -144 -168 -246l-242 -214h428v-45z" />
    <glyph glyph-name="three" unicode="3" horiz-adv-x="637" 
d="M558 661l-292 -251c26 7 55 11 95 11c145 -4 218 -86 218 -195c0 -136 -98 -230 -244 -233h-10c-132 2 -225 61 -267 155l31 29c43 -89 122 -139 239 -140h6c115 3 198 76 198 194c0 96 -58 159 -200 159c-47 0 -90 -12 -124 -28l-28 21l299 258h-360v44h439v-24z" />
    <glyph glyph-name="four" unicode="4" horiz-adv-x="630" 
d="M497 149v-149h-48v149h-401v25l425 511h24v-491h85v-45h-85zM449 596l-338 -402h338v402z" />
    <glyph glyph-name="five" unicode="5" horiz-adv-x="636" 
d="M516 641h-363v-258c44 32 117 52 196 52c141 0 229 -85 229 -217c0 -125 -98 -222 -244 -225h-11c-132 2 -223 61 -265 155l31 29c43 -89 121 -139 238 -139h5c113 2 200 73 200 182c0 114 -73 177 -202 177c-73 0 -153 -26 -195 -64l-26 21v331h407v-44z" />
    <glyph glyph-name="six" unicode="6" horiz-adv-x="624" 
d="M328 692h7c95 0 161 -37 207 -95l-32 -29c-45 52 -98 80 -175 80h-7c-173 0 -220 -168 -223 -305c34 71 113 123 214 123c142 0 246 -99 246 -235c0 -130 -100 -238 -251 -238c-161 0 -255 119 -255 262l-1 70c0 170 66 367 270 367zM312 425c-121 0 -205 -86 -205 -182
c0 -108 72 -205 205 -205c120 0 205 85 205 193s-85 194 -205 194z" />
    <glyph glyph-name="seven" unicode="7" horiz-adv-x="540" 
d="M492 661l-390 -661h-52l377 641h-379v44h444v-24z" />
    <glyph glyph-name="eight" unicode="8" horiz-adv-x="604" 
d="M394 367c90 -23 152 -86 152 -179c0 -120 -99 -193 -239 -195h-6c-143 0 -243 73 -243 195c0 94 62 156 152 179c-69 21 -124 69 -124 156c0 111 97 171 214 171h8c115 -2 209 -62 209 -171c0 -87 -55 -135 -123 -156zM133 517c0 -95 82 -134 169 -134
c86 0 169 39 169 134s-83 134 -169 134c-87 0 -169 -39 -169 -134zM302 38c113 0 197 56 197 156s-79 155 -197 157c-63 0 -197 -24 -197 -157c0 -100 84 -156 197 -156z" />
    <glyph glyph-name="nine" unicode="9" horiz-adv-x="624" 
d="M295 -7h-7c-95 0 -161 37 -206 96l31 29c45 -52 99 -80 175 -80h7c174 0 220 167 223 305c-34 -72 -112 -124 -214 -124c-142 0 -246 100 -246 236c0 130 100 237 252 237c160 0 255 -118 255 -261v-70c0 -170 -65 -368 -270 -368zM312 261c121 0 205 85 205 181
c0 108 -72 205 -205 205c-120 0 -205 -84 -205 -193c0 -108 85 -193 205 -193z" />
    <glyph glyph-name="zero.lf" horiz-adv-x="863" 
d="M431 707c197 0 357 -160 357 -357c0 -198 -160 -357 -357 -357s-356 159 -356 357c0 197 159 357 356 357zM431 662c-171 0 -308 -136 -308 -312c0 -177 137 -312 308 -312c172 0 309 135 309 312c0 176 -137 312 -309 312z" />
    <glyph glyph-name="one.lf" horiz-adv-x="342" 
d="M226 0h-48v606l-96 -115l-34 26l153 183h25v-700z" />
    <glyph glyph-name="two.lf" horiz-adv-x="630" 
d="M572 0h-514v25l317 290c101 92 131 131 131 198c0 95 -89 149 -182 149h-12c-84 0 -158 -34 -207 -103l-31 29c54 78 143 119 241 119h12c123 0 227 -77 227 -187c0 -88 -49 -142 -168 -250l-243 -226h429v-44z" />
    <glyph glyph-name="three.lf" horiz-adv-x="637" 
d="M558 675l-294 -266c27 8 56 12 97 12c145 -4 218 -86 218 -195c0 -136 -98 -230 -243 -233h-11c-132 2 -225 61 -267 155l31 29c43 -89 122 -139 239 -140h7c114 3 197 76 197 194c0 94 -59 159 -190 159c-57 0 -100 -12 -134 -28l-28 21l301 272h-362v45h439v-25z" />
    <glyph glyph-name="four.lf" horiz-adv-x="630" 
d="M497 152v-152h-48v152h-401v24l425 524h24v-504h85v-44h-85zM450 611l-339 -415h339v415z" />
    <glyph glyph-name="five.lf" horiz-adv-x="636" 
d="M516 655h-363v-260c44 32 117 52 196 52c141 0 229 -85 229 -217c0 -137 -98 -237 -244 -237h-11c-132 2 -223 61 -265 155l31 29c43 -89 121 -139 238 -140h7c112 3 198 75 198 195c0 113 -75 177 -192 177c-85 0 -162 -25 -205 -64l-26 21v334h407v-45z" />
    <glyph glyph-name="six.lf" horiz-adv-x="624" 
d="M319 466c142 0 246 -99 246 -235c0 -130 -100 -238 -251 -238c-161 0 -255 119 -255 262l-1 72c0 182 65 380 269 380h7c96 0 162 -37 208 -96l-32 -28c-44 51 -98 80 -175 80h-7c-174 0 -221 -169 -224 -321c35 72 113 124 215 124zM312 38c120 0 205 85 205 193
s-85 194 -205 194c-121 0 -205 -86 -205 -182c0 -108 72 -205 205 -205z" />
    <glyph glyph-name="seven.lf" horiz-adv-x="546" 
d="M498 675l-397 -675h-53l385 655h-379v45h444v-25z" />
    <glyph glyph-name="eight.lf" horiz-adv-x="604" 
d="M394 378c90 -23 152 -86 152 -183c0 -127 -98 -200 -237 -202h-8c-143 0 -243 73 -243 202c0 97 62 160 152 183c-69 21 -124 69 -124 156c0 109 91 170 204 173h13c117 0 214 -60 214 -173c0 -87 -55 -135 -123 -156zM133 528c0 -95 82 -133 169 -133
c86 0 169 38 169 133c0 96 -83 134 -169 134c-87 0 -169 -38 -169 -134zM302 38c113 0 197 56 197 162c0 105 -79 160 -197 162c-63 0 -197 -24 -197 -162c0 -106 84 -162 197 -162z" />
    <glyph glyph-name="nine.lf" horiz-adv-x="624" 
d="M304 234c-142 0 -246 100 -246 235c0 131 100 238 252 238c160 0 255 -119 255 -261v-73c0 -182 -64 -379 -268 -380h-8c-96 0 -162 37 -207 96l31 29c45 -52 98 -80 175 -80h7c175 0 222 169 224 320c-34 -71 -113 -124 -215 -124zM312 662c-120 0 -205 -84 -205 -193
c0 -108 85 -193 205 -193c121 0 205 85 205 181c0 108 -72 205 -205 205z" />
    <glyph glyph-name="zero.osf" horiz-adv-x="702" 
d="M351 544c152 0 276 -123 276 -275c0 -153 -124 -276 -276 -276c-153 0 -276 123 -276 276c0 152 123 275 276 275zM350 499c-125 0 -227 -103 -227 -230c0 -128 102 -231 227 -231c126 0 228 103 228 231c0 127 -102 230 -228 230z" />
    <glyph glyph-name="one.osf" horiz-adv-x="342" 
d="M226 0h-48v444l-96 -115l-34 25l153 183h25v-537z" />
    <glyph glyph-name="two.osf" horiz-adv-x="630" 
d="M572 0h-514v25l333 205c92 57 115 87 115 146c0 65 -67 123 -176 124h-12c-84 0 -164 -34 -213 -103l-31 29c54 78 146 118 244 118h12c142 0 223 -82 224 -164c0 -79 -40 -124 -154 -189l-234 -147h406v-44z" />
    <glyph glyph-name="three.osf" horiz-adv-x="637" 
d="M558 513l-294 -264c28 8 58 11 100 11c143 -4 215 -86 215 -194c0 -125 -98 -218 -244 -221h-10c-132 2 -225 62 -267 155l31 29c43 -90 122 -139 239 -139h6c115 1 198 75 198 181c0 94 -59 159 -190 159c-57 0 -100 -12 -134 -29l-28 22l300 270h-361v44h439v-24z" />
    <glyph glyph-name="four.osf" horiz-adv-x="630" 
d="M497 1v-149h-48v149h-401v25l425 511h24v-491h85v-45h-85zM449 448l-338 -402h338v402z" />
    <glyph glyph-name="five.osf" horiz-adv-x="636" 
d="M516 493h-363v-258c44 32 117 52 196 52c141 0 229 -85 229 -217c0 -126 -98 -222 -245 -225h-10c-132 2 -223 62 -265 155l31 29c43 -90 121 -139 238 -139h5c113 1 200 73 200 182c0 113 -75 177 -192 177c-85 0 -162 -25 -205 -64l-26 21v331h407v-44z" />
    <glyph glyph-name="six.osf" horiz-adv-x="624" 
d="M319 466c142 0 246 -99 246 -235c0 -130 -100 -238 -251 -238c-161 0 -255 119 -255 262l-1 70c0 170 66 367 270 367h7c95 0 161 -37 207 -95l-32 -29c-45 52 -98 80 -175 80h-7c-173 0 -220 -168 -223 -305c34 71 113 123 214 123zM312 38c120 0 205 85 205 193
s-85 194 -205 194c-121 0 -205 -86 -205 -182c0 -108 72 -205 205 -205z" />
    <glyph glyph-name="seven.osf" horiz-adv-x="540" 
d="M492 513l-390 -661h-52l377 641h-379v44h444v-24z" />
    <glyph glyph-name="eight.osf" horiz-adv-x="604" 
d="M394 367c90 -23 152 -86 152 -179c0 -122 -101 -195 -244 -195h-5c-141 2 -239 74 -239 195c0 94 62 156 152 179c-69 21 -124 69 -124 156c0 109 95 170 211 171h6c117 0 214 -60 214 -171c0 -87 -55 -135 -123 -156zM133 517c0 -95 82 -134 169 -134
c86 0 169 39 169 134s-83 134 -169 134c-87 0 -169 -39 -169 -134zM302 38c113 0 197 56 197 156s-79 155 -197 157c-63 0 -197 -24 -197 -157c0 -100 84 -156 197 -156z" />
    <glyph glyph-name="nine.osf" horiz-adv-x="624" 
d="M304 71c-142 0 -246 100 -246 235c0 131 100 238 252 238c160 0 255 -118 255 -261v-70c0 -171 -65 -368 -270 -368h-7c-95 0 -161 37 -206 95l31 29c45 -51 99 -79 176 -80h6c174 0 220 168 223 305c-34 -71 -112 -123 -214 -123zM312 499c-120 0 -205 -84 -205 -193
c0 -108 85 -193 205 -193c121 0 205 85 205 181c0 108 -72 205 -205 205z" />
    <glyph glyph-name="zero.tf" horiz-adv-x="846" 
d="M422 707c197 0 357 -160 357 -357c0 -198 -160 -357 -357 -357s-356 159 -356 357c0 197 159 357 356 357zM423 662c-171 0 -308 -136 -308 -312c0 -177 137 -312 308 -312c172 0 309 135 309 312c0 176 -137 312 -309 312z" />
    <glyph glyph-name="one.tf" horiz-adv-x="311" 
d="M244 0h-48v606l-96 -115l-34 26l153 183h25v-700z" />
    <glyph glyph-name="two.tf" horiz-adv-x="647" 
d="M580 0h-514v25l317 290c101 92 131 131 131 198c0 95 -89 149 -182 149h-12c-84 0 -158 -34 -207 -103l-31 29c54 78 143 119 241 119h12c123 0 227 -77 227 -187c0 -88 -49 -142 -168 -250l-243 -226h429v-44z" />
    <glyph glyph-name="three.tf" horiz-adv-x="654" 
d="M566 675l-294 -266c27 8 56 12 97 12c145 -4 218 -86 218 -195c0 -136 -98 -230 -243 -233h-11c-132 2 -225 61 -267 155l31 29c43 -89 122 -139 239 -140h7c114 3 197 76 197 194c0 94 -59 159 -190 159c-57 0 -100 -12 -134 -28l-28 21l301 272h-362v45h439v-25z" />
    <glyph glyph-name="four.tf" horiz-adv-x="667" 
d="M515 152v-152h-48v152h-401v24l425 524h24v-504h85v-44h-85zM468 611l-339 -415h339v415z" />
    <glyph glyph-name="five.tf" horiz-adv-x="653" 
d="M524 655h-363v-260c44 32 117 52 196 52c141 0 229 -85 229 -217c0 -137 -98 -237 -244 -237h-11c-132 2 -223 61 -265 155l31 29c43 -89 121 -139 238 -140h7c112 3 198 75 198 195c0 113 -75 177 -192 177c-85 0 -162 -25 -205 -64l-26 21v334h407v-45z" />
    <glyph glyph-name="six.tf" horiz-adv-x="640" 
d="M327 466c142 0 246 -99 246 -235c0 -130 -100 -238 -251 -238c-161 0 -255 119 -255 262l-1 72c0 182 65 380 269 380h7c96 0 162 -37 208 -96l-32 -28c-44 51 -98 80 -175 80h-7c-174 0 -221 -169 -224 -321c35 72 113 124 215 124zM321 38c120 0 205 85 205 193
s-85 194 -205 194c-121 0 -205 -86 -205 -182c0 -108 72 -205 205 -205z" />
    <glyph glyph-name="seven.tf" horiz-adv-x="583" 
d="M516 675l-397 -675h-53l385 655h-379v45h444v-25z" />
    <glyph glyph-name="eight.tf" horiz-adv-x="621" 
d="M402 378c90 -23 152 -86 152 -183c0 -127 -98 -200 -237 -202h-8c-143 0 -243 73 -243 202c0 97 62 160 152 183c-69 21 -124 69 -124 156c0 109 91 170 204 173h13c117 0 214 -60 214 -173c0 -87 -55 -135 -123 -156zM141 528c0 -95 82 -133 169 -133
c86 0 169 38 169 133c0 96 -83 134 -169 134c-87 0 -169 -38 -169 -134zM310 38c113 0 197 56 197 162c0 105 -79 160 -197 162c-63 0 -197 -24 -197 -162c0 -106 84 -162 197 -162z" />
    <glyph glyph-name="nine.tf" horiz-adv-x="640" 
d="M312 234c-142 0 -246 100 -246 235c0 131 100 238 252 238c160 0 255 -119 255 -261v-73c0 -182 -64 -379 -268 -380h-8c-96 0 -162 37 -207 96l31 29c45 -52 98 -80 175 -80h7c175 0 222 169 224 320c-34 -71 -113 -124 -215 -124zM320 662c-120 0 -205 -84 -205 -193
c0 -108 85 -193 205 -193c121 0 205 85 205 181c0 108 -72 205 -205 205z" />
    <glyph glyph-name="zero.tosf" horiz-adv-x="685" 
d="M342 548c152 0 276 -124 276 -276c0 -153 -124 -276 -276 -276c-153 0 -276 123 -276 276c0 152 123 276 276 276zM342 502c-125 0 -227 -103 -227 -230c0 -128 102 -230 227 -230c126 0 228 102 228 230c0 127 -102 230 -228 230z" />
    <glyph glyph-name="one.tosf" horiz-adv-x="311" 
d="M244 0h-48v447l-96 -115l-34 26l153 183h25v-541z" />
    <glyph glyph-name="two.tosf" horiz-adv-x="647" 
d="M580 0h-514v25l333 205c92 57 115 87 115 146c0 65 -67 123 -176 124h-12c-84 0 -164 -34 -213 -103l-31 29c54 78 146 118 244 118h12c142 0 223 -82 224 -164c0 -79 -40 -124 -154 -189l-234 -147h406v-44z" />
    <glyph glyph-name="three.tosf" horiz-adv-x="654" 
d="M566 513l-294 -264c28 8 58 11 100 11c143 -4 215 -86 215 -194c0 -125 -98 -218 -244 -221h-10c-132 2 -225 62 -267 155l31 29c43 -90 122 -139 239 -139h6c115 1 198 75 198 181c0 94 -59 159 -190 159c-57 0 -100 -12 -134 -29l-28 22l300 270h-361v44h439v-24z" />
    <glyph glyph-name="four.tosf" horiz-adv-x="667" 
d="M515 1v-149h-48v149h-401v25l425 511h24v-491h85v-45h-85zM467 448l-338 -402h338v402z" />
    <glyph glyph-name="five.tosf" horiz-adv-x="653" 
d="M524 493h-363v-258c44 32 117 52 196 52c141 0 229 -85 229 -217c0 -126 -98 -222 -245 -225h-10c-132 2 -223 62 -265 155l31 29c43 -90 121 -139 238 -139h5c113 1 200 73 200 182c0 113 -75 177 -192 177c-85 0 -162 -25 -205 -64l-26 21v331h407v-44z" />
    <glyph glyph-name="six.tosf" horiz-adv-x="640" 
d="M327 466c142 0 246 -99 246 -235c0 -130 -100 -238 -251 -238c-161 0 -255 119 -255 262l-1 70c0 170 66 367 270 367h7c95 0 161 -37 207 -95l-32 -29c-45 52 -98 80 -175 80h-7c-173 0 -220 -168 -223 -305c34 71 113 123 214 123zM321 38c120 0 205 85 205 193
s-85 194 -205 194c-121 0 -205 -86 -205 -182c0 -108 72 -205 205 -205z" />
    <glyph glyph-name="seven.tosf" horiz-adv-x="577" 
d="M510 513l-390 -661h-52l377 641h-379v44h444v-24z" />
    <glyph glyph-name="eight.tosf" horiz-adv-x="621" 
d="M402 367c90 -23 152 -86 152 -179c0 -122 -101 -195 -244 -195h-5c-141 2 -239 74 -239 195c0 94 62 156 152 179c-69 21 -124 69 -124 156c0 109 95 170 211 171h6c117 0 214 -60 214 -171c0 -87 -55 -135 -123 -156zM141 517c0 -95 82 -134 169 -134
c86 0 169 39 169 134s-83 134 -169 134c-87 0 -169 -39 -169 -134zM310 38c113 0 197 56 197 156s-79 155 -197 157c-63 0 -197 -24 -197 -157c0 -100 84 -156 197 -156z" />
    <glyph glyph-name="nine.tosf" horiz-adv-x="640" 
d="M312 71c-142 0 -246 100 -246 235c0 131 100 238 252 238c160 0 255 -118 255 -261v-70c0 -171 -65 -368 -270 -368h-7c-95 0 -161 37 -206 95l31 29c45 -51 99 -79 176 -80h6c174 0 220 168 223 305c-34 -71 -112 -123 -214 -123zM320 499c-120 0 -205 -84 -205 -193
c0 -108 85 -193 205 -193c121 0 205 85 205 181c0 108 -72 205 -205 205z" />
    <glyph glyph-name="fraction" unicode="&#x2044;" horiz-adv-x="453" 
d="M404 700l-322 -700h-34l322 700h34z" />
    <glyph glyph-name="onehalf" unicode="&#xbd;" horiz-adv-x="781" 
d="M187 382h-37v256l-61 -74l-23 17l100 119h21v-318zM190 0h-34l322 700h34zM715 0h-299v16l186 120c43 26 67 49 67 83c0 33 -35 73 -95 73h-6c-57 0 -100 -34 -119 -57l-24 22c30 35 81 69 147 69h6c81 -1 127 -52 127 -102c0 -54 -40 -84 -93 -116l-119 -74h222v-34z
" />
    <glyph glyph-name="onequarter" unicode="&#xbc;" horiz-adv-x="704" 
d="M150 638l-61 -74l-23 17l100 119h21v-318h-37v256zM190 0h-34l322 700h34zM594 68v-68h-37v68h-200v16l216 234h21v-219h43v-31h-43zM557 260l-150 -161h150v161z" />
    <glyph glyph-name="threequarters" unicode="&#xbe;" horiz-adv-x="822" 
d="M335 681l-147 -116c9 3 23 4 47 4c80 -4 119 -40 119 -90c0 -58 -53 -104 -136 -104h-5c-81 0 -128 40 -147 67l23 22c12 -18 47 -56 121 -56c61 0 108 33 108 75c0 35 -35 63 -99 63c-38 0 -52 -4 -65 -10l-20 15l147 117h-180v32h234v-19zM308 0h-34l322 700h34z
M713 68v-68h-37v68h-200v16l216 234h21v-219h43v-31h-43zM675 260l-150 -161h150v161z" />
    <glyph glyph-name="oneeighth" unicode="&#x215b;" horiz-adv-x="758" 
d="M150 382v256l-61 -74l-23 17l100 119h21v-318h-37zM190 0h-34l322 700h34zM625 171c40 -13 66 -43 66 -83c0 -57 -51 -94 -128 -95h-3c-79 0 -131 37 -131 95c0 40 26 70 66 83c-30 13 -53 36 -53 72c0 50 48 81 113 82h5c67 0 118 -31 118 -82c0 -36 -23 -59 -53 -72z
M561 183c27 0 84 8 84 57c0 38 -39 57 -84 57c-46 0 -84 -19 -84 -57s36 -56 84 -57zM560 22c57 0 97 27 97 69s-40 68 -97 68c-58 0 -97 -26 -97 -68s39 -69 97 -69z" />
    <glyph glyph-name="threeeighths" unicode="&#x215c;" horiz-adv-x="876" 
d="M335 681l-147 -116c9 3 23 4 47 4c80 -4 119 -40 119 -90c0 -58 -53 -104 -136 -104h-5c-81 0 -128 40 -147 67l23 22c12 -18 47 -56 121 -56c61 0 108 33 108 75c0 35 -35 63 -99 63c-38 0 -52 -4 -65 -10l-20 15l147 117h-180v32h234v-19zM308 0h-34l322 700h34z
M744 171c40 -13 66 -43 66 -83c0 -57 -51 -94 -128 -95h-3c-79 0 -131 37 -131 95c0 40 26 70 66 83c-30 13 -53 36 -53 72c0 50 48 81 113 82h5c67 0 118 -31 118 -82c0 -36 -23 -59 -53 -72zM679 183c27 0 84 8 84 57c0 38 -39 57 -84 57c-46 0 -84 -19 -84 -57
s36 -56 84 -57zM679 22c57 0 97 27 97 69s-40 68 -97 68c-58 0 -97 -26 -97 -68s39 -69 97 -69z" />
    <glyph glyph-name="fiveeighths" unicode="&#x215d;" horiz-adv-x="853" 
d="M328 667h-197v-106c19 10 53 19 94 19c86 0 129 -40 129 -101c0 -58 -53 -104 -136 -104h-5c-81 1 -128 40 -147 68l23 21c12 -17 47 -56 121 -56c61 0 108 33 108 75s-34 71 -99 71c-39 1 -75 -6 -98 -20l-21 10v156h228v-33zM285 0h-34l322 700h34zM721 171
c40 -13 66 -43 66 -83c0 -57 -51 -94 -128 -95h-3c-79 0 -131 37 -131 95c0 40 26 70 66 83c-30 13 -53 36 -53 72c0 50 48 81 113 82h5c67 0 118 -31 118 -82c0 -36 -23 -59 -53 -72zM656 183c27 0 84 8 84 57c0 38 -39 57 -84 57c-46 0 -84 -19 -84 -57s36 -56 84 -57z
M656 22c57 0 97 27 97 69s-40 68 -97 68c-58 0 -97 -26 -97 -68s39 -69 97 -69z" />
    <glyph glyph-name="seveneighths" unicode="&#x215e;" horiz-adv-x="748" 
d="M66 382l191 286h-182v32h230v-18l-201 -300h-38zM180 0h-34l322 700h34zM616 171c40 -13 66 -43 66 -83c0 -57 -51 -94 -128 -95h-3c-79 0 -131 37 -131 95c0 40 26 70 66 83c-30 13 -53 36 -53 72c0 50 48 81 113 82h5c67 0 118 -31 118 -82c0 -36 -23 -59 -53 -72z
M551 183c27 0 84 8 84 57c0 38 -39 57 -84 57c-46 0 -84 -19 -84 -57s36 -56 84 -57zM551 22c57 0 97 27 97 69s-40 68 -97 68c-58 0 -97 -26 -97 -68s39 -69 97 -69z" />
    <glyph glyph-name="zero.dnom" horiz-adv-x="425" 
d="M213 325c93 0 168 -74 168 -166s-75 -166 -168 -166s-168 74 -168 166s75 166 168 166zM213 291c-78 0 -131 -54 -131 -132s53 -132 131 -132c77 0 131 54 131 132s-54 132 -131 132z" />
    <glyph glyph-name="one.dnom" horiz-adv-x="217" 
d="M169 0h-37v255l-61 -73l-23 17l100 119h21v-318z" />
    <glyph glyph-name="two.dnom" horiz-adv-x="395" 
d="M347 0h-299v16l186 120c43 26 67 49 67 83c0 33 -35 73 -95 73h-6c-57 0 -100 -34 -119 -57l-24 22c30 35 81 69 147 69h6c81 -1 127 -52 127 -102c0 -54 -40 -84 -93 -116l-119 -74h222v-34z" />
    <glyph glyph-name="three.dnom" horiz-adv-x="385" 
d="M317 299l-147 -116c9 3 23 5 47 4c80 -3 119 -40 119 -89c0 -59 -53 -105 -136 -105h-5c-81 1 -128 40 -147 68l23 21c12 -17 47 -56 121 -56c61 0 108 33 108 75c0 35 -35 64 -99 64c-38 -1 -52 -5 -65 -11l-20 15l147 117h-180v32h234v-19z" />
    <glyph glyph-name="four.dnom" horiz-adv-x="377" 
d="M285 68v-68h-37v68h-200v16l216 234h21v-219h43v-31h-43zM248 260l-150 -161h150v161z" />
    <glyph glyph-name="five.dnom" horiz-adv-x="385" 
d="M310 286h-197v-106c19 9 53 18 94 18c86 0 129 -39 129 -100c0 -59 -53 -105 -136 -105h-5c-81 1 -128 40 -147 68l23 21c12 -17 47 -56 121 -56c61 0 108 33 108 75c0 43 -34 71 -99 72c-39 0 -75 -7 -98 -21l-21 10v156h228v-32z" />
    <glyph glyph-name="six.dnom" horiz-adv-x="369" 
d="M189 218c77 0 131 -47 131 -112c0 -62 -53 -113 -135 -113c-92 0 -137 56 -137 124v34c0 80 32 174 144 174h4c50 0 86 -19 107 -46l-21 -19c-15 16 -44 36 -86 36h-4c-78 0 -105 -67 -109 -123c20 27 58 45 106 45zM184 23c61 0 102 37 102 83c0 47 -41 83 -102 83
c-60 0 -100 -36 -100 -77c0 -47 35 -89 100 -89z" />
    <glyph glyph-name="seven.dnom" horiz-adv-x="336" 
d="M287 300l-201 -300h-38l191 286h-182v32h230v-18z" />
    <glyph glyph-name="eight.dnom" horiz-adv-x="358" 
d="M244 171c40 -13 66 -43 66 -83c0 -57 -51 -94 -128 -95h-3c-79 0 -131 37 -131 95c0 40 26 70 66 83c-30 13 -53 36 -53 72c0 50 48 81 113 82h5c67 0 118 -31 118 -82c0 -36 -23 -59 -53 -72zM179 183c27 0 84 8 84 57c0 38 -39 57 -84 57c-46 0 -84 -19 -84 -57
s36 -56 84 -57zM179 22c57 0 97 27 97 69s-40 68 -97 68c-58 0 -97 -26 -97 -68s39 -69 97 -69z" />
    <glyph glyph-name="nine.dnom" horiz-adv-x="369" 
d="M180 100c-78 0 -132 47 -132 112c0 62 53 113 136 113c91 0 136 -56 136 -124v-34c0 -80 -32 -174 -144 -174h-4c-50 0 -85 19 -107 46l21 19c16 -16 44 -36 86 -36h4c79 0 105 67 110 123c-21 -27 -58 -45 -106 -45zM184 295c-60 0 -101 -37 -101 -83
c0 -47 41 -83 101 -83s101 36 101 78c0 46 -35 88 -101 88z" />
    <glyph glyph-name="zero.numr" horiz-adv-x="425" 
d="M213 707c93 0 168 -74 168 -166s-75 -166 -168 -166s-168 74 -168 166s75 166 168 166zM213 673c-78 0 -131 -54 -131 -132s53 -132 131 -132c77 0 131 54 131 132s-54 132 -131 132z" />
    <glyph glyph-name="one.numr" horiz-adv-x="217" 
d="M169 382h-37v256l-61 -74l-23 17l100 119h21v-318z" />
    <glyph glyph-name="two.numr" horiz-adv-x="395" 
d="M347 381h-299v17l186 119c43 27 67 49 67 84c0 32 -35 72 -95 72h-6c-57 0 -100 -34 -119 -57l-24 22c30 35 81 69 147 69h6c81 0 127 -51 127 -102c0 -54 -40 -83 -93 -116l-119 -74h222v-34z" />
    <glyph glyph-name="three.numr" horiz-adv-x="385" 
d="M317 681l-147 -116c9 3 23 4 47 4c80 -4 119 -40 119 -90c0 -58 -53 -104 -136 -104h-5c-81 0 -128 40 -147 67l23 22c12 -18 47 -56 121 -56c61 0 108 33 108 75c0 35 -35 63 -99 63c-38 0 -52 -4 -65 -10l-20 15l147 117h-180v32h234v-19z" />
    <glyph glyph-name="four.numr" horiz-adv-x="377" 
d="M285 449v-67h-37v67h-200v17l216 234h21v-219h43v-32h-43zM248 642l-150 -161h150v161z" />
    <glyph glyph-name="five.numr" horiz-adv-x="385" 
d="M310 667h-197v-106c19 10 53 19 94 19c86 0 129 -40 129 -101c0 -58 -53 -104 -136 -104h-5c-81 1 -128 40 -147 68l23 21c12 -17 47 -56 121 -56c61 0 108 33 108 75s-34 71 -99 71c-39 1 -75 -6 -98 -20l-21 10v156h228v-33z" />
    <glyph glyph-name="six.numr" horiz-adv-x="369" 
d="M189 600c77 0 131 -47 131 -112c0 -62 -53 -113 -135 -113c-92 0 -137 56 -137 124v34c0 80 32 174 144 174h4c50 0 86 -19 107 -46l-21 -19c-15 16 -44 36 -86 36h-4c-78 0 -105 -67 -109 -123c20 27 58 45 106 45zM184 405c61 0 102 37 102 83c0 47 -41 83 -102 83
c-60 0 -100 -36 -100 -77c0 -47 35 -89 100 -89z" />
    <glyph glyph-name="seven.numr" horiz-adv-x="336" 
d="M287 682l-201 -300h-38l191 286h-182v32h230v-18z" />
    <glyph glyph-name="eight.numr" horiz-adv-x="358" 
d="M244 553c40 -14 66 -43 66 -83c0 -57 -51 -95 -128 -95h-3c-79 0 -131 37 -131 95c0 40 26 69 66 83c-30 12 -53 35 -53 71c0 51 48 82 113 83h5c67 0 118 -31 118 -83c0 -36 -23 -59 -53 -71zM179 565c27 0 84 8 84 56c0 39 -39 58 -84 58c-46 0 -84 -19 -84 -58
c0 -37 36 -55 84 -56zM179 404c57 0 97 26 97 68c0 43 -40 69 -97 69c-58 0 -97 -26 -97 -69c0 -42 39 -68 97 -68z" />
    <glyph glyph-name="nine.numr" horiz-adv-x="369" 
d="M180 482c-78 0 -132 47 -132 112c0 62 53 113 136 113c91 0 136 -56 136 -124v-34c0 -80 -32 -174 -144 -174h-4c-50 0 -85 19 -107 46l21 19c16 -16 44 -36 86 -36h4c79 0 105 67 110 123c-21 -27 -58 -45 -106 -45zM184 677c-60 0 -101 -37 -101 -83
c0 -47 41 -83 101 -83s101 36 101 77c0 47 -35 89 -101 89z" />
    <glyph glyph-name="asterisk" unicode="*" horiz-adv-x="443" 
d="M330 440l-26 -20l-83 115l-84 -115l-25 20l87 111l-133 40l9 31l132 -44l-2 138h32l-2 -138l132 44l9 -31l-133 -40z" />
    <glyph glyph-name="backslash" unicode="\" horiz-adv-x="464" 
d="M397 0h-34l-297 700h34z" />
    <glyph glyph-name="bullet" unicode="&#x2022;" horiz-adv-x="373" 
d="M186 427c67 0 120 -53 120 -120c0 -66 -53 -120 -120 -120s-120 54 -120 120c0 67 53 120 120 120z" />
    <glyph glyph-name="colon" unicode=":" horiz-adv-x="201" 
d="M100 350c19 0 34 -14 34 -32s-15 -32 -34 -32s-34 14 -34 32s15 32 34 32zM100 57c19 0 34 -14 34 -32s-15 -32 -34 -32s-34 14 -34 32s15 32 34 32z" />
    <glyph glyph-name="comma" unicode="," horiz-adv-x="236" 
d="M169 57l-72 -162h-31l47 162h56z" />
    <glyph glyph-name="ellipsis" unicode="&#x2026;" horiz-adv-x="574" 
d="M100 57c19 0 34 -14 34 -32s-15 -32 -34 -32s-34 14 -34 32s15 32 34 32zM287 57c19 0 34 -14 34 -32s-15 -32 -34 -32s-34 14 -34 32s15 32 34 32zM474 57c19 0 34 -14 34 -32s-15 -32 -34 -32s-34 14 -34 32s15 32 34 32z" />
    <glyph glyph-name="exclam" unicode="!" horiz-adv-x="201" 
d="M124 700v-315l-7 -231h-34l-7 231v315h48zM100 57c19 0 34 -14 34 -32s-15 -32 -34 -32s-34 14 -34 32s15 32 34 32z" />
    <glyph glyph-name="exclamdown" unicode="&#xa1;" horiz-adv-x="201" 
d="M100 549c19 0 34 -14 34 -32s-15 -32 -34 -32s-34 14 -34 32s15 32 34 32zM76 -158v315l7 231h34l7 -231v-315h-48z" />
    <glyph glyph-name="numbersign" unicode="#" horiz-adv-x="699" 
d="M441 260h150l-6 -32h-151l-49 -228h-34l49 228h-154l-49 -228h-34l49 228h-146l7 32h145l35 163h-145l6 32h146l52 245h34l-52 -245h153l53 245h34l-53 -245h151l-7 -32h-150zM287 423l-34 -163h154l34 163h-154z" />
    <glyph glyph-name="period" unicode="." horiz-adv-x="201" 
d="M100 57c19 0 34 -14 34 -32s-15 -32 -34 -32s-34 14 -34 32s15 32 34 32z" />
    <glyph glyph-name="periodcentered" unicode="&#xb7;" horiz-adv-x="201" 
d="M100 332c19 0 34 -15 34 -34c0 -18 -15 -34 -34 -34s-34 16 -34 34c0 19 15 34 34 34z" />
    <glyph glyph-name="question" unicode="?" horiz-adv-x="654" 
d="M333 707h11c145 -3 243 -96 243 -221c0 -129 -101 -205 -247 -211v-90h-48v121c166 -2 248 63 248 175c0 107 -84 180 -199 182h-5c-117 -1 -196 -57 -239 -140l-31 29c42 88 135 154 267 155zM317 57c19 0 34 -14 34 -32s-15 -32 -34 -32s-34 14 -34 32s15 32 34 32z
" />
    <glyph glyph-name="questiondown" unicode="&#xbf;" horiz-adv-x="654" 
d="M337 491c-19 0 -34 14 -34 32s15 32 34 32s34 -14 34 -32s-15 -32 -34 -32zM320 -160h-11c-145 4 -243 97 -243 222c0 128 101 205 246 211v90h48v-122c-165 3 -248 -63 -248 -175c0 -106 85 -179 199 -181h5c117 0 197 56 239 139l32 -29c-42 -87 -135 -153 -267 -155z
" />
    <glyph glyph-name="quotedbl" unicode="&#x22;" horiz-adv-x="255" 
d="M96 550h-24l-6 150h36zM182 550h-24l-6 150h36z" />
    <glyph glyph-name="quotesingle" unicode="'" horiz-adv-x="169" 
d="M96 550h-24l-6 150h36z" />
    <glyph glyph-name="semicolon" unicode=";" horiz-adv-x="244" 
d="M144 350c19 0 34 -14 34 -32s-15 -32 -34 -32s-34 14 -34 32s15 32 34 32zM169 57l-72 -162h-31l47 162h56z" />
    <glyph glyph-name="slash" unicode="/" horiz-adv-x="464" 
d="M397 700l-297 -700h-34l297 700h34z" />
    <glyph glyph-name="underscore" unicode="_" horiz-adv-x="547" 
d="M480 -103h-414v30h414v-30z" />
    <glyph glyph-name="braceleft" unicode="{" horiz-adv-x="371" 
d="M304 705h-32c-27 0 -51 -23 -51 -56v-221c0 -56 -30 -105 -83 -121c53 -18 83 -63 83 -118v-228c0 -33 24 -56 51 -56h32v-45h-37c-53 0 -93 38 -94 98v224c-1 64 -42 101 -102 104h-5v42h5c61 1 102 38 102 103v221c1 60 41 98 94 98h37v-45z" />
    <glyph glyph-name="braceright" unicode="}" horiz-adv-x="371" 
d="M66 750h37c52 0 93 -38 93 -98v-221c1 -65 42 -102 103 -103h5v-42h-5c-61 -3 -102 -40 -103 -104v-224c0 -60 -41 -98 -93 -98h-37v45h31c27 0 51 23 51 56v228c0 55 30 100 83 118c-53 16 -83 65 -83 121v221c0 33 -24 56 -51 56h-31v45z" />
    <glyph glyph-name="bracketleft" unicode="[" horiz-adv-x="246" 
d="M114 -95h65v-45h-113v890h113v-45h-65v-800z" />
    <glyph glyph-name="bracketright" unicode="]" horiz-adv-x="246" 
d="M66 705v45h113v-890h-113v45h65v800h-65z" />
    <glyph glyph-name="parenleft" unicode="(" horiz-adv-x="379" 
d="M312 739l-1 -45c-95 -59 -194 -210 -197 -386v-10c0 -179 100 -328 197 -393l1 -45c-125 66 -246 234 -246 438v10c3 201 122 371 246 431z" />
    <glyph glyph-name="parenright" unicode=")" horiz-adv-x="379" 
d="M66 694v45c123 -60 243 -230 246 -431v-10c0 -204 -121 -372 -246 -438v45c98 65 198 214 198 393l-1 10c-2 176 -101 327 -197 386z" />
    <glyph glyph-name="emdash" unicode="&#x2014;" horiz-adv-x="673" 
d="M606 272h-540v34h540v-34z" />
    <glyph glyph-name="endash" unicode="&#x2013;" horiz-adv-x="505" 
d="M438 272h-372v34h372v-34z" />
    <glyph glyph-name="hyphen" unicode="-" horiz-adv-x="381" 
d="M314 272h-248v34h248v-34z" />
    <glyph glyph-name="guillemotleft" unicode="&#xab;" horiz-adv-x="410" 
d="M213 351l-95 -78l95 -76v-47l-147 124l147 123v-46zM343 351l-95 -78l95 -76v-47l-147 124l147 123v-46z" />
    <glyph glyph-name="guillemotright" unicode="&#xbb;" horiz-adv-x="410" 
d="M213 274l-147 -124v47l96 76l-96 78v46zM343 274l-147 -124v47l96 76l-96 78v46z" />
    <glyph glyph-name="guilsinglleft" unicode="&#x2039;" horiz-adv-x="280" 
d="M213 351l-95 -78l95 -76v-47l-147 124l147 123v-46z" />
    <glyph glyph-name="guilsinglright" unicode="&#x203a;" horiz-adv-x="280" 
d="M213 274l-147 -124v47l96 76l-96 78v46z" />
    <glyph glyph-name="quotedblbase" unicode="&#x201e;" horiz-adv-x="327" 
d="M169 57l-72 -162h-31l47 162h56zM260 57l-72 -162h-31l47 162h56z" />
    <glyph glyph-name="quotedblleft" unicode="&#x201c;" horiz-adv-x="327" 
d="M66 538l72 162h31l-47 -162h-56zM157 538l72 162h31l-47 -162h-56z" />
    <glyph glyph-name="quotedblright" unicode="&#x201d;" horiz-adv-x="327" 
d="M169 700l-72 -162h-31l47 162h56zM260 700l-72 -162h-31l47 162h56z" />
    <glyph glyph-name="quoteleft" unicode="&#x2018;" horiz-adv-x="236" 
d="M66 538l72 162h31l-47 -162h-56z" />
    <glyph glyph-name="quoteright" unicode="&#x2019;" horiz-adv-x="236" 
d="M169 700l-72 -162h-31l47 162h56z" />
    <glyph glyph-name="quotesinglbase" unicode="&#x201a;" horiz-adv-x="236" 
d="M169 57l-72 -162h-31l47 162h56z" />
    <glyph glyph-name="space" unicode=" " horiz-adv-x="309" 
 />
    <glyph glyph-name="cent" unicode="&#xa2;" horiz-adv-x="586" 
d="M332 463v-426c63 3 118 32 159 79l28 -30c-45 -54 -112 -89 -187 -92v-92h-34v93c-131 12 -232 121 -232 255s101 244 232 256v95h34v-94c75 -3 142 -38 187 -93l-28 -29c-41 47 -96 75 -159 78zM111 250c0 -113 82 -200 187 -212v424c-105 -12 -187 -99 -187 -212z" />
    <glyph glyph-name="currency" unicode="&#xa4;" horiz-adv-x="573" 
d="M503 482l-53 -53c69 -80 69 -199 0 -279l53 -53l-24 -24l-53 53c-80 -70 -199 -69 -279 0l-53 -53l-24 24l53 53c-69 80 -69 199 0 279l-53 53l24 24l53 -53c80 68 199 69 279 0l53 53zM178 164c67 -60 173 -55 233 16c60 72 51 174 -16 234c-68 60 -173 55 -233 -17
c-60 -71 -52 -173 16 -233z" />
    <glyph glyph-name="dollar" unicode="$" horiz-adv-x="664" 
d="M345 390l39 -5c140 -18 213 -73 213 -192c0 -122 -117 -200 -250 -200h-2v-47h-34v48c-123 8 -209 69 -245 157l31 29c30 -78 104 -133 214 -141v311l-17 2c-144 19 -210 70 -210 166c0 114 109 187 227 189v43h34v-43c93 -5 178 -46 227 -117l-31 -29
c-44 62 -117 96 -196 101v-272zM311 395v267c-88 -2 -179 -52 -179 -143c0 -69 46 -106 166 -122zM345 38h2c108 0 202 58 202 155c0 89 -55 132 -169 147l-35 5v-307z" />
    <glyph glyph-name="Euro" unicode="&#x20ac;" horiz-adv-x="843" 
d="M512 38c92 0 175 37 233 101l31 -31c-65 -71 -159 -115 -264 -115c-169 0 -309 116 -346 274h-100v33h93c-2 16 -3 33 -3 50c0 18 1 36 4 54h-94v32h100c39 156 179 271 346 271c105 0 199 -45 264 -117l-31 -29c-58 63 -141 101 -233 101c-143 0 -261 -94 -297 -226h386
l-18 -32h-375c-3 -17 -4 -36 -4 -54c0 -17 1 -34 4 -50h275l-19 -33h-250c35 -135 154 -229 298 -229z" />
    <glyph glyph-name="sterling" unicode="&#xa3;" horiz-adv-x="674" 
d="M422 323h-218c31 -192 32 -243 -41 -278h429v-45h-525v36c121 35 124 69 89 287h-90v45h83l-20 122c-23 167 105 217 222 217h12c100 0 191 -42 243 -117l-31 -29c-47 66 -128 101 -213 101h-12c-84 0 -195 -32 -172 -178l19 -116h225v-45z" />
    <glyph glyph-name="yen" unicode="&#xa5;" horiz-adv-x="731" 
d="M398 258h190v-34h-199v-28h199v-34h-199v-162h-48v162h-198v34h198v28h-198v34h188l-265 442h55l244 -401l244 401h55z" />
    <glyph glyph-name="approxequal" unicode="&#x2248;" horiz-adv-x="543" 
d="M66 296l43 57c36 50 96 42 139 17l62 -36c33 -19 78 -25 103 9l27 39h36l-43 -58c-36 -49 -96 -42 -140 -17l-61 36c-33 19 -79 25 -103 -9l-27 -38h-36zM476 255l-43 -57c-36 -50 -96 -43 -140 -17l-61 35c-33 20 -79 26 -103 -8l-27 -39h-36l43 57c36 50 96 43 139 18
l62 -36c33 -20 78 -26 103 9l27 38h36z" />
    <glyph glyph-name="asciitilde" unicode="~" horiz-adv-x="544" 
d="M477 326l-43 -61c-35 -50 -97 -42 -140 -17l-61 36c-33 19 -79 25 -103 -9l-27 -37h-37l43 62c35 50 97 42 140 17l61 -36c33 -19 79 -25 103 9l27 36h37z" />
    <glyph glyph-name="divide" unicode="&#xf7;" horiz-adv-x="547" 
d="M274 454c19 0 34 -14 34 -32c0 -17 -15 -31 -34 -31s-34 14 -34 31c0 18 15 32 34 32zM480 242h-414v32h414v-32zM274 121c19 0 34 -14 34 -32s-15 -32 -34 -32s-34 14 -34 32s15 32 34 32z" />
    <glyph glyph-name="emptyset" unicode="&#x2205;" horiz-adv-x="655" 
d="M581 481l-61 -61c40 -46 64 -105 64 -170c0 -142 -115 -256 -257 -256c-65 0 -124 24 -168 63l-63 -63l-24 24l62 63c-39 45 -63 104 -63 169c0 142 114 257 256 257c65 0 124 -24 169 -63l61 61zM117 250c0 -53 18 -101 49 -138l299 301c-37 32 -85 51 -137 51
c-116 0 -211 -93 -211 -214zM328 37c115 0 211 92 211 213c0 54 -19 102 -50 139l-299 -301c37 -32 85 -51 138 -51z" />
    <glyph glyph-name="equal" unicode="=" horiz-adv-x="547" 
d="M480 345h-414v34h414v-34zM480 200h-414v34h414v-34z" />
    <glyph glyph-name="greater" unicode="&#x3e;" horiz-adv-x="456" 
d="M389 342l-323 -203v46l246 156l-246 157v46z" />
    <glyph glyph-name="greaterequal" unicode="&#x2265;" horiz-adv-x="456" 
d="M389 314l-323 -202v45l246 157l-246 157v46zM389 0h-323v34h323v-34z" />
    <glyph glyph-name="infinity" unicode="&#x221e;" horiz-adv-x="721" 
d="M190 324h6c47 0 107 -32 164 -105c57 73 118 105 164 105h7c70 0 123 -58 123 -132v-11c0 -73 -53 -132 -123 -132h-7c-46 0 -107 32 -164 106c-57 -74 -117 -106 -164 -106h-6c-71 0 -124 50 -124 132v11c0 74 53 132 124 132zM202 291h-6c-57 0 -95 -47 -95 -100v-9
c0 -61 38 -100 95 -100h6c44 0 90 32 141 106c-50 72 -100 103 -141 103zM525 291h-6c-42 0 -91 -32 -141 -104c51 -76 101 -105 141 -105h6c57 0 95 48 95 100v9c0 53 -38 100 -95 100z" />
    <glyph glyph-name="integral" unicode="&#x222b;" horiz-adv-x="341" 
d="M274 705h-13c-60 0 -86 -49 -83 -98l33 -607c4 -75 -41 -140 -126 -140h-19v45h14c59 0 85 49 83 99l-33 607c-5 75 41 139 125 139h19v-45z" />
    <glyph glyph-name="less" unicode="&#x3c;" horiz-adv-x="456" 
d="M389 498l-246 -157l246 -156v-46l-323 203l323 202v-46z" />
    <glyph glyph-name="lessequal" unicode="&#x2264;" horiz-adv-x="456" 
d="M389 471l-246 -157l246 -157v-45l-323 202l323 203v-46zM389 0h-323v34h323v-34z" />
    <glyph glyph-name="logicalnot" unicode="&#xac;" horiz-adv-x="547" 
d="M446 285h-380v34h414v-154h-34v120z" />
    <glyph glyph-name="minus" unicode="&#x2212;" horiz-adv-x="547" 
d="M480 285h-414v34h414v-34z" />
    <glyph glyph-name="multiply" unicode="&#xd7;" horiz-adv-x="449" 
d="M382 436l-134 -134l134 -134l-24 -24l-134 134l-134 -134l-24 24l134 134l-134 134l24 25l134 -135l134 135z" />
    <glyph glyph-name="notequal" unicode="&#x2260;" horiz-adv-x="547" 
d="M314 345l-47 -111h213v-34h-227l-53 -125h-34l52 125h-152v34h167l46 111h-213v34h227l51 121h35l-51 -121h152v-34h-166z" />
    <glyph glyph-name="partialdiff" unicode="&#x2202;" horiz-adv-x="671" 
d="M368 707h7c205 0 253 -198 219 -380l-13 -72c-25 -143 -141 -262 -301 -262c-152 0 -233 108 -210 238c24 136 146 235 287 235c102 0 172 -52 194 -124c25 150 -9 320 -183 320h-7c-61 0 -114 -27 -156 -66l-26 29c43 45 110 82 189 82zM359 425
c-121 0 -221 -86 -240 -194s51 -193 171 -193c133 0 222 97 241 205c17 96 -52 182 -172 182z" />
    <glyph glyph-name="percent" unicode="%" horiz-adv-x="818" 
d="M234 707c93 0 168 -74 168 -166s-75 -166 -168 -166s-168 74 -168 166s75 166 168 166zM638 700l-422 -700h-37l421 700h38zM235 673c-78 0 -131 -54 -131 -132s53 -132 131 -132c77 0 131 54 131 132s-54 132 -131 132zM583 325c93 0 168 -74 168 -166
s-75 -166 -168 -166s-168 74 -168 166s75 166 168 166zM583 291c-78 0 -131 -54 -131 -132s53 -132 131 -132c77 0 131 54 131 132s-54 132 -131 132z" />
    <glyph glyph-name="perthousand" unicode="&#x2030;" horiz-adv-x="1201" 
d="M234 707c93 0 168 -74 168 -166s-75 -166 -168 -166s-168 74 -168 166s75 166 168 166zM216 0h-37l421 700h38zM235 673c-78 0 -131 -54 -131 -132s53 -132 131 -132c77 0 131 54 131 132s-54 132 -131 132zM583 325c93 0 168 -74 168 -166s-75 -166 -168 -166
s-168 74 -168 166s75 166 168 166zM967 325c93 0 168 -74 168 -166s-75 -166 -168 -166s-168 74 -168 166s75 166 168 166zM583 291c-78 0 -131 -54 -131 -132s53 -132 131 -132c77 0 131 54 131 132s-54 132 -131 132zM967 291c-78 0 -131 -54 -131 -132s53 -132 131 -132
c77 0 131 54 131 132s-54 132 -131 132z" />
    <glyph glyph-name="plus" unicode="+" horiz-adv-x="547" 
d="M291 319h189v-33h-189v-191h-36v191h-189v33h189v190h36v-190z" />
    <glyph glyph-name="plusminus" unicode="&#xb1;" horiz-adv-x="547" 
d="M291 374h189v-32h-189v-137h-36v137h-189v32h189v138h36v-138zM480 121h-414v34h414v-34z" />
    <glyph glyph-name="product" unicode="&#x220f;" horiz-adv-x="712" 
d="M579 655v-789h-48v789h-351v-789h-48v789h-66v45h579v-45h-66z" />
    <glyph glyph-name="radical" unicode="&#x221a;" horiz-adv-x="684" 
d="M346 0h-27l-170 449l-83 -26v39l120 38l156 -424l241 624h34z" />
    <glyph glyph-name="summation" unicode="&#x2211;" horiz-adv-x="579" 
d="M512 656h-368l255 -373l-255 -373h368v-45h-446l280 418l-279 417l445 1v-45z" />
    <glyph glyph-name="lozenge" unicode="&#x25ca;" horiz-adv-x="533" 
d="M266 -25l-200 262l200 263l200 -263zM266 441l-157 -204l157 -204l157 204z" />
    <glyph glyph-name="ampersand" unicode="&#x26;" horiz-adv-x="680" 
d="M560 0l-62 63c-42 -45 -109 -69 -189 -69h-6c-141 2 -237 75 -237 200c0 90 52 151 131 178l-49 50c-27 28 -45 65 -45 114c0 111 96 168 203 168h7c102 -1 200 -58 200 -168v-9h-46c0 95 -82 134 -160 134c-76 0 -158 -38 -158 -132c0 -39 13 -67 36 -91l309 -314
c14 24 22 52 22 85h38c0 -44 -11 -83 -31 -116l90 -93h-53zM310 38c67 0 123 20 157 59l-244 248c-66 -21 -110 -70 -110 -145c0 -105 84 -162 197 -162z" />
    <glyph glyph-name="asciicircum" unicode="^" horiz-adv-x="535" 
d="M468 378h-38l-163 249l-163 -249h-38l201 307z" />
    <glyph glyph-name="at" unicode="@" horiz-adv-x="944" 
d="M471 662c257 0 406 -180 406 -403v-147c0 -76 -43 -108 -101 -109c-46 1 -85 21 -90 81l-1 57c-37 -82 -121 -139 -218 -139c-137 0 -245 111 -245 248s108 249 245 249c95 0 178 -56 215 -137l1 130h32v-388c0 -54 29 -67 62 -68c32 0 61 12 61 76v146
c0 211 -135 369 -367 369c-199 0 -366 -159 -366 -371c0 -213 167 -370 366 -370c62 0 123 15 175 44l25 -26c-58 -34 -127 -54 -200 -54c-224 0 -405 181 -405 406c0 224 181 406 405 406zM470 460c-115 0 -208 -91 -208 -210s93 -210 208 -210c114 0 208 91 208 210
s-94 210 -208 210z" />
    <glyph glyph-name="bar" unicode="|" horiz-adv-x="169" 
d="M102 -60h-36v760h36v-760z" />
    <glyph glyph-name="brokenbar" unicode="&#xa6;" horiz-adv-x="169" 
d="M102 377h-36v323h36v-323zM102 -60h-36v322h36v-322z" />
    <glyph glyph-name="copyright" unicode="&#xa9;" horiz-adv-x="665" 
d="M332 700c152 0 266 -124 266 -270s-114 -270 -266 -270s-266 124 -266 270s114 270 266 270zM332 674c-138 0 -238 -110 -238 -244s100 -244 238 -244s239 110 239 244s-101 244 -239 244zM333 603c54 0 102 -25 133 -63l-20 -20c-29 30 -67 52 -113 52
c-73 0 -138 -64 -138 -142s65 -141 138 -141c46 0 84 24 112 53l21 -23c-32 -38 -79 -62 -133 -62c-95 0 -172 77 -172 173c0 95 77 173 172 173z" />
    <glyph glyph-name="dagger" unicode="&#x2020;" horiz-adv-x="392" 
d="M213 499h112v-32h-112v-527h-35v527h-112v32h112v201h35v-201z" />
    <glyph glyph-name="daggerdbl" unicode="&#x2021;" horiz-adv-x="392" 
d="M213 499h112v-32h-112v-292h112v-32h-112v-203h-35v203h-112v32h112v292h-112v32h112v201h35v-201z" />
    <glyph glyph-name="degree" unicode="&#xb0;" horiz-adv-x="373" 
d="M186 715c66 0 120 -54 120 -120c0 -67 -54 -121 -120 -121s-120 54 -120 121c0 66 54 120 120 120zM187 683c-48 0 -87 -38 -87 -88s39 -89 87 -89s87 39 87 89s-39 88 -87 88z" />
    <glyph glyph-name="uni2116" unicode="&#x2116;" horiz-adv-x="1336" 
d="M983 707c142 0 257 -115 257 -257s-115 -256 -257 -256s-256 114 -256 256s114 257 256 257zM636 0h-24l-448 600v-600h-48v700h25l447 -600v600h48v-700zM983 664c-116 0 -211 -93 -211 -214s95 -213 211 -213c115 0 211 92 211 213s-96 214 -211 214zM747 42h473v-42
h-473v42z" />
    <glyph glyph-name="paragraph" unicode="&#xb6;" horiz-adv-x="597" 
d="M530 666h-43v-829h-36v829h-107v-829h-36v471c-132 0 -242 51 -242 192s109 200 244 200h220v-34z" />
    <glyph glyph-name="registered" unicode="&#xae;" horiz-adv-x="665" 
d="M332 700c152 0 266 -124 266 -270s-114 -270 -266 -270s-266 124 -266 270s114 270 266 270zM332 674c-138 0 -238 -110 -238 -244s100 -244 238 -244s239 110 239 244s-101 244 -239 244zM190 595h177c86 0 117 -47 117 -103c0 -51 -29 -92 -98 -97l104 -130h-37
l-103 126h-127v-126h-33v330zM223 565v-145h145c59 0 83 33 83 72c0 41 -24 73 -83 73h-145z" />
    <glyph glyph-name="section" unicode="&#xa7;" horiz-adv-x="547" 
d="M265 624h14c70 0 151 -36 190 -93l-28 -26c-33 50 -105 81 -161 81h-9c-79 -1 -142 -36 -142 -96c0 -39 14 -75 112 -86l71 -8c81 -6 168 -41 168 -142c0 -45 -21 -80 -55 -104c28 -22 38 -52 38 -84c0 -84 -82 -134 -182 -135h-14c-70 0 -151 36 -190 93l28 26
c33 -50 106 -81 161 -81h9c79 1 142 36 142 96c0 39 -14 75 -112 86l-71 8c-76 6 -168 38 -168 142c0 45 21 80 55 104c-28 22 -37 52 -37 84c0 84 82 134 181 135zM162 383c-30 -17 -50 -44 -50 -81c0 -73 63 -96 120 -102l71 -8c35 -4 62 -11 82 -20c30 17 50 44 50 81
c0 73 -63 96 -120 102l-71 8c-35 4 -62 11 -82 20z" />
    <glyph glyph-name="trademark" unicode="&#x2122;" horiz-adv-x="768" 
d="M223 668v-278h-35v278h-122v32h280v-32h-123zM702 390h-35v248l-128 -142l-128 142v-248h-35v310h18l145 -159l145 159h18v-310z" />
    <glyph glyph-name="acute" unicode="&#xb4;" horiz-adv-x="263" 
d="M106 607h-40l66 102h64z" />
    <glyph glyph-name="breve" unicode="&#x2d8;" horiz-adv-x="405" 
d="M303 709h35c0 -68 -60 -119 -136 -119s-136 51 -136 119h35c0 -48 44 -84 101 -84s101 36 101 84z" />
    <glyph glyph-name="caron" unicode="&#x2c7;" horiz-adv-x="400" 
d="M219 601h-38l-115 107h46l88 -69l87 69h46z" />
    <glyph glyph-name="cedilla" unicode="&#xb8;" horiz-adv-x="251" 
d="M118 0l-11 -47c39 11 77 -9 77 -58c0 -51 -59 -78 -118 -42v23c39 -29 84 -14 84 20c0 33 -28 48 -74 29l19 75h23z" />
    <glyph glyph-name="circumflex" unicode="&#x2c6;" horiz-adv-x="400" 
d="M287 601l-87 70l-88 -70h-46l115 108h38l114 -108h-46z" />
    <glyph glyph-name="dieresis" unicode="&#xa8;" horiz-adv-x="397" 
d="M96 658c-17 0 -30 13 -30 28c0 16 13 29 30 29s30 -13 30 -29c0 -15 -13 -28 -30 -28zM300 658c-17 0 -30 13 -30 28c0 16 13 29 30 29s30 -13 30 -29c0 -15 -13 -28 -30 -28z" />
    <glyph glyph-name="dotaccent" unicode="&#x2d9;" horiz-adv-x="193" 
d="M96 659c-17 0 -30 12 -30 28c0 15 13 28 30 28s30 -13 30 -28c0 -16 -13 -28 -30 -28z" />
    <glyph glyph-name="grave" unicode="`" horiz-adv-x="263" 
d="M130 709l66 -102h-39l-91 102h64z" />
    <glyph glyph-name="hungarumlaut" unicode="&#x2dd;" horiz-adv-x="383" 
d="M106 607h-40l66 102h64zM226 607h-40l66 102h64z" />
    <glyph glyph-name="macron" unicode="&#xaf;" horiz-adv-x="383" 
d="M316 673h-250v36h250v-36z" />
    <glyph glyph-name="ogonek" unicode="&#x2db;" horiz-adv-x="236" 
d="M145 0h24c-56 -19 -75 -46 -75 -75c0 -39 33 -57 67 -57h6v-33h-5c-48 0 -96 25 -96 82c0 39 28 67 79 83z" />
    <glyph glyph-name="ring" unicode="&#x2da;" horiz-adv-x="286" 
d="M142 715c43 0 77 -35 77 -76c0 -44 -34 -78 -77 -78s-76 34 -76 78c0 41 33 76 76 76zM143 686c-28 0 -46 -23 -46 -48c0 -26 18 -48 46 -48c27 0 46 22 46 48c0 25 -19 48 -46 48z" />
    <glyph glyph-name="tilde" unicode="&#x2dc;" horiz-adv-x="413" 
d="M346 700l-15 -42c-13 -39 -32 -60 -63 -61c-21 -1 -37 9 -50 22l-39 39c-10 10 -21 16 -35 16c-23 -1 -33 -15 -42 -44l-7 -25h-29l14 42c13 39 32 60 63 61c22 1 38 -9 50 -22l39 -39c10 -10 21 -16 35 -16c23 1 33 15 42 44l7 25h30z" />
    <glyph glyph-name="commaaccentcomb" unicode="&#x326;" horiz-adv-x="0" 
d="M106 -250h-40l66 102h64z" />
    </font>
</defs>
</svg>
